%
M48
M72
T01C0.0138
T02C0.0354
T03C0.0400
%
T01
X1311Y1311
X4461Y4461
X8004Y9973
X8384Y10604
X8684Y9614
X9644Y10214
X10154Y10244
X10394Y11534
X11234Y11114
X11234Y10604
X11234Y10124
X10484Y8954
X9914Y6974
X10124Y6464
X9314Y6074
X8398Y6429
X10366Y1311
X11564Y6134
X16272Y4461
X19421Y1311
X16424Y10784
X14303Y15484
X14697Y16272
X13516Y16272
X12335Y16272
X10666Y17640
X10066Y17640
X10966Y19740
X8398Y16272
X7217Y16272
X6036Y16272
X4854Y16272
X3673Y16272
X2492Y16272
X1311Y16272
X1311Y15091
X15878Y16272
X17059Y16272
X18240Y16272
X19421Y16272
X19421Y15091
T02
X18790Y11760
X18690Y10760
X18790Y9760
X17690Y9760
X17790Y10760
X17690Y11760
T03
X4961Y12728
X3961Y12728
X3961Y10366
X4961Y10366
X4961Y8004
X3961Y8004
M30
