G75*
%MOIN*%
%OFA0B0*%
%FSLAX25Y25*%
%IPPOS*%
%LPD*%
%AMOC8*
5,1,8,0,0,1.08239X$1,22.5*
%
%ADD10R,0.15126X0.00445*%
%ADD11R,0.02224X0.00445*%
%ADD12R,0.06228X0.00445*%
%ADD13R,0.08898X0.00445*%
%ADD14R,0.04004X0.00445*%
%ADD15R,0.04894X0.00445*%
%ADD16R,0.02669X0.00445*%
%ADD17R,0.04449X0.00445*%
%ADD18R,0.01780X0.00445*%
%ADD19R,0.06673X0.00445*%
%ADD20R,0.08453X0.00445*%
%ADD21R,0.12902X0.00445*%
%ADD22R,0.11122X0.00445*%
%ADD23R,0.10677X0.00445*%
%ADD24R,0.20020X0.00445*%
%ADD25R,0.19575X0.00445*%
%ADD26R,0.13346X0.00445*%
%ADD27R,0.07118X0.00445*%
%ADD28R,0.15571X0.00445*%
%ADD29R,0.17350X0.00445*%
%ADD30C,0.00400*%
%ADD31C,0.01969*%
%ADD32C,0.00472*%
%ADD33C,0.00600*%
%ADD34C,0.00500*%
%ADD35R,0.00591X0.01181*%
%ADD36R,0.01181X0.01181*%
D10*
X0053952Y0220560D03*
X0053952Y0221005D03*
X0053952Y0221450D03*
X0053952Y0221894D03*
X0053952Y0233461D03*
X0053952Y0233906D03*
X0053952Y0234351D03*
X0053952Y0234796D03*
X0053952Y0235241D03*
X0095326Y0297080D03*
X0095326Y0297524D03*
X0095326Y0297969D03*
X0095326Y0298414D03*
X0095326Y0298859D03*
X0080200Y0309981D03*
X0080200Y0310426D03*
X0080200Y0310871D03*
X0080200Y0311316D03*
X0080200Y0311761D03*
X0053952Y0321103D03*
X0053952Y0321548D03*
X0053952Y0321993D03*
X0053952Y0322438D03*
X0053952Y0322883D03*
X0053952Y0334005D03*
X0053952Y0334450D03*
X0053952Y0334894D03*
X0053952Y0335339D03*
X0053952Y0335784D03*
X0106448Y0239690D03*
X0106448Y0239245D03*
X0106448Y0238800D03*
X0106448Y0238355D03*
X0106448Y0237910D03*
X0154495Y0321103D03*
X0154495Y0321548D03*
X0154495Y0321993D03*
X0154495Y0322438D03*
X0154495Y0322883D03*
X0154495Y0334005D03*
X0154495Y0334450D03*
X0154495Y0334894D03*
X0154495Y0335339D03*
X0154495Y0335784D03*
D11*
X0160946Y0333560D03*
X0160946Y0333115D03*
X0160946Y0332670D03*
X0160946Y0332225D03*
X0160946Y0331780D03*
X0160946Y0331335D03*
X0160946Y0330891D03*
X0160946Y0330446D03*
X0160946Y0330001D03*
X0160946Y0329556D03*
X0160946Y0329111D03*
X0160946Y0328666D03*
X0160946Y0328221D03*
X0160946Y0327776D03*
X0160946Y0327331D03*
X0160946Y0326887D03*
X0160946Y0326442D03*
X0160946Y0325997D03*
X0160946Y0325552D03*
X0160946Y0325107D03*
X0160946Y0324662D03*
X0160946Y0324217D03*
X0160946Y0323772D03*
X0160946Y0323328D03*
X0158721Y0316209D03*
X0158721Y0315765D03*
X0158721Y0315320D03*
X0158721Y0314875D03*
X0158721Y0314430D03*
X0158721Y0302863D03*
X0158721Y0302418D03*
X0158721Y0301973D03*
X0158721Y0301528D03*
X0160946Y0298859D03*
X0160946Y0298414D03*
X0160946Y0297969D03*
X0160946Y0297524D03*
X0160946Y0297080D03*
X0158721Y0296635D03*
X0158721Y0296190D03*
X0158721Y0295745D03*
X0158721Y0295300D03*
X0158721Y0294855D03*
X0154717Y0288182D03*
X0150269Y0288182D03*
X0150269Y0288627D03*
X0150269Y0289072D03*
X0150269Y0289517D03*
X0150269Y0289961D03*
X0150269Y0292631D03*
X0150269Y0293076D03*
X0150269Y0293520D03*
X0150269Y0293965D03*
X0150269Y0294410D03*
X0148044Y0294855D03*
X0148044Y0295300D03*
X0148044Y0295745D03*
X0148044Y0296190D03*
X0148044Y0296635D03*
X0145820Y0297080D03*
X0145820Y0297524D03*
X0145820Y0297969D03*
X0145820Y0298414D03*
X0145820Y0298859D03*
X0148044Y0299304D03*
X0148044Y0299749D03*
X0148044Y0300194D03*
X0148044Y0300639D03*
X0148044Y0301083D03*
X0150269Y0298859D03*
X0150269Y0298414D03*
X0150269Y0297969D03*
X0150269Y0297524D03*
X0150269Y0297080D03*
X0145820Y0292186D03*
X0145820Y0291741D03*
X0145820Y0291296D03*
X0145820Y0290851D03*
X0145820Y0290406D03*
X0145820Y0289961D03*
X0145820Y0289517D03*
X0145820Y0289072D03*
X0145820Y0288627D03*
X0145820Y0288182D03*
X0148044Y0287737D03*
X0148044Y0287292D03*
X0148044Y0286847D03*
X0148044Y0286402D03*
X0148044Y0285957D03*
X0148044Y0285513D03*
X0148044Y0285068D03*
X0148044Y0284623D03*
X0148044Y0284178D03*
X0148044Y0283733D03*
X0148044Y0278839D03*
X0148044Y0278394D03*
X0148044Y0277950D03*
X0148044Y0277505D03*
X0145820Y0272611D03*
X0145820Y0272166D03*
X0145820Y0271721D03*
X0145820Y0271276D03*
X0145820Y0270831D03*
X0145820Y0270387D03*
X0145820Y0269942D03*
X0145820Y0269497D03*
X0145820Y0269052D03*
X0145820Y0268607D03*
X0143595Y0274835D03*
X0143595Y0275280D03*
X0143595Y0275725D03*
X0143595Y0276170D03*
X0143595Y0276615D03*
X0143595Y0277060D03*
X0139146Y0276615D03*
X0139146Y0276170D03*
X0139146Y0275725D03*
X0139146Y0275280D03*
X0139146Y0270387D03*
X0139146Y0269942D03*
X0139146Y0269497D03*
X0139146Y0269052D03*
X0139146Y0268607D03*
X0141371Y0261489D03*
X0141371Y0261044D03*
X0141371Y0260599D03*
X0141371Y0260154D03*
X0141371Y0259709D03*
X0139146Y0257040D03*
X0139146Y0256595D03*
X0139146Y0256150D03*
X0139146Y0255706D03*
X0139146Y0255261D03*
X0139146Y0244139D03*
X0139146Y0243694D03*
X0139146Y0243249D03*
X0139146Y0242804D03*
X0139146Y0242359D03*
X0143595Y0237465D03*
X0143595Y0237020D03*
X0143595Y0236576D03*
X0143595Y0236131D03*
X0143595Y0235686D03*
X0148044Y0235241D03*
X0148044Y0234796D03*
X0148044Y0234351D03*
X0148044Y0233906D03*
X0148044Y0233461D03*
X0152493Y0226343D03*
X0152493Y0225898D03*
X0152493Y0225454D03*
X0152493Y0225009D03*
X0158721Y0224119D03*
X0158721Y0223674D03*
X0158721Y0223229D03*
X0158721Y0222784D03*
X0158721Y0240135D03*
X0158721Y0240580D03*
X0158721Y0241024D03*
X0158721Y0241469D03*
X0154272Y0241914D03*
X0152493Y0249032D03*
X0152493Y0249477D03*
X0152493Y0249922D03*
X0152493Y0250367D03*
X0148044Y0246363D03*
X0148044Y0245918D03*
X0148044Y0245473D03*
X0148044Y0245028D03*
X0148044Y0244583D03*
X0139146Y0230792D03*
X0139146Y0230347D03*
X0139146Y0229902D03*
X0139146Y0229457D03*
X0139146Y0229013D03*
X0139146Y0228568D03*
X0139146Y0228123D03*
X0139146Y0227678D03*
X0139146Y0227233D03*
X0139146Y0226788D03*
X0132473Y0240135D03*
X0132473Y0240580D03*
X0132473Y0241024D03*
X0132473Y0241469D03*
X0132473Y0249032D03*
X0132473Y0249477D03*
X0132473Y0249922D03*
X0132473Y0250367D03*
X0128024Y0250812D03*
X0126245Y0241469D03*
X0126245Y0241024D03*
X0126245Y0240580D03*
X0126245Y0240135D03*
X0124020Y0237465D03*
X0124020Y0237020D03*
X0124020Y0236576D03*
X0124020Y0236131D03*
X0124020Y0235686D03*
X0126245Y0235241D03*
X0126245Y0234796D03*
X0126245Y0234351D03*
X0126245Y0233906D03*
X0126245Y0233461D03*
X0121796Y0233017D03*
X0121796Y0232572D03*
X0121796Y0232127D03*
X0121796Y0231682D03*
X0121796Y0231237D03*
X0119572Y0230792D03*
X0119572Y0230347D03*
X0119572Y0229902D03*
X0119572Y0229457D03*
X0119572Y0229013D03*
X0119572Y0228568D03*
X0119572Y0228123D03*
X0119572Y0227678D03*
X0119572Y0227233D03*
X0119572Y0226788D03*
X0121796Y0226343D03*
X0121796Y0225898D03*
X0121796Y0225454D03*
X0121796Y0225009D03*
X0124020Y0224119D03*
X0124020Y0223674D03*
X0124020Y0223229D03*
X0124020Y0222784D03*
X0126245Y0225009D03*
X0126245Y0225454D03*
X0126245Y0225898D03*
X0126245Y0226343D03*
X0119572Y0221894D03*
X0119572Y0221450D03*
X0119572Y0221005D03*
X0119572Y0220560D03*
X0115123Y0220560D03*
X0115123Y0221005D03*
X0115123Y0221450D03*
X0115123Y0221894D03*
X0110674Y0222784D03*
X0110674Y0223229D03*
X0110674Y0223674D03*
X0110674Y0224119D03*
X0110674Y0224564D03*
X0110674Y0225009D03*
X0110674Y0225454D03*
X0110674Y0225898D03*
X0110674Y0226343D03*
X0108450Y0226788D03*
X0108450Y0227233D03*
X0108450Y0227678D03*
X0108450Y0228123D03*
X0108450Y0228568D03*
X0106225Y0226343D03*
X0106225Y0225898D03*
X0106225Y0225454D03*
X0106225Y0225009D03*
X0106225Y0224564D03*
X0108450Y0221894D03*
X0108450Y0221450D03*
X0108450Y0221005D03*
X0108450Y0220560D03*
X0112898Y0229013D03*
X0112898Y0229457D03*
X0112898Y0229902D03*
X0112898Y0230347D03*
X0112898Y0230792D03*
X0112898Y0235686D03*
X0112898Y0236131D03*
X0112898Y0236576D03*
X0112898Y0237020D03*
X0112898Y0237465D03*
X0112898Y0242359D03*
X0112898Y0242804D03*
X0112898Y0243249D03*
X0112898Y0243694D03*
X0112898Y0244139D03*
X0110674Y0246808D03*
X0110674Y0247253D03*
X0110674Y0247698D03*
X0110674Y0248143D03*
X0112898Y0249032D03*
X0112898Y0249477D03*
X0112898Y0249922D03*
X0112898Y0250367D03*
X0112898Y0250812D03*
X0112898Y0251257D03*
X0112898Y0251702D03*
X0112898Y0252146D03*
X0112898Y0252591D03*
X0110674Y0255261D03*
X0110674Y0255706D03*
X0110674Y0256150D03*
X0110674Y0256595D03*
X0110674Y0257040D03*
X0115123Y0257040D03*
X0115123Y0256595D03*
X0115123Y0256150D03*
X0115123Y0255706D03*
X0115123Y0255261D03*
X0115123Y0257485D03*
X0115123Y0257930D03*
X0115123Y0258375D03*
X0115123Y0258820D03*
X0115123Y0259265D03*
X0119572Y0250367D03*
X0119572Y0249922D03*
X0119572Y0249477D03*
X0119572Y0249032D03*
X0119572Y0246363D03*
X0119572Y0245918D03*
X0119572Y0245473D03*
X0119572Y0245028D03*
X0119572Y0244583D03*
X0115123Y0246808D03*
X0115123Y0247253D03*
X0115123Y0247698D03*
X0115123Y0248143D03*
X0117347Y0237465D03*
X0117347Y0237020D03*
X0117347Y0236576D03*
X0117347Y0236131D03*
X0117347Y0235686D03*
X0108450Y0235686D03*
X0108450Y0236131D03*
X0108450Y0236576D03*
X0108450Y0237020D03*
X0108450Y0237465D03*
X0106225Y0246808D03*
X0106225Y0247253D03*
X0106225Y0247698D03*
X0106225Y0248143D03*
X0106225Y0251257D03*
X0106225Y0251702D03*
X0106225Y0252146D03*
X0106225Y0252591D03*
X0106225Y0259709D03*
X0106225Y0260154D03*
X0106225Y0260599D03*
X0106225Y0261044D03*
X0106225Y0261489D03*
X0099997Y0274835D03*
X0097772Y0272611D03*
X0097772Y0272166D03*
X0097772Y0271721D03*
X0097772Y0271276D03*
X0097772Y0270831D03*
X0097772Y0267717D03*
X0097772Y0267272D03*
X0097772Y0266828D03*
X0097772Y0266383D03*
X0093324Y0265938D03*
X0093324Y0265493D03*
X0093324Y0265048D03*
X0093324Y0264603D03*
X0093324Y0264158D03*
X0091099Y0257040D03*
X0091099Y0256595D03*
X0091099Y0256150D03*
X0091099Y0255706D03*
X0091099Y0255261D03*
X0091099Y0252591D03*
X0091099Y0252146D03*
X0091099Y0251702D03*
X0091099Y0251257D03*
X0088875Y0246363D03*
X0088875Y0245918D03*
X0088875Y0245473D03*
X0088875Y0245028D03*
X0088875Y0244583D03*
X0091099Y0244139D03*
X0091099Y0243694D03*
X0091099Y0243249D03*
X0091099Y0242804D03*
X0091099Y0242359D03*
X0093324Y0241914D03*
X0093324Y0241469D03*
X0093324Y0241024D03*
X0093324Y0240580D03*
X0093324Y0240135D03*
X0095548Y0242359D03*
X0095548Y0242804D03*
X0095548Y0243249D03*
X0095548Y0243694D03*
X0095548Y0244139D03*
X0093324Y0244583D03*
X0093324Y0245028D03*
X0093324Y0245473D03*
X0093324Y0245918D03*
X0093324Y0246363D03*
X0095548Y0246808D03*
X0095548Y0247253D03*
X0095548Y0247698D03*
X0095548Y0248143D03*
X0095548Y0251257D03*
X0095548Y0251702D03*
X0095548Y0252146D03*
X0095548Y0252591D03*
X0097772Y0255706D03*
X0097772Y0256150D03*
X0097772Y0256595D03*
X0097772Y0257040D03*
X0108450Y0277505D03*
X0108450Y0277950D03*
X0108450Y0278394D03*
X0108450Y0278839D03*
X0112898Y0278839D03*
X0112898Y0278394D03*
X0112898Y0277950D03*
X0112898Y0277505D03*
X0112898Y0277060D03*
X0112898Y0281509D03*
X0112898Y0281954D03*
X0112898Y0282398D03*
X0112898Y0282843D03*
X0112898Y0283288D03*
X0112898Y0283733D03*
X0112898Y0284178D03*
X0112898Y0284623D03*
X0112898Y0285068D03*
X0112898Y0285513D03*
X0115123Y0290406D03*
X0115123Y0290851D03*
X0115123Y0291296D03*
X0115123Y0291741D03*
X0115123Y0292186D03*
X0115123Y0292631D03*
X0115123Y0293076D03*
X0115123Y0293520D03*
X0115123Y0293965D03*
X0115123Y0294410D03*
X0115123Y0294855D03*
X0115123Y0295300D03*
X0115123Y0295745D03*
X0115123Y0296190D03*
X0115123Y0296635D03*
X0112898Y0297080D03*
X0112898Y0297524D03*
X0112898Y0297969D03*
X0112898Y0298414D03*
X0112898Y0298859D03*
X0115123Y0299304D03*
X0115123Y0299749D03*
X0115123Y0300194D03*
X0115123Y0300639D03*
X0115123Y0301083D03*
X0115123Y0301528D03*
X0115123Y0301973D03*
X0115123Y0302418D03*
X0115123Y0302863D03*
X0112898Y0303753D03*
X0112898Y0304198D03*
X0112898Y0304643D03*
X0112898Y0305087D03*
X0110674Y0305977D03*
X0110674Y0306422D03*
X0110674Y0306867D03*
X0110674Y0307312D03*
X0110674Y0302863D03*
X0110674Y0302418D03*
X0110674Y0301973D03*
X0110674Y0301528D03*
X0110674Y0296635D03*
X0110674Y0296190D03*
X0110674Y0295745D03*
X0110674Y0295300D03*
X0110674Y0294855D03*
X0106225Y0294410D03*
X0106225Y0293965D03*
X0106225Y0293520D03*
X0106225Y0293076D03*
X0106225Y0292631D03*
X0106225Y0297080D03*
X0106225Y0297524D03*
X0106225Y0297969D03*
X0106225Y0298414D03*
X0106225Y0298859D03*
X0106225Y0299304D03*
X0106225Y0299749D03*
X0106225Y0300194D03*
X0106225Y0300639D03*
X0106225Y0308202D03*
X0106225Y0308646D03*
X0106225Y0309091D03*
X0106225Y0309536D03*
X0106225Y0314430D03*
X0106225Y0314875D03*
X0106225Y0315320D03*
X0106225Y0315765D03*
X0106225Y0316209D03*
X0108450Y0321103D03*
X0108450Y0321548D03*
X0108450Y0321993D03*
X0108450Y0322438D03*
X0108450Y0322883D03*
X0112898Y0322883D03*
X0112898Y0322438D03*
X0112898Y0321993D03*
X0112898Y0321548D03*
X0112898Y0321103D03*
X0115123Y0320658D03*
X0115123Y0320213D03*
X0115123Y0319769D03*
X0115123Y0319324D03*
X0115123Y0318879D03*
X0117347Y0321103D03*
X0117347Y0321548D03*
X0117347Y0321993D03*
X0117347Y0322438D03*
X0117347Y0322883D03*
X0117347Y0323328D03*
X0117347Y0323772D03*
X0117347Y0324217D03*
X0117347Y0324662D03*
X0117347Y0325107D03*
X0117347Y0325552D03*
X0117347Y0325997D03*
X0117347Y0326442D03*
X0117347Y0326887D03*
X0117347Y0327331D03*
X0119572Y0327776D03*
X0119572Y0328221D03*
X0119572Y0328666D03*
X0119572Y0329111D03*
X0121796Y0324662D03*
X0121796Y0324217D03*
X0121796Y0323772D03*
X0121796Y0323328D03*
X0121796Y0322883D03*
X0121796Y0322438D03*
X0121796Y0321993D03*
X0121796Y0321548D03*
X0121796Y0321103D03*
X0119572Y0318434D03*
X0119572Y0317989D03*
X0119572Y0317544D03*
X0119572Y0317099D03*
X0119572Y0316654D03*
X0119572Y0313985D03*
X0119572Y0313540D03*
X0119572Y0313095D03*
X0119572Y0312650D03*
X0119572Y0312206D03*
X0124020Y0312206D03*
X0124020Y0312650D03*
X0124020Y0313095D03*
X0124020Y0313540D03*
X0124020Y0313985D03*
X0126245Y0321103D03*
X0126245Y0321548D03*
X0126245Y0321993D03*
X0126245Y0322438D03*
X0126245Y0322883D03*
X0128024Y0327331D03*
X0132473Y0334005D03*
X0132473Y0334450D03*
X0132473Y0334894D03*
X0132473Y0335339D03*
X0132473Y0335784D03*
X0134698Y0322883D03*
X0134698Y0322438D03*
X0134698Y0321993D03*
X0134698Y0321548D03*
X0134698Y0321103D03*
X0139146Y0321103D03*
X0139146Y0321548D03*
X0139146Y0321993D03*
X0139146Y0322438D03*
X0139146Y0322883D03*
X0139146Y0323328D03*
X0139146Y0323772D03*
X0139146Y0324217D03*
X0139146Y0324662D03*
X0139146Y0325107D03*
X0141371Y0330001D03*
X0141371Y0330446D03*
X0141371Y0330891D03*
X0141371Y0331335D03*
X0143595Y0329111D03*
X0143595Y0328666D03*
X0143595Y0328221D03*
X0143595Y0327776D03*
X0143595Y0322883D03*
X0143595Y0322438D03*
X0143595Y0321993D03*
X0143595Y0321548D03*
X0143595Y0321103D03*
X0145820Y0316209D03*
X0145820Y0315765D03*
X0145820Y0315320D03*
X0145820Y0314875D03*
X0145820Y0314430D03*
X0148044Y0323328D03*
X0148044Y0323772D03*
X0148044Y0324217D03*
X0148044Y0324662D03*
X0148044Y0325107D03*
X0148044Y0325552D03*
X0148044Y0325997D03*
X0148044Y0326442D03*
X0148044Y0326887D03*
X0148044Y0327331D03*
X0148044Y0327776D03*
X0148044Y0328221D03*
X0148044Y0328666D03*
X0148044Y0329111D03*
X0148044Y0329556D03*
X0148044Y0330001D03*
X0148044Y0330446D03*
X0148044Y0330891D03*
X0148044Y0331335D03*
X0148044Y0331780D03*
X0148044Y0332225D03*
X0148044Y0332670D03*
X0148044Y0333115D03*
X0148044Y0333560D03*
X0141371Y0305087D03*
X0141371Y0304643D03*
X0141371Y0304198D03*
X0141371Y0303753D03*
X0141371Y0303308D03*
X0143595Y0301083D03*
X0143595Y0300639D03*
X0143595Y0300194D03*
X0143595Y0299749D03*
X0143595Y0299304D03*
X0143595Y0294410D03*
X0143595Y0293965D03*
X0143595Y0293520D03*
X0143595Y0293076D03*
X0143595Y0292631D03*
X0136922Y0292631D03*
X0136922Y0293076D03*
X0136922Y0293520D03*
X0136922Y0293965D03*
X0136922Y0294410D03*
X0136922Y0299304D03*
X0136922Y0299749D03*
X0136922Y0300194D03*
X0136922Y0300639D03*
X0136922Y0301083D03*
X0132473Y0301528D03*
X0132473Y0301973D03*
X0132473Y0302418D03*
X0132473Y0302863D03*
X0128469Y0303308D03*
X0124020Y0302863D03*
X0124020Y0302418D03*
X0124020Y0301973D03*
X0124020Y0301528D03*
X0124020Y0298859D03*
X0124020Y0298414D03*
X0124020Y0297969D03*
X0124020Y0297524D03*
X0124020Y0297080D03*
X0124020Y0296635D03*
X0124020Y0296190D03*
X0124020Y0295745D03*
X0124020Y0295300D03*
X0124020Y0294855D03*
X0126245Y0294410D03*
X0126245Y0293965D03*
X0126245Y0293520D03*
X0126245Y0293076D03*
X0126245Y0292631D03*
X0124020Y0289961D03*
X0124020Y0289517D03*
X0124020Y0289072D03*
X0124020Y0288627D03*
X0124020Y0288182D03*
X0119572Y0288182D03*
X0119572Y0288627D03*
X0119572Y0289072D03*
X0119572Y0289517D03*
X0119572Y0289961D03*
X0119572Y0294855D03*
X0119572Y0295300D03*
X0119572Y0295745D03*
X0119572Y0296190D03*
X0119572Y0296635D03*
X0119572Y0297080D03*
X0119572Y0297524D03*
X0119572Y0297969D03*
X0119572Y0298414D03*
X0119572Y0298859D03*
X0119572Y0299304D03*
X0119572Y0299749D03*
X0119572Y0300194D03*
X0119572Y0300639D03*
X0119572Y0301083D03*
X0119572Y0303753D03*
X0119572Y0304198D03*
X0119572Y0304643D03*
X0119572Y0305087D03*
X0117347Y0305532D03*
X0117347Y0305977D03*
X0117347Y0306422D03*
X0117347Y0306867D03*
X0117347Y0307312D03*
X0115123Y0307757D03*
X0115123Y0308202D03*
X0115123Y0308646D03*
X0115123Y0309091D03*
X0115123Y0309536D03*
X0112898Y0312206D03*
X0112898Y0312650D03*
X0112898Y0313095D03*
X0112898Y0313540D03*
X0112898Y0313985D03*
X0104001Y0331780D03*
X0097772Y0331335D03*
X0097772Y0330891D03*
X0097772Y0330446D03*
X0097772Y0330001D03*
X0097772Y0334450D03*
X0097772Y0334894D03*
X0097772Y0335339D03*
X0097772Y0335784D03*
X0093324Y0335784D03*
X0093324Y0335339D03*
X0093324Y0334894D03*
X0093324Y0334450D03*
X0093324Y0331335D03*
X0093324Y0330891D03*
X0093324Y0330446D03*
X0093324Y0330001D03*
X0095548Y0325107D03*
X0095548Y0324662D03*
X0095548Y0324217D03*
X0095548Y0323772D03*
X0095548Y0323328D03*
X0095548Y0322883D03*
X0095548Y0322438D03*
X0095548Y0321993D03*
X0095548Y0321548D03*
X0095548Y0321103D03*
X0097772Y0313985D03*
X0097772Y0313540D03*
X0097772Y0313095D03*
X0097772Y0312650D03*
X0097772Y0312206D03*
X0101776Y0312206D03*
X0097772Y0305087D03*
X0097772Y0304643D03*
X0097772Y0304198D03*
X0097772Y0303753D03*
X0095548Y0305532D03*
X0095548Y0305977D03*
X0095548Y0306422D03*
X0095548Y0306867D03*
X0095548Y0307312D03*
X0093324Y0296635D03*
X0093324Y0296190D03*
X0093324Y0295745D03*
X0093324Y0295300D03*
X0093324Y0294855D03*
X0091099Y0287737D03*
X0091099Y0287292D03*
X0091099Y0286847D03*
X0091099Y0286402D03*
X0091099Y0285957D03*
X0088875Y0285513D03*
X0088875Y0285068D03*
X0088875Y0284623D03*
X0088875Y0284178D03*
X0088875Y0283733D03*
X0084426Y0283288D03*
X0084426Y0282843D03*
X0084426Y0282398D03*
X0084426Y0281954D03*
X0084426Y0281509D03*
X0084426Y0272611D03*
X0084426Y0272166D03*
X0084426Y0271721D03*
X0084426Y0271276D03*
X0084426Y0270831D03*
X0084426Y0263713D03*
X0084426Y0263269D03*
X0084426Y0262824D03*
X0084426Y0262379D03*
X0084426Y0261934D03*
X0086650Y0261489D03*
X0086650Y0261044D03*
X0086650Y0260599D03*
X0086650Y0260154D03*
X0086650Y0259709D03*
X0079977Y0257040D03*
X0079977Y0256595D03*
X0079977Y0256150D03*
X0079977Y0255706D03*
X0079977Y0255261D03*
X0071524Y0250367D03*
X0071524Y0249922D03*
X0071524Y0249477D03*
X0071524Y0249032D03*
X0069300Y0257485D03*
X0069300Y0257930D03*
X0069300Y0258375D03*
X0069300Y0258820D03*
X0069300Y0259265D03*
X0064851Y0259265D03*
X0064851Y0258820D03*
X0064851Y0258375D03*
X0064851Y0257930D03*
X0064851Y0257485D03*
X0064851Y0266383D03*
X0064851Y0266828D03*
X0064851Y0267272D03*
X0064851Y0267717D03*
X0064851Y0268162D03*
X0062627Y0270831D03*
X0062627Y0271276D03*
X0062627Y0271721D03*
X0062627Y0272166D03*
X0062627Y0272611D03*
X0064851Y0274835D03*
X0064851Y0275280D03*
X0064851Y0275725D03*
X0064851Y0276170D03*
X0064851Y0276615D03*
X0064851Y0277060D03*
X0064851Y0277505D03*
X0064851Y0277950D03*
X0064851Y0278394D03*
X0064851Y0278839D03*
X0067076Y0272611D03*
X0067076Y0272166D03*
X0067076Y0271721D03*
X0067076Y0271276D03*
X0067076Y0270831D03*
X0069300Y0273056D03*
X0069300Y0273501D03*
X0069300Y0273946D03*
X0069300Y0274391D03*
X0071524Y0272166D03*
X0071524Y0271721D03*
X0071524Y0271276D03*
X0071524Y0270831D03*
X0071524Y0277505D03*
X0071524Y0277950D03*
X0071524Y0278394D03*
X0071524Y0278839D03*
X0073304Y0283733D03*
X0071524Y0285957D03*
X0071524Y0286402D03*
X0071524Y0286847D03*
X0071524Y0287292D03*
X0071524Y0287737D03*
X0071524Y0288182D03*
X0071524Y0288627D03*
X0071524Y0289072D03*
X0071524Y0289517D03*
X0071524Y0289961D03*
X0067076Y0290406D03*
X0067076Y0290851D03*
X0067076Y0291296D03*
X0067076Y0291741D03*
X0067076Y0292186D03*
X0067076Y0294855D03*
X0067076Y0295300D03*
X0067076Y0295745D03*
X0067076Y0296190D03*
X0067076Y0296635D03*
X0062627Y0297080D03*
X0062627Y0297524D03*
X0062627Y0297969D03*
X0062627Y0298414D03*
X0062627Y0298859D03*
X0062627Y0294410D03*
X0062627Y0293965D03*
X0062627Y0293520D03*
X0062627Y0293076D03*
X0062627Y0292631D03*
X0062627Y0289961D03*
X0062627Y0289517D03*
X0062627Y0289072D03*
X0062627Y0288627D03*
X0062627Y0288182D03*
X0067076Y0287737D03*
X0067076Y0287292D03*
X0067076Y0286847D03*
X0067076Y0286402D03*
X0067076Y0285957D03*
X0060402Y0278839D03*
X0060402Y0278394D03*
X0060402Y0277950D03*
X0060402Y0277505D03*
X0060402Y0270387D03*
X0060402Y0269942D03*
X0060402Y0269497D03*
X0060402Y0269052D03*
X0060402Y0268607D03*
X0058178Y0268162D03*
X0058178Y0267717D03*
X0058178Y0267272D03*
X0058178Y0266828D03*
X0058178Y0266383D03*
X0058178Y0263713D03*
X0058178Y0263269D03*
X0058178Y0262824D03*
X0058178Y0262379D03*
X0058178Y0261934D03*
X0055954Y0268607D03*
X0055954Y0269052D03*
X0055954Y0269497D03*
X0055954Y0269942D03*
X0055954Y0270387D03*
X0051950Y0270387D03*
X0053729Y0265938D03*
X0053729Y0265493D03*
X0053729Y0265048D03*
X0053729Y0264603D03*
X0053729Y0264158D03*
X0049280Y0265938D03*
X0055954Y0275280D03*
X0055954Y0275725D03*
X0055954Y0276170D03*
X0055954Y0276615D03*
X0055954Y0277060D03*
X0055954Y0277505D03*
X0055954Y0277950D03*
X0055954Y0278394D03*
X0055954Y0278839D03*
X0051505Y0283733D03*
X0055954Y0285957D03*
X0055954Y0286402D03*
X0055954Y0286847D03*
X0055954Y0287292D03*
X0055954Y0287737D03*
X0058178Y0292631D03*
X0058178Y0293076D03*
X0058178Y0293520D03*
X0058178Y0293965D03*
X0058178Y0294410D03*
X0053729Y0294410D03*
X0053729Y0293965D03*
X0053729Y0293520D03*
X0053729Y0293076D03*
X0053729Y0292631D03*
X0051505Y0301083D03*
X0053729Y0303753D03*
X0053729Y0304198D03*
X0053729Y0304643D03*
X0053729Y0305087D03*
X0058178Y0309981D03*
X0058178Y0310426D03*
X0058178Y0310871D03*
X0058178Y0311316D03*
X0058178Y0311761D03*
X0062627Y0314430D03*
X0062627Y0314875D03*
X0062627Y0315320D03*
X0062627Y0315765D03*
X0062627Y0316209D03*
X0064851Y0318879D03*
X0064851Y0319324D03*
X0064851Y0319769D03*
X0064851Y0320213D03*
X0064851Y0320658D03*
X0064851Y0321103D03*
X0064851Y0321548D03*
X0064851Y0321993D03*
X0064851Y0322438D03*
X0064851Y0322883D03*
X0064851Y0327776D03*
X0064851Y0328221D03*
X0064851Y0328666D03*
X0064851Y0329111D03*
X0064851Y0329556D03*
X0064851Y0330001D03*
X0064851Y0330446D03*
X0064851Y0330891D03*
X0064851Y0331335D03*
X0067076Y0334005D03*
X0067076Y0334450D03*
X0067076Y0334894D03*
X0067076Y0335339D03*
X0067076Y0335784D03*
X0069300Y0333560D03*
X0069300Y0333115D03*
X0069300Y0332670D03*
X0069300Y0332225D03*
X0069300Y0331780D03*
X0069300Y0331335D03*
X0069300Y0330891D03*
X0069300Y0330446D03*
X0069300Y0330001D03*
X0069300Y0329556D03*
X0071524Y0324662D03*
X0071524Y0324217D03*
X0071524Y0323772D03*
X0071524Y0323328D03*
X0069300Y0322883D03*
X0069300Y0322438D03*
X0069300Y0321993D03*
X0069300Y0321548D03*
X0069300Y0321103D03*
X0067076Y0316209D03*
X0067076Y0315765D03*
X0067076Y0315320D03*
X0067076Y0314875D03*
X0067076Y0314430D03*
X0069300Y0311761D03*
X0069300Y0311316D03*
X0069300Y0310871D03*
X0069300Y0310426D03*
X0069300Y0309981D03*
X0071524Y0309536D03*
X0071524Y0309091D03*
X0071524Y0308646D03*
X0071524Y0308202D03*
X0071524Y0314430D03*
X0071524Y0314875D03*
X0071524Y0315320D03*
X0071524Y0315765D03*
X0071524Y0316209D03*
X0075528Y0318434D03*
X0079977Y0318434D03*
X0079977Y0318879D03*
X0079977Y0319324D03*
X0079977Y0319769D03*
X0079977Y0320213D03*
X0079977Y0320658D03*
X0082202Y0321103D03*
X0082202Y0321548D03*
X0082202Y0321993D03*
X0082202Y0322438D03*
X0082202Y0322883D03*
X0079977Y0325552D03*
X0079977Y0325997D03*
X0079977Y0326442D03*
X0079977Y0326887D03*
X0082202Y0334450D03*
X0082202Y0334894D03*
X0082202Y0335339D03*
X0082202Y0335784D03*
X0088875Y0329556D03*
X0091099Y0322883D03*
X0091099Y0322438D03*
X0091099Y0321993D03*
X0091099Y0321548D03*
X0091099Y0321103D03*
X0086650Y0321103D03*
X0086650Y0320658D03*
X0086650Y0320213D03*
X0086650Y0319769D03*
X0086650Y0319324D03*
X0086650Y0318879D03*
X0086650Y0321548D03*
X0086650Y0321993D03*
X0086650Y0322438D03*
X0086650Y0322883D03*
X0084426Y0316209D03*
X0084426Y0315765D03*
X0084426Y0315320D03*
X0084426Y0314875D03*
X0084426Y0314430D03*
X0079977Y0314430D03*
X0079977Y0314875D03*
X0079977Y0315320D03*
X0079977Y0315765D03*
X0079977Y0316209D03*
X0079977Y0316654D03*
X0079977Y0317099D03*
X0079977Y0317544D03*
X0079977Y0317989D03*
X0075528Y0303308D03*
X0079977Y0296635D03*
X0079977Y0296190D03*
X0079977Y0295745D03*
X0079977Y0295300D03*
X0079977Y0294855D03*
X0082202Y0299304D03*
X0082202Y0299749D03*
X0082202Y0300194D03*
X0082202Y0300639D03*
X0088875Y0294410D03*
X0088875Y0293965D03*
X0088875Y0293520D03*
X0088875Y0293076D03*
X0088875Y0292631D03*
X0091099Y0303308D03*
X0091099Y0303753D03*
X0091099Y0304198D03*
X0091099Y0304643D03*
X0091099Y0305087D03*
X0106225Y0287737D03*
X0106225Y0287292D03*
X0106225Y0286847D03*
X0106225Y0286402D03*
X0106225Y0285957D03*
X0117347Y0272611D03*
X0117347Y0272166D03*
X0117347Y0271721D03*
X0117347Y0271276D03*
X0117347Y0270831D03*
X0121796Y0268162D03*
X0121796Y0267717D03*
X0121796Y0267272D03*
X0121796Y0266828D03*
X0121796Y0266383D03*
X0124020Y0263713D03*
X0124020Y0263269D03*
X0124020Y0262824D03*
X0124020Y0262379D03*
X0124020Y0261934D03*
X0121796Y0259265D03*
X0121796Y0258820D03*
X0121796Y0258375D03*
X0121796Y0257930D03*
X0121796Y0257485D03*
X0126245Y0266383D03*
X0126245Y0266828D03*
X0126245Y0267272D03*
X0126245Y0267717D03*
X0126245Y0273056D03*
X0126245Y0273501D03*
X0126245Y0273946D03*
X0126245Y0274391D03*
X0124020Y0275280D03*
X0124020Y0275725D03*
X0124020Y0276170D03*
X0124020Y0276615D03*
X0119572Y0277505D03*
X0119572Y0277950D03*
X0119572Y0278394D03*
X0119572Y0278839D03*
X0119572Y0279284D03*
X0119572Y0279729D03*
X0119572Y0280174D03*
X0119572Y0280619D03*
X0119572Y0281064D03*
X0119572Y0281509D03*
X0119572Y0281954D03*
X0119572Y0282398D03*
X0119572Y0282843D03*
X0119572Y0283288D03*
X0132473Y0281064D03*
X0132473Y0280619D03*
X0132473Y0280174D03*
X0132473Y0279729D03*
X0134698Y0278839D03*
X0134698Y0278394D03*
X0134698Y0277950D03*
X0134698Y0277505D03*
X0134698Y0277060D03*
X0134698Y0276615D03*
X0134698Y0276170D03*
X0134698Y0275725D03*
X0134698Y0275280D03*
X0134698Y0270387D03*
X0134698Y0269942D03*
X0134698Y0269497D03*
X0134698Y0269052D03*
X0134698Y0268607D03*
X0134698Y0268162D03*
X0134698Y0267717D03*
X0134698Y0267272D03*
X0134698Y0266828D03*
X0134698Y0266383D03*
X0132473Y0263713D03*
X0132473Y0263269D03*
X0132473Y0262824D03*
X0132473Y0262379D03*
X0132473Y0261934D03*
X0134698Y0261489D03*
X0134698Y0261044D03*
X0134698Y0260599D03*
X0134698Y0260154D03*
X0134698Y0259709D03*
X0134698Y0285957D03*
X0134698Y0286402D03*
X0134698Y0286847D03*
X0134698Y0287292D03*
X0134698Y0287737D03*
X0158721Y0281064D03*
X0158721Y0280619D03*
X0158721Y0280174D03*
X0158721Y0279729D03*
X0158721Y0276615D03*
X0158721Y0276170D03*
X0158721Y0275725D03*
X0158721Y0275280D03*
X0158721Y0267717D03*
X0158721Y0267272D03*
X0158721Y0266828D03*
X0158721Y0266383D03*
X0158721Y0259265D03*
X0158721Y0258820D03*
X0158721Y0258375D03*
X0158721Y0257930D03*
X0158721Y0257485D03*
X0160946Y0257040D03*
X0160946Y0256595D03*
X0160946Y0256150D03*
X0160946Y0255706D03*
X0160946Y0255261D03*
X0160946Y0254816D03*
X0160946Y0254371D03*
X0160946Y0253926D03*
X0160946Y0253481D03*
X0160946Y0253036D03*
X0158721Y0252591D03*
X0158721Y0252146D03*
X0158721Y0251702D03*
X0158721Y0251257D03*
X0160946Y0250367D03*
X0160946Y0249922D03*
X0160946Y0249477D03*
X0160946Y0249032D03*
X0112898Y0334005D03*
X0112898Y0334450D03*
X0112898Y0334894D03*
X0112898Y0335339D03*
X0112898Y0335784D03*
X0110674Y0333560D03*
X0110674Y0333115D03*
X0110674Y0332670D03*
X0110674Y0332225D03*
X0067076Y0307312D03*
X0067076Y0306867D03*
X0067076Y0306422D03*
X0067076Y0305977D03*
X0067076Y0305532D03*
X0062627Y0305532D03*
X0062627Y0305977D03*
X0062627Y0306422D03*
X0062627Y0306867D03*
X0062627Y0307312D03*
X0060402Y0323328D03*
X0060402Y0323772D03*
X0060402Y0324217D03*
X0060402Y0324662D03*
X0060402Y0325107D03*
X0060402Y0325552D03*
X0060402Y0325997D03*
X0060402Y0326442D03*
X0060402Y0326887D03*
X0060402Y0327331D03*
X0060402Y0327776D03*
X0060402Y0328221D03*
X0060402Y0328666D03*
X0060402Y0329111D03*
X0060402Y0329556D03*
X0060402Y0330001D03*
X0060402Y0330446D03*
X0060402Y0330891D03*
X0060402Y0331335D03*
X0060402Y0331780D03*
X0060402Y0332225D03*
X0060402Y0332670D03*
X0060402Y0333115D03*
X0060402Y0333560D03*
X0047501Y0294410D03*
X0047501Y0253036D03*
X0051505Y0248587D03*
X0055954Y0248143D03*
X0055954Y0247698D03*
X0055954Y0247253D03*
X0055954Y0246808D03*
X0053729Y0239690D03*
X0053729Y0239245D03*
X0053729Y0238800D03*
X0053729Y0238355D03*
X0053729Y0237910D03*
X0060402Y0237910D03*
X0060402Y0238355D03*
X0060402Y0238800D03*
X0060402Y0239245D03*
X0060402Y0239690D03*
X0060402Y0233017D03*
X0060402Y0232572D03*
X0060402Y0232127D03*
X0060402Y0231682D03*
X0060402Y0231237D03*
X0060402Y0230792D03*
X0060402Y0230347D03*
X0060402Y0229902D03*
X0060402Y0229457D03*
X0060402Y0229013D03*
X0060402Y0228568D03*
X0060402Y0228123D03*
X0060402Y0227678D03*
X0060402Y0227233D03*
X0060402Y0226788D03*
X0060402Y0226343D03*
X0060402Y0225898D03*
X0060402Y0225454D03*
X0060402Y0225009D03*
X0060402Y0224564D03*
X0060402Y0224119D03*
X0060402Y0223674D03*
X0060402Y0223229D03*
X0060402Y0222784D03*
X0060402Y0222339D03*
X0064851Y0221894D03*
X0064851Y0221450D03*
X0064851Y0221005D03*
X0064851Y0220560D03*
X0067076Y0222784D03*
X0067076Y0223229D03*
X0067076Y0223674D03*
X0067076Y0224119D03*
X0064851Y0225009D03*
X0064851Y0225454D03*
X0064851Y0225898D03*
X0064851Y0226343D03*
X0064851Y0226788D03*
X0064851Y0227233D03*
X0064851Y0227678D03*
X0064851Y0228123D03*
X0064851Y0228568D03*
X0064851Y0231237D03*
X0064851Y0231682D03*
X0064851Y0232127D03*
X0064851Y0232572D03*
X0064851Y0233017D03*
X0069300Y0233461D03*
X0069300Y0233906D03*
X0069300Y0234351D03*
X0069300Y0234796D03*
X0069300Y0235241D03*
X0069300Y0237910D03*
X0069300Y0238355D03*
X0069300Y0238800D03*
X0069300Y0239245D03*
X0069300Y0239690D03*
X0071524Y0233017D03*
X0071524Y0232572D03*
X0071524Y0232127D03*
X0071524Y0231682D03*
X0071524Y0231237D03*
X0075973Y0239690D03*
X0082202Y0230792D03*
X0082202Y0230347D03*
X0082202Y0229902D03*
X0082202Y0229457D03*
X0082202Y0229013D03*
X0091099Y0231237D03*
X0091099Y0231682D03*
X0091099Y0232127D03*
X0091099Y0232572D03*
X0091099Y0233017D03*
X0093324Y0230792D03*
X0093324Y0230347D03*
X0093324Y0229902D03*
X0093324Y0229457D03*
X0093324Y0229013D03*
X0091099Y0224564D03*
X0093324Y0221894D03*
X0093324Y0221450D03*
X0093324Y0221005D03*
X0093324Y0220560D03*
X0097772Y0225009D03*
X0097772Y0225454D03*
X0097772Y0225898D03*
X0097772Y0226343D03*
X0069300Y0221894D03*
X0069300Y0221450D03*
X0069300Y0221005D03*
X0069300Y0220560D03*
X0064851Y0240135D03*
X0064851Y0240580D03*
X0064851Y0241024D03*
X0064851Y0241469D03*
X0064851Y0241914D03*
X0047501Y0222339D03*
D12*
X0053952Y0225009D03*
X0053952Y0225454D03*
X0053952Y0225898D03*
X0053952Y0226343D03*
X0053952Y0226788D03*
X0053952Y0227233D03*
X0053952Y0227678D03*
X0053952Y0228123D03*
X0053952Y0228568D03*
X0053952Y0229013D03*
X0053952Y0229457D03*
X0053952Y0229902D03*
X0053952Y0230347D03*
X0053952Y0230792D03*
X0071302Y0244583D03*
X0071302Y0245028D03*
X0071302Y0245473D03*
X0071302Y0245918D03*
X0075751Y0253036D03*
X0075751Y0253481D03*
X0075751Y0253926D03*
X0075751Y0254371D03*
X0075751Y0254816D03*
X0077975Y0264158D03*
X0077975Y0264603D03*
X0077975Y0265048D03*
X0077975Y0265493D03*
X0077975Y0265938D03*
X0077975Y0241469D03*
X0077975Y0241024D03*
X0077975Y0240580D03*
X0077975Y0240135D03*
X0075751Y0237465D03*
X0075751Y0237020D03*
X0075751Y0236576D03*
X0075751Y0236131D03*
X0075751Y0235686D03*
X0075751Y0221894D03*
X0075751Y0221450D03*
X0075751Y0221005D03*
X0075751Y0220560D03*
X0099774Y0220560D03*
X0099774Y0221005D03*
X0099774Y0221450D03*
X0099774Y0221894D03*
X0104223Y0242359D03*
X0104223Y0242804D03*
X0104223Y0243249D03*
X0104223Y0243694D03*
X0126022Y0244583D03*
X0126022Y0245028D03*
X0126022Y0245473D03*
X0126022Y0245918D03*
X0132696Y0226343D03*
X0132696Y0225898D03*
X0132696Y0225454D03*
X0132696Y0225009D03*
X0128247Y0221894D03*
X0128247Y0221450D03*
X0128247Y0221005D03*
X0128247Y0220560D03*
X0152270Y0242359D03*
X0152270Y0242804D03*
X0152270Y0243249D03*
X0152270Y0243694D03*
X0156719Y0246808D03*
X0156719Y0247253D03*
X0156719Y0247698D03*
X0156719Y0248143D03*
X0154495Y0235241D03*
X0154495Y0234796D03*
X0154495Y0234351D03*
X0154495Y0233906D03*
X0154495Y0233461D03*
X0158944Y0228568D03*
X0158944Y0228123D03*
X0158944Y0227678D03*
X0158944Y0227233D03*
X0158944Y0226788D03*
X0154495Y0264158D03*
X0154495Y0264603D03*
X0154495Y0265048D03*
X0154495Y0265493D03*
X0154495Y0265938D03*
X0156719Y0285957D03*
X0156719Y0286402D03*
X0156719Y0286847D03*
X0156719Y0287292D03*
X0156719Y0287737D03*
X0154495Y0325552D03*
X0154495Y0325997D03*
X0154495Y0326442D03*
X0154495Y0326887D03*
X0154495Y0327331D03*
X0154495Y0327776D03*
X0154495Y0328221D03*
X0154495Y0328666D03*
X0154495Y0329111D03*
X0154495Y0329556D03*
X0154495Y0330001D03*
X0154495Y0330446D03*
X0154495Y0330891D03*
X0154495Y0331335D03*
X0139369Y0331780D03*
X0137144Y0327331D03*
X0126022Y0327776D03*
X0126022Y0328221D03*
X0126022Y0328666D03*
X0126022Y0329111D03*
X0126022Y0318434D03*
X0126022Y0317989D03*
X0126022Y0317544D03*
X0126022Y0317099D03*
X0126022Y0316654D03*
X0126022Y0316209D03*
X0126022Y0315765D03*
X0126022Y0315320D03*
X0126022Y0314875D03*
X0126022Y0314430D03*
X0126022Y0281064D03*
X0126022Y0280619D03*
X0126022Y0280174D03*
X0126022Y0279729D03*
X0126022Y0279284D03*
X0126022Y0272611D03*
X0126022Y0272166D03*
X0126022Y0271721D03*
X0126022Y0271276D03*
X0126022Y0270831D03*
X0099774Y0292631D03*
X0099774Y0293076D03*
X0099774Y0293520D03*
X0099774Y0293965D03*
X0099774Y0294410D03*
X0099774Y0294855D03*
X0099774Y0295300D03*
X0099774Y0295745D03*
X0099774Y0296190D03*
X0099774Y0296635D03*
X0097550Y0287737D03*
X0097550Y0287292D03*
X0097550Y0286847D03*
X0097550Y0286402D03*
X0073526Y0303753D03*
X0073526Y0304198D03*
X0073526Y0304643D03*
X0073526Y0305087D03*
X0075751Y0334005D03*
X0075751Y0334450D03*
X0075751Y0334894D03*
X0075751Y0335339D03*
X0075751Y0335784D03*
X0053952Y0331335D03*
X0053952Y0330891D03*
X0053952Y0330446D03*
X0053952Y0330001D03*
X0053952Y0329556D03*
X0053952Y0329111D03*
X0053952Y0328666D03*
X0053952Y0328221D03*
X0053952Y0327776D03*
X0053952Y0327331D03*
X0053952Y0326887D03*
X0053952Y0326442D03*
X0053952Y0325997D03*
X0053952Y0325552D03*
X0049503Y0316209D03*
X0049503Y0315765D03*
X0049503Y0315320D03*
X0049503Y0314875D03*
X0049503Y0314430D03*
X0051727Y0311761D03*
X0051727Y0311316D03*
X0051727Y0310871D03*
X0051727Y0310426D03*
X0051727Y0309981D03*
X0053952Y0272166D03*
X0053952Y0271721D03*
X0053952Y0271276D03*
X0053952Y0270831D03*
D13*
X0063739Y0257040D03*
X0063739Y0256595D03*
X0063739Y0256150D03*
X0063739Y0255706D03*
X0063739Y0255261D03*
X0057066Y0243694D03*
X0057066Y0243249D03*
X0057066Y0242804D03*
X0057066Y0242359D03*
X0068188Y0268607D03*
X0068188Y0269052D03*
X0068188Y0269497D03*
X0068188Y0269942D03*
X0068188Y0270387D03*
X0081089Y0268162D03*
X0085538Y0277060D03*
X0085538Y0277505D03*
X0085538Y0277950D03*
X0085538Y0278394D03*
X0085538Y0278839D03*
X0083314Y0285957D03*
X0083314Y0286402D03*
X0083314Y0286847D03*
X0083314Y0287292D03*
X0083314Y0287737D03*
X0087763Y0248143D03*
X0087763Y0247698D03*
X0087763Y0247253D03*
X0087763Y0246808D03*
X0092211Y0237465D03*
X0092211Y0237020D03*
X0092211Y0236576D03*
X0092211Y0236131D03*
X0092211Y0235686D03*
X0085538Y0221894D03*
X0085538Y0221450D03*
X0085538Y0221005D03*
X0085538Y0220560D03*
X0072637Y0226788D03*
X0111786Y0231237D03*
X0111786Y0231682D03*
X0111786Y0232127D03*
X0111786Y0232572D03*
X0111786Y0233017D03*
X0138034Y0270831D03*
X0138034Y0271276D03*
X0138034Y0271721D03*
X0138034Y0272166D03*
X0149156Y0263713D03*
X0149156Y0263269D03*
X0149156Y0262824D03*
X0149156Y0262379D03*
X0149156Y0261934D03*
X0146932Y0248143D03*
X0146932Y0247698D03*
X0146932Y0247253D03*
X0146932Y0246808D03*
X0140259Y0246363D03*
X0140259Y0245918D03*
X0140259Y0245473D03*
X0140259Y0245028D03*
X0140259Y0244583D03*
X0146932Y0228568D03*
X0146932Y0228123D03*
X0146932Y0227678D03*
X0146932Y0227233D03*
X0146932Y0226788D03*
X0142483Y0221894D03*
X0142483Y0221450D03*
X0142483Y0221005D03*
X0142483Y0220560D03*
X0122908Y0290406D03*
X0122908Y0290851D03*
X0122908Y0291296D03*
X0122908Y0291741D03*
X0122908Y0292186D03*
X0122908Y0309981D03*
X0122908Y0310426D03*
X0122908Y0310871D03*
X0122908Y0311316D03*
X0122908Y0311761D03*
X0138034Y0307312D03*
X0138034Y0306867D03*
X0138034Y0306422D03*
X0138034Y0305977D03*
X0138034Y0305532D03*
X0068188Y0325552D03*
X0068188Y0325997D03*
X0068188Y0326442D03*
X0068188Y0326887D03*
X0068188Y0327331D03*
X0063739Y0313985D03*
X0063739Y0313540D03*
X0063739Y0313095D03*
X0063739Y0312650D03*
X0063739Y0312206D03*
X0061515Y0301083D03*
X0061515Y0300639D03*
X0061515Y0300194D03*
X0061515Y0299749D03*
X0061515Y0299304D03*
D14*
X0057288Y0298859D03*
X0050615Y0298859D03*
X0050615Y0298414D03*
X0050615Y0297969D03*
X0050615Y0297524D03*
X0050615Y0297080D03*
X0050615Y0301528D03*
X0050615Y0301973D03*
X0050615Y0302418D03*
X0050615Y0302863D03*
X0048391Y0305532D03*
X0048391Y0305977D03*
X0048391Y0306422D03*
X0048391Y0306867D03*
X0048391Y0307312D03*
X0052839Y0312650D03*
X0052839Y0313095D03*
X0052839Y0313540D03*
X0052839Y0313985D03*
X0050615Y0287737D03*
X0050615Y0287292D03*
X0050615Y0286847D03*
X0050615Y0286402D03*
X0050615Y0285957D03*
X0050615Y0283288D03*
X0050615Y0282843D03*
X0050615Y0282398D03*
X0050615Y0281954D03*
X0050615Y0281509D03*
X0055064Y0279284D03*
X0048391Y0268162D03*
X0048391Y0267717D03*
X0048391Y0267272D03*
X0048391Y0266828D03*
X0048391Y0266383D03*
X0055064Y0255261D03*
X0050615Y0250367D03*
X0050615Y0249922D03*
X0050615Y0249477D03*
X0050615Y0249032D03*
X0048391Y0244139D03*
X0048391Y0243694D03*
X0048391Y0243249D03*
X0048391Y0242804D03*
X0048391Y0242359D03*
X0050615Y0241469D03*
X0050615Y0241024D03*
X0050615Y0240580D03*
X0050615Y0240135D03*
X0072414Y0281954D03*
X0072414Y0282398D03*
X0072414Y0282843D03*
X0072414Y0283288D03*
X0072414Y0292631D03*
X0072414Y0293076D03*
X0072414Y0293520D03*
X0072414Y0293965D03*
X0072414Y0294410D03*
X0079087Y0305532D03*
X0079087Y0305977D03*
X0079087Y0306422D03*
X0079087Y0306867D03*
X0079087Y0307312D03*
X0079087Y0307757D03*
X0079087Y0308202D03*
X0079087Y0308646D03*
X0079087Y0309091D03*
X0079087Y0309536D03*
X0074639Y0312650D03*
X0074639Y0313095D03*
X0074639Y0313540D03*
X0074639Y0313985D03*
X0074639Y0318879D03*
X0074639Y0319324D03*
X0074639Y0319769D03*
X0074639Y0320213D03*
X0074639Y0320658D03*
X0085761Y0305532D03*
X0098662Y0291741D03*
X0098662Y0291296D03*
X0098662Y0290851D03*
X0098662Y0290406D03*
X0098662Y0289961D03*
X0098662Y0289517D03*
X0098662Y0289072D03*
X0098662Y0288627D03*
X0098662Y0288182D03*
X0100887Y0285513D03*
X0100887Y0285068D03*
X0100887Y0284623D03*
X0100887Y0284178D03*
X0105335Y0272166D03*
X0105335Y0271721D03*
X0105335Y0271276D03*
X0105335Y0270831D03*
X0103111Y0250367D03*
X0103111Y0249922D03*
X0103111Y0249477D03*
X0103111Y0249032D03*
X0100887Y0248143D03*
X0100887Y0247698D03*
X0100887Y0247253D03*
X0100887Y0246808D03*
X0098662Y0241914D03*
X0098662Y0241469D03*
X0098662Y0241024D03*
X0098662Y0240580D03*
X0098662Y0240135D03*
X0098662Y0233017D03*
X0098662Y0232572D03*
X0098662Y0232127D03*
X0098662Y0231682D03*
X0105335Y0224119D03*
X0105335Y0223674D03*
X0105335Y0223229D03*
X0105335Y0222784D03*
X0127135Y0226788D03*
X0127135Y0227233D03*
X0127135Y0227678D03*
X0127135Y0228123D03*
X0127135Y0228568D03*
X0127135Y0249032D03*
X0127135Y0249477D03*
X0127135Y0249922D03*
X0127135Y0250367D03*
X0129359Y0259709D03*
X0129359Y0260154D03*
X0129359Y0260599D03*
X0129359Y0261044D03*
X0129359Y0261489D03*
X0129359Y0275280D03*
X0129359Y0275725D03*
X0129359Y0276170D03*
X0129359Y0276615D03*
X0127135Y0277505D03*
X0127135Y0277950D03*
X0127135Y0278394D03*
X0127135Y0278839D03*
X0131583Y0281509D03*
X0131583Y0281954D03*
X0131583Y0282398D03*
X0131583Y0282843D03*
X0131583Y0283288D03*
X0138257Y0281509D03*
X0131583Y0292631D03*
X0131583Y0293076D03*
X0131583Y0293520D03*
X0131583Y0293965D03*
X0131583Y0294410D03*
X0133808Y0298859D03*
X0131583Y0310426D03*
X0131583Y0310871D03*
X0131583Y0311316D03*
X0131583Y0311761D03*
X0131583Y0312206D03*
X0131583Y0312650D03*
X0131583Y0313095D03*
X0131583Y0313540D03*
X0131583Y0313985D03*
X0127135Y0318879D03*
X0127135Y0319324D03*
X0127135Y0319769D03*
X0127135Y0320213D03*
X0127135Y0320658D03*
X0127135Y0323328D03*
X0127135Y0323772D03*
X0127135Y0324217D03*
X0127135Y0324662D03*
X0127135Y0325107D03*
X0127135Y0330001D03*
X0127135Y0330446D03*
X0127135Y0330891D03*
X0127135Y0331335D03*
X0129359Y0332225D03*
X0129359Y0332670D03*
X0129359Y0333115D03*
X0129359Y0333560D03*
X0153383Y0296635D03*
X0153383Y0296190D03*
X0153383Y0295745D03*
X0153383Y0295300D03*
X0153383Y0294855D03*
X0153383Y0285513D03*
X0153383Y0285068D03*
X0153383Y0284623D03*
X0153383Y0284178D03*
X0153383Y0281064D03*
X0153383Y0280619D03*
X0153383Y0280174D03*
X0153383Y0279729D03*
X0153383Y0279284D03*
X0153383Y0278839D03*
X0153383Y0278394D03*
X0153383Y0277950D03*
X0153383Y0277505D03*
X0153383Y0277060D03*
X0153383Y0276615D03*
X0153383Y0276170D03*
X0153383Y0275725D03*
X0153383Y0275280D03*
X0157831Y0263713D03*
X0157831Y0263269D03*
X0157831Y0262824D03*
X0157831Y0262379D03*
X0157831Y0261934D03*
X0155607Y0257040D03*
X0155607Y0256595D03*
X0155607Y0256150D03*
X0155607Y0255706D03*
X0155607Y0255261D03*
X0153383Y0237465D03*
X0153383Y0237020D03*
X0153383Y0236576D03*
X0153383Y0236131D03*
X0153383Y0235686D03*
X0153383Y0233017D03*
X0153383Y0232572D03*
X0153383Y0232127D03*
X0153383Y0231682D03*
X0155607Y0221894D03*
X0155607Y0221450D03*
X0155607Y0221005D03*
X0155607Y0220560D03*
X0157831Y0308202D03*
X0157831Y0308646D03*
X0157831Y0309091D03*
X0157831Y0309536D03*
X0103111Y0330001D03*
X0103111Y0330446D03*
X0103111Y0330891D03*
X0103111Y0331335D03*
X0100887Y0311761D03*
X0100887Y0311316D03*
X0100887Y0310871D03*
X0100887Y0310426D03*
X0100887Y0309981D03*
X0100887Y0302863D03*
X0100887Y0302418D03*
X0100887Y0301973D03*
X0100887Y0301528D03*
X0100887Y0301083D03*
X0100887Y0300639D03*
X0100887Y0300194D03*
X0100887Y0299749D03*
X0100887Y0299304D03*
X0079087Y0263713D03*
X0079087Y0263269D03*
X0079087Y0262824D03*
X0079087Y0262379D03*
X0079087Y0261934D03*
X0074639Y0261489D03*
X0074639Y0261044D03*
X0074639Y0260599D03*
X0074639Y0260154D03*
X0076863Y0270831D03*
X0076863Y0271276D03*
X0076863Y0271721D03*
X0076863Y0272166D03*
X0076863Y0272611D03*
D15*
X0083536Y0274835D03*
X0072414Y0281509D03*
X0050615Y0250812D03*
X0083536Y0222339D03*
X0105335Y0272611D03*
X0100887Y0283733D03*
X0157831Y0307757D03*
D16*
X0156719Y0298859D03*
X0152270Y0274835D03*
X0154495Y0270387D03*
X0152270Y0250812D03*
X0139369Y0248587D03*
X0132696Y0250812D03*
X0126022Y0248587D03*
X0119349Y0250812D03*
X0126022Y0268162D03*
X0128247Y0277060D03*
X0139369Y0277060D03*
X0132696Y0303308D03*
X0108672Y0277060D03*
X0101999Y0248587D03*
X0095326Y0248587D03*
X0095326Y0250812D03*
X0093101Y0222339D03*
X0077975Y0246363D03*
X0075751Y0255261D03*
X0056176Y0274835D03*
X0058400Y0303308D03*
X0071302Y0325107D03*
X0075751Y0327331D03*
X0075751Y0329556D03*
X0080200Y0327331D03*
X0082424Y0334005D03*
X0093101Y0329556D03*
X0099774Y0325107D03*
X0082424Y0301083D03*
X0130471Y0222339D03*
X0158944Y0224564D03*
D17*
X0159833Y0225009D03*
X0159833Y0225454D03*
X0159833Y0225898D03*
X0159833Y0226343D03*
X0153160Y0231237D03*
X0144707Y0224119D03*
X0144707Y0223674D03*
X0144707Y0223229D03*
X0144707Y0222784D03*
X0144707Y0222339D03*
X0140259Y0225009D03*
X0140259Y0225454D03*
X0140259Y0225898D03*
X0140259Y0226343D03*
X0138034Y0235686D03*
X0138034Y0236131D03*
X0138034Y0236576D03*
X0138034Y0237020D03*
X0138034Y0237465D03*
X0133585Y0235241D03*
X0133585Y0234796D03*
X0133585Y0234351D03*
X0133585Y0233906D03*
X0133585Y0233461D03*
X0138034Y0246808D03*
X0138034Y0247253D03*
X0138034Y0247698D03*
X0138034Y0248143D03*
X0140259Y0250812D03*
X0144707Y0241914D03*
X0144707Y0241469D03*
X0144707Y0241024D03*
X0144707Y0240580D03*
X0144707Y0240135D03*
X0146932Y0255261D03*
X0146932Y0255706D03*
X0146932Y0256150D03*
X0146932Y0256595D03*
X0146932Y0257040D03*
X0146932Y0264158D03*
X0146932Y0264603D03*
X0146932Y0265048D03*
X0146932Y0265493D03*
X0146932Y0265938D03*
X0151381Y0261489D03*
X0151381Y0261044D03*
X0151381Y0260599D03*
X0151381Y0260154D03*
X0151381Y0259709D03*
X0151381Y0254816D03*
X0151381Y0254371D03*
X0151381Y0253926D03*
X0151381Y0253481D03*
X0151381Y0253036D03*
X0151381Y0252591D03*
X0151381Y0252146D03*
X0151381Y0251702D03*
X0151381Y0251257D03*
X0138034Y0264158D03*
X0138034Y0264603D03*
X0138034Y0265048D03*
X0138034Y0265493D03*
X0138034Y0265938D03*
X0138034Y0281954D03*
X0138034Y0282398D03*
X0138034Y0282843D03*
X0138034Y0283288D03*
X0135810Y0283733D03*
X0135810Y0284178D03*
X0135810Y0284623D03*
X0135810Y0285068D03*
X0135810Y0285513D03*
X0138034Y0290406D03*
X0138034Y0290851D03*
X0138034Y0291296D03*
X0138034Y0291741D03*
X0138034Y0292186D03*
X0140259Y0297080D03*
X0140259Y0297524D03*
X0140259Y0297969D03*
X0140259Y0298414D03*
X0140259Y0298859D03*
X0133585Y0298414D03*
X0133585Y0297969D03*
X0133585Y0297524D03*
X0133585Y0297080D03*
X0131361Y0309981D03*
X0133585Y0318879D03*
X0133585Y0319324D03*
X0133585Y0319769D03*
X0133585Y0320213D03*
X0133585Y0320658D03*
X0133585Y0323328D03*
X0133585Y0323772D03*
X0133585Y0324217D03*
X0133585Y0324662D03*
X0134030Y0325107D03*
X0138034Y0327776D03*
X0138034Y0328221D03*
X0138034Y0328666D03*
X0138034Y0329111D03*
X0138034Y0334005D03*
X0138034Y0334450D03*
X0138034Y0334894D03*
X0138034Y0335339D03*
X0138034Y0335784D03*
X0129137Y0331780D03*
X0126912Y0329556D03*
X0122908Y0331780D03*
X0122908Y0332225D03*
X0122908Y0332670D03*
X0122908Y0333115D03*
X0122908Y0333560D03*
X0118459Y0334005D03*
X0118459Y0334450D03*
X0118459Y0334894D03*
X0118459Y0335339D03*
X0118459Y0335784D03*
X0109562Y0320658D03*
X0109562Y0320213D03*
X0109562Y0319769D03*
X0109562Y0319324D03*
X0109562Y0318879D03*
X0109562Y0311761D03*
X0109562Y0311316D03*
X0109562Y0310871D03*
X0109562Y0310426D03*
X0109562Y0309981D03*
X0111786Y0289961D03*
X0111786Y0289517D03*
X0111786Y0289072D03*
X0111786Y0288627D03*
X0111786Y0288182D03*
X0114011Y0287737D03*
X0114011Y0287292D03*
X0114011Y0286847D03*
X0114011Y0286402D03*
X0114011Y0285957D03*
X0111786Y0272611D03*
X0111786Y0272166D03*
X0111786Y0271721D03*
X0111786Y0271276D03*
X0111786Y0270831D03*
X0114011Y0268162D03*
X0114011Y0267717D03*
X0114011Y0267272D03*
X0114011Y0266828D03*
X0114011Y0266383D03*
X0114011Y0263713D03*
X0114011Y0263269D03*
X0114011Y0262824D03*
X0114011Y0262379D03*
X0114011Y0261934D03*
X0107337Y0261934D03*
X0107337Y0262379D03*
X0107337Y0262824D03*
X0107337Y0263269D03*
X0107337Y0263713D03*
X0094436Y0261489D03*
X0094436Y0261044D03*
X0094436Y0260599D03*
X0094436Y0260154D03*
X0094436Y0259709D03*
X0089987Y0261934D03*
X0089987Y0262379D03*
X0089987Y0262824D03*
X0089987Y0263269D03*
X0089987Y0263713D03*
X0085538Y0264158D03*
X0085538Y0264603D03*
X0085538Y0265048D03*
X0085538Y0265493D03*
X0085538Y0265938D03*
X0089987Y0273056D03*
X0089987Y0273501D03*
X0089987Y0273946D03*
X0089987Y0274391D03*
X0089987Y0274835D03*
X0083314Y0290406D03*
X0083314Y0290851D03*
X0083314Y0291296D03*
X0083314Y0291741D03*
X0083314Y0292186D03*
X0083314Y0301528D03*
X0083314Y0301973D03*
X0083314Y0302418D03*
X0083314Y0302863D03*
X0085538Y0305977D03*
X0085538Y0306422D03*
X0085538Y0306867D03*
X0085538Y0307312D03*
X0092211Y0307757D03*
X0092211Y0308202D03*
X0092211Y0308646D03*
X0092211Y0309091D03*
X0092211Y0309536D03*
X0089987Y0323328D03*
X0089987Y0323772D03*
X0089987Y0324217D03*
X0089987Y0324662D03*
X0089987Y0325107D03*
X0087763Y0330001D03*
X0087763Y0330446D03*
X0087763Y0330891D03*
X0087763Y0331335D03*
X0085538Y0327331D03*
X0085538Y0326887D03*
X0085538Y0326442D03*
X0085538Y0325997D03*
X0085538Y0325552D03*
X0083314Y0325107D03*
X0083314Y0324662D03*
X0083314Y0324217D03*
X0083314Y0323772D03*
X0083314Y0323328D03*
X0074861Y0312206D03*
X0070412Y0316654D03*
X0070412Y0317099D03*
X0070412Y0317544D03*
X0070412Y0317989D03*
X0070412Y0318434D03*
X0065963Y0323328D03*
X0065963Y0323772D03*
X0065963Y0324217D03*
X0065963Y0324662D03*
X0065963Y0325107D03*
X0057066Y0316209D03*
X0057066Y0315765D03*
X0057066Y0315320D03*
X0057066Y0314875D03*
X0057066Y0314430D03*
X0052617Y0312206D03*
X0054841Y0307312D03*
X0054841Y0306867D03*
X0054841Y0306422D03*
X0054841Y0305977D03*
X0054841Y0305532D03*
X0057066Y0302863D03*
X0057066Y0302418D03*
X0057066Y0301973D03*
X0057066Y0301528D03*
X0057066Y0298414D03*
X0057066Y0297969D03*
X0057066Y0297524D03*
X0057066Y0297080D03*
X0061515Y0296635D03*
X0061515Y0296190D03*
X0061515Y0295745D03*
X0061515Y0295300D03*
X0061515Y0294855D03*
X0061515Y0287737D03*
X0061515Y0287292D03*
X0061515Y0286847D03*
X0061515Y0286402D03*
X0061515Y0285957D03*
X0065963Y0285513D03*
X0065963Y0285068D03*
X0065963Y0284623D03*
X0065963Y0284178D03*
X0065963Y0283733D03*
X0070412Y0297080D03*
X0070412Y0297524D03*
X0070412Y0297969D03*
X0070412Y0298414D03*
X0070412Y0298859D03*
X0065963Y0303308D03*
X0063739Y0309981D03*
X0063739Y0310426D03*
X0063739Y0310871D03*
X0063739Y0311316D03*
X0063739Y0311761D03*
X0054841Y0289961D03*
X0054841Y0289517D03*
X0054841Y0289072D03*
X0054841Y0288627D03*
X0054841Y0288182D03*
X0054841Y0281064D03*
X0054841Y0280619D03*
X0054841Y0280174D03*
X0054841Y0279729D03*
X0061515Y0265938D03*
X0061515Y0265493D03*
X0061515Y0265048D03*
X0061515Y0264603D03*
X0061515Y0264158D03*
X0065963Y0263713D03*
X0065963Y0263269D03*
X0065963Y0262824D03*
X0065963Y0262379D03*
X0065963Y0261934D03*
X0068188Y0264158D03*
X0068188Y0264603D03*
X0068188Y0265048D03*
X0068188Y0265493D03*
X0068188Y0265938D03*
X0065963Y0254816D03*
X0065963Y0254371D03*
X0065963Y0253926D03*
X0065963Y0253481D03*
X0065963Y0253036D03*
X0070412Y0241914D03*
X0070412Y0241469D03*
X0070412Y0241024D03*
X0070412Y0240580D03*
X0070412Y0240135D03*
X0065963Y0237465D03*
X0065963Y0237020D03*
X0065963Y0236576D03*
X0065963Y0236131D03*
X0065963Y0235686D03*
X0054841Y0255706D03*
X0054841Y0256150D03*
X0054841Y0256595D03*
X0054841Y0257040D03*
X0054841Y0257485D03*
X0054841Y0257930D03*
X0054841Y0258375D03*
X0054841Y0258820D03*
X0054841Y0259265D03*
X0050393Y0241914D03*
X0074861Y0259709D03*
X0081089Y0252591D03*
X0081089Y0252146D03*
X0081089Y0251702D03*
X0081089Y0251257D03*
X0081089Y0250812D03*
X0083314Y0246363D03*
X0083314Y0245918D03*
X0083314Y0245473D03*
X0083314Y0245028D03*
X0083314Y0244583D03*
X0087763Y0241914D03*
X0087763Y0241469D03*
X0087763Y0241024D03*
X0087763Y0240580D03*
X0087763Y0240135D03*
X0092211Y0235241D03*
X0092211Y0234796D03*
X0092211Y0234351D03*
X0092211Y0233906D03*
X0092211Y0233461D03*
X0089987Y0226343D03*
X0089987Y0225898D03*
X0089987Y0225454D03*
X0089987Y0225009D03*
X0083314Y0224564D03*
X0083314Y0224119D03*
X0083314Y0223674D03*
X0083314Y0223229D03*
X0083314Y0222784D03*
X0098885Y0231237D03*
X0109562Y0233461D03*
X0109562Y0233906D03*
X0109562Y0234351D03*
X0109562Y0234796D03*
X0109562Y0235241D03*
X0114011Y0228568D03*
X0114011Y0228123D03*
X0114011Y0227678D03*
X0114011Y0227233D03*
X0114011Y0226788D03*
X0120684Y0242359D03*
X0120684Y0242804D03*
X0120684Y0243249D03*
X0120684Y0243694D03*
X0120684Y0244139D03*
X0118459Y0251257D03*
X0118459Y0251702D03*
X0118459Y0252146D03*
X0118459Y0252591D03*
X0120684Y0264158D03*
X0120684Y0264603D03*
X0120684Y0265048D03*
X0120684Y0265493D03*
X0120684Y0265938D03*
X0125133Y0268607D03*
X0125133Y0269052D03*
X0125133Y0269497D03*
X0125133Y0269942D03*
X0125133Y0270387D03*
X0125133Y0281509D03*
X0125133Y0281954D03*
X0125133Y0282398D03*
X0125133Y0282843D03*
X0125133Y0283288D03*
X0125133Y0283733D03*
X0125133Y0284178D03*
X0125133Y0284623D03*
X0125133Y0285068D03*
X0125133Y0285513D03*
X0122908Y0285957D03*
X0122908Y0286402D03*
X0122908Y0286847D03*
X0122908Y0287292D03*
X0122908Y0287737D03*
X0120684Y0292631D03*
X0120684Y0293076D03*
X0120684Y0293520D03*
X0120684Y0293965D03*
X0120684Y0294410D03*
X0125133Y0299304D03*
X0125133Y0299749D03*
X0125133Y0300194D03*
X0125133Y0300639D03*
X0125133Y0301083D03*
X0138034Y0316654D03*
X0138034Y0317099D03*
X0138034Y0317544D03*
X0138034Y0317989D03*
X0138034Y0318434D03*
X0146932Y0311761D03*
X0146932Y0311316D03*
X0146932Y0310871D03*
X0146932Y0310426D03*
X0146932Y0309981D03*
X0149156Y0312206D03*
X0149156Y0312650D03*
X0149156Y0313095D03*
X0149156Y0313540D03*
X0149156Y0313985D03*
X0151381Y0309536D03*
X0151381Y0309091D03*
X0151381Y0308646D03*
X0151381Y0308202D03*
X0151381Y0307757D03*
X0146932Y0305087D03*
X0146932Y0304643D03*
X0146932Y0304198D03*
X0146932Y0303753D03*
X0146932Y0303308D03*
X0153160Y0283733D03*
X0159833Y0283733D03*
X0159833Y0284178D03*
X0159833Y0284623D03*
X0159833Y0285068D03*
X0159833Y0285513D03*
X0159833Y0288182D03*
X0159833Y0288627D03*
X0159833Y0289072D03*
X0159833Y0289517D03*
X0159833Y0289961D03*
X0159833Y0292631D03*
X0159833Y0293076D03*
X0159833Y0293520D03*
X0159833Y0293965D03*
X0159833Y0294410D03*
X0159833Y0309981D03*
X0159833Y0310426D03*
X0159833Y0310871D03*
X0159833Y0311316D03*
X0159833Y0311761D03*
X0125133Y0230792D03*
X0125133Y0230347D03*
X0125133Y0229902D03*
X0125133Y0229457D03*
X0125133Y0229013D03*
X0094436Y0249032D03*
X0094436Y0249477D03*
X0094436Y0249922D03*
X0094436Y0250367D03*
X0085538Y0255261D03*
X0085538Y0255706D03*
X0085538Y0256150D03*
X0085538Y0256595D03*
X0085538Y0257040D03*
X0098885Y0292186D03*
D18*
X0104223Y0289961D03*
X0104223Y0289517D03*
X0104223Y0289072D03*
X0104223Y0288627D03*
X0104223Y0288182D03*
X0099774Y0281064D03*
X0099774Y0280619D03*
X0099774Y0280174D03*
X0099774Y0279729D03*
X0099774Y0279284D03*
X0099774Y0278839D03*
X0099774Y0278394D03*
X0099774Y0277950D03*
X0099774Y0277505D03*
X0099774Y0277060D03*
X0099774Y0276615D03*
X0099774Y0276170D03*
X0099774Y0275725D03*
X0099774Y0275280D03*
X0097550Y0268162D03*
X0101999Y0268162D03*
X0101999Y0267717D03*
X0101999Y0267272D03*
X0101999Y0266828D03*
X0101999Y0266383D03*
X0099774Y0261489D03*
X0099774Y0261044D03*
X0099774Y0260599D03*
X0099774Y0260154D03*
X0099774Y0259709D03*
X0101999Y0257040D03*
X0101999Y0256595D03*
X0101999Y0256150D03*
X0101999Y0255706D03*
X0101999Y0255261D03*
X0101999Y0254816D03*
X0101999Y0254371D03*
X0101999Y0253926D03*
X0101999Y0253481D03*
X0101999Y0253036D03*
X0104223Y0257485D03*
X0104223Y0257930D03*
X0104223Y0258375D03*
X0104223Y0258820D03*
X0104223Y0259265D03*
X0097550Y0255261D03*
X0099774Y0237465D03*
X0099774Y0237020D03*
X0099774Y0236576D03*
X0099774Y0236131D03*
X0099774Y0235686D03*
X0099774Y0235241D03*
X0099774Y0234796D03*
X0099774Y0234351D03*
X0099774Y0233906D03*
X0099774Y0233461D03*
X0101999Y0228568D03*
X0101999Y0228123D03*
X0101999Y0227678D03*
X0101999Y0227233D03*
X0101999Y0226788D03*
X0104223Y0233461D03*
X0104223Y0233906D03*
X0104223Y0234351D03*
X0104223Y0234796D03*
X0104223Y0235241D03*
X0126022Y0241914D03*
X0128247Y0237465D03*
X0128247Y0237020D03*
X0128247Y0236576D03*
X0128247Y0236131D03*
X0128247Y0235686D03*
X0132696Y0241914D03*
X0130471Y0246808D03*
X0130471Y0247253D03*
X0130471Y0247698D03*
X0130471Y0248143D03*
X0128247Y0251257D03*
X0128247Y0251702D03*
X0128247Y0252146D03*
X0128247Y0252591D03*
X0130471Y0257485D03*
X0130471Y0257930D03*
X0130471Y0258375D03*
X0130471Y0258820D03*
X0130471Y0259265D03*
X0130471Y0266383D03*
X0130471Y0266828D03*
X0130471Y0267272D03*
X0130471Y0267717D03*
X0130471Y0268162D03*
X0130471Y0268607D03*
X0130471Y0269052D03*
X0130471Y0269497D03*
X0130471Y0269942D03*
X0130471Y0270387D03*
X0132696Y0279284D03*
X0128247Y0285957D03*
X0128247Y0286402D03*
X0128247Y0286847D03*
X0128247Y0287292D03*
X0128247Y0287737D03*
X0128247Y0288182D03*
X0128247Y0288627D03*
X0128247Y0289072D03*
X0128247Y0289517D03*
X0128247Y0289961D03*
X0130471Y0290406D03*
X0130471Y0290851D03*
X0130471Y0291296D03*
X0130471Y0291741D03*
X0130471Y0292186D03*
X0128247Y0294855D03*
X0128247Y0295300D03*
X0128247Y0295745D03*
X0128247Y0296190D03*
X0128247Y0296635D03*
X0128247Y0297080D03*
X0128247Y0297524D03*
X0128247Y0297969D03*
X0128247Y0298414D03*
X0128247Y0298859D03*
X0128247Y0301528D03*
X0128247Y0301973D03*
X0128247Y0302418D03*
X0128247Y0302863D03*
X0130471Y0321103D03*
X0130471Y0321548D03*
X0130471Y0321993D03*
X0130471Y0322438D03*
X0130471Y0322883D03*
X0128247Y0325552D03*
X0128247Y0325997D03*
X0128247Y0326442D03*
X0128247Y0326887D03*
X0121574Y0325107D03*
X0110896Y0331780D03*
X0104223Y0332225D03*
X0104223Y0332670D03*
X0104223Y0333115D03*
X0104223Y0333560D03*
X0099774Y0324662D03*
X0099774Y0324217D03*
X0099774Y0323772D03*
X0099774Y0323328D03*
X0099774Y0322883D03*
X0099774Y0322438D03*
X0099774Y0321993D03*
X0099774Y0321548D03*
X0099774Y0321103D03*
X0099774Y0320658D03*
X0099774Y0320213D03*
X0099774Y0319769D03*
X0099774Y0319324D03*
X0099774Y0318879D03*
X0101999Y0313985D03*
X0101999Y0313540D03*
X0101999Y0313095D03*
X0101999Y0312650D03*
X0101999Y0309536D03*
X0101999Y0309091D03*
X0101999Y0308646D03*
X0101999Y0308202D03*
X0101999Y0307757D03*
X0104223Y0305087D03*
X0104223Y0304643D03*
X0104223Y0304198D03*
X0104223Y0303753D03*
X0106448Y0301083D03*
X0106448Y0307757D03*
X0110896Y0305532D03*
X0104223Y0321103D03*
X0104223Y0321548D03*
X0104223Y0321993D03*
X0104223Y0322438D03*
X0104223Y0322883D03*
X0097550Y0334005D03*
X0093101Y0334005D03*
X0077975Y0333560D03*
X0077975Y0333115D03*
X0077975Y0332670D03*
X0077975Y0332225D03*
X0077975Y0331780D03*
X0075751Y0331335D03*
X0075751Y0330891D03*
X0075751Y0330446D03*
X0075751Y0330001D03*
X0073526Y0331780D03*
X0073526Y0332225D03*
X0073526Y0332670D03*
X0073526Y0333115D03*
X0073526Y0333560D03*
X0075751Y0326887D03*
X0075751Y0326442D03*
X0075751Y0325997D03*
X0075751Y0325552D03*
X0077975Y0325107D03*
X0077975Y0324662D03*
X0077975Y0324217D03*
X0077975Y0323772D03*
X0077975Y0323328D03*
X0077975Y0322883D03*
X0077975Y0322438D03*
X0077975Y0321993D03*
X0077975Y0321548D03*
X0077975Y0321103D03*
X0075751Y0317989D03*
X0075751Y0317544D03*
X0075751Y0317099D03*
X0075751Y0316654D03*
X0073526Y0321103D03*
X0073526Y0321548D03*
X0073526Y0321993D03*
X0073526Y0322438D03*
X0073526Y0322883D03*
X0071302Y0307757D03*
X0073526Y0301083D03*
X0073526Y0300639D03*
X0073526Y0300194D03*
X0073526Y0299749D03*
X0073526Y0299304D03*
X0073526Y0296635D03*
X0073526Y0296190D03*
X0073526Y0295745D03*
X0073526Y0295300D03*
X0073526Y0294855D03*
X0075751Y0301528D03*
X0075751Y0301973D03*
X0075751Y0302418D03*
X0075751Y0302863D03*
X0073526Y0285513D03*
X0073526Y0285068D03*
X0073526Y0284623D03*
X0073526Y0284178D03*
X0077975Y0283288D03*
X0077975Y0282843D03*
X0077975Y0282398D03*
X0077975Y0281954D03*
X0077975Y0281509D03*
X0077975Y0276615D03*
X0077975Y0276170D03*
X0077975Y0275725D03*
X0077975Y0275280D03*
X0075751Y0274391D03*
X0075751Y0273946D03*
X0075751Y0273501D03*
X0075751Y0273056D03*
X0073526Y0275280D03*
X0073526Y0275725D03*
X0073526Y0276170D03*
X0073526Y0276615D03*
X0071302Y0272611D03*
X0073526Y0268162D03*
X0073526Y0267717D03*
X0073526Y0267272D03*
X0073526Y0266828D03*
X0073526Y0266383D03*
X0073526Y0263713D03*
X0073526Y0263269D03*
X0073526Y0262824D03*
X0073526Y0262379D03*
X0073526Y0261934D03*
X0075751Y0257040D03*
X0075751Y0256595D03*
X0075751Y0256150D03*
X0075751Y0255706D03*
X0073526Y0252591D03*
X0073526Y0252146D03*
X0073526Y0251702D03*
X0073526Y0251257D03*
X0077975Y0245918D03*
X0077975Y0245473D03*
X0077975Y0245028D03*
X0077975Y0244583D03*
X0075751Y0239245D03*
X0075751Y0238800D03*
X0075751Y0238355D03*
X0075751Y0237910D03*
X0077975Y0235241D03*
X0077975Y0234796D03*
X0077975Y0234351D03*
X0077975Y0233906D03*
X0077975Y0233461D03*
X0073526Y0233461D03*
X0073526Y0233906D03*
X0073526Y0234351D03*
X0073526Y0234796D03*
X0073526Y0235241D03*
X0051727Y0246808D03*
X0051727Y0247253D03*
X0051727Y0247698D03*
X0051727Y0248143D03*
X0047278Y0248143D03*
X0047278Y0247698D03*
X0047278Y0247253D03*
X0047278Y0246808D03*
X0047278Y0246363D03*
X0047278Y0245918D03*
X0047278Y0245473D03*
X0047278Y0245028D03*
X0047278Y0244583D03*
X0047278Y0253481D03*
X0047278Y0253926D03*
X0047278Y0254371D03*
X0047278Y0254816D03*
X0047278Y0255261D03*
X0047278Y0255706D03*
X0047278Y0256150D03*
X0047278Y0256595D03*
X0047278Y0257040D03*
X0047278Y0257485D03*
X0047278Y0257930D03*
X0047278Y0258375D03*
X0047278Y0258820D03*
X0047278Y0259265D03*
X0049503Y0264158D03*
X0049503Y0264603D03*
X0049503Y0265048D03*
X0049503Y0265493D03*
X0051727Y0268607D03*
X0051727Y0269052D03*
X0051727Y0269497D03*
X0051727Y0269942D03*
X0049503Y0273056D03*
X0049503Y0273501D03*
X0049503Y0273946D03*
X0049503Y0274391D03*
X0049503Y0274835D03*
X0049503Y0275280D03*
X0049503Y0275725D03*
X0049503Y0276170D03*
X0049503Y0276615D03*
X0047278Y0279284D03*
X0047278Y0279729D03*
X0047278Y0280174D03*
X0047278Y0280619D03*
X0047278Y0281064D03*
X0051727Y0284178D03*
X0051727Y0284623D03*
X0051727Y0285068D03*
X0051727Y0285513D03*
X0047278Y0292631D03*
X0047278Y0293076D03*
X0047278Y0293520D03*
X0047278Y0293965D03*
X0051727Y0299304D03*
X0051727Y0299749D03*
X0051727Y0300194D03*
X0051727Y0300639D03*
X0047278Y0303753D03*
X0047278Y0304198D03*
X0047278Y0304643D03*
X0047278Y0305087D03*
X0047278Y0312206D03*
X0047278Y0312650D03*
X0047278Y0313095D03*
X0047278Y0313540D03*
X0047278Y0313985D03*
X0047278Y0316654D03*
X0047278Y0317099D03*
X0047278Y0317544D03*
X0047278Y0317989D03*
X0047278Y0318434D03*
X0047278Y0323328D03*
X0047278Y0323772D03*
X0047278Y0324217D03*
X0047278Y0324662D03*
X0047278Y0325107D03*
X0047278Y0325552D03*
X0047278Y0325997D03*
X0047278Y0326442D03*
X0047278Y0326887D03*
X0047278Y0327331D03*
X0047278Y0327776D03*
X0047278Y0328221D03*
X0047278Y0328666D03*
X0047278Y0329111D03*
X0047278Y0329556D03*
X0047278Y0330001D03*
X0047278Y0330446D03*
X0047278Y0330891D03*
X0047278Y0331335D03*
X0047278Y0331780D03*
X0047278Y0332225D03*
X0047278Y0332670D03*
X0047278Y0333115D03*
X0047278Y0333560D03*
X0047278Y0272611D03*
X0047278Y0272166D03*
X0047278Y0271721D03*
X0047278Y0271276D03*
X0047278Y0270831D03*
X0047278Y0233017D03*
X0047278Y0232572D03*
X0047278Y0232127D03*
X0047278Y0231682D03*
X0047278Y0231237D03*
X0047278Y0230792D03*
X0047278Y0230347D03*
X0047278Y0229902D03*
X0047278Y0229457D03*
X0047278Y0229013D03*
X0047278Y0228568D03*
X0047278Y0228123D03*
X0047278Y0227678D03*
X0047278Y0227233D03*
X0047278Y0226788D03*
X0047278Y0226343D03*
X0047278Y0225898D03*
X0047278Y0225454D03*
X0047278Y0225009D03*
X0047278Y0224564D03*
X0047278Y0224119D03*
X0047278Y0223674D03*
X0047278Y0223229D03*
X0047278Y0222784D03*
X0104223Y0277505D03*
X0104223Y0277950D03*
X0104223Y0278394D03*
X0104223Y0278839D03*
X0154495Y0269942D03*
X0154495Y0269497D03*
X0154495Y0269052D03*
X0154495Y0268607D03*
X0158944Y0268162D03*
X0158944Y0279284D03*
X0156719Y0281509D03*
X0156719Y0281954D03*
X0156719Y0282398D03*
X0156719Y0282843D03*
X0156719Y0283288D03*
X0154495Y0288627D03*
X0154495Y0289072D03*
X0154495Y0289517D03*
X0154495Y0289961D03*
X0156719Y0297080D03*
X0156719Y0297524D03*
X0156719Y0297969D03*
X0156719Y0298414D03*
X0154495Y0303753D03*
X0154495Y0304198D03*
X0154495Y0304643D03*
X0154495Y0305087D03*
X0156719Y0312206D03*
X0156719Y0312650D03*
X0156719Y0313095D03*
X0156719Y0313540D03*
X0156719Y0313985D03*
X0154495Y0314430D03*
X0154495Y0314875D03*
X0154495Y0315320D03*
X0154495Y0315765D03*
X0154495Y0316209D03*
X0158944Y0241914D03*
X0156719Y0239690D03*
X0156719Y0239245D03*
X0156719Y0238800D03*
X0156719Y0238355D03*
X0156719Y0237910D03*
X0154495Y0240135D03*
X0154495Y0240580D03*
X0154495Y0241024D03*
X0154495Y0241469D03*
D19*
X0152493Y0244139D03*
X0145820Y0248587D03*
X0141371Y0257485D03*
X0141371Y0257930D03*
X0141371Y0258375D03*
X0141371Y0258820D03*
X0141371Y0259265D03*
X0139146Y0261934D03*
X0139146Y0262379D03*
X0139146Y0262824D03*
X0139146Y0263269D03*
X0139146Y0263713D03*
X0145820Y0266383D03*
X0145820Y0266828D03*
X0145820Y0267272D03*
X0145820Y0267717D03*
X0145820Y0268162D03*
X0141371Y0277505D03*
X0141371Y0277950D03*
X0141371Y0278394D03*
X0141371Y0278839D03*
X0141371Y0279284D03*
X0141371Y0279729D03*
X0141371Y0280174D03*
X0141371Y0280619D03*
X0141371Y0281064D03*
X0141371Y0285957D03*
X0141371Y0286402D03*
X0141371Y0286847D03*
X0141371Y0287292D03*
X0141371Y0287737D03*
X0139146Y0301528D03*
X0139146Y0301973D03*
X0139146Y0302418D03*
X0139146Y0302863D03*
X0143595Y0307757D03*
X0143595Y0308202D03*
X0143595Y0308646D03*
X0143595Y0309091D03*
X0143595Y0309536D03*
X0139146Y0309981D03*
X0139146Y0310426D03*
X0139146Y0310871D03*
X0139146Y0311316D03*
X0139146Y0311761D03*
X0139146Y0312206D03*
X0139146Y0312650D03*
X0139146Y0313095D03*
X0139146Y0313540D03*
X0139146Y0313985D03*
X0141371Y0318879D03*
X0141371Y0319324D03*
X0141371Y0319769D03*
X0141371Y0320213D03*
X0141371Y0320658D03*
X0136922Y0325552D03*
X0136922Y0325997D03*
X0136922Y0326442D03*
X0136922Y0326887D03*
X0139146Y0332225D03*
X0139146Y0332670D03*
X0139146Y0333115D03*
X0139146Y0333560D03*
X0148044Y0302863D03*
X0148044Y0302418D03*
X0148044Y0301973D03*
X0148044Y0301528D03*
X0124020Y0248143D03*
X0124020Y0247698D03*
X0124020Y0247253D03*
X0124020Y0246808D03*
X0125800Y0246363D03*
X0117347Y0235241D03*
X0117347Y0234796D03*
X0117347Y0234351D03*
X0117347Y0233906D03*
X0117347Y0233461D03*
X0104446Y0244139D03*
X0112898Y0259709D03*
X0112898Y0260154D03*
X0112898Y0260599D03*
X0112898Y0261044D03*
X0112898Y0261489D03*
X0110674Y0275280D03*
X0110674Y0275725D03*
X0110674Y0276170D03*
X0110674Y0276615D03*
X0110674Y0279284D03*
X0110674Y0279729D03*
X0110674Y0280174D03*
X0110674Y0280619D03*
X0110674Y0281064D03*
X0108450Y0290406D03*
X0108450Y0290851D03*
X0108450Y0291296D03*
X0108450Y0291741D03*
X0108450Y0292186D03*
X0097772Y0285957D03*
X0091099Y0290406D03*
X0091099Y0290851D03*
X0091099Y0291296D03*
X0091099Y0291741D03*
X0091099Y0292186D03*
X0086650Y0294855D03*
X0086650Y0295300D03*
X0086650Y0295745D03*
X0086650Y0296190D03*
X0086650Y0296635D03*
X0093324Y0301528D03*
X0093324Y0301973D03*
X0093324Y0302418D03*
X0093324Y0302863D03*
X0091099Y0327776D03*
X0091099Y0328221D03*
X0091099Y0328666D03*
X0091099Y0329111D03*
X0110674Y0325107D03*
X0110674Y0324662D03*
X0110674Y0324217D03*
X0110674Y0323772D03*
X0110674Y0323328D03*
X0112898Y0327776D03*
X0112898Y0328221D03*
X0112898Y0328666D03*
X0112898Y0329111D03*
X0112898Y0316209D03*
X0112898Y0315765D03*
X0112898Y0315320D03*
X0112898Y0314875D03*
X0112898Y0314430D03*
X0091099Y0270387D03*
X0091099Y0269942D03*
X0091099Y0269497D03*
X0091099Y0269052D03*
X0091099Y0268607D03*
X0091099Y0268162D03*
X0091099Y0267717D03*
X0091099Y0267272D03*
X0091099Y0266828D03*
X0091099Y0266383D03*
X0082202Y0273056D03*
X0082202Y0273501D03*
X0082202Y0273946D03*
X0082202Y0274391D03*
X0084426Y0244139D03*
X0084426Y0243694D03*
X0084426Y0243249D03*
X0084426Y0242804D03*
X0084426Y0242359D03*
X0086650Y0239690D03*
X0086650Y0239245D03*
X0086650Y0238800D03*
X0086650Y0238355D03*
X0086650Y0237910D03*
X0077753Y0241914D03*
X0064851Y0248587D03*
X0064851Y0249032D03*
X0064851Y0249477D03*
X0064851Y0249922D03*
X0064851Y0250367D03*
X0064851Y0250812D03*
X0054174Y0272611D03*
X0058178Y0290406D03*
X0058178Y0290851D03*
X0058178Y0291296D03*
X0058178Y0291741D03*
X0058178Y0292186D03*
X0062627Y0307757D03*
X0062627Y0308202D03*
X0062627Y0308646D03*
X0062627Y0309091D03*
X0062627Y0309536D03*
X0067076Y0302863D03*
X0067076Y0302418D03*
X0067076Y0301973D03*
X0067076Y0301528D03*
X0093324Y0224119D03*
X0093324Y0223674D03*
X0093324Y0223229D03*
X0093324Y0222784D03*
X0132918Y0224564D03*
X0141371Y0233461D03*
X0141371Y0233906D03*
X0141371Y0234351D03*
X0141371Y0234796D03*
X0141371Y0235241D03*
D20*
X0133808Y0224119D03*
X0133808Y0223674D03*
X0133808Y0223229D03*
X0133808Y0222784D03*
X0124910Y0253036D03*
X0124910Y0253481D03*
X0124910Y0253926D03*
X0124910Y0254371D03*
X0124910Y0254816D03*
X0129359Y0264158D03*
X0129359Y0264603D03*
X0129359Y0265048D03*
X0129359Y0265493D03*
X0129359Y0265938D03*
X0138257Y0272611D03*
X0131583Y0303753D03*
X0131583Y0304198D03*
X0131583Y0304643D03*
X0131583Y0305087D03*
X0127135Y0307757D03*
X0127135Y0308202D03*
X0127135Y0308646D03*
X0127135Y0309091D03*
X0127135Y0309536D03*
X0105335Y0334005D03*
X0105335Y0334450D03*
X0105335Y0334894D03*
X0105335Y0335339D03*
X0105335Y0335784D03*
X0081312Y0298859D03*
X0081312Y0298414D03*
X0081312Y0297969D03*
X0081312Y0297524D03*
X0081312Y0297080D03*
X0074639Y0292186D03*
X0074639Y0291741D03*
X0074639Y0291296D03*
X0074639Y0290851D03*
X0074639Y0290406D03*
X0081312Y0267717D03*
X0081312Y0267272D03*
X0081312Y0266828D03*
X0081312Y0266383D03*
X0079087Y0250367D03*
X0079087Y0249922D03*
X0079087Y0249477D03*
X0079087Y0249032D03*
X0076863Y0248143D03*
X0076863Y0247698D03*
X0076863Y0247253D03*
X0076863Y0246808D03*
X0072414Y0228568D03*
X0072414Y0228123D03*
X0072414Y0227678D03*
X0072414Y0227233D03*
X0057288Y0244139D03*
X0050615Y0251257D03*
X0050615Y0251702D03*
X0050615Y0252146D03*
X0050615Y0252591D03*
X0098662Y0261934D03*
X0098662Y0262379D03*
X0098662Y0262824D03*
X0098662Y0263269D03*
X0098662Y0263713D03*
X0155607Y0246363D03*
X0155607Y0245918D03*
X0155607Y0245473D03*
X0155607Y0245028D03*
X0155607Y0244583D03*
X0155607Y0290406D03*
X0155607Y0290851D03*
X0155607Y0291296D03*
X0155607Y0291741D03*
X0155607Y0292186D03*
X0155607Y0299304D03*
X0155607Y0299749D03*
X0155607Y0300194D03*
X0155607Y0300639D03*
X0155607Y0301083D03*
D21*
X0155607Y0305532D03*
X0155607Y0305977D03*
X0155607Y0306422D03*
X0155607Y0306867D03*
X0155607Y0307312D03*
X0124910Y0239690D03*
X0124910Y0239245D03*
X0124910Y0238800D03*
X0124910Y0238355D03*
X0124910Y0237910D03*
X0103111Y0230792D03*
X0103111Y0230347D03*
X0103111Y0229902D03*
X0103111Y0229457D03*
X0103111Y0229013D03*
X0079087Y0226343D03*
X0079087Y0225898D03*
X0079087Y0225454D03*
X0079087Y0225009D03*
X0079087Y0257485D03*
X0079087Y0257930D03*
X0079087Y0258375D03*
X0079087Y0258820D03*
X0079087Y0259265D03*
X0070190Y0279284D03*
X0070190Y0279729D03*
X0070190Y0280174D03*
X0070190Y0280619D03*
X0070190Y0281064D03*
X0103111Y0281954D03*
X0103111Y0282398D03*
X0103111Y0282843D03*
X0103111Y0283288D03*
D22*
X0110674Y0265938D03*
X0110674Y0265493D03*
X0110674Y0265048D03*
X0110674Y0264603D03*
X0110674Y0264158D03*
X0112898Y0254816D03*
X0112898Y0254371D03*
X0112898Y0253926D03*
X0112898Y0253481D03*
X0112898Y0253036D03*
X0110674Y0246363D03*
X0110674Y0245918D03*
X0110674Y0245473D03*
X0110674Y0245028D03*
X0110674Y0244583D03*
X0086650Y0228568D03*
X0086650Y0228123D03*
X0086650Y0227678D03*
X0086650Y0227233D03*
X0086650Y0226788D03*
X0069300Y0229013D03*
X0064851Y0246808D03*
X0064851Y0247253D03*
X0064851Y0247698D03*
X0064851Y0248143D03*
X0060402Y0273056D03*
X0060402Y0273501D03*
X0060402Y0273946D03*
X0060402Y0274391D03*
X0062627Y0303753D03*
X0062627Y0304198D03*
X0062627Y0304643D03*
X0062627Y0305087D03*
X0084426Y0281064D03*
X0084426Y0280619D03*
X0084426Y0280174D03*
X0084426Y0279729D03*
X0086650Y0276615D03*
X0086650Y0276170D03*
X0086650Y0275725D03*
X0086650Y0275280D03*
X0086650Y0332225D03*
X0086650Y0332670D03*
X0086650Y0333115D03*
X0086650Y0333560D03*
X0136922Y0316209D03*
X0136922Y0315765D03*
X0136922Y0315320D03*
X0136922Y0314875D03*
X0136922Y0314430D03*
X0136922Y0289961D03*
X0136922Y0289517D03*
X0136922Y0289072D03*
X0136922Y0288627D03*
X0136922Y0288182D03*
X0148044Y0283288D03*
X0148044Y0282843D03*
X0148044Y0282398D03*
X0148044Y0281954D03*
X0148044Y0281509D03*
X0154272Y0272611D03*
X0143595Y0250367D03*
X0143595Y0249922D03*
X0143595Y0249477D03*
X0143595Y0249032D03*
X0136922Y0251257D03*
X0136922Y0251702D03*
X0136922Y0252146D03*
X0136922Y0252591D03*
X0148044Y0239690D03*
X0148044Y0239245D03*
X0148044Y0238800D03*
X0148044Y0238355D03*
X0148044Y0237910D03*
X0148044Y0230792D03*
X0148044Y0230347D03*
X0148044Y0229902D03*
X0148044Y0229457D03*
D23*
X0147822Y0229013D03*
X0154495Y0270831D03*
X0154495Y0271276D03*
X0154495Y0271721D03*
X0154495Y0272166D03*
X0152270Y0316654D03*
X0152270Y0317099D03*
X0152270Y0317544D03*
X0152270Y0317989D03*
X0152270Y0318434D03*
X0123798Y0257040D03*
X0123798Y0256595D03*
X0123798Y0256150D03*
X0123798Y0255706D03*
X0123798Y0255261D03*
X0104223Y0316654D03*
X0104223Y0317099D03*
X0104223Y0317544D03*
X0104223Y0317989D03*
X0104223Y0318434D03*
X0086873Y0331780D03*
X0084648Y0279284D03*
X0080200Y0270387D03*
X0080200Y0269942D03*
X0080200Y0269497D03*
X0080200Y0269052D03*
X0080200Y0268607D03*
X0071302Y0244139D03*
X0071302Y0243694D03*
X0071302Y0243249D03*
X0071302Y0242804D03*
X0071302Y0242359D03*
X0069078Y0230792D03*
X0069078Y0230347D03*
X0069078Y0229902D03*
X0069078Y0229457D03*
X0082424Y0231237D03*
X0082424Y0231682D03*
X0082424Y0232127D03*
X0082424Y0232572D03*
X0082424Y0233017D03*
X0056176Y0259709D03*
X0056176Y0260154D03*
X0056176Y0260599D03*
X0056176Y0261044D03*
X0056176Y0261489D03*
X0051727Y0294855D03*
X0051727Y0295300D03*
X0051727Y0295745D03*
X0051727Y0296190D03*
X0051727Y0296635D03*
X0056176Y0316654D03*
X0056176Y0317099D03*
X0056176Y0317544D03*
X0056176Y0317989D03*
X0056176Y0318434D03*
D24*
X0134698Y0231237D03*
D25*
X0134920Y0231682D03*
X0134920Y0232127D03*
X0134920Y0232572D03*
X0134920Y0233017D03*
X0108672Y0273056D03*
X0108672Y0273501D03*
X0108672Y0273946D03*
X0108672Y0274391D03*
X0104223Y0325552D03*
X0104223Y0325997D03*
X0104223Y0326442D03*
X0104223Y0326887D03*
X0104223Y0327331D03*
D26*
X0085538Y0313985D03*
X0085538Y0313540D03*
X0085538Y0313095D03*
X0085538Y0312650D03*
X0085538Y0312206D03*
X0103333Y0281509D03*
X0089987Y0254816D03*
X0089987Y0254371D03*
X0089987Y0253926D03*
X0089987Y0253481D03*
X0089987Y0253036D03*
X0063739Y0252591D03*
X0063739Y0252146D03*
X0063739Y0251702D03*
X0063739Y0251257D03*
X0061515Y0281509D03*
X0061515Y0281954D03*
X0061515Y0282398D03*
X0061515Y0282843D03*
X0061515Y0283288D03*
X0116235Y0241914D03*
X0116235Y0241469D03*
X0116235Y0241024D03*
X0116235Y0240580D03*
X0116235Y0240135D03*
X0138034Y0253036D03*
X0138034Y0253481D03*
X0138034Y0253926D03*
X0138034Y0254371D03*
X0138034Y0254816D03*
X0146932Y0273056D03*
X0146932Y0273501D03*
X0146932Y0273946D03*
X0146932Y0274391D03*
D27*
X0110896Y0274835D03*
X0077975Y0248587D03*
X0071302Y0246363D03*
D28*
X0112898Y0268607D03*
X0112898Y0269052D03*
X0112898Y0269497D03*
X0112898Y0269942D03*
X0112898Y0270387D03*
D29*
X0076863Y0327776D03*
X0076863Y0328221D03*
X0076863Y0328666D03*
X0076863Y0329111D03*
D30*
X0101525Y0171454D02*
X0102547Y0171454D01*
X0101525Y0171454D02*
X0101463Y0171452D01*
X0101402Y0171447D01*
X0101341Y0171437D01*
X0101280Y0171424D01*
X0101221Y0171408D01*
X0101163Y0171388D01*
X0101106Y0171364D01*
X0101050Y0171337D01*
X0100996Y0171307D01*
X0100944Y0171273D01*
X0100895Y0171236D01*
X0100847Y0171197D01*
X0100802Y0171155D01*
X0100760Y0171110D01*
X0100720Y0171062D01*
X0100684Y0171013D01*
X0100650Y0170961D01*
X0100620Y0170907D01*
X0100593Y0170851D01*
X0100569Y0170794D01*
X0100549Y0170736D01*
X0100533Y0170677D01*
X0100520Y0170616D01*
X0100510Y0170555D01*
X0100505Y0170494D01*
X0100503Y0170432D01*
X0100503Y0167877D01*
X0100505Y0167815D01*
X0100510Y0167754D01*
X0100520Y0167693D01*
X0100533Y0167632D01*
X0100549Y0167573D01*
X0100569Y0167515D01*
X0100593Y0167458D01*
X0100620Y0167402D01*
X0100650Y0167348D01*
X0100684Y0167296D01*
X0100720Y0167247D01*
X0100760Y0167199D01*
X0100802Y0167154D01*
X0100847Y0167112D01*
X0100895Y0167072D01*
X0100944Y0167036D01*
X0100996Y0167002D01*
X0101050Y0166972D01*
X0101106Y0166945D01*
X0101163Y0166921D01*
X0101221Y0166901D01*
X0101280Y0166885D01*
X0101341Y0166872D01*
X0101402Y0166862D01*
X0101463Y0166857D01*
X0101525Y0166855D01*
X0101525Y0166854D02*
X0102547Y0166854D01*
X0104266Y0166854D02*
X0106822Y0166854D01*
X0105544Y0166854D02*
X0105544Y0171454D01*
X0104266Y0170432D01*
X0102615Y0158039D02*
X0102615Y0154717D01*
X0102613Y0154647D01*
X0102607Y0154576D01*
X0102598Y0154507D01*
X0102584Y0154438D01*
X0102567Y0154369D01*
X0102546Y0154302D01*
X0102521Y0154236D01*
X0102493Y0154172D01*
X0102461Y0154109D01*
X0102426Y0154048D01*
X0102387Y0153989D01*
X0102346Y0153932D01*
X0102301Y0153878D01*
X0102253Y0153826D01*
X0102203Y0153777D01*
X0102149Y0153730D01*
X0102094Y0153687D01*
X0102036Y0153647D01*
X0101976Y0153610D01*
X0101914Y0153577D01*
X0101850Y0153547D01*
X0101785Y0153520D01*
X0101719Y0153497D01*
X0101651Y0153478D01*
X0101582Y0153463D01*
X0101513Y0153451D01*
X0101443Y0153443D01*
X0101372Y0153439D01*
X0101302Y0153439D01*
X0101231Y0153443D01*
X0101161Y0153451D01*
X0101092Y0153463D01*
X0101023Y0153478D01*
X0100955Y0153497D01*
X0100889Y0153520D01*
X0100824Y0153547D01*
X0100760Y0153577D01*
X0100698Y0153610D01*
X0100638Y0153647D01*
X0100580Y0153687D01*
X0100525Y0153730D01*
X0100471Y0153777D01*
X0100421Y0153826D01*
X0100373Y0153878D01*
X0100328Y0153932D01*
X0100287Y0153989D01*
X0100248Y0154048D01*
X0100213Y0154109D01*
X0100181Y0154172D01*
X0100153Y0154236D01*
X0100128Y0154302D01*
X0100107Y0154369D01*
X0100090Y0154438D01*
X0100076Y0154507D01*
X0100067Y0154576D01*
X0100061Y0154647D01*
X0100059Y0154717D01*
X0100059Y0158039D01*
X0104709Y0157017D02*
X0105987Y0158039D01*
X0105987Y0153439D01*
X0104709Y0153439D02*
X0107265Y0153439D01*
X0110337Y0130421D02*
X0109059Y0129399D01*
X0110337Y0130421D02*
X0110337Y0125821D01*
X0109059Y0125821D02*
X0111615Y0125821D01*
X0113559Y0125821D02*
X0116115Y0125821D01*
X0114837Y0125821D02*
X0114837Y0130421D01*
X0113559Y0129399D01*
X0118059Y0129399D02*
X0119337Y0130421D01*
X0119337Y0125821D01*
X0118059Y0125821D02*
X0120615Y0125821D01*
X0107115Y0125821D02*
X0104559Y0125821D01*
X0106732Y0128376D01*
X0105965Y0130420D02*
X0105891Y0130418D01*
X0105817Y0130413D01*
X0105743Y0130403D01*
X0105670Y0130390D01*
X0105597Y0130374D01*
X0105526Y0130353D01*
X0105456Y0130329D01*
X0105387Y0130302D01*
X0105319Y0130271D01*
X0105253Y0130237D01*
X0105189Y0130200D01*
X0105127Y0130159D01*
X0105067Y0130115D01*
X0105009Y0130069D01*
X0104953Y0130019D01*
X0104900Y0129967D01*
X0104850Y0129912D01*
X0104803Y0129855D01*
X0104759Y0129795D01*
X0104717Y0129733D01*
X0104679Y0129670D01*
X0104644Y0129604D01*
X0104613Y0129537D01*
X0104585Y0129468D01*
X0104560Y0129398D01*
X0106732Y0128377D02*
X0106779Y0128424D01*
X0106823Y0128474D01*
X0106865Y0128526D01*
X0106904Y0128580D01*
X0106939Y0128636D01*
X0106972Y0128694D01*
X0107002Y0128754D01*
X0107028Y0128815D01*
X0107051Y0128878D01*
X0107070Y0128942D01*
X0107086Y0129006D01*
X0107099Y0129072D01*
X0107108Y0129138D01*
X0107113Y0129204D01*
X0107115Y0129271D01*
X0107113Y0129338D01*
X0107107Y0129405D01*
X0107098Y0129471D01*
X0107084Y0129536D01*
X0107067Y0129601D01*
X0107046Y0129664D01*
X0107021Y0129726D01*
X0106993Y0129787D01*
X0106961Y0129846D01*
X0106926Y0129903D01*
X0106887Y0129958D01*
X0106846Y0130010D01*
X0106801Y0130060D01*
X0106754Y0130107D01*
X0106704Y0130152D01*
X0106652Y0130193D01*
X0106597Y0130232D01*
X0106540Y0130267D01*
X0106481Y0130299D01*
X0106420Y0130327D01*
X0106358Y0130352D01*
X0106295Y0130373D01*
X0106230Y0130390D01*
X0106165Y0130404D01*
X0106099Y0130413D01*
X0106032Y0130419D01*
X0105965Y0130421D01*
X0102465Y0130421D02*
X0102465Y0125821D01*
X0102465Y0128376D02*
X0099909Y0128376D01*
X0099909Y0130421D02*
X0099909Y0125821D01*
X0100059Y0122606D02*
X0100059Y0119284D01*
X0100061Y0119214D01*
X0100067Y0119143D01*
X0100076Y0119074D01*
X0100090Y0119005D01*
X0100107Y0118936D01*
X0100128Y0118869D01*
X0100153Y0118803D01*
X0100181Y0118739D01*
X0100213Y0118676D01*
X0100248Y0118615D01*
X0100287Y0118556D01*
X0100328Y0118499D01*
X0100373Y0118445D01*
X0100421Y0118393D01*
X0100471Y0118344D01*
X0100525Y0118297D01*
X0100580Y0118254D01*
X0100638Y0118214D01*
X0100698Y0118177D01*
X0100760Y0118144D01*
X0100824Y0118114D01*
X0100889Y0118087D01*
X0100955Y0118064D01*
X0101023Y0118045D01*
X0101092Y0118030D01*
X0101161Y0118018D01*
X0101231Y0118010D01*
X0101302Y0118006D01*
X0101372Y0118006D01*
X0101443Y0118010D01*
X0101513Y0118018D01*
X0101582Y0118030D01*
X0101651Y0118045D01*
X0101719Y0118064D01*
X0101785Y0118087D01*
X0101850Y0118114D01*
X0101914Y0118144D01*
X0101976Y0118177D01*
X0102036Y0118214D01*
X0102094Y0118254D01*
X0102149Y0118297D01*
X0102203Y0118344D01*
X0102253Y0118393D01*
X0102301Y0118445D01*
X0102346Y0118499D01*
X0102387Y0118556D01*
X0102426Y0118615D01*
X0102461Y0118676D01*
X0102493Y0118739D01*
X0102521Y0118803D01*
X0102546Y0118869D01*
X0102567Y0118936D01*
X0102584Y0119005D01*
X0102598Y0119074D01*
X0102607Y0119143D01*
X0102613Y0119214D01*
X0102615Y0119284D01*
X0102615Y0122606D01*
X0106882Y0120561D02*
X0104709Y0118006D01*
X0107265Y0118006D01*
X0104710Y0121583D02*
X0104735Y0121653D01*
X0104763Y0121722D01*
X0104794Y0121789D01*
X0104829Y0121855D01*
X0104867Y0121918D01*
X0104909Y0121980D01*
X0104953Y0122040D01*
X0105000Y0122097D01*
X0105050Y0122152D01*
X0105103Y0122204D01*
X0105159Y0122254D01*
X0105217Y0122300D01*
X0105277Y0122344D01*
X0105339Y0122385D01*
X0105403Y0122422D01*
X0105469Y0122456D01*
X0105537Y0122487D01*
X0105606Y0122514D01*
X0105676Y0122538D01*
X0105747Y0122559D01*
X0105820Y0122575D01*
X0105893Y0122588D01*
X0105967Y0122598D01*
X0106041Y0122603D01*
X0106115Y0122605D01*
X0106115Y0122606D02*
X0106182Y0122604D01*
X0106249Y0122598D01*
X0106315Y0122589D01*
X0106380Y0122575D01*
X0106445Y0122558D01*
X0106508Y0122537D01*
X0106570Y0122512D01*
X0106631Y0122484D01*
X0106690Y0122452D01*
X0106747Y0122417D01*
X0106802Y0122378D01*
X0106854Y0122337D01*
X0106904Y0122292D01*
X0106951Y0122245D01*
X0106996Y0122195D01*
X0107037Y0122143D01*
X0107076Y0122088D01*
X0107111Y0122031D01*
X0107143Y0121972D01*
X0107171Y0121911D01*
X0107196Y0121849D01*
X0107217Y0121786D01*
X0107234Y0121721D01*
X0107248Y0121656D01*
X0107257Y0121590D01*
X0107263Y0121523D01*
X0107265Y0121456D01*
X0107263Y0121389D01*
X0107258Y0121323D01*
X0107249Y0121257D01*
X0107236Y0121191D01*
X0107220Y0121127D01*
X0107201Y0121063D01*
X0107178Y0121000D01*
X0107152Y0120939D01*
X0107122Y0120879D01*
X0107089Y0120821D01*
X0107054Y0120765D01*
X0107015Y0120711D01*
X0106973Y0120659D01*
X0106929Y0120609D01*
X0106882Y0120562D01*
X0096537Y0125821D02*
X0095259Y0125821D01*
X0096537Y0125821D02*
X0096607Y0125823D01*
X0096678Y0125829D01*
X0096747Y0125838D01*
X0096816Y0125852D01*
X0096885Y0125869D01*
X0096952Y0125890D01*
X0097018Y0125915D01*
X0097082Y0125943D01*
X0097145Y0125975D01*
X0097206Y0126010D01*
X0097265Y0126049D01*
X0097322Y0126090D01*
X0097376Y0126135D01*
X0097428Y0126183D01*
X0097477Y0126233D01*
X0097524Y0126287D01*
X0097567Y0126342D01*
X0097607Y0126400D01*
X0097644Y0126460D01*
X0097677Y0126522D01*
X0097707Y0126586D01*
X0097734Y0126651D01*
X0097757Y0126717D01*
X0097776Y0126785D01*
X0097791Y0126854D01*
X0097803Y0126923D01*
X0097811Y0126993D01*
X0097815Y0127064D01*
X0097815Y0127134D01*
X0097811Y0127205D01*
X0097803Y0127275D01*
X0097791Y0127344D01*
X0097776Y0127413D01*
X0097757Y0127481D01*
X0097734Y0127547D01*
X0097707Y0127612D01*
X0097677Y0127676D01*
X0097644Y0127738D01*
X0097607Y0127798D01*
X0097567Y0127856D01*
X0097524Y0127911D01*
X0097477Y0127965D01*
X0097428Y0128015D01*
X0097376Y0128063D01*
X0097322Y0128108D01*
X0097265Y0128149D01*
X0097206Y0128188D01*
X0097145Y0128223D01*
X0097082Y0128255D01*
X0097018Y0128283D01*
X0096952Y0128308D01*
X0096885Y0128329D01*
X0096816Y0128346D01*
X0096747Y0128360D01*
X0096678Y0128369D01*
X0096607Y0128375D01*
X0096537Y0128377D01*
X0096793Y0128376D02*
X0095771Y0128376D01*
X0096793Y0128377D02*
X0096856Y0128379D01*
X0096919Y0128385D01*
X0096981Y0128394D01*
X0097042Y0128408D01*
X0097103Y0128425D01*
X0097162Y0128446D01*
X0097220Y0128471D01*
X0097277Y0128499D01*
X0097331Y0128530D01*
X0097383Y0128565D01*
X0097434Y0128603D01*
X0097482Y0128644D01*
X0097527Y0128688D01*
X0097569Y0128734D01*
X0097609Y0128783D01*
X0097645Y0128834D01*
X0097678Y0128888D01*
X0097708Y0128943D01*
X0097734Y0129001D01*
X0097757Y0129059D01*
X0097776Y0129119D01*
X0097791Y0129180D01*
X0097803Y0129242D01*
X0097811Y0129305D01*
X0097815Y0129368D01*
X0097815Y0129430D01*
X0097811Y0129493D01*
X0097803Y0129556D01*
X0097791Y0129618D01*
X0097776Y0129679D01*
X0097757Y0129739D01*
X0097734Y0129797D01*
X0097708Y0129855D01*
X0097678Y0129910D01*
X0097645Y0129964D01*
X0097609Y0130015D01*
X0097569Y0130064D01*
X0097527Y0130110D01*
X0097482Y0130154D01*
X0097434Y0130195D01*
X0097383Y0130233D01*
X0097331Y0130268D01*
X0097277Y0130299D01*
X0097220Y0130327D01*
X0097162Y0130352D01*
X0097103Y0130373D01*
X0097042Y0130390D01*
X0096981Y0130404D01*
X0096919Y0130413D01*
X0096856Y0130419D01*
X0096793Y0130421D01*
X0095259Y0130421D01*
X0093615Y0130421D02*
X0091059Y0130421D01*
X0092337Y0130421D02*
X0092337Y0125821D01*
X0089265Y0125821D02*
X0089265Y0130421D01*
X0086709Y0130421D02*
X0089265Y0125821D01*
X0086709Y0125821D02*
X0086709Y0130421D01*
X0089390Y0094368D02*
X0090923Y0089768D01*
X0090540Y0090918D02*
X0088240Y0090918D01*
X0087857Y0089768D02*
X0089390Y0094368D01*
X0092312Y0094368D02*
X0094868Y0094368D01*
X0093590Y0094368D02*
X0093590Y0089768D01*
X0096212Y0094368D02*
X0098768Y0094368D01*
X0097490Y0094368D02*
X0097490Y0089768D01*
X0100279Y0089768D02*
X0101301Y0089768D01*
X0100790Y0089768D02*
X0100790Y0094368D01*
X0100279Y0094368D02*
X0101301Y0094368D01*
X0103262Y0094368D02*
X0103262Y0089768D01*
X0105818Y0089768D02*
X0103262Y0094368D01*
X0105818Y0094368D02*
X0105818Y0089768D01*
X0106243Y0087173D02*
X0104709Y0087173D01*
X0106243Y0087173D02*
X0106306Y0087171D01*
X0106369Y0087165D01*
X0106431Y0087156D01*
X0106492Y0087142D01*
X0106553Y0087125D01*
X0106612Y0087104D01*
X0106670Y0087079D01*
X0106727Y0087051D01*
X0106781Y0087020D01*
X0106833Y0086985D01*
X0106884Y0086947D01*
X0106932Y0086906D01*
X0106977Y0086862D01*
X0107019Y0086816D01*
X0107059Y0086767D01*
X0107095Y0086716D01*
X0107128Y0086662D01*
X0107158Y0086607D01*
X0107184Y0086549D01*
X0107207Y0086491D01*
X0107226Y0086431D01*
X0107241Y0086370D01*
X0107253Y0086308D01*
X0107261Y0086245D01*
X0107265Y0086182D01*
X0107265Y0086120D01*
X0107261Y0086057D01*
X0107253Y0085994D01*
X0107241Y0085932D01*
X0107226Y0085871D01*
X0107207Y0085811D01*
X0107184Y0085753D01*
X0107158Y0085695D01*
X0107128Y0085640D01*
X0107095Y0085586D01*
X0107059Y0085535D01*
X0107019Y0085486D01*
X0106977Y0085440D01*
X0106932Y0085396D01*
X0106884Y0085355D01*
X0106833Y0085317D01*
X0106781Y0085282D01*
X0106727Y0085251D01*
X0106670Y0085223D01*
X0106612Y0085198D01*
X0106553Y0085177D01*
X0106492Y0085160D01*
X0106431Y0085146D01*
X0106369Y0085137D01*
X0106306Y0085131D01*
X0106243Y0085129D01*
X0106243Y0085128D02*
X0105221Y0085128D01*
X0105987Y0085129D02*
X0106057Y0085127D01*
X0106128Y0085121D01*
X0106197Y0085112D01*
X0106266Y0085098D01*
X0106335Y0085081D01*
X0106402Y0085060D01*
X0106468Y0085035D01*
X0106532Y0085007D01*
X0106595Y0084975D01*
X0106656Y0084940D01*
X0106715Y0084901D01*
X0106772Y0084860D01*
X0106826Y0084815D01*
X0106878Y0084767D01*
X0106927Y0084717D01*
X0106974Y0084663D01*
X0107017Y0084608D01*
X0107057Y0084550D01*
X0107094Y0084490D01*
X0107127Y0084428D01*
X0107157Y0084364D01*
X0107184Y0084299D01*
X0107207Y0084233D01*
X0107226Y0084165D01*
X0107241Y0084096D01*
X0107253Y0084027D01*
X0107261Y0083957D01*
X0107265Y0083886D01*
X0107265Y0083816D01*
X0107261Y0083745D01*
X0107253Y0083675D01*
X0107241Y0083606D01*
X0107226Y0083537D01*
X0107207Y0083469D01*
X0107184Y0083403D01*
X0107157Y0083338D01*
X0107127Y0083274D01*
X0107094Y0083212D01*
X0107057Y0083152D01*
X0107017Y0083094D01*
X0106974Y0083039D01*
X0106927Y0082985D01*
X0106878Y0082935D01*
X0106826Y0082887D01*
X0106772Y0082842D01*
X0106715Y0082801D01*
X0106656Y0082762D01*
X0106595Y0082727D01*
X0106532Y0082695D01*
X0106468Y0082667D01*
X0106402Y0082642D01*
X0106335Y0082621D01*
X0106266Y0082604D01*
X0106197Y0082590D01*
X0106128Y0082581D01*
X0106057Y0082575D01*
X0105987Y0082573D01*
X0104709Y0082573D01*
X0102615Y0083851D02*
X0102615Y0087173D01*
X0100059Y0087173D02*
X0100059Y0083851D01*
X0100061Y0083781D01*
X0100067Y0083710D01*
X0100076Y0083641D01*
X0100090Y0083572D01*
X0100107Y0083503D01*
X0100128Y0083436D01*
X0100153Y0083370D01*
X0100181Y0083306D01*
X0100213Y0083243D01*
X0100248Y0083182D01*
X0100287Y0083123D01*
X0100328Y0083066D01*
X0100373Y0083012D01*
X0100421Y0082960D01*
X0100471Y0082911D01*
X0100525Y0082864D01*
X0100580Y0082821D01*
X0100638Y0082781D01*
X0100698Y0082744D01*
X0100760Y0082711D01*
X0100824Y0082681D01*
X0100889Y0082654D01*
X0100955Y0082631D01*
X0101023Y0082612D01*
X0101092Y0082597D01*
X0101161Y0082585D01*
X0101231Y0082577D01*
X0101302Y0082573D01*
X0101372Y0082573D01*
X0101443Y0082577D01*
X0101513Y0082585D01*
X0101582Y0082597D01*
X0101651Y0082612D01*
X0101719Y0082631D01*
X0101785Y0082654D01*
X0101850Y0082681D01*
X0101914Y0082711D01*
X0101976Y0082744D01*
X0102036Y0082781D01*
X0102094Y0082821D01*
X0102149Y0082864D01*
X0102203Y0082911D01*
X0102253Y0082960D01*
X0102301Y0083012D01*
X0102346Y0083066D01*
X0102387Y0083123D01*
X0102426Y0083182D01*
X0102461Y0083243D01*
X0102493Y0083306D01*
X0102521Y0083370D01*
X0102546Y0083436D01*
X0102567Y0083503D01*
X0102584Y0083572D01*
X0102598Y0083641D01*
X0102607Y0083710D01*
X0102613Y0083781D01*
X0102615Y0083851D01*
X0109190Y0089768D02*
X0109190Y0092195D01*
X0110723Y0094368D01*
X0109190Y0092195D02*
X0107657Y0094368D01*
X0112668Y0093345D02*
X0112670Y0093282D01*
X0112676Y0093219D01*
X0112685Y0093157D01*
X0112699Y0093096D01*
X0112716Y0093035D01*
X0112737Y0092976D01*
X0112762Y0092918D01*
X0112790Y0092861D01*
X0112821Y0092807D01*
X0112856Y0092755D01*
X0112894Y0092704D01*
X0112935Y0092656D01*
X0112979Y0092611D01*
X0113025Y0092569D01*
X0113074Y0092529D01*
X0113125Y0092493D01*
X0113179Y0092460D01*
X0113234Y0092430D01*
X0113292Y0092404D01*
X0113350Y0092381D01*
X0113410Y0092362D01*
X0113471Y0092347D01*
X0113533Y0092335D01*
X0113596Y0092327D01*
X0113659Y0092323D01*
X0113721Y0092323D01*
X0113784Y0092327D01*
X0113847Y0092335D01*
X0113909Y0092347D01*
X0113970Y0092362D01*
X0114030Y0092381D01*
X0114088Y0092404D01*
X0114146Y0092430D01*
X0114201Y0092460D01*
X0114255Y0092493D01*
X0114306Y0092529D01*
X0114355Y0092569D01*
X0114401Y0092611D01*
X0114445Y0092656D01*
X0114486Y0092704D01*
X0114524Y0092755D01*
X0114559Y0092807D01*
X0114590Y0092861D01*
X0114618Y0092918D01*
X0114643Y0092976D01*
X0114664Y0093035D01*
X0114681Y0093096D01*
X0114695Y0093157D01*
X0114704Y0093219D01*
X0114710Y0093282D01*
X0114712Y0093345D01*
X0114710Y0093408D01*
X0114704Y0093471D01*
X0114695Y0093533D01*
X0114681Y0093594D01*
X0114664Y0093655D01*
X0114643Y0093714D01*
X0114618Y0093772D01*
X0114590Y0093829D01*
X0114559Y0093883D01*
X0114524Y0093935D01*
X0114486Y0093986D01*
X0114445Y0094034D01*
X0114401Y0094079D01*
X0114355Y0094121D01*
X0114306Y0094161D01*
X0114255Y0094197D01*
X0114201Y0094230D01*
X0114146Y0094260D01*
X0114088Y0094286D01*
X0114030Y0094309D01*
X0113970Y0094328D01*
X0113909Y0094343D01*
X0113847Y0094355D01*
X0113784Y0094363D01*
X0113721Y0094367D01*
X0113659Y0094367D01*
X0113596Y0094363D01*
X0113533Y0094355D01*
X0113471Y0094343D01*
X0113410Y0094328D01*
X0113350Y0094309D01*
X0113292Y0094286D01*
X0113234Y0094260D01*
X0113179Y0094230D01*
X0113125Y0094197D01*
X0113074Y0094161D01*
X0113025Y0094121D01*
X0112979Y0094079D01*
X0112935Y0094034D01*
X0112894Y0093986D01*
X0112856Y0093935D01*
X0112821Y0093883D01*
X0112790Y0093829D01*
X0112762Y0093772D01*
X0112737Y0093714D01*
X0112716Y0093655D01*
X0112699Y0093594D01*
X0112685Y0093533D01*
X0112676Y0093471D01*
X0112670Y0093408D01*
X0112668Y0093345D01*
X0112412Y0091045D02*
X0112414Y0090975D01*
X0112420Y0090904D01*
X0112429Y0090835D01*
X0112443Y0090766D01*
X0112460Y0090697D01*
X0112481Y0090630D01*
X0112506Y0090564D01*
X0112534Y0090500D01*
X0112566Y0090437D01*
X0112601Y0090376D01*
X0112640Y0090317D01*
X0112681Y0090260D01*
X0112726Y0090206D01*
X0112774Y0090154D01*
X0112824Y0090105D01*
X0112878Y0090058D01*
X0112933Y0090015D01*
X0112991Y0089975D01*
X0113051Y0089938D01*
X0113113Y0089905D01*
X0113177Y0089875D01*
X0113242Y0089848D01*
X0113308Y0089825D01*
X0113376Y0089806D01*
X0113445Y0089791D01*
X0113514Y0089779D01*
X0113584Y0089771D01*
X0113655Y0089767D01*
X0113725Y0089767D01*
X0113796Y0089771D01*
X0113866Y0089779D01*
X0113935Y0089791D01*
X0114004Y0089806D01*
X0114072Y0089825D01*
X0114138Y0089848D01*
X0114203Y0089875D01*
X0114267Y0089905D01*
X0114329Y0089938D01*
X0114389Y0089975D01*
X0114447Y0090015D01*
X0114502Y0090058D01*
X0114556Y0090105D01*
X0114606Y0090154D01*
X0114654Y0090206D01*
X0114699Y0090260D01*
X0114740Y0090317D01*
X0114779Y0090376D01*
X0114814Y0090437D01*
X0114846Y0090500D01*
X0114874Y0090564D01*
X0114899Y0090630D01*
X0114920Y0090697D01*
X0114937Y0090766D01*
X0114951Y0090835D01*
X0114960Y0090904D01*
X0114966Y0090975D01*
X0114968Y0091045D01*
X0114966Y0091115D01*
X0114960Y0091186D01*
X0114951Y0091255D01*
X0114937Y0091324D01*
X0114920Y0091393D01*
X0114899Y0091460D01*
X0114874Y0091526D01*
X0114846Y0091590D01*
X0114814Y0091653D01*
X0114779Y0091714D01*
X0114740Y0091773D01*
X0114699Y0091830D01*
X0114654Y0091884D01*
X0114606Y0091936D01*
X0114556Y0091985D01*
X0114502Y0092032D01*
X0114447Y0092075D01*
X0114389Y0092115D01*
X0114329Y0092152D01*
X0114267Y0092185D01*
X0114203Y0092215D01*
X0114138Y0092242D01*
X0114072Y0092265D01*
X0114004Y0092284D01*
X0113935Y0092299D01*
X0113866Y0092311D01*
X0113796Y0092319D01*
X0113725Y0092323D01*
X0113655Y0092323D01*
X0113584Y0092319D01*
X0113514Y0092311D01*
X0113445Y0092299D01*
X0113376Y0092284D01*
X0113308Y0092265D01*
X0113242Y0092242D01*
X0113177Y0092215D01*
X0113113Y0092185D01*
X0113051Y0092152D01*
X0112991Y0092115D01*
X0112933Y0092075D01*
X0112878Y0092032D01*
X0112824Y0091985D01*
X0112774Y0091936D01*
X0112726Y0091884D01*
X0112681Y0091830D01*
X0112640Y0091773D01*
X0112601Y0091714D01*
X0112566Y0091653D01*
X0112534Y0091590D01*
X0112506Y0091526D01*
X0112481Y0091460D01*
X0112460Y0091393D01*
X0112443Y0091324D01*
X0112429Y0091255D01*
X0112420Y0091186D01*
X0112414Y0091115D01*
X0112412Y0091045D01*
X0116912Y0089768D02*
X0118446Y0089768D01*
X0118508Y0089770D01*
X0118569Y0089775D01*
X0118630Y0089785D01*
X0118691Y0089798D01*
X0118750Y0089814D01*
X0118808Y0089834D01*
X0118865Y0089858D01*
X0118921Y0089885D01*
X0118975Y0089915D01*
X0119027Y0089949D01*
X0119076Y0089985D01*
X0119124Y0090025D01*
X0119169Y0090067D01*
X0119211Y0090112D01*
X0119251Y0090160D01*
X0119287Y0090209D01*
X0119321Y0090261D01*
X0119351Y0090315D01*
X0119378Y0090371D01*
X0119402Y0090428D01*
X0119422Y0090486D01*
X0119438Y0090545D01*
X0119451Y0090606D01*
X0119461Y0090667D01*
X0119466Y0090728D01*
X0119468Y0090790D01*
X0119468Y0091301D01*
X0119466Y0091363D01*
X0119461Y0091424D01*
X0119451Y0091485D01*
X0119438Y0091546D01*
X0119422Y0091605D01*
X0119402Y0091663D01*
X0119378Y0091720D01*
X0119351Y0091776D01*
X0119321Y0091830D01*
X0119287Y0091882D01*
X0119251Y0091931D01*
X0119211Y0091979D01*
X0119169Y0092024D01*
X0119124Y0092066D01*
X0119076Y0092106D01*
X0119027Y0092142D01*
X0118975Y0092176D01*
X0118921Y0092206D01*
X0118865Y0092233D01*
X0118808Y0092257D01*
X0118750Y0092277D01*
X0118691Y0092293D01*
X0118630Y0092306D01*
X0118569Y0092316D01*
X0118508Y0092321D01*
X0118446Y0092323D01*
X0116912Y0092323D01*
X0116912Y0094368D01*
X0119468Y0094368D01*
X0120312Y0059555D02*
X0121846Y0054955D01*
X0121462Y0056105D02*
X0119162Y0056105D01*
X0118779Y0054955D02*
X0120312Y0059555D01*
X0116834Y0058532D02*
X0116832Y0058469D01*
X0116826Y0058406D01*
X0116817Y0058344D01*
X0116803Y0058283D01*
X0116786Y0058222D01*
X0116765Y0058163D01*
X0116740Y0058105D01*
X0116712Y0058048D01*
X0116681Y0057994D01*
X0116646Y0057942D01*
X0116608Y0057891D01*
X0116567Y0057843D01*
X0116523Y0057798D01*
X0116477Y0057756D01*
X0116428Y0057716D01*
X0116377Y0057680D01*
X0116323Y0057647D01*
X0116268Y0057617D01*
X0116210Y0057591D01*
X0116152Y0057568D01*
X0116092Y0057549D01*
X0116031Y0057534D01*
X0115969Y0057522D01*
X0115906Y0057514D01*
X0115843Y0057510D01*
X0115781Y0057510D01*
X0115718Y0057514D01*
X0115655Y0057522D01*
X0115593Y0057534D01*
X0115532Y0057549D01*
X0115472Y0057568D01*
X0115414Y0057591D01*
X0115356Y0057617D01*
X0115301Y0057647D01*
X0115247Y0057680D01*
X0115196Y0057716D01*
X0115147Y0057756D01*
X0115101Y0057798D01*
X0115057Y0057843D01*
X0115016Y0057891D01*
X0114978Y0057942D01*
X0114943Y0057994D01*
X0114912Y0058048D01*
X0114884Y0058105D01*
X0114859Y0058163D01*
X0114838Y0058222D01*
X0114821Y0058283D01*
X0114807Y0058344D01*
X0114798Y0058406D01*
X0114792Y0058469D01*
X0114790Y0058532D01*
X0114792Y0058595D01*
X0114798Y0058658D01*
X0114807Y0058720D01*
X0114821Y0058781D01*
X0114838Y0058842D01*
X0114859Y0058901D01*
X0114884Y0058959D01*
X0114912Y0059016D01*
X0114943Y0059070D01*
X0114978Y0059122D01*
X0115016Y0059173D01*
X0115057Y0059221D01*
X0115101Y0059266D01*
X0115147Y0059308D01*
X0115196Y0059348D01*
X0115247Y0059384D01*
X0115301Y0059417D01*
X0115356Y0059447D01*
X0115414Y0059473D01*
X0115472Y0059496D01*
X0115532Y0059515D01*
X0115593Y0059530D01*
X0115655Y0059542D01*
X0115718Y0059550D01*
X0115781Y0059554D01*
X0115843Y0059554D01*
X0115906Y0059550D01*
X0115969Y0059542D01*
X0116031Y0059530D01*
X0116092Y0059515D01*
X0116152Y0059496D01*
X0116210Y0059473D01*
X0116268Y0059447D01*
X0116323Y0059417D01*
X0116377Y0059384D01*
X0116428Y0059348D01*
X0116477Y0059308D01*
X0116523Y0059266D01*
X0116567Y0059221D01*
X0116608Y0059173D01*
X0116646Y0059122D01*
X0116681Y0059070D01*
X0116712Y0059016D01*
X0116740Y0058959D01*
X0116765Y0058901D01*
X0116786Y0058842D01*
X0116803Y0058781D01*
X0116817Y0058720D01*
X0116826Y0058658D01*
X0116832Y0058595D01*
X0116834Y0058532D01*
X0117090Y0056232D02*
X0117088Y0056162D01*
X0117082Y0056091D01*
X0117073Y0056022D01*
X0117059Y0055953D01*
X0117042Y0055884D01*
X0117021Y0055817D01*
X0116996Y0055751D01*
X0116968Y0055687D01*
X0116936Y0055624D01*
X0116901Y0055563D01*
X0116862Y0055504D01*
X0116821Y0055447D01*
X0116776Y0055393D01*
X0116728Y0055341D01*
X0116678Y0055292D01*
X0116624Y0055245D01*
X0116569Y0055202D01*
X0116511Y0055162D01*
X0116451Y0055125D01*
X0116389Y0055092D01*
X0116325Y0055062D01*
X0116260Y0055035D01*
X0116194Y0055012D01*
X0116126Y0054993D01*
X0116057Y0054978D01*
X0115988Y0054966D01*
X0115918Y0054958D01*
X0115847Y0054954D01*
X0115777Y0054954D01*
X0115706Y0054958D01*
X0115636Y0054966D01*
X0115567Y0054978D01*
X0115498Y0054993D01*
X0115430Y0055012D01*
X0115364Y0055035D01*
X0115299Y0055062D01*
X0115235Y0055092D01*
X0115173Y0055125D01*
X0115113Y0055162D01*
X0115055Y0055202D01*
X0115000Y0055245D01*
X0114946Y0055292D01*
X0114896Y0055341D01*
X0114848Y0055393D01*
X0114803Y0055447D01*
X0114762Y0055504D01*
X0114723Y0055563D01*
X0114688Y0055624D01*
X0114656Y0055687D01*
X0114628Y0055751D01*
X0114603Y0055817D01*
X0114582Y0055884D01*
X0114565Y0055953D01*
X0114551Y0056022D01*
X0114542Y0056091D01*
X0114536Y0056162D01*
X0114534Y0056232D01*
X0110417Y0055594D02*
X0110369Y0055698D01*
X0110323Y0055803D01*
X0110281Y0055909D01*
X0110242Y0056017D01*
X0110206Y0056126D01*
X0110174Y0056236D01*
X0110144Y0056347D01*
X0110119Y0056459D01*
X0110096Y0056571D01*
X0110077Y0056684D01*
X0110062Y0056798D01*
X0110050Y0056912D01*
X0110041Y0057026D01*
X0110036Y0057140D01*
X0110034Y0057255D01*
X0112590Y0057255D02*
X0112588Y0057370D01*
X0112583Y0057484D01*
X0112574Y0057598D01*
X0112562Y0057712D01*
X0112547Y0057826D01*
X0112528Y0057939D01*
X0112505Y0058051D01*
X0112480Y0058163D01*
X0112450Y0058274D01*
X0112418Y0058384D01*
X0112382Y0058493D01*
X0112343Y0058601D01*
X0112301Y0058707D01*
X0112255Y0058812D01*
X0112207Y0058916D01*
X0112334Y0058532D02*
X0110290Y0055977D01*
X0111312Y0054954D02*
X0111371Y0054956D01*
X0111429Y0054961D01*
X0111487Y0054970D01*
X0111544Y0054983D01*
X0111601Y0054999D01*
X0111656Y0055019D01*
X0111710Y0055042D01*
X0111762Y0055068D01*
X0111813Y0055098D01*
X0111862Y0055130D01*
X0111909Y0055166D01*
X0111953Y0055204D01*
X0111995Y0055245D01*
X0112034Y0055289D01*
X0112071Y0055335D01*
X0112104Y0055383D01*
X0112135Y0055433D01*
X0112162Y0055485D01*
X0112186Y0055538D01*
X0112207Y0055593D01*
X0111312Y0054954D02*
X0111253Y0054956D01*
X0111195Y0054961D01*
X0111137Y0054970D01*
X0111080Y0054983D01*
X0111023Y0054999D01*
X0110968Y0055019D01*
X0110914Y0055042D01*
X0110862Y0055068D01*
X0110811Y0055098D01*
X0110762Y0055130D01*
X0110715Y0055166D01*
X0110671Y0055204D01*
X0110629Y0055245D01*
X0110590Y0055289D01*
X0110553Y0055335D01*
X0110520Y0055383D01*
X0110489Y0055433D01*
X0110462Y0055485D01*
X0110438Y0055538D01*
X0110417Y0055593D01*
X0112207Y0055594D02*
X0112255Y0055698D01*
X0112301Y0055803D01*
X0112343Y0055909D01*
X0112382Y0056017D01*
X0112418Y0056126D01*
X0112450Y0056236D01*
X0112480Y0056347D01*
X0112505Y0056459D01*
X0112528Y0056571D01*
X0112547Y0056684D01*
X0112562Y0056798D01*
X0112574Y0056912D01*
X0112583Y0057026D01*
X0112588Y0057140D01*
X0112590Y0057255D01*
X0110034Y0057255D02*
X0110036Y0057370D01*
X0110041Y0057484D01*
X0110050Y0057598D01*
X0110062Y0057712D01*
X0110077Y0057826D01*
X0110096Y0057939D01*
X0110119Y0058051D01*
X0110144Y0058163D01*
X0110174Y0058274D01*
X0110206Y0058384D01*
X0110242Y0058493D01*
X0110281Y0058601D01*
X0110323Y0058707D01*
X0110369Y0058812D01*
X0110417Y0058916D01*
X0111312Y0059555D02*
X0111371Y0059553D01*
X0111429Y0059548D01*
X0111487Y0059539D01*
X0111544Y0059526D01*
X0111601Y0059510D01*
X0111656Y0059490D01*
X0111710Y0059467D01*
X0111762Y0059441D01*
X0111813Y0059411D01*
X0111862Y0059379D01*
X0111909Y0059343D01*
X0111953Y0059305D01*
X0111995Y0059264D01*
X0112034Y0059220D01*
X0112071Y0059174D01*
X0112104Y0059126D01*
X0112135Y0059076D01*
X0112162Y0059024D01*
X0112186Y0058971D01*
X0112207Y0058916D01*
X0111312Y0059555D02*
X0111253Y0059553D01*
X0111195Y0059548D01*
X0111137Y0059539D01*
X0111080Y0059526D01*
X0111023Y0059510D01*
X0110968Y0059490D01*
X0110914Y0059467D01*
X0110862Y0059441D01*
X0110811Y0059411D01*
X0110762Y0059379D01*
X0110715Y0059343D01*
X0110671Y0059305D01*
X0110629Y0059264D01*
X0110590Y0059220D01*
X0110553Y0059174D01*
X0110520Y0059126D01*
X0110489Y0059076D01*
X0110462Y0059024D01*
X0110438Y0058971D01*
X0110417Y0058916D01*
X0108090Y0056488D02*
X0108090Y0056232D01*
X0108090Y0056488D02*
X0108088Y0056550D01*
X0108083Y0056611D01*
X0108073Y0056672D01*
X0108060Y0056733D01*
X0108044Y0056792D01*
X0108024Y0056850D01*
X0108000Y0056907D01*
X0107973Y0056963D01*
X0107943Y0057017D01*
X0107909Y0057069D01*
X0107873Y0057118D01*
X0107833Y0057166D01*
X0107791Y0057211D01*
X0107746Y0057253D01*
X0107698Y0057293D01*
X0107649Y0057329D01*
X0107597Y0057363D01*
X0107543Y0057393D01*
X0107487Y0057420D01*
X0107430Y0057444D01*
X0107372Y0057464D01*
X0107313Y0057480D01*
X0107252Y0057493D01*
X0107191Y0057503D01*
X0107130Y0057508D01*
X0107068Y0057510D01*
X0105534Y0057510D01*
X0105534Y0056232D01*
X0105536Y0056162D01*
X0105542Y0056091D01*
X0105551Y0056022D01*
X0105565Y0055953D01*
X0105582Y0055884D01*
X0105603Y0055817D01*
X0105628Y0055751D01*
X0105656Y0055687D01*
X0105688Y0055624D01*
X0105723Y0055563D01*
X0105762Y0055504D01*
X0105803Y0055447D01*
X0105848Y0055393D01*
X0105896Y0055341D01*
X0105946Y0055292D01*
X0106000Y0055245D01*
X0106055Y0055202D01*
X0106113Y0055162D01*
X0106173Y0055125D01*
X0106235Y0055092D01*
X0106299Y0055062D01*
X0106364Y0055035D01*
X0106430Y0055012D01*
X0106498Y0054993D01*
X0106567Y0054978D01*
X0106636Y0054966D01*
X0106706Y0054958D01*
X0106777Y0054954D01*
X0106847Y0054954D01*
X0106918Y0054958D01*
X0106988Y0054966D01*
X0107057Y0054978D01*
X0107126Y0054993D01*
X0107194Y0055012D01*
X0107260Y0055035D01*
X0107325Y0055062D01*
X0107389Y0055092D01*
X0107451Y0055125D01*
X0107511Y0055162D01*
X0107569Y0055202D01*
X0107624Y0055245D01*
X0107678Y0055292D01*
X0107728Y0055341D01*
X0107776Y0055393D01*
X0107821Y0055447D01*
X0107862Y0055504D01*
X0107901Y0055563D01*
X0107936Y0055624D01*
X0107968Y0055687D01*
X0107996Y0055751D01*
X0108021Y0055817D01*
X0108042Y0055884D01*
X0108059Y0055953D01*
X0108073Y0056022D01*
X0108082Y0056091D01*
X0108088Y0056162D01*
X0108090Y0056232D01*
X0105535Y0057510D02*
X0105537Y0057599D01*
X0105543Y0057688D01*
X0105552Y0057777D01*
X0105566Y0057865D01*
X0105583Y0057952D01*
X0105605Y0058039D01*
X0105630Y0058125D01*
X0105658Y0058209D01*
X0105691Y0058292D01*
X0105727Y0058374D01*
X0105766Y0058454D01*
X0105809Y0058532D01*
X0105855Y0058608D01*
X0105905Y0058682D01*
X0105957Y0058754D01*
X0106013Y0058824D01*
X0106072Y0058891D01*
X0106134Y0058955D01*
X0106198Y0059017D01*
X0106265Y0059076D01*
X0106335Y0059132D01*
X0106407Y0059184D01*
X0106481Y0059234D01*
X0106557Y0059280D01*
X0106635Y0059323D01*
X0106715Y0059362D01*
X0106797Y0059398D01*
X0106880Y0059431D01*
X0106964Y0059459D01*
X0107050Y0059484D01*
X0107137Y0059506D01*
X0107224Y0059523D01*
X0107312Y0059537D01*
X0107401Y0059546D01*
X0107490Y0059552D01*
X0107579Y0059554D01*
X0103816Y0059555D02*
X0102794Y0059555D01*
X0102794Y0059554D02*
X0102732Y0059552D01*
X0102671Y0059547D01*
X0102610Y0059537D01*
X0102549Y0059524D01*
X0102490Y0059508D01*
X0102432Y0059488D01*
X0102375Y0059464D01*
X0102319Y0059437D01*
X0102265Y0059407D01*
X0102213Y0059373D01*
X0102164Y0059336D01*
X0102116Y0059297D01*
X0102071Y0059255D01*
X0102029Y0059210D01*
X0101989Y0059162D01*
X0101953Y0059113D01*
X0101919Y0059061D01*
X0101889Y0059007D01*
X0101862Y0058951D01*
X0101838Y0058894D01*
X0101818Y0058836D01*
X0101802Y0058777D01*
X0101789Y0058716D01*
X0101779Y0058655D01*
X0101774Y0058594D01*
X0101772Y0058532D01*
X0101771Y0058532D02*
X0101771Y0055977D01*
X0101772Y0055977D02*
X0101774Y0055915D01*
X0101779Y0055854D01*
X0101789Y0055793D01*
X0101802Y0055732D01*
X0101818Y0055673D01*
X0101838Y0055615D01*
X0101862Y0055558D01*
X0101889Y0055502D01*
X0101919Y0055448D01*
X0101953Y0055396D01*
X0101989Y0055347D01*
X0102029Y0055299D01*
X0102071Y0055254D01*
X0102116Y0055212D01*
X0102164Y0055172D01*
X0102213Y0055136D01*
X0102265Y0055102D01*
X0102319Y0055072D01*
X0102375Y0055045D01*
X0102432Y0055021D01*
X0102490Y0055001D01*
X0102549Y0054985D01*
X0102610Y0054972D01*
X0102671Y0054962D01*
X0102732Y0054957D01*
X0102794Y0054955D01*
X0103816Y0054955D01*
X0100066Y0054955D02*
X0099044Y0054955D01*
X0098982Y0054957D01*
X0098921Y0054962D01*
X0098860Y0054972D01*
X0098799Y0054985D01*
X0098740Y0055001D01*
X0098682Y0055021D01*
X0098625Y0055045D01*
X0098569Y0055072D01*
X0098515Y0055102D01*
X0098463Y0055136D01*
X0098414Y0055172D01*
X0098366Y0055212D01*
X0098321Y0055254D01*
X0098279Y0055299D01*
X0098239Y0055347D01*
X0098203Y0055396D01*
X0098169Y0055448D01*
X0098139Y0055502D01*
X0098112Y0055558D01*
X0098088Y0055615D01*
X0098068Y0055673D01*
X0098052Y0055732D01*
X0098039Y0055793D01*
X0098029Y0055854D01*
X0098024Y0055915D01*
X0098022Y0055977D01*
X0098021Y0055977D02*
X0098021Y0058532D01*
X0098022Y0058532D02*
X0098024Y0058594D01*
X0098029Y0058655D01*
X0098039Y0058716D01*
X0098052Y0058777D01*
X0098068Y0058836D01*
X0098088Y0058894D01*
X0098112Y0058951D01*
X0098139Y0059007D01*
X0098169Y0059061D01*
X0098203Y0059113D01*
X0098239Y0059162D01*
X0098279Y0059210D01*
X0098321Y0059255D01*
X0098366Y0059297D01*
X0098414Y0059336D01*
X0098463Y0059373D01*
X0098515Y0059407D01*
X0098569Y0059437D01*
X0098625Y0059464D01*
X0098682Y0059488D01*
X0098740Y0059508D01*
X0098799Y0059524D01*
X0098860Y0059537D01*
X0098921Y0059547D01*
X0098982Y0059552D01*
X0099044Y0059554D01*
X0099044Y0059555D02*
X0100066Y0059555D01*
X0096338Y0059555D02*
X0094293Y0059555D01*
X0094293Y0054955D01*
X0096338Y0054955D01*
X0095827Y0057510D02*
X0094293Y0057510D01*
X0092490Y0059555D02*
X0089934Y0059555D01*
X0091212Y0059555D02*
X0091212Y0054955D01*
X0088546Y0054955D02*
X0087012Y0059555D01*
X0085479Y0054955D01*
X0085862Y0056105D02*
X0088162Y0056105D01*
X0087714Y0044231D02*
X0087714Y0041676D01*
X0085159Y0043848D01*
X0083115Y0043081D02*
X0083117Y0043007D01*
X0083122Y0042933D01*
X0083132Y0042859D01*
X0083145Y0042786D01*
X0083161Y0042713D01*
X0083182Y0042642D01*
X0083206Y0042572D01*
X0083233Y0042503D01*
X0083264Y0042435D01*
X0083298Y0042369D01*
X0083335Y0042305D01*
X0083376Y0042243D01*
X0083420Y0042182D01*
X0083466Y0042125D01*
X0083516Y0042069D01*
X0083568Y0042016D01*
X0083623Y0041966D01*
X0083680Y0041919D01*
X0083740Y0041875D01*
X0083802Y0041833D01*
X0083865Y0041795D01*
X0083931Y0041760D01*
X0083998Y0041729D01*
X0084067Y0041701D01*
X0084137Y0041676D01*
X0085158Y0043848D02*
X0085111Y0043895D01*
X0085061Y0043939D01*
X0085009Y0043981D01*
X0084955Y0044020D01*
X0084899Y0044055D01*
X0084841Y0044088D01*
X0084781Y0044118D01*
X0084720Y0044144D01*
X0084657Y0044167D01*
X0084593Y0044186D01*
X0084529Y0044202D01*
X0084463Y0044215D01*
X0084397Y0044224D01*
X0084331Y0044229D01*
X0084264Y0044231D01*
X0084197Y0044229D01*
X0084130Y0044223D01*
X0084064Y0044214D01*
X0083999Y0044200D01*
X0083934Y0044183D01*
X0083871Y0044162D01*
X0083809Y0044137D01*
X0083748Y0044109D01*
X0083689Y0044077D01*
X0083632Y0044042D01*
X0083577Y0044003D01*
X0083525Y0043962D01*
X0083475Y0043917D01*
X0083428Y0043870D01*
X0083383Y0043820D01*
X0083342Y0043768D01*
X0083303Y0043713D01*
X0083268Y0043656D01*
X0083236Y0043597D01*
X0083208Y0043536D01*
X0083183Y0043474D01*
X0083162Y0043411D01*
X0083145Y0043346D01*
X0083131Y0043281D01*
X0083122Y0043215D01*
X0083116Y0043148D01*
X0083114Y0043081D01*
X0084392Y0039581D02*
X0086436Y0039581D01*
X0086436Y0039582D02*
X0086505Y0039580D01*
X0086574Y0039575D01*
X0086643Y0039565D01*
X0086711Y0039552D01*
X0086778Y0039535D01*
X0086844Y0039515D01*
X0086909Y0039491D01*
X0086973Y0039464D01*
X0087035Y0039433D01*
X0087095Y0039399D01*
X0087153Y0039362D01*
X0087209Y0039321D01*
X0087263Y0039278D01*
X0087315Y0039232D01*
X0087364Y0039183D01*
X0087410Y0039131D01*
X0087453Y0039077D01*
X0087494Y0039021D01*
X0087531Y0038963D01*
X0087565Y0038903D01*
X0087596Y0038841D01*
X0087623Y0038777D01*
X0087647Y0038712D01*
X0087667Y0038646D01*
X0087684Y0038579D01*
X0087697Y0038511D01*
X0087707Y0038442D01*
X0087712Y0038373D01*
X0087714Y0038304D01*
X0087714Y0037026D01*
X0083114Y0037026D01*
X0083114Y0038304D01*
X0083116Y0038373D01*
X0083121Y0038442D01*
X0083131Y0038511D01*
X0083144Y0038579D01*
X0083161Y0038646D01*
X0083181Y0038712D01*
X0083205Y0038777D01*
X0083232Y0038841D01*
X0083263Y0038903D01*
X0083297Y0038963D01*
X0083334Y0039021D01*
X0083375Y0039077D01*
X0083418Y0039131D01*
X0083464Y0039183D01*
X0083513Y0039232D01*
X0083565Y0039278D01*
X0083619Y0039321D01*
X0083675Y0039362D01*
X0083733Y0039399D01*
X0083793Y0039433D01*
X0083855Y0039464D01*
X0083919Y0039491D01*
X0083984Y0039515D01*
X0084050Y0039535D01*
X0084117Y0039552D01*
X0084185Y0039565D01*
X0084254Y0039575D01*
X0084323Y0039580D01*
X0084392Y0039582D01*
X0083114Y0035179D02*
X0083114Y0033135D01*
X0087714Y0033135D01*
X0087714Y0035179D01*
X0085159Y0034668D02*
X0085159Y0033135D01*
X0087714Y0031279D02*
X0087714Y0029235D01*
X0083114Y0029235D01*
X0083114Y0024498D02*
X0083114Y0021943D01*
X0085159Y0021943D01*
X0085159Y0023476D01*
X0085161Y0023538D01*
X0085166Y0023599D01*
X0085176Y0023660D01*
X0085189Y0023721D01*
X0085205Y0023780D01*
X0085225Y0023838D01*
X0085249Y0023895D01*
X0085276Y0023951D01*
X0085306Y0024005D01*
X0085340Y0024057D01*
X0085376Y0024106D01*
X0085416Y0024154D01*
X0085458Y0024199D01*
X0085503Y0024241D01*
X0085551Y0024281D01*
X0085600Y0024317D01*
X0085652Y0024351D01*
X0085706Y0024381D01*
X0085762Y0024408D01*
X0085819Y0024432D01*
X0085877Y0024452D01*
X0085936Y0024468D01*
X0085997Y0024481D01*
X0086058Y0024491D01*
X0086119Y0024496D01*
X0086181Y0024498D01*
X0086692Y0024498D01*
X0086754Y0024496D01*
X0086815Y0024491D01*
X0086876Y0024481D01*
X0086937Y0024468D01*
X0086996Y0024452D01*
X0087054Y0024432D01*
X0087111Y0024408D01*
X0087167Y0024381D01*
X0087221Y0024351D01*
X0087273Y0024317D01*
X0087322Y0024281D01*
X0087370Y0024241D01*
X0087415Y0024199D01*
X0087457Y0024154D01*
X0087497Y0024106D01*
X0087533Y0024057D01*
X0087567Y0024005D01*
X0087597Y0023951D01*
X0087624Y0023895D01*
X0087648Y0023838D01*
X0087668Y0023780D01*
X0087684Y0023721D01*
X0087697Y0023660D01*
X0087707Y0023599D01*
X0087712Y0023538D01*
X0087714Y0023476D01*
X0087714Y0021943D01*
X0087714Y0020027D02*
X0085670Y0019005D01*
X0085670Y0018750D02*
X0085670Y0017472D01*
X0085670Y0018750D02*
X0085668Y0018820D01*
X0085662Y0018891D01*
X0085653Y0018960D01*
X0085639Y0019029D01*
X0085622Y0019098D01*
X0085601Y0019165D01*
X0085576Y0019231D01*
X0085548Y0019295D01*
X0085516Y0019358D01*
X0085481Y0019419D01*
X0085442Y0019478D01*
X0085401Y0019535D01*
X0085356Y0019589D01*
X0085308Y0019641D01*
X0085258Y0019690D01*
X0085204Y0019737D01*
X0085149Y0019780D01*
X0085091Y0019820D01*
X0085031Y0019857D01*
X0084969Y0019890D01*
X0084905Y0019920D01*
X0084840Y0019947D01*
X0084774Y0019970D01*
X0084706Y0019989D01*
X0084637Y0020004D01*
X0084568Y0020016D01*
X0084498Y0020024D01*
X0084427Y0020028D01*
X0084357Y0020028D01*
X0084286Y0020024D01*
X0084216Y0020016D01*
X0084147Y0020004D01*
X0084078Y0019989D01*
X0084010Y0019970D01*
X0083944Y0019947D01*
X0083879Y0019920D01*
X0083815Y0019890D01*
X0083753Y0019857D01*
X0083693Y0019820D01*
X0083635Y0019780D01*
X0083580Y0019737D01*
X0083526Y0019690D01*
X0083476Y0019641D01*
X0083428Y0019589D01*
X0083383Y0019535D01*
X0083342Y0019478D01*
X0083303Y0019419D01*
X0083268Y0019358D01*
X0083236Y0019295D01*
X0083208Y0019231D01*
X0083183Y0019165D01*
X0083162Y0019098D01*
X0083145Y0019029D01*
X0083131Y0018960D01*
X0083122Y0018891D01*
X0083116Y0018820D01*
X0083114Y0018750D01*
X0083114Y0017472D01*
X0087714Y0017472D01*
X0114534Y0056232D02*
X0114536Y0056302D01*
X0114542Y0056373D01*
X0114551Y0056442D01*
X0114565Y0056511D01*
X0114582Y0056580D01*
X0114603Y0056647D01*
X0114628Y0056713D01*
X0114656Y0056777D01*
X0114688Y0056840D01*
X0114723Y0056901D01*
X0114762Y0056960D01*
X0114803Y0057017D01*
X0114848Y0057071D01*
X0114896Y0057123D01*
X0114946Y0057172D01*
X0115000Y0057219D01*
X0115055Y0057262D01*
X0115113Y0057302D01*
X0115173Y0057339D01*
X0115235Y0057372D01*
X0115299Y0057402D01*
X0115364Y0057429D01*
X0115430Y0057452D01*
X0115498Y0057471D01*
X0115567Y0057486D01*
X0115636Y0057498D01*
X0115706Y0057506D01*
X0115777Y0057510D01*
X0115847Y0057510D01*
X0115918Y0057506D01*
X0115988Y0057498D01*
X0116057Y0057486D01*
X0116126Y0057471D01*
X0116194Y0057452D01*
X0116260Y0057429D01*
X0116325Y0057402D01*
X0116389Y0057372D01*
X0116451Y0057339D01*
X0116511Y0057302D01*
X0116569Y0057262D01*
X0116624Y0057219D01*
X0116678Y0057172D01*
X0116728Y0057123D01*
X0116776Y0057071D01*
X0116821Y0057017D01*
X0116862Y0056960D01*
X0116901Y0056901D01*
X0116936Y0056840D01*
X0116968Y0056777D01*
X0116996Y0056713D01*
X0117021Y0056647D01*
X0117042Y0056580D01*
X0117059Y0056511D01*
X0117073Y0056442D01*
X0117082Y0056373D01*
X0117088Y0056302D01*
X0117090Y0056232D01*
X0124210Y0044231D02*
X0124210Y0041676D01*
X0124210Y0042954D02*
X0119610Y0042954D01*
X0120632Y0041676D01*
X0120888Y0039581D02*
X0122932Y0039581D01*
X0122932Y0039582D02*
X0123001Y0039580D01*
X0123070Y0039575D01*
X0123139Y0039565D01*
X0123207Y0039552D01*
X0123274Y0039535D01*
X0123340Y0039515D01*
X0123405Y0039491D01*
X0123469Y0039464D01*
X0123531Y0039433D01*
X0123591Y0039399D01*
X0123649Y0039362D01*
X0123705Y0039321D01*
X0123759Y0039278D01*
X0123811Y0039232D01*
X0123860Y0039183D01*
X0123906Y0039131D01*
X0123949Y0039077D01*
X0123990Y0039021D01*
X0124027Y0038963D01*
X0124061Y0038903D01*
X0124092Y0038841D01*
X0124119Y0038777D01*
X0124143Y0038712D01*
X0124163Y0038646D01*
X0124180Y0038579D01*
X0124193Y0038511D01*
X0124203Y0038442D01*
X0124208Y0038373D01*
X0124210Y0038304D01*
X0124210Y0037026D01*
X0119610Y0037026D01*
X0119610Y0038304D01*
X0119612Y0038373D01*
X0119617Y0038442D01*
X0119627Y0038511D01*
X0119640Y0038579D01*
X0119657Y0038646D01*
X0119677Y0038712D01*
X0119701Y0038777D01*
X0119728Y0038841D01*
X0119759Y0038903D01*
X0119793Y0038963D01*
X0119830Y0039021D01*
X0119871Y0039077D01*
X0119914Y0039131D01*
X0119960Y0039183D01*
X0120009Y0039232D01*
X0120061Y0039278D01*
X0120115Y0039321D01*
X0120171Y0039362D01*
X0120229Y0039399D01*
X0120289Y0039433D01*
X0120351Y0039464D01*
X0120415Y0039491D01*
X0120480Y0039515D01*
X0120546Y0039535D01*
X0120613Y0039552D01*
X0120681Y0039565D01*
X0120750Y0039575D01*
X0120819Y0039580D01*
X0120888Y0039582D01*
X0119610Y0035179D02*
X0119610Y0033135D01*
X0124210Y0033135D01*
X0124210Y0035179D01*
X0121655Y0034668D02*
X0121655Y0033135D01*
X0124210Y0031279D02*
X0124210Y0029235D01*
X0119610Y0029235D01*
X0123188Y0024498D02*
X0123188Y0021943D01*
X0119610Y0022965D01*
X0122166Y0023732D02*
X0124210Y0023732D01*
X0124210Y0020027D02*
X0122166Y0019005D01*
X0122166Y0018750D02*
X0122166Y0017472D01*
X0122166Y0018750D02*
X0122164Y0018820D01*
X0122158Y0018891D01*
X0122149Y0018960D01*
X0122135Y0019029D01*
X0122118Y0019098D01*
X0122097Y0019165D01*
X0122072Y0019231D01*
X0122044Y0019295D01*
X0122012Y0019358D01*
X0121977Y0019419D01*
X0121938Y0019478D01*
X0121897Y0019535D01*
X0121852Y0019589D01*
X0121804Y0019641D01*
X0121754Y0019690D01*
X0121700Y0019737D01*
X0121645Y0019780D01*
X0121587Y0019820D01*
X0121527Y0019857D01*
X0121465Y0019890D01*
X0121401Y0019920D01*
X0121336Y0019947D01*
X0121270Y0019970D01*
X0121202Y0019989D01*
X0121133Y0020004D01*
X0121064Y0020016D01*
X0120994Y0020024D01*
X0120923Y0020028D01*
X0120853Y0020028D01*
X0120782Y0020024D01*
X0120712Y0020016D01*
X0120643Y0020004D01*
X0120574Y0019989D01*
X0120506Y0019970D01*
X0120440Y0019947D01*
X0120375Y0019920D01*
X0120311Y0019890D01*
X0120249Y0019857D01*
X0120189Y0019820D01*
X0120131Y0019780D01*
X0120076Y0019737D01*
X0120022Y0019690D01*
X0119972Y0019641D01*
X0119924Y0019589D01*
X0119879Y0019535D01*
X0119838Y0019478D01*
X0119799Y0019419D01*
X0119764Y0019358D01*
X0119732Y0019295D01*
X0119704Y0019231D01*
X0119679Y0019165D01*
X0119658Y0019098D01*
X0119641Y0019029D01*
X0119627Y0018960D01*
X0119618Y0018891D01*
X0119612Y0018820D01*
X0119610Y0018750D01*
X0119610Y0017472D01*
X0124210Y0017472D01*
X0157917Y0100555D02*
X0157917Y0101577D01*
X0157917Y0101066D02*
X0162517Y0101066D01*
X0162517Y0100555D02*
X0162517Y0101577D01*
X0160601Y0105282D02*
X0160635Y0105336D01*
X0160672Y0105387D01*
X0160712Y0105436D01*
X0160755Y0105483D01*
X0160801Y0105526D01*
X0160849Y0105567D01*
X0160900Y0105605D01*
X0160953Y0105640D01*
X0161008Y0105672D01*
X0161065Y0105700D01*
X0161123Y0105724D01*
X0161183Y0105745D01*
X0161244Y0105762D01*
X0161306Y0105776D01*
X0161369Y0105785D01*
X0161432Y0105791D01*
X0161495Y0105793D01*
X0161557Y0105791D01*
X0161618Y0105786D01*
X0161679Y0105776D01*
X0161740Y0105763D01*
X0161799Y0105747D01*
X0161857Y0105727D01*
X0161914Y0105703D01*
X0161970Y0105676D01*
X0162024Y0105646D01*
X0162076Y0105612D01*
X0162125Y0105576D01*
X0162173Y0105536D01*
X0162218Y0105494D01*
X0162260Y0105449D01*
X0162300Y0105401D01*
X0162336Y0105352D01*
X0162370Y0105300D01*
X0162400Y0105246D01*
X0162427Y0105190D01*
X0162451Y0105133D01*
X0162471Y0105075D01*
X0162487Y0105016D01*
X0162500Y0104955D01*
X0162510Y0104894D01*
X0162515Y0104833D01*
X0162517Y0104771D01*
X0160601Y0105283D02*
X0159834Y0103877D01*
X0157917Y0104388D02*
X0157919Y0104470D01*
X0157924Y0104552D01*
X0157933Y0104634D01*
X0157945Y0104715D01*
X0157961Y0104796D01*
X0157980Y0104876D01*
X0158003Y0104955D01*
X0158029Y0105033D01*
X0158058Y0105110D01*
X0158091Y0105185D01*
X0158127Y0105259D01*
X0158165Y0105332D01*
X0158207Y0105403D01*
X0158252Y0105471D01*
X0158300Y0105538D01*
X0159834Y0103877D02*
X0159800Y0103823D01*
X0159763Y0103772D01*
X0159723Y0103723D01*
X0159680Y0103676D01*
X0159634Y0103633D01*
X0159586Y0103592D01*
X0159535Y0103554D01*
X0159482Y0103519D01*
X0159427Y0103487D01*
X0159370Y0103459D01*
X0159312Y0103435D01*
X0159252Y0103414D01*
X0159191Y0103397D01*
X0159129Y0103383D01*
X0159066Y0103374D01*
X0159003Y0103368D01*
X0158940Y0103366D01*
X0158878Y0103368D01*
X0158817Y0103373D01*
X0158756Y0103383D01*
X0158695Y0103396D01*
X0158636Y0103412D01*
X0158578Y0103432D01*
X0158521Y0103456D01*
X0158465Y0103483D01*
X0158411Y0103513D01*
X0158359Y0103547D01*
X0158310Y0103583D01*
X0158262Y0103623D01*
X0158217Y0103665D01*
X0158175Y0103710D01*
X0158135Y0103758D01*
X0158099Y0103807D01*
X0158065Y0103859D01*
X0158035Y0103913D01*
X0158008Y0103969D01*
X0157984Y0104026D01*
X0157964Y0104084D01*
X0157948Y0104143D01*
X0157935Y0104204D01*
X0157925Y0104265D01*
X0157920Y0104326D01*
X0157918Y0104388D01*
X0161878Y0103238D02*
X0161941Y0103302D01*
X0162000Y0103370D01*
X0162057Y0103439D01*
X0162111Y0103511D01*
X0162162Y0103585D01*
X0162210Y0103661D01*
X0162254Y0103738D01*
X0162295Y0103818D01*
X0162333Y0103899D01*
X0162368Y0103982D01*
X0162399Y0104066D01*
X0162426Y0104152D01*
X0162450Y0104238D01*
X0162471Y0104326D01*
X0162487Y0104414D01*
X0162500Y0104503D01*
X0162510Y0104592D01*
X0162515Y0104681D01*
X0162517Y0104771D01*
X0162517Y0107805D02*
X0157917Y0107805D01*
X0157917Y0109083D01*
X0157919Y0109153D01*
X0157925Y0109224D01*
X0157934Y0109293D01*
X0157948Y0109362D01*
X0157965Y0109431D01*
X0157986Y0109498D01*
X0158011Y0109564D01*
X0158039Y0109628D01*
X0158071Y0109691D01*
X0158106Y0109752D01*
X0158145Y0109811D01*
X0158186Y0109868D01*
X0158231Y0109922D01*
X0158279Y0109974D01*
X0158329Y0110023D01*
X0158383Y0110070D01*
X0158438Y0110113D01*
X0158496Y0110153D01*
X0158556Y0110190D01*
X0158618Y0110223D01*
X0158682Y0110253D01*
X0158747Y0110280D01*
X0158813Y0110303D01*
X0158881Y0110322D01*
X0158950Y0110337D01*
X0159019Y0110349D01*
X0159089Y0110357D01*
X0159160Y0110361D01*
X0159230Y0110361D01*
X0159301Y0110357D01*
X0159371Y0110349D01*
X0159440Y0110337D01*
X0159509Y0110322D01*
X0159577Y0110303D01*
X0159643Y0110280D01*
X0159708Y0110253D01*
X0159772Y0110223D01*
X0159834Y0110190D01*
X0159894Y0110153D01*
X0159952Y0110113D01*
X0160007Y0110070D01*
X0160061Y0110023D01*
X0160111Y0109974D01*
X0160159Y0109922D01*
X0160204Y0109868D01*
X0160245Y0109811D01*
X0160284Y0109752D01*
X0160319Y0109691D01*
X0160351Y0109628D01*
X0160379Y0109564D01*
X0160404Y0109498D01*
X0160425Y0109431D01*
X0160442Y0109362D01*
X0160456Y0109293D01*
X0160465Y0109224D01*
X0160471Y0109153D01*
X0160473Y0109083D01*
X0160473Y0107805D01*
X0158940Y0112088D02*
X0157917Y0113366D01*
X0162517Y0113366D01*
X0162517Y0112088D02*
X0162517Y0114644D01*
X0150747Y0139873D02*
X0148192Y0139873D01*
X0148130Y0139875D01*
X0148069Y0139880D01*
X0148008Y0139890D01*
X0147947Y0139903D01*
X0147888Y0139919D01*
X0147830Y0139939D01*
X0147773Y0139963D01*
X0147717Y0139990D01*
X0147663Y0140020D01*
X0147611Y0140054D01*
X0147562Y0140090D01*
X0147514Y0140130D01*
X0147469Y0140172D01*
X0147427Y0140217D01*
X0147388Y0140265D01*
X0147351Y0140314D01*
X0147317Y0140366D01*
X0147287Y0140420D01*
X0147260Y0140476D01*
X0147236Y0140533D01*
X0147216Y0140591D01*
X0147200Y0140650D01*
X0147187Y0140711D01*
X0147177Y0140772D01*
X0147172Y0140833D01*
X0147170Y0140895D01*
X0147169Y0140895D02*
X0147169Y0141917D01*
X0149213Y0145808D02*
X0149166Y0145855D01*
X0149116Y0145899D01*
X0149064Y0145941D01*
X0149010Y0145980D01*
X0148954Y0146015D01*
X0148896Y0146048D01*
X0148836Y0146078D01*
X0148775Y0146104D01*
X0148712Y0146127D01*
X0148648Y0146146D01*
X0148584Y0146162D01*
X0148518Y0146175D01*
X0148452Y0146184D01*
X0148386Y0146189D01*
X0148319Y0146191D01*
X0149214Y0145808D02*
X0151769Y0143636D01*
X0151769Y0146192D01*
X0151769Y0141917D02*
X0151769Y0140895D01*
X0151767Y0140833D01*
X0151762Y0140772D01*
X0151752Y0140711D01*
X0151739Y0140650D01*
X0151723Y0140591D01*
X0151703Y0140533D01*
X0151679Y0140476D01*
X0151652Y0140420D01*
X0151622Y0140366D01*
X0151588Y0140314D01*
X0151552Y0140265D01*
X0151512Y0140217D01*
X0151470Y0140172D01*
X0151425Y0140130D01*
X0151377Y0140090D01*
X0151328Y0140054D01*
X0151276Y0140020D01*
X0151222Y0139990D01*
X0151166Y0139963D01*
X0151109Y0139939D01*
X0151051Y0139919D01*
X0150992Y0139903D01*
X0150931Y0139890D01*
X0150870Y0139880D01*
X0150809Y0139875D01*
X0150747Y0139873D01*
X0148192Y0143637D02*
X0148122Y0143662D01*
X0148053Y0143690D01*
X0147986Y0143721D01*
X0147920Y0143756D01*
X0147857Y0143794D01*
X0147795Y0143836D01*
X0147735Y0143880D01*
X0147678Y0143927D01*
X0147623Y0143977D01*
X0147571Y0144030D01*
X0147521Y0144086D01*
X0147475Y0144143D01*
X0147431Y0144204D01*
X0147390Y0144266D01*
X0147353Y0144330D01*
X0147319Y0144396D01*
X0147288Y0144464D01*
X0147261Y0144533D01*
X0147237Y0144603D01*
X0147216Y0144674D01*
X0147200Y0144747D01*
X0147187Y0144820D01*
X0147177Y0144894D01*
X0147172Y0144968D01*
X0147170Y0145042D01*
X0147169Y0145042D02*
X0147171Y0145109D01*
X0147177Y0145176D01*
X0147186Y0145242D01*
X0147200Y0145307D01*
X0147217Y0145372D01*
X0147238Y0145435D01*
X0147263Y0145497D01*
X0147291Y0145558D01*
X0147323Y0145617D01*
X0147358Y0145674D01*
X0147397Y0145729D01*
X0147438Y0145781D01*
X0147483Y0145831D01*
X0147530Y0145878D01*
X0147580Y0145923D01*
X0147632Y0145964D01*
X0147687Y0146003D01*
X0147744Y0146038D01*
X0147803Y0146070D01*
X0147864Y0146098D01*
X0147926Y0146123D01*
X0147989Y0146144D01*
X0148054Y0146161D01*
X0148119Y0146175D01*
X0148185Y0146184D01*
X0148252Y0146190D01*
X0148319Y0146192D01*
X0023476Y0136021D02*
X0021943Y0136021D01*
X0023476Y0136021D02*
X0023539Y0136019D01*
X0023602Y0136013D01*
X0023664Y0136004D01*
X0023725Y0135990D01*
X0023786Y0135973D01*
X0023845Y0135952D01*
X0023903Y0135927D01*
X0023960Y0135899D01*
X0024014Y0135868D01*
X0024066Y0135833D01*
X0024117Y0135795D01*
X0024165Y0135754D01*
X0024210Y0135710D01*
X0024252Y0135664D01*
X0024292Y0135615D01*
X0024328Y0135564D01*
X0024361Y0135510D01*
X0024391Y0135455D01*
X0024417Y0135397D01*
X0024440Y0135339D01*
X0024459Y0135279D01*
X0024474Y0135218D01*
X0024486Y0135156D01*
X0024494Y0135093D01*
X0024498Y0135030D01*
X0024498Y0134968D01*
X0024494Y0134905D01*
X0024486Y0134842D01*
X0024474Y0134780D01*
X0024459Y0134719D01*
X0024440Y0134659D01*
X0024417Y0134601D01*
X0024391Y0134543D01*
X0024361Y0134488D01*
X0024328Y0134434D01*
X0024292Y0134383D01*
X0024252Y0134334D01*
X0024210Y0134288D01*
X0024165Y0134244D01*
X0024117Y0134203D01*
X0024066Y0134165D01*
X0024014Y0134130D01*
X0023960Y0134099D01*
X0023903Y0134071D01*
X0023845Y0134046D01*
X0023786Y0134025D01*
X0023725Y0134008D01*
X0023664Y0133994D01*
X0023602Y0133985D01*
X0023539Y0133979D01*
X0023476Y0133977D01*
X0022454Y0133977D01*
X0023221Y0133977D02*
X0023291Y0133975D01*
X0023362Y0133969D01*
X0023431Y0133960D01*
X0023500Y0133946D01*
X0023569Y0133929D01*
X0023636Y0133908D01*
X0023702Y0133883D01*
X0023766Y0133855D01*
X0023829Y0133823D01*
X0023890Y0133788D01*
X0023949Y0133749D01*
X0024006Y0133708D01*
X0024060Y0133663D01*
X0024112Y0133615D01*
X0024161Y0133565D01*
X0024208Y0133511D01*
X0024251Y0133456D01*
X0024291Y0133398D01*
X0024328Y0133338D01*
X0024361Y0133276D01*
X0024391Y0133212D01*
X0024418Y0133147D01*
X0024441Y0133081D01*
X0024460Y0133013D01*
X0024475Y0132944D01*
X0024487Y0132875D01*
X0024495Y0132805D01*
X0024499Y0132734D01*
X0024499Y0132664D01*
X0024495Y0132593D01*
X0024487Y0132523D01*
X0024475Y0132454D01*
X0024460Y0132385D01*
X0024441Y0132317D01*
X0024418Y0132251D01*
X0024391Y0132186D01*
X0024361Y0132122D01*
X0024328Y0132060D01*
X0024291Y0132000D01*
X0024251Y0131942D01*
X0024208Y0131887D01*
X0024161Y0131833D01*
X0024112Y0131783D01*
X0024060Y0131735D01*
X0024006Y0131690D01*
X0023949Y0131649D01*
X0023890Y0131610D01*
X0023829Y0131575D01*
X0023766Y0131543D01*
X0023702Y0131515D01*
X0023636Y0131490D01*
X0023569Y0131469D01*
X0023500Y0131452D01*
X0023431Y0131438D01*
X0023362Y0131429D01*
X0023291Y0131423D01*
X0023221Y0131421D01*
X0021943Y0131421D01*
X0020027Y0131421D02*
X0019005Y0133466D01*
X0018750Y0133466D02*
X0017472Y0133466D01*
X0018750Y0133465D02*
X0018820Y0133467D01*
X0018891Y0133473D01*
X0018960Y0133482D01*
X0019029Y0133496D01*
X0019098Y0133513D01*
X0019165Y0133534D01*
X0019231Y0133559D01*
X0019295Y0133587D01*
X0019358Y0133619D01*
X0019419Y0133654D01*
X0019478Y0133693D01*
X0019535Y0133734D01*
X0019589Y0133779D01*
X0019641Y0133827D01*
X0019690Y0133877D01*
X0019737Y0133931D01*
X0019780Y0133986D01*
X0019820Y0134044D01*
X0019857Y0134104D01*
X0019890Y0134166D01*
X0019920Y0134230D01*
X0019947Y0134295D01*
X0019970Y0134361D01*
X0019989Y0134429D01*
X0020004Y0134498D01*
X0020016Y0134567D01*
X0020024Y0134637D01*
X0020028Y0134708D01*
X0020028Y0134778D01*
X0020024Y0134849D01*
X0020016Y0134919D01*
X0020004Y0134988D01*
X0019989Y0135057D01*
X0019970Y0135125D01*
X0019947Y0135191D01*
X0019920Y0135256D01*
X0019890Y0135320D01*
X0019857Y0135382D01*
X0019820Y0135442D01*
X0019780Y0135500D01*
X0019737Y0135555D01*
X0019690Y0135609D01*
X0019641Y0135659D01*
X0019589Y0135707D01*
X0019535Y0135752D01*
X0019478Y0135793D01*
X0019419Y0135832D01*
X0019358Y0135867D01*
X0019295Y0135899D01*
X0019231Y0135927D01*
X0019165Y0135952D01*
X0019098Y0135973D01*
X0019029Y0135990D01*
X0018960Y0136004D01*
X0018891Y0136013D01*
X0018820Y0136019D01*
X0018750Y0136021D01*
X0017472Y0136021D01*
X0017472Y0131421D01*
X0017472Y0112399D02*
X0018750Y0112399D01*
X0018820Y0112397D01*
X0018891Y0112391D01*
X0018960Y0112382D01*
X0019029Y0112368D01*
X0019098Y0112351D01*
X0019165Y0112330D01*
X0019231Y0112305D01*
X0019295Y0112277D01*
X0019358Y0112245D01*
X0019419Y0112210D01*
X0019478Y0112171D01*
X0019535Y0112130D01*
X0019589Y0112085D01*
X0019641Y0112037D01*
X0019690Y0111987D01*
X0019737Y0111933D01*
X0019780Y0111878D01*
X0019820Y0111820D01*
X0019857Y0111760D01*
X0019890Y0111698D01*
X0019920Y0111634D01*
X0019947Y0111569D01*
X0019970Y0111503D01*
X0019989Y0111435D01*
X0020004Y0111366D01*
X0020016Y0111297D01*
X0020024Y0111227D01*
X0020028Y0111156D01*
X0020028Y0111086D01*
X0020024Y0111015D01*
X0020016Y0110945D01*
X0020004Y0110876D01*
X0019989Y0110807D01*
X0019970Y0110739D01*
X0019947Y0110673D01*
X0019920Y0110608D01*
X0019890Y0110544D01*
X0019857Y0110482D01*
X0019820Y0110422D01*
X0019780Y0110364D01*
X0019737Y0110309D01*
X0019690Y0110255D01*
X0019641Y0110205D01*
X0019589Y0110157D01*
X0019535Y0110112D01*
X0019478Y0110071D01*
X0019419Y0110032D01*
X0019358Y0109997D01*
X0019295Y0109965D01*
X0019231Y0109937D01*
X0019165Y0109912D01*
X0019098Y0109891D01*
X0019029Y0109874D01*
X0018960Y0109860D01*
X0018891Y0109851D01*
X0018820Y0109845D01*
X0018750Y0109843D01*
X0018750Y0109844D02*
X0017472Y0109844D01*
X0019005Y0109844D02*
X0020027Y0107799D01*
X0021943Y0107799D02*
X0024498Y0107799D01*
X0021943Y0107799D02*
X0024115Y0110355D01*
X0023348Y0112399D02*
X0023274Y0112397D01*
X0023200Y0112392D01*
X0023126Y0112382D01*
X0023053Y0112369D01*
X0022980Y0112353D01*
X0022909Y0112332D01*
X0022839Y0112308D01*
X0022770Y0112281D01*
X0022702Y0112250D01*
X0022636Y0112216D01*
X0022572Y0112179D01*
X0022510Y0112138D01*
X0022450Y0112094D01*
X0022392Y0112048D01*
X0022336Y0111998D01*
X0022283Y0111946D01*
X0022233Y0111891D01*
X0022186Y0111834D01*
X0022142Y0111774D01*
X0022100Y0111712D01*
X0022062Y0111649D01*
X0022027Y0111583D01*
X0021996Y0111516D01*
X0021968Y0111447D01*
X0021943Y0111377D01*
X0024115Y0110355D02*
X0024162Y0110402D01*
X0024206Y0110452D01*
X0024248Y0110504D01*
X0024287Y0110558D01*
X0024322Y0110614D01*
X0024355Y0110672D01*
X0024385Y0110732D01*
X0024411Y0110793D01*
X0024434Y0110856D01*
X0024453Y0110920D01*
X0024469Y0110984D01*
X0024482Y0111050D01*
X0024491Y0111116D01*
X0024496Y0111182D01*
X0024498Y0111249D01*
X0024496Y0111316D01*
X0024490Y0111383D01*
X0024481Y0111449D01*
X0024467Y0111514D01*
X0024450Y0111579D01*
X0024429Y0111642D01*
X0024404Y0111704D01*
X0024376Y0111765D01*
X0024344Y0111824D01*
X0024309Y0111881D01*
X0024270Y0111936D01*
X0024229Y0111988D01*
X0024184Y0112038D01*
X0024137Y0112085D01*
X0024087Y0112130D01*
X0024035Y0112171D01*
X0023980Y0112210D01*
X0023923Y0112245D01*
X0023864Y0112277D01*
X0023803Y0112305D01*
X0023741Y0112330D01*
X0023678Y0112351D01*
X0023613Y0112368D01*
X0023548Y0112382D01*
X0023482Y0112391D01*
X0023415Y0112397D01*
X0023348Y0112399D01*
X0017472Y0112399D02*
X0017472Y0107799D01*
X0017472Y0088777D02*
X0018750Y0088777D01*
X0018820Y0088775D01*
X0018891Y0088769D01*
X0018960Y0088760D01*
X0019029Y0088746D01*
X0019098Y0088729D01*
X0019165Y0088708D01*
X0019231Y0088683D01*
X0019295Y0088655D01*
X0019358Y0088623D01*
X0019419Y0088588D01*
X0019478Y0088549D01*
X0019535Y0088508D01*
X0019589Y0088463D01*
X0019641Y0088415D01*
X0019690Y0088365D01*
X0019737Y0088311D01*
X0019780Y0088256D01*
X0019820Y0088198D01*
X0019857Y0088138D01*
X0019890Y0088076D01*
X0019920Y0088012D01*
X0019947Y0087947D01*
X0019970Y0087881D01*
X0019989Y0087813D01*
X0020004Y0087744D01*
X0020016Y0087675D01*
X0020024Y0087605D01*
X0020028Y0087534D01*
X0020028Y0087464D01*
X0020024Y0087393D01*
X0020016Y0087323D01*
X0020004Y0087254D01*
X0019989Y0087185D01*
X0019970Y0087117D01*
X0019947Y0087051D01*
X0019920Y0086986D01*
X0019890Y0086922D01*
X0019857Y0086860D01*
X0019820Y0086800D01*
X0019780Y0086742D01*
X0019737Y0086687D01*
X0019690Y0086633D01*
X0019641Y0086583D01*
X0019589Y0086535D01*
X0019535Y0086490D01*
X0019478Y0086449D01*
X0019419Y0086410D01*
X0019358Y0086375D01*
X0019295Y0086343D01*
X0019231Y0086315D01*
X0019165Y0086290D01*
X0019098Y0086269D01*
X0019029Y0086252D01*
X0018960Y0086238D01*
X0018891Y0086229D01*
X0018820Y0086223D01*
X0018750Y0086221D01*
X0018750Y0086222D02*
X0017472Y0086222D01*
X0019005Y0086222D02*
X0020027Y0084177D01*
X0021943Y0084177D02*
X0024498Y0084177D01*
X0023221Y0084177D02*
X0023221Y0088777D01*
X0021943Y0087755D01*
X0017472Y0088777D02*
X0017472Y0084177D01*
D31*
X0089626Y0118259D03*
X0093017Y0153692D03*
X0093017Y0082826D03*
D32*
X0095985Y0082078D02*
X0111339Y0082078D01*
X0114095Y0097265D02*
X0114095Y0097924D01*
X0114095Y0097265D02*
X0093229Y0097265D01*
X0093229Y0097924D01*
X0093229Y0117274D02*
X0093229Y0117934D01*
X0114095Y0117934D01*
X0114095Y0117274D01*
X0111339Y0133121D02*
X0095985Y0133121D01*
X0095985Y0152944D02*
X0111339Y0152944D01*
X0111339Y0062255D02*
X0095985Y0062255D01*
D33*
X0037107Y0075040D02*
X0034607Y0077540D01*
X0034607Y0082540D01*
X0037107Y0085040D01*
X0042107Y0085040D01*
X0044607Y0082540D01*
X0047107Y0085040D01*
X0052107Y0085040D01*
X0054607Y0082540D01*
X0054607Y0077540D01*
X0052107Y0075040D01*
X0047107Y0075040D01*
X0044607Y0077540D01*
X0042107Y0075040D01*
X0037107Y0075040D01*
X0039107Y0087851D02*
X0050107Y0087851D01*
X0050167Y0087853D01*
X0050228Y0087858D01*
X0050287Y0087867D01*
X0050346Y0087880D01*
X0050405Y0087896D01*
X0050462Y0087916D01*
X0050517Y0087939D01*
X0050572Y0087966D01*
X0050624Y0087995D01*
X0050675Y0088028D01*
X0050724Y0088064D01*
X0050770Y0088102D01*
X0050814Y0088144D01*
X0050856Y0088188D01*
X0050894Y0088234D01*
X0050930Y0088283D01*
X0050963Y0088334D01*
X0050992Y0088386D01*
X0051019Y0088441D01*
X0051042Y0088496D01*
X0051062Y0088553D01*
X0051078Y0088612D01*
X0051091Y0088671D01*
X0051100Y0088730D01*
X0051105Y0088791D01*
X0051107Y0088851D01*
X0051107Y0094851D01*
X0051105Y0094911D01*
X0051100Y0094972D01*
X0051091Y0095031D01*
X0051078Y0095090D01*
X0051062Y0095149D01*
X0051042Y0095206D01*
X0051019Y0095261D01*
X0050992Y0095316D01*
X0050963Y0095368D01*
X0050930Y0095419D01*
X0050894Y0095468D01*
X0050856Y0095514D01*
X0050814Y0095558D01*
X0050770Y0095600D01*
X0050724Y0095638D01*
X0050675Y0095674D01*
X0050624Y0095707D01*
X0050572Y0095736D01*
X0050517Y0095763D01*
X0050462Y0095786D01*
X0050405Y0095806D01*
X0050346Y0095822D01*
X0050287Y0095835D01*
X0050228Y0095844D01*
X0050167Y0095849D01*
X0050107Y0095851D01*
X0039107Y0095851D01*
X0039047Y0095849D01*
X0038986Y0095844D01*
X0038927Y0095835D01*
X0038868Y0095822D01*
X0038809Y0095806D01*
X0038752Y0095786D01*
X0038697Y0095763D01*
X0038642Y0095736D01*
X0038590Y0095707D01*
X0038539Y0095674D01*
X0038490Y0095638D01*
X0038444Y0095600D01*
X0038400Y0095558D01*
X0038358Y0095514D01*
X0038320Y0095468D01*
X0038284Y0095419D01*
X0038251Y0095368D01*
X0038222Y0095316D01*
X0038195Y0095261D01*
X0038172Y0095206D01*
X0038152Y0095149D01*
X0038136Y0095090D01*
X0038123Y0095031D01*
X0038114Y0094972D01*
X0038109Y0094911D01*
X0038107Y0094851D01*
X0038107Y0088851D01*
X0038109Y0088791D01*
X0038114Y0088730D01*
X0038123Y0088671D01*
X0038136Y0088612D01*
X0038152Y0088553D01*
X0038172Y0088496D01*
X0038195Y0088441D01*
X0038222Y0088386D01*
X0038251Y0088334D01*
X0038284Y0088283D01*
X0038320Y0088234D01*
X0038358Y0088188D01*
X0038400Y0088144D01*
X0038444Y0088102D01*
X0038490Y0088064D01*
X0038539Y0088028D01*
X0038590Y0087995D01*
X0038642Y0087966D01*
X0038697Y0087939D01*
X0038752Y0087916D01*
X0038809Y0087896D01*
X0038868Y0087880D01*
X0038927Y0087867D01*
X0038986Y0087858D01*
X0039047Y0087853D01*
X0039107Y0087851D01*
X0044607Y0082540D02*
X0044607Y0077540D01*
X0042107Y0098662D02*
X0037107Y0098662D01*
X0034607Y0101162D01*
X0034607Y0106162D01*
X0037107Y0108662D01*
X0042107Y0108662D01*
X0044607Y0106162D01*
X0047107Y0108662D01*
X0052107Y0108662D01*
X0054607Y0106162D01*
X0054607Y0101162D01*
X0052107Y0098662D01*
X0047107Y0098662D01*
X0044607Y0101162D01*
X0042107Y0098662D01*
X0044607Y0101162D02*
X0044607Y0106162D01*
X0050107Y0111473D02*
X0039107Y0111473D01*
X0039047Y0111475D01*
X0038986Y0111480D01*
X0038927Y0111489D01*
X0038868Y0111502D01*
X0038809Y0111518D01*
X0038752Y0111538D01*
X0038697Y0111561D01*
X0038642Y0111588D01*
X0038590Y0111617D01*
X0038539Y0111650D01*
X0038490Y0111686D01*
X0038444Y0111724D01*
X0038400Y0111766D01*
X0038358Y0111810D01*
X0038320Y0111856D01*
X0038284Y0111905D01*
X0038251Y0111956D01*
X0038222Y0112008D01*
X0038195Y0112063D01*
X0038172Y0112118D01*
X0038152Y0112175D01*
X0038136Y0112234D01*
X0038123Y0112293D01*
X0038114Y0112352D01*
X0038109Y0112413D01*
X0038107Y0112473D01*
X0038107Y0118473D01*
X0038109Y0118533D01*
X0038114Y0118594D01*
X0038123Y0118653D01*
X0038136Y0118712D01*
X0038152Y0118771D01*
X0038172Y0118828D01*
X0038195Y0118883D01*
X0038222Y0118938D01*
X0038251Y0118990D01*
X0038284Y0119041D01*
X0038320Y0119090D01*
X0038358Y0119136D01*
X0038400Y0119180D01*
X0038444Y0119222D01*
X0038490Y0119260D01*
X0038539Y0119296D01*
X0038590Y0119329D01*
X0038642Y0119358D01*
X0038697Y0119385D01*
X0038752Y0119408D01*
X0038809Y0119428D01*
X0038868Y0119444D01*
X0038927Y0119457D01*
X0038986Y0119466D01*
X0039047Y0119471D01*
X0039107Y0119473D01*
X0050107Y0119473D01*
X0050167Y0119471D01*
X0050228Y0119466D01*
X0050287Y0119457D01*
X0050346Y0119444D01*
X0050405Y0119428D01*
X0050462Y0119408D01*
X0050517Y0119385D01*
X0050572Y0119358D01*
X0050624Y0119329D01*
X0050675Y0119296D01*
X0050724Y0119260D01*
X0050770Y0119222D01*
X0050814Y0119180D01*
X0050856Y0119136D01*
X0050894Y0119090D01*
X0050930Y0119041D01*
X0050963Y0118990D01*
X0050992Y0118938D01*
X0051019Y0118883D01*
X0051042Y0118828D01*
X0051062Y0118771D01*
X0051078Y0118712D01*
X0051091Y0118653D01*
X0051100Y0118594D01*
X0051105Y0118533D01*
X0051107Y0118473D01*
X0051107Y0112473D01*
X0051105Y0112413D01*
X0051100Y0112352D01*
X0051091Y0112293D01*
X0051078Y0112234D01*
X0051062Y0112175D01*
X0051042Y0112118D01*
X0051019Y0112063D01*
X0050992Y0112008D01*
X0050963Y0111956D01*
X0050930Y0111905D01*
X0050894Y0111856D01*
X0050856Y0111810D01*
X0050814Y0111766D01*
X0050770Y0111724D01*
X0050724Y0111686D01*
X0050675Y0111650D01*
X0050624Y0111617D01*
X0050572Y0111588D01*
X0050517Y0111561D01*
X0050462Y0111538D01*
X0050405Y0111518D01*
X0050346Y0111502D01*
X0050287Y0111489D01*
X0050228Y0111480D01*
X0050167Y0111475D01*
X0050107Y0111473D01*
X0052107Y0122284D02*
X0047107Y0122284D01*
X0044607Y0124784D01*
X0042107Y0122284D01*
X0037107Y0122284D01*
X0034607Y0124784D01*
X0034607Y0129784D01*
X0037107Y0132284D01*
X0042107Y0132284D01*
X0044607Y0129784D01*
X0047107Y0132284D01*
X0052107Y0132284D01*
X0054607Y0129784D01*
X0054607Y0124784D01*
X0052107Y0122284D01*
X0050107Y0135095D02*
X0039107Y0135095D01*
X0039047Y0135097D01*
X0038986Y0135102D01*
X0038927Y0135111D01*
X0038868Y0135124D01*
X0038809Y0135140D01*
X0038752Y0135160D01*
X0038697Y0135183D01*
X0038642Y0135210D01*
X0038590Y0135239D01*
X0038539Y0135272D01*
X0038490Y0135308D01*
X0038444Y0135346D01*
X0038400Y0135388D01*
X0038358Y0135432D01*
X0038320Y0135478D01*
X0038284Y0135527D01*
X0038251Y0135578D01*
X0038222Y0135630D01*
X0038195Y0135685D01*
X0038172Y0135740D01*
X0038152Y0135797D01*
X0038136Y0135856D01*
X0038123Y0135915D01*
X0038114Y0135974D01*
X0038109Y0136035D01*
X0038107Y0136095D01*
X0038107Y0142095D01*
X0038109Y0142155D01*
X0038114Y0142216D01*
X0038123Y0142275D01*
X0038136Y0142334D01*
X0038152Y0142393D01*
X0038172Y0142450D01*
X0038195Y0142505D01*
X0038222Y0142560D01*
X0038251Y0142612D01*
X0038284Y0142663D01*
X0038320Y0142712D01*
X0038358Y0142758D01*
X0038400Y0142802D01*
X0038444Y0142844D01*
X0038490Y0142882D01*
X0038539Y0142918D01*
X0038590Y0142951D01*
X0038642Y0142980D01*
X0038697Y0143007D01*
X0038752Y0143030D01*
X0038809Y0143050D01*
X0038868Y0143066D01*
X0038927Y0143079D01*
X0038986Y0143088D01*
X0039047Y0143093D01*
X0039107Y0143095D01*
X0050107Y0143095D01*
X0050167Y0143093D01*
X0050228Y0143088D01*
X0050287Y0143079D01*
X0050346Y0143066D01*
X0050405Y0143050D01*
X0050462Y0143030D01*
X0050517Y0143007D01*
X0050572Y0142980D01*
X0050624Y0142951D01*
X0050675Y0142918D01*
X0050724Y0142882D01*
X0050770Y0142844D01*
X0050814Y0142802D01*
X0050856Y0142758D01*
X0050894Y0142712D01*
X0050930Y0142663D01*
X0050963Y0142612D01*
X0050992Y0142560D01*
X0051019Y0142505D01*
X0051042Y0142450D01*
X0051062Y0142393D01*
X0051078Y0142334D01*
X0051091Y0142275D01*
X0051100Y0142216D01*
X0051105Y0142155D01*
X0051107Y0142095D01*
X0051107Y0136095D01*
X0051105Y0136035D01*
X0051100Y0135974D01*
X0051091Y0135915D01*
X0051078Y0135856D01*
X0051062Y0135797D01*
X0051042Y0135740D01*
X0051019Y0135685D01*
X0050992Y0135630D01*
X0050963Y0135578D01*
X0050930Y0135527D01*
X0050894Y0135478D01*
X0050856Y0135432D01*
X0050814Y0135388D01*
X0050770Y0135346D01*
X0050724Y0135308D01*
X0050675Y0135272D01*
X0050624Y0135239D01*
X0050572Y0135210D01*
X0050517Y0135183D01*
X0050462Y0135160D01*
X0050405Y0135140D01*
X0050346Y0135124D01*
X0050287Y0135111D01*
X0050228Y0135102D01*
X0050167Y0135097D01*
X0050107Y0135095D01*
X0044607Y0129784D02*
X0044607Y0124784D01*
X0123284Y0137532D02*
X0123284Y0148532D01*
X0123286Y0148592D01*
X0123291Y0148653D01*
X0123300Y0148712D01*
X0123313Y0148771D01*
X0123329Y0148830D01*
X0123349Y0148887D01*
X0123372Y0148942D01*
X0123399Y0148997D01*
X0123428Y0149049D01*
X0123461Y0149100D01*
X0123497Y0149149D01*
X0123535Y0149195D01*
X0123577Y0149239D01*
X0123621Y0149281D01*
X0123667Y0149319D01*
X0123716Y0149355D01*
X0123767Y0149388D01*
X0123819Y0149417D01*
X0123874Y0149444D01*
X0123929Y0149467D01*
X0123986Y0149487D01*
X0124045Y0149503D01*
X0124104Y0149516D01*
X0124163Y0149525D01*
X0124224Y0149530D01*
X0124284Y0149532D01*
X0130284Y0149532D01*
X0130344Y0149530D01*
X0130405Y0149525D01*
X0130464Y0149516D01*
X0130523Y0149503D01*
X0130582Y0149487D01*
X0130639Y0149467D01*
X0130694Y0149444D01*
X0130749Y0149417D01*
X0130801Y0149388D01*
X0130852Y0149355D01*
X0130901Y0149319D01*
X0130947Y0149281D01*
X0130991Y0149239D01*
X0131033Y0149195D01*
X0131071Y0149149D01*
X0131107Y0149100D01*
X0131140Y0149049D01*
X0131169Y0148997D01*
X0131196Y0148942D01*
X0131219Y0148887D01*
X0131239Y0148830D01*
X0131255Y0148771D01*
X0131268Y0148712D01*
X0131277Y0148653D01*
X0131282Y0148592D01*
X0131284Y0148532D01*
X0131284Y0137532D01*
X0131282Y0137472D01*
X0131277Y0137411D01*
X0131268Y0137352D01*
X0131255Y0137293D01*
X0131239Y0137234D01*
X0131219Y0137177D01*
X0131196Y0137122D01*
X0131169Y0137067D01*
X0131140Y0137015D01*
X0131107Y0136964D01*
X0131071Y0136915D01*
X0131033Y0136869D01*
X0130991Y0136825D01*
X0130947Y0136783D01*
X0130901Y0136745D01*
X0130852Y0136709D01*
X0130801Y0136676D01*
X0130749Y0136647D01*
X0130694Y0136620D01*
X0130639Y0136597D01*
X0130582Y0136577D01*
X0130523Y0136561D01*
X0130464Y0136548D01*
X0130405Y0136539D01*
X0130344Y0136534D01*
X0130284Y0136532D01*
X0124284Y0136532D01*
X0124224Y0136534D01*
X0124163Y0136539D01*
X0124104Y0136548D01*
X0124045Y0136561D01*
X0123986Y0136577D01*
X0123929Y0136597D01*
X0123874Y0136620D01*
X0123819Y0136647D01*
X0123767Y0136676D01*
X0123716Y0136709D01*
X0123667Y0136745D01*
X0123621Y0136783D01*
X0123577Y0136825D01*
X0123535Y0136869D01*
X0123497Y0136915D01*
X0123461Y0136964D01*
X0123428Y0137015D01*
X0123399Y0137067D01*
X0123372Y0137122D01*
X0123349Y0137177D01*
X0123329Y0137234D01*
X0123313Y0137293D01*
X0123300Y0137352D01*
X0123291Y0137411D01*
X0123286Y0137472D01*
X0123284Y0137532D01*
D34*
X0131865Y0143403D02*
X0135365Y0143403D01*
X0135425Y0143401D01*
X0135486Y0143396D01*
X0135545Y0143387D01*
X0135604Y0143374D01*
X0135663Y0143358D01*
X0135720Y0143338D01*
X0135775Y0143315D01*
X0135830Y0143288D01*
X0135882Y0143259D01*
X0135933Y0143226D01*
X0135982Y0143190D01*
X0136028Y0143152D01*
X0136072Y0143110D01*
X0136114Y0143066D01*
X0136152Y0143020D01*
X0136188Y0142971D01*
X0136221Y0142920D01*
X0136250Y0142868D01*
X0136277Y0142813D01*
X0136300Y0142758D01*
X0136320Y0142701D01*
X0136336Y0142642D01*
X0136349Y0142583D01*
X0136358Y0142524D01*
X0136363Y0142463D01*
X0136365Y0142403D01*
X0136365Y0141903D01*
X0135365Y0140532D02*
X0135425Y0140530D01*
X0135486Y0140525D01*
X0135545Y0140516D01*
X0135604Y0140503D01*
X0135663Y0140487D01*
X0135720Y0140467D01*
X0135775Y0140444D01*
X0135830Y0140417D01*
X0135882Y0140388D01*
X0135933Y0140355D01*
X0135982Y0140319D01*
X0136028Y0140281D01*
X0136072Y0140239D01*
X0136114Y0140195D01*
X0136152Y0140149D01*
X0136188Y0140100D01*
X0136221Y0140049D01*
X0136250Y0139997D01*
X0136277Y0139942D01*
X0136300Y0139887D01*
X0136320Y0139830D01*
X0136336Y0139771D01*
X0136349Y0139712D01*
X0136358Y0139653D01*
X0136363Y0139592D01*
X0136365Y0139532D01*
X0135365Y0140533D02*
X0135303Y0140531D01*
X0135241Y0140525D01*
X0135180Y0140516D01*
X0135119Y0140503D01*
X0135060Y0140486D01*
X0135001Y0140466D01*
X0134944Y0140442D01*
X0134888Y0140414D01*
X0134834Y0140383D01*
X0134782Y0140349D01*
X0134733Y0140312D01*
X0134685Y0140272D01*
X0134640Y0140229D01*
X0134598Y0140184D01*
X0134559Y0140136D01*
X0134523Y0140085D01*
X0134490Y0140033D01*
X0134490Y0140032D02*
X0133740Y0138657D01*
X0131865Y0139157D02*
X0131867Y0139237D01*
X0131872Y0139318D01*
X0131881Y0139398D01*
X0131893Y0139477D01*
X0131908Y0139556D01*
X0131927Y0139634D01*
X0131949Y0139712D01*
X0131974Y0139788D01*
X0132003Y0139863D01*
X0132035Y0139937D01*
X0132070Y0140009D01*
X0132108Y0140080D01*
X0132149Y0140149D01*
X0132193Y0140217D01*
X0132240Y0140282D01*
X0133740Y0138657D02*
X0133707Y0138605D01*
X0133671Y0138554D01*
X0133632Y0138506D01*
X0133590Y0138461D01*
X0133545Y0138418D01*
X0133497Y0138378D01*
X0133448Y0138341D01*
X0133396Y0138307D01*
X0133342Y0138276D01*
X0133286Y0138248D01*
X0133229Y0138224D01*
X0133170Y0138204D01*
X0133111Y0138187D01*
X0133050Y0138174D01*
X0132989Y0138165D01*
X0132927Y0138159D01*
X0132865Y0138157D01*
X0132805Y0138159D01*
X0132744Y0138164D01*
X0132685Y0138173D01*
X0132626Y0138186D01*
X0132567Y0138202D01*
X0132510Y0138222D01*
X0132455Y0138245D01*
X0132400Y0138272D01*
X0132348Y0138301D01*
X0132297Y0138334D01*
X0132248Y0138370D01*
X0132202Y0138408D01*
X0132158Y0138450D01*
X0132116Y0138494D01*
X0132078Y0138540D01*
X0132042Y0138589D01*
X0132009Y0138640D01*
X0131980Y0138692D01*
X0131953Y0138747D01*
X0131930Y0138802D01*
X0131910Y0138859D01*
X0131894Y0138918D01*
X0131881Y0138977D01*
X0131872Y0139036D01*
X0131867Y0139097D01*
X0131865Y0139157D01*
X0135740Y0138032D02*
X0135801Y0138095D01*
X0135859Y0138160D01*
X0135915Y0138228D01*
X0135968Y0138299D01*
X0136017Y0138371D01*
X0136064Y0138445D01*
X0136108Y0138521D01*
X0136148Y0138599D01*
X0136185Y0138679D01*
X0136219Y0138760D01*
X0136249Y0138842D01*
X0136276Y0138926D01*
X0136300Y0139011D01*
X0136320Y0139096D01*
X0136336Y0139182D01*
X0136349Y0139269D01*
X0136358Y0139357D01*
X0136363Y0139444D01*
X0136365Y0139532D01*
X0136365Y0145532D02*
X0136365Y0148032D01*
X0136365Y0146782D02*
X0131865Y0146782D01*
X0132865Y0145532D01*
X0165080Y0137520D02*
X0165080Y0113505D01*
X0169410Y0113505D01*
X0169410Y0101694D01*
X0165080Y0101694D01*
X0165080Y0113505D01*
X0165080Y0101694D02*
X0165080Y0077678D01*
X0199725Y0077678D01*
X0199725Y0137520D01*
X0165080Y0137520D01*
X0169804Y0133190D02*
X0169804Y0082009D01*
X0195001Y0082009D01*
X0195001Y0133190D01*
X0169804Y0133190D01*
X0066923Y0103912D02*
X0064798Y0101412D01*
X0067298Y0101412D01*
X0064798Y0104912D02*
X0064822Y0104981D01*
X0064850Y0105048D01*
X0064881Y0105114D01*
X0064915Y0105178D01*
X0064952Y0105240D01*
X0064993Y0105301D01*
X0065036Y0105359D01*
X0065082Y0105415D01*
X0065132Y0105469D01*
X0065183Y0105520D01*
X0065237Y0105568D01*
X0065294Y0105614D01*
X0065353Y0105657D01*
X0065414Y0105696D01*
X0065476Y0105733D01*
X0065541Y0105766D01*
X0065607Y0105797D01*
X0065675Y0105823D01*
X0065743Y0105847D01*
X0065813Y0105867D01*
X0065884Y0105883D01*
X0065956Y0105896D01*
X0066028Y0105905D01*
X0066100Y0105910D01*
X0066173Y0105912D01*
X0066238Y0105910D01*
X0066304Y0105904D01*
X0066368Y0105895D01*
X0066432Y0105882D01*
X0066496Y0105865D01*
X0066558Y0105844D01*
X0066619Y0105820D01*
X0066678Y0105792D01*
X0066736Y0105761D01*
X0066791Y0105727D01*
X0066845Y0105689D01*
X0066896Y0105649D01*
X0066945Y0105605D01*
X0066991Y0105559D01*
X0067035Y0105510D01*
X0067075Y0105459D01*
X0067113Y0105405D01*
X0067147Y0105350D01*
X0067178Y0105292D01*
X0067206Y0105233D01*
X0067230Y0105172D01*
X0067251Y0105110D01*
X0067268Y0105046D01*
X0067281Y0104982D01*
X0067290Y0104918D01*
X0067296Y0104852D01*
X0067298Y0104787D01*
X0067297Y0104787D02*
X0067295Y0104722D01*
X0067290Y0104657D01*
X0067281Y0104592D01*
X0067269Y0104528D01*
X0067253Y0104465D01*
X0067234Y0104403D01*
X0067212Y0104341D01*
X0067186Y0104281D01*
X0067157Y0104223D01*
X0067125Y0104166D01*
X0067090Y0104111D01*
X0067052Y0104058D01*
X0067012Y0104007D01*
X0066968Y0103958D01*
X0066922Y0103912D01*
X0061773Y0103412D02*
X0060523Y0103412D01*
X0061773Y0103412D02*
X0061842Y0103414D01*
X0061911Y0103420D01*
X0061979Y0103429D01*
X0062046Y0103442D01*
X0062113Y0103459D01*
X0062179Y0103480D01*
X0062243Y0103504D01*
X0062306Y0103532D01*
X0062368Y0103563D01*
X0062428Y0103597D01*
X0062485Y0103635D01*
X0062541Y0103676D01*
X0062594Y0103719D01*
X0062645Y0103766D01*
X0062693Y0103815D01*
X0062738Y0103867D01*
X0062780Y0103922D01*
X0062819Y0103978D01*
X0062856Y0104037D01*
X0062888Y0104098D01*
X0062918Y0104160D01*
X0062944Y0104224D01*
X0062966Y0104289D01*
X0062985Y0104355D01*
X0063000Y0104422D01*
X0063011Y0104490D01*
X0063019Y0104559D01*
X0063023Y0104628D01*
X0063023Y0104696D01*
X0063019Y0104765D01*
X0063011Y0104834D01*
X0063000Y0104902D01*
X0062985Y0104969D01*
X0062966Y0105035D01*
X0062944Y0105100D01*
X0062918Y0105164D01*
X0062888Y0105226D01*
X0062856Y0105287D01*
X0062819Y0105346D01*
X0062780Y0105402D01*
X0062738Y0105457D01*
X0062693Y0105509D01*
X0062645Y0105558D01*
X0062594Y0105605D01*
X0062541Y0105648D01*
X0062485Y0105689D01*
X0062428Y0105727D01*
X0062368Y0105761D01*
X0062306Y0105792D01*
X0062243Y0105820D01*
X0062179Y0105844D01*
X0062113Y0105865D01*
X0062046Y0105882D01*
X0061979Y0105895D01*
X0061911Y0105904D01*
X0061842Y0105910D01*
X0061773Y0105912D01*
X0060523Y0105912D01*
X0060523Y0101412D01*
X0058168Y0102412D02*
X0058168Y0105912D01*
X0058168Y0102412D02*
X0058166Y0102352D01*
X0058161Y0102291D01*
X0058152Y0102232D01*
X0058139Y0102173D01*
X0058123Y0102114D01*
X0058103Y0102057D01*
X0058080Y0102002D01*
X0058053Y0101947D01*
X0058024Y0101895D01*
X0057991Y0101844D01*
X0057955Y0101795D01*
X0057917Y0101749D01*
X0057875Y0101705D01*
X0057831Y0101663D01*
X0057785Y0101625D01*
X0057736Y0101589D01*
X0057685Y0101556D01*
X0057633Y0101527D01*
X0057578Y0101500D01*
X0057523Y0101477D01*
X0057466Y0101457D01*
X0057407Y0101441D01*
X0057348Y0101428D01*
X0057289Y0101419D01*
X0057228Y0101414D01*
X0057168Y0101412D01*
X0056668Y0101412D01*
X0058168Y0082290D02*
X0058168Y0078790D01*
X0058166Y0078730D01*
X0058161Y0078669D01*
X0058152Y0078610D01*
X0058139Y0078551D01*
X0058123Y0078492D01*
X0058103Y0078435D01*
X0058080Y0078380D01*
X0058053Y0078325D01*
X0058024Y0078273D01*
X0057991Y0078222D01*
X0057955Y0078173D01*
X0057917Y0078127D01*
X0057875Y0078083D01*
X0057831Y0078041D01*
X0057785Y0078003D01*
X0057736Y0077967D01*
X0057685Y0077934D01*
X0057633Y0077905D01*
X0057578Y0077878D01*
X0057523Y0077855D01*
X0057466Y0077835D01*
X0057407Y0077819D01*
X0057348Y0077806D01*
X0057289Y0077797D01*
X0057228Y0077792D01*
X0057168Y0077790D01*
X0056668Y0077790D01*
X0060523Y0077790D02*
X0060523Y0082290D01*
X0061773Y0082290D01*
X0061842Y0082288D01*
X0061911Y0082282D01*
X0061979Y0082273D01*
X0062046Y0082260D01*
X0062113Y0082243D01*
X0062179Y0082222D01*
X0062243Y0082198D01*
X0062306Y0082170D01*
X0062368Y0082139D01*
X0062428Y0082105D01*
X0062485Y0082067D01*
X0062541Y0082026D01*
X0062594Y0081983D01*
X0062645Y0081936D01*
X0062693Y0081887D01*
X0062738Y0081835D01*
X0062780Y0081780D01*
X0062819Y0081724D01*
X0062856Y0081665D01*
X0062888Y0081604D01*
X0062918Y0081542D01*
X0062944Y0081478D01*
X0062966Y0081413D01*
X0062985Y0081347D01*
X0063000Y0081280D01*
X0063011Y0081212D01*
X0063019Y0081143D01*
X0063023Y0081074D01*
X0063023Y0081006D01*
X0063019Y0080937D01*
X0063011Y0080868D01*
X0063000Y0080800D01*
X0062985Y0080733D01*
X0062966Y0080667D01*
X0062944Y0080602D01*
X0062918Y0080538D01*
X0062888Y0080476D01*
X0062856Y0080415D01*
X0062819Y0080356D01*
X0062780Y0080300D01*
X0062738Y0080245D01*
X0062693Y0080193D01*
X0062645Y0080144D01*
X0062594Y0080097D01*
X0062541Y0080054D01*
X0062485Y0080013D01*
X0062428Y0079975D01*
X0062368Y0079941D01*
X0062306Y0079910D01*
X0062243Y0079882D01*
X0062179Y0079858D01*
X0062113Y0079837D01*
X0062046Y0079820D01*
X0061979Y0079807D01*
X0061911Y0079798D01*
X0061842Y0079792D01*
X0061773Y0079790D01*
X0060523Y0079790D01*
X0064798Y0081290D02*
X0066048Y0082290D01*
X0066048Y0077790D01*
X0064798Y0077790D02*
X0067298Y0077790D01*
X0066048Y0125034D02*
X0064798Y0125034D01*
X0066048Y0125034D02*
X0066117Y0125036D01*
X0066186Y0125042D01*
X0066254Y0125051D01*
X0066321Y0125064D01*
X0066388Y0125081D01*
X0066454Y0125102D01*
X0066518Y0125126D01*
X0066581Y0125154D01*
X0066643Y0125185D01*
X0066703Y0125219D01*
X0066760Y0125257D01*
X0066816Y0125298D01*
X0066869Y0125341D01*
X0066920Y0125388D01*
X0066968Y0125437D01*
X0067013Y0125489D01*
X0067055Y0125544D01*
X0067094Y0125600D01*
X0067131Y0125659D01*
X0067163Y0125720D01*
X0067193Y0125782D01*
X0067219Y0125846D01*
X0067241Y0125911D01*
X0067260Y0125977D01*
X0067275Y0126044D01*
X0067286Y0126112D01*
X0067294Y0126181D01*
X0067298Y0126250D01*
X0067298Y0126318D01*
X0067294Y0126387D01*
X0067286Y0126456D01*
X0067275Y0126524D01*
X0067260Y0126591D01*
X0067241Y0126657D01*
X0067219Y0126722D01*
X0067193Y0126786D01*
X0067163Y0126848D01*
X0067131Y0126909D01*
X0067094Y0126968D01*
X0067055Y0127024D01*
X0067013Y0127079D01*
X0066968Y0127131D01*
X0066920Y0127180D01*
X0066869Y0127227D01*
X0066816Y0127270D01*
X0066760Y0127311D01*
X0066703Y0127349D01*
X0066643Y0127383D01*
X0066581Y0127414D01*
X0066518Y0127442D01*
X0066454Y0127466D01*
X0066388Y0127487D01*
X0066321Y0127504D01*
X0066254Y0127517D01*
X0066186Y0127526D01*
X0066117Y0127532D01*
X0066048Y0127534D01*
X0066298Y0127534D02*
X0065298Y0127534D01*
X0066298Y0127534D02*
X0066360Y0127536D01*
X0066421Y0127542D01*
X0066482Y0127551D01*
X0066542Y0127564D01*
X0066601Y0127581D01*
X0066659Y0127602D01*
X0066716Y0127626D01*
X0066771Y0127653D01*
X0066824Y0127684D01*
X0066876Y0127718D01*
X0066925Y0127755D01*
X0066972Y0127795D01*
X0067016Y0127838D01*
X0067057Y0127883D01*
X0067096Y0127931D01*
X0067132Y0127982D01*
X0067164Y0128034D01*
X0067193Y0128088D01*
X0067219Y0128144D01*
X0067241Y0128202D01*
X0067260Y0128260D01*
X0067275Y0128320D01*
X0067286Y0128381D01*
X0067294Y0128442D01*
X0067298Y0128503D01*
X0067298Y0128565D01*
X0067294Y0128626D01*
X0067286Y0128687D01*
X0067275Y0128748D01*
X0067260Y0128808D01*
X0067241Y0128866D01*
X0067219Y0128924D01*
X0067193Y0128980D01*
X0067164Y0129034D01*
X0067132Y0129086D01*
X0067096Y0129137D01*
X0067057Y0129185D01*
X0067016Y0129230D01*
X0066972Y0129273D01*
X0066925Y0129313D01*
X0066876Y0129350D01*
X0066824Y0129384D01*
X0066771Y0129415D01*
X0066716Y0129442D01*
X0066659Y0129466D01*
X0066601Y0129487D01*
X0066542Y0129504D01*
X0066482Y0129517D01*
X0066421Y0129526D01*
X0066360Y0129532D01*
X0066298Y0129534D01*
X0064798Y0129534D01*
X0061773Y0129534D02*
X0060523Y0129534D01*
X0060523Y0125034D01*
X0060523Y0127034D02*
X0061773Y0127034D01*
X0061842Y0127036D01*
X0061911Y0127042D01*
X0061979Y0127051D01*
X0062046Y0127064D01*
X0062113Y0127081D01*
X0062179Y0127102D01*
X0062243Y0127126D01*
X0062306Y0127154D01*
X0062368Y0127185D01*
X0062428Y0127219D01*
X0062485Y0127257D01*
X0062541Y0127298D01*
X0062594Y0127341D01*
X0062645Y0127388D01*
X0062693Y0127437D01*
X0062738Y0127489D01*
X0062780Y0127544D01*
X0062819Y0127600D01*
X0062856Y0127659D01*
X0062888Y0127720D01*
X0062918Y0127782D01*
X0062944Y0127846D01*
X0062966Y0127911D01*
X0062985Y0127977D01*
X0063000Y0128044D01*
X0063011Y0128112D01*
X0063019Y0128181D01*
X0063023Y0128250D01*
X0063023Y0128318D01*
X0063019Y0128387D01*
X0063011Y0128456D01*
X0063000Y0128524D01*
X0062985Y0128591D01*
X0062966Y0128657D01*
X0062944Y0128722D01*
X0062918Y0128786D01*
X0062888Y0128848D01*
X0062856Y0128909D01*
X0062819Y0128968D01*
X0062780Y0129024D01*
X0062738Y0129079D01*
X0062693Y0129131D01*
X0062645Y0129180D01*
X0062594Y0129227D01*
X0062541Y0129270D01*
X0062485Y0129311D01*
X0062428Y0129349D01*
X0062368Y0129383D01*
X0062306Y0129414D01*
X0062243Y0129442D01*
X0062179Y0129466D01*
X0062113Y0129487D01*
X0062046Y0129504D01*
X0061979Y0129517D01*
X0061911Y0129526D01*
X0061842Y0129532D01*
X0061773Y0129534D01*
X0058168Y0129534D02*
X0058168Y0126034D01*
X0058166Y0125974D01*
X0058161Y0125913D01*
X0058152Y0125854D01*
X0058139Y0125795D01*
X0058123Y0125736D01*
X0058103Y0125679D01*
X0058080Y0125624D01*
X0058053Y0125569D01*
X0058024Y0125517D01*
X0057991Y0125466D01*
X0057955Y0125417D01*
X0057917Y0125371D01*
X0057875Y0125327D01*
X0057831Y0125285D01*
X0057785Y0125247D01*
X0057736Y0125211D01*
X0057685Y0125178D01*
X0057633Y0125149D01*
X0057578Y0125122D01*
X0057523Y0125099D01*
X0057466Y0125079D01*
X0057407Y0125063D01*
X0057348Y0125050D01*
X0057289Y0125041D01*
X0057228Y0125036D01*
X0057168Y0125034D01*
X0056668Y0125034D01*
D35*
X0089489Y0037324D03*
X0094213Y0037324D03*
X0113111Y0037324D03*
X0117835Y0037324D03*
D36*
X0115473Y0037324D03*
X0091851Y0037324D03*
M02*
