G75*
%MOIN*%
%OFA0B0*%
%FSLAX25Y25*%
%IPPOS*%
%LPD*%
%AMOC8*
5,1,8,0,0,1.08239X$1,22.5*
%
%ADD10R,0.05918X0.06706*%
%ADD11R,0.07672X0.03151*%
%ADD12R,0.06706X0.05918*%
%ADD13R,0.07522X0.03151*%
%ADD14R,0.07100X0.05400*%
%ADD15R,0.07200X0.00600*%
%ADD16R,0.05400X0.07100*%
%ADD17R,0.00600X0.07200*%
%ADD18C,0.06800*%
%ADD19R,0.05524X0.05524*%
%ADD20C,0.07200*%
D10*
X0017245Y0080040D03*
X0024725Y0080040D03*
X0024725Y0103662D03*
X0017245Y0103662D03*
X0017245Y0127284D03*
X0024725Y0127284D03*
X0099922Y0162717D03*
X0107402Y0162717D03*
D11*
X0113839Y0150532D03*
X0113839Y0145532D03*
X0113839Y0140532D03*
X0113839Y0135532D03*
X0093485Y0135532D03*
X0093485Y0140532D03*
X0093485Y0145532D03*
X0093485Y0150532D03*
X0093485Y0079666D03*
X0093485Y0074666D03*
X0093485Y0069666D03*
X0093485Y0064666D03*
X0113839Y0064666D03*
X0113839Y0069666D03*
X0113839Y0074666D03*
X0113839Y0079666D03*
D12*
X0115473Y0024725D03*
X0115473Y0017245D03*
X0091851Y0017245D03*
X0091851Y0024725D03*
X0143032Y0139292D03*
X0143032Y0146772D03*
D13*
X0117942Y0115099D03*
X0117942Y0110099D03*
X0117942Y0105099D03*
X0117942Y0100099D03*
X0089383Y0100099D03*
X0089383Y0105099D03*
X0089383Y0110099D03*
X0089383Y0115099D03*
D14*
X0127284Y0140032D03*
X0127284Y0146032D03*
D15*
X0127284Y0143032D03*
D16*
X0047607Y0139095D03*
X0041607Y0139095D03*
X0041607Y0115473D03*
X0047607Y0115473D03*
X0047607Y0091851D03*
X0041607Y0091851D03*
D17*
X0044607Y0091851D03*
X0044607Y0115473D03*
X0044607Y0139095D03*
D18*
X0039607Y0083040D02*
X0039607Y0077040D01*
X0049607Y0077040D02*
X0049607Y0083040D01*
X0049607Y0100662D02*
X0049607Y0106662D01*
X0039607Y0106662D02*
X0039607Y0100662D01*
X0039607Y0124284D02*
X0039607Y0130284D01*
X0049607Y0130284D02*
X0049607Y0124284D01*
D19*
X0091851Y0040867D03*
X0091851Y0032599D03*
X0115473Y0032599D03*
X0115473Y0040867D03*
D20*
X0176902Y0097599D03*
X0177902Y0107599D03*
X0176902Y0117599D03*
X0187902Y0117599D03*
X0186902Y0107599D03*
X0187902Y0097599D03*
M02*
