G75*
%MOIN*%
%OFA0B0*%
%FSLAX25Y25*%
%IPPOS*%
%LPD*%
%AMOC8*
5,1,8,0,0,1.08239X$1,22.5*
%
%ADD10R,0.05118X0.05906*%
%ADD11R,0.06872X0.02351*%
%ADD12R,0.05906X0.05118*%
%ADD13R,0.06722X0.02351*%
%ADD14R,0.06300X0.04600*%
%ADD15R,0.04600X0.06300*%
%ADD16C,0.06000*%
%ADD17R,0.04724X0.04724*%
%ADD18C,0.06400*%
%ADD19C,0.01800*%
%ADD20C,0.02978*%
%ADD21C,0.01200*%
%ADD22C,0.00600*%
D10*
X0017245Y0080040D03*
X0024725Y0080040D03*
X0024725Y0103662D03*
X0017245Y0103662D03*
X0017245Y0127284D03*
X0024725Y0127284D03*
X0099922Y0162717D03*
X0107402Y0162717D03*
D11*
X0113839Y0150532D03*
X0113839Y0145532D03*
X0113839Y0140532D03*
X0113839Y0135532D03*
X0093485Y0135532D03*
X0093485Y0140532D03*
X0093485Y0145532D03*
X0093485Y0150532D03*
X0093485Y0079666D03*
X0093485Y0074666D03*
X0093485Y0069666D03*
X0093485Y0064666D03*
X0113839Y0064666D03*
X0113839Y0069666D03*
X0113839Y0074666D03*
X0113839Y0079666D03*
D12*
X0115473Y0024725D03*
X0115473Y0017245D03*
X0091851Y0017245D03*
X0091851Y0024725D03*
X0143032Y0139292D03*
X0143032Y0146772D03*
D13*
X0117942Y0115099D03*
X0117942Y0110099D03*
X0117942Y0105099D03*
X0117942Y0100099D03*
X0089383Y0100099D03*
X0089383Y0105099D03*
X0089383Y0110099D03*
X0089383Y0115099D03*
D14*
X0127284Y0140032D03*
X0127284Y0146032D03*
D15*
X0047607Y0139095D03*
X0041607Y0139095D03*
X0041607Y0115473D03*
X0047607Y0115473D03*
X0047607Y0091851D03*
X0041607Y0091851D03*
D16*
X0039607Y0083040D02*
X0039607Y0077040D01*
X0049607Y0077040D02*
X0049607Y0083040D01*
X0049607Y0100662D02*
X0049607Y0106662D01*
X0039607Y0106662D02*
X0039607Y0100662D01*
X0039607Y0124284D02*
X0039607Y0130284D01*
X0049607Y0130284D02*
X0049607Y0124284D01*
D17*
X0091851Y0040867D03*
X0091851Y0032599D03*
X0115473Y0032599D03*
X0115473Y0040867D03*
D18*
X0176902Y0097599D03*
X0177902Y0107599D03*
X0176902Y0117599D03*
X0187902Y0117599D03*
X0186902Y0107599D03*
X0187902Y0097599D03*
D19*
X0158591Y0182402D02*
X0100662Y0182402D01*
X0097662Y0185402D01*
X0048733Y0185402D01*
X0048733Y0182402D02*
X0094662Y0182402D01*
X0100662Y0176402D01*
X0100662Y0163457D01*
X0099922Y0162717D01*
X0093485Y0156281D01*
X0093485Y0150532D01*
X0106662Y0163457D02*
X0107402Y0162717D01*
X0113839Y0156281D01*
X0113839Y0150532D01*
X0106662Y0163457D02*
X0106662Y0176402D01*
X0103662Y0185402D02*
X0100662Y0188402D01*
X0048733Y0188402D01*
X0048733Y0191402D02*
X0103662Y0191402D01*
X0106662Y0188402D01*
X0158591Y0188402D01*
X0158591Y0185402D02*
X0103662Y0185402D01*
X0109662Y0191402D02*
X0106662Y0194402D01*
X0048733Y0194402D01*
X0048448Y0194405D01*
X0048162Y0194416D01*
X0047877Y0194433D01*
X0047593Y0194457D01*
X0047309Y0194488D01*
X0047026Y0194526D01*
X0046745Y0194571D01*
X0046464Y0194622D01*
X0046184Y0194680D01*
X0045906Y0194745D01*
X0045630Y0194817D01*
X0045356Y0194895D01*
X0045083Y0194980D01*
X0044813Y0195072D01*
X0044545Y0195170D01*
X0044279Y0195274D01*
X0044016Y0195385D01*
X0043756Y0195502D01*
X0043498Y0195625D01*
X0043244Y0195755D01*
X0042993Y0195891D01*
X0042745Y0196032D01*
X0042501Y0196180D01*
X0042260Y0196333D01*
X0042024Y0196493D01*
X0041791Y0196658D01*
X0041562Y0196828D01*
X0041337Y0197004D01*
X0041117Y0197186D01*
X0040901Y0197372D01*
X0040690Y0197564D01*
X0040483Y0197761D01*
X0040281Y0197963D01*
X0040084Y0198170D01*
X0039892Y0198381D01*
X0039706Y0198597D01*
X0039524Y0198817D01*
X0039348Y0199042D01*
X0039178Y0199271D01*
X0039013Y0199504D01*
X0038853Y0199740D01*
X0038700Y0199981D01*
X0038552Y0200225D01*
X0038411Y0200473D01*
X0038275Y0200724D01*
X0038145Y0200978D01*
X0038022Y0201236D01*
X0037905Y0201496D01*
X0037794Y0201759D01*
X0037690Y0202025D01*
X0037592Y0202293D01*
X0037500Y0202563D01*
X0037415Y0202836D01*
X0037337Y0203110D01*
X0037265Y0203386D01*
X0037200Y0203664D01*
X0037142Y0203944D01*
X0037091Y0204225D01*
X0037046Y0204506D01*
X0037008Y0204789D01*
X0036977Y0205073D01*
X0036953Y0205357D01*
X0036936Y0205642D01*
X0036925Y0205928D01*
X0036922Y0206213D01*
X0036922Y0355442D01*
X0033922Y0355442D02*
X0033922Y0206213D01*
X0030922Y0206213D02*
X0030922Y0355442D01*
X0027922Y0355442D02*
X0027922Y0206213D01*
X0024922Y0206213D02*
X0024922Y0355442D01*
X0036922Y0355442D02*
X0036925Y0355727D01*
X0036936Y0356013D01*
X0036953Y0356298D01*
X0036977Y0356582D01*
X0037008Y0356866D01*
X0037046Y0357149D01*
X0037091Y0357430D01*
X0037142Y0357711D01*
X0037200Y0357991D01*
X0037265Y0358269D01*
X0037337Y0358545D01*
X0037415Y0358819D01*
X0037500Y0359092D01*
X0037592Y0359362D01*
X0037690Y0359630D01*
X0037794Y0359896D01*
X0037905Y0360159D01*
X0038022Y0360419D01*
X0038145Y0360677D01*
X0038275Y0360931D01*
X0038411Y0361182D01*
X0038552Y0361430D01*
X0038700Y0361674D01*
X0038853Y0361915D01*
X0039013Y0362151D01*
X0039178Y0362384D01*
X0039348Y0362613D01*
X0039524Y0362838D01*
X0039706Y0363058D01*
X0039892Y0363274D01*
X0040084Y0363485D01*
X0040281Y0363692D01*
X0040483Y0363894D01*
X0040690Y0364091D01*
X0040901Y0364283D01*
X0041117Y0364469D01*
X0041337Y0364651D01*
X0041562Y0364827D01*
X0041791Y0364997D01*
X0042024Y0365162D01*
X0042260Y0365322D01*
X0042501Y0365475D01*
X0042745Y0365623D01*
X0042993Y0365764D01*
X0043244Y0365900D01*
X0043498Y0366030D01*
X0043756Y0366153D01*
X0044016Y0366270D01*
X0044279Y0366381D01*
X0044545Y0366485D01*
X0044813Y0366583D01*
X0045083Y0366675D01*
X0045356Y0366760D01*
X0045630Y0366838D01*
X0045906Y0366910D01*
X0046184Y0366975D01*
X0046464Y0367033D01*
X0046745Y0367084D01*
X0047026Y0367129D01*
X0047309Y0367167D01*
X0047593Y0367198D01*
X0047877Y0367222D01*
X0048162Y0367239D01*
X0048448Y0367250D01*
X0048733Y0367253D01*
X0158591Y0367253D01*
X0158591Y0370253D02*
X0048733Y0370253D01*
X0048733Y0373253D02*
X0158591Y0373253D01*
X0158591Y0376253D02*
X0048733Y0376253D01*
X0048733Y0379253D02*
X0158591Y0379253D01*
X0158591Y0367253D02*
X0158876Y0367250D01*
X0159162Y0367239D01*
X0159447Y0367222D01*
X0159731Y0367198D01*
X0160015Y0367167D01*
X0160298Y0367129D01*
X0160579Y0367084D01*
X0160860Y0367033D01*
X0161140Y0366975D01*
X0161418Y0366910D01*
X0161694Y0366838D01*
X0161968Y0366760D01*
X0162241Y0366675D01*
X0162511Y0366583D01*
X0162779Y0366485D01*
X0163045Y0366381D01*
X0163308Y0366270D01*
X0163568Y0366153D01*
X0163826Y0366030D01*
X0164080Y0365900D01*
X0164331Y0365764D01*
X0164579Y0365623D01*
X0164823Y0365475D01*
X0165064Y0365322D01*
X0165300Y0365162D01*
X0165533Y0364997D01*
X0165762Y0364827D01*
X0165987Y0364651D01*
X0166207Y0364469D01*
X0166423Y0364283D01*
X0166634Y0364091D01*
X0166841Y0363894D01*
X0167043Y0363692D01*
X0167240Y0363485D01*
X0167432Y0363274D01*
X0167618Y0363058D01*
X0167800Y0362838D01*
X0167976Y0362613D01*
X0168146Y0362384D01*
X0168311Y0362151D01*
X0168471Y0361915D01*
X0168624Y0361674D01*
X0168772Y0361430D01*
X0168913Y0361182D01*
X0169049Y0360931D01*
X0169179Y0360677D01*
X0169302Y0360419D01*
X0169419Y0360159D01*
X0169530Y0359896D01*
X0169634Y0359630D01*
X0169732Y0359362D01*
X0169824Y0359092D01*
X0169909Y0358819D01*
X0169987Y0358545D01*
X0170059Y0358269D01*
X0170124Y0357991D01*
X0170182Y0357711D01*
X0170233Y0357430D01*
X0170278Y0357149D01*
X0170316Y0356866D01*
X0170347Y0356582D01*
X0170371Y0356298D01*
X0170388Y0356013D01*
X0170399Y0355727D01*
X0170402Y0355442D01*
X0170402Y0206213D01*
X0173402Y0206213D02*
X0173402Y0355442D01*
X0176402Y0355442D02*
X0176402Y0206213D01*
X0179402Y0206213D02*
X0179402Y0355442D01*
X0182402Y0355442D02*
X0182402Y0206213D01*
X0170402Y0206213D02*
X0170399Y0205928D01*
X0170388Y0205642D01*
X0170371Y0205357D01*
X0170347Y0205073D01*
X0170316Y0204789D01*
X0170278Y0204506D01*
X0170233Y0204225D01*
X0170182Y0203944D01*
X0170124Y0203664D01*
X0170059Y0203386D01*
X0169987Y0203110D01*
X0169909Y0202836D01*
X0169824Y0202563D01*
X0169732Y0202293D01*
X0169634Y0202025D01*
X0169530Y0201759D01*
X0169419Y0201496D01*
X0169302Y0201236D01*
X0169179Y0200978D01*
X0169049Y0200724D01*
X0168913Y0200473D01*
X0168772Y0200225D01*
X0168624Y0199981D01*
X0168471Y0199740D01*
X0168311Y0199504D01*
X0168146Y0199271D01*
X0167976Y0199042D01*
X0167800Y0198817D01*
X0167618Y0198597D01*
X0167432Y0198381D01*
X0167240Y0198170D01*
X0167043Y0197963D01*
X0166841Y0197761D01*
X0166634Y0197564D01*
X0166423Y0197372D01*
X0166207Y0197186D01*
X0165987Y0197004D01*
X0165762Y0196828D01*
X0165533Y0196658D01*
X0165300Y0196493D01*
X0165064Y0196333D01*
X0164823Y0196180D01*
X0164579Y0196032D01*
X0164331Y0195891D01*
X0164080Y0195755D01*
X0163826Y0195625D01*
X0163568Y0195502D01*
X0163308Y0195385D01*
X0163045Y0195274D01*
X0162779Y0195170D01*
X0162511Y0195072D01*
X0162241Y0194980D01*
X0161968Y0194895D01*
X0161694Y0194817D01*
X0161418Y0194745D01*
X0161140Y0194680D01*
X0160860Y0194622D01*
X0160579Y0194571D01*
X0160298Y0194526D01*
X0160015Y0194488D01*
X0159731Y0194457D01*
X0159447Y0194433D01*
X0159162Y0194416D01*
X0158876Y0194405D01*
X0158591Y0194402D01*
X0112662Y0194402D01*
X0109662Y0197402D01*
X0109662Y0191402D02*
X0158591Y0191402D01*
X0158949Y0191406D01*
X0159307Y0191419D01*
X0159664Y0191441D01*
X0160020Y0191471D01*
X0160376Y0191510D01*
X0160731Y0191557D01*
X0161085Y0191613D01*
X0161437Y0191678D01*
X0161787Y0191751D01*
X0162136Y0191832D01*
X0162482Y0191922D01*
X0162826Y0192020D01*
X0163168Y0192127D01*
X0163507Y0192242D01*
X0163843Y0192364D01*
X0164176Y0192495D01*
X0164506Y0192634D01*
X0164832Y0192781D01*
X0165155Y0192936D01*
X0165474Y0193099D01*
X0165789Y0193269D01*
X0166100Y0193446D01*
X0166406Y0193632D01*
X0166708Y0193824D01*
X0167005Y0194024D01*
X0167297Y0194231D01*
X0167584Y0194445D01*
X0167865Y0194665D01*
X0168142Y0194893D01*
X0168413Y0195127D01*
X0168678Y0195367D01*
X0168937Y0195614D01*
X0169190Y0195867D01*
X0169437Y0196126D01*
X0169677Y0196391D01*
X0169911Y0196662D01*
X0170139Y0196939D01*
X0170359Y0197220D01*
X0170573Y0197507D01*
X0170780Y0197799D01*
X0170980Y0198096D01*
X0171172Y0198398D01*
X0171358Y0198704D01*
X0171535Y0199015D01*
X0171705Y0199330D01*
X0171868Y0199649D01*
X0172023Y0199972D01*
X0172170Y0200298D01*
X0172309Y0200628D01*
X0172440Y0200961D01*
X0172562Y0201297D01*
X0172677Y0201636D01*
X0172784Y0201978D01*
X0172882Y0202322D01*
X0172972Y0202668D01*
X0173053Y0203017D01*
X0173126Y0203367D01*
X0173191Y0203719D01*
X0173247Y0204073D01*
X0173294Y0204428D01*
X0173333Y0204784D01*
X0173363Y0205140D01*
X0173385Y0205497D01*
X0173398Y0205855D01*
X0173402Y0206213D01*
X0176402Y0206213D02*
X0176397Y0205783D01*
X0176381Y0205352D01*
X0176355Y0204923D01*
X0176319Y0204494D01*
X0176272Y0204066D01*
X0176215Y0203640D01*
X0176148Y0203214D01*
X0176070Y0202791D01*
X0175982Y0202370D01*
X0175884Y0201951D01*
X0175776Y0201534D01*
X0175658Y0201120D01*
X0175530Y0200709D01*
X0175392Y0200301D01*
X0175245Y0199897D01*
X0175087Y0199497D01*
X0174920Y0199100D01*
X0174743Y0198707D01*
X0174557Y0198319D01*
X0174362Y0197936D01*
X0174157Y0197557D01*
X0173944Y0197184D01*
X0173721Y0196815D01*
X0173489Y0196452D01*
X0173249Y0196095D01*
X0173000Y0195744D01*
X0172743Y0195399D01*
X0172478Y0195060D01*
X0172204Y0194728D01*
X0171923Y0194402D01*
X0171633Y0194083D01*
X0171337Y0193772D01*
X0171032Y0193467D01*
X0170721Y0193171D01*
X0170402Y0192881D01*
X0170076Y0192600D01*
X0169744Y0192326D01*
X0169405Y0192061D01*
X0169060Y0191804D01*
X0168709Y0191555D01*
X0168352Y0191315D01*
X0167989Y0191083D01*
X0167620Y0190860D01*
X0167247Y0190647D01*
X0166868Y0190442D01*
X0166485Y0190247D01*
X0166097Y0190061D01*
X0165704Y0189884D01*
X0165307Y0189717D01*
X0164907Y0189559D01*
X0164503Y0189412D01*
X0164095Y0189274D01*
X0163684Y0189146D01*
X0163270Y0189028D01*
X0162853Y0188920D01*
X0162434Y0188822D01*
X0162013Y0188734D01*
X0161590Y0188656D01*
X0161164Y0188589D01*
X0160738Y0188532D01*
X0160310Y0188485D01*
X0159881Y0188449D01*
X0159452Y0188423D01*
X0159021Y0188407D01*
X0158591Y0188402D01*
X0158591Y0185402D02*
X0159094Y0185408D01*
X0159596Y0185426D01*
X0160098Y0185457D01*
X0160600Y0185499D01*
X0161099Y0185554D01*
X0161598Y0185620D01*
X0162095Y0185699D01*
X0162589Y0185790D01*
X0163082Y0185892D01*
X0163571Y0186007D01*
X0164058Y0186133D01*
X0164542Y0186271D01*
X0165022Y0186421D01*
X0165498Y0186582D01*
X0165971Y0186754D01*
X0166439Y0186938D01*
X0166902Y0187134D01*
X0167361Y0187340D01*
X0167814Y0187557D01*
X0168262Y0187786D01*
X0168705Y0188025D01*
X0169141Y0188275D01*
X0169572Y0188535D01*
X0169996Y0188805D01*
X0170413Y0189086D01*
X0170823Y0189377D01*
X0171227Y0189677D01*
X0171623Y0189987D01*
X0172011Y0190307D01*
X0172391Y0190636D01*
X0172764Y0190974D01*
X0173128Y0191321D01*
X0173483Y0191676D01*
X0173830Y0192040D01*
X0174168Y0192413D01*
X0174497Y0192793D01*
X0174817Y0193181D01*
X0175127Y0193577D01*
X0175427Y0193981D01*
X0175718Y0194391D01*
X0175999Y0194808D01*
X0176269Y0195232D01*
X0176529Y0195663D01*
X0176779Y0196099D01*
X0177018Y0196542D01*
X0177247Y0196990D01*
X0177464Y0197443D01*
X0177670Y0197902D01*
X0177866Y0198365D01*
X0178050Y0198833D01*
X0178222Y0199306D01*
X0178383Y0199782D01*
X0178533Y0200262D01*
X0178671Y0200746D01*
X0178797Y0201233D01*
X0178912Y0201722D01*
X0179014Y0202215D01*
X0179105Y0202709D01*
X0179184Y0203206D01*
X0179250Y0203705D01*
X0179305Y0204204D01*
X0179347Y0204706D01*
X0179378Y0205208D01*
X0179396Y0205710D01*
X0179402Y0206213D01*
X0182402Y0206213D02*
X0182395Y0205638D01*
X0182374Y0205063D01*
X0182339Y0204488D01*
X0182291Y0203915D01*
X0182228Y0203343D01*
X0182152Y0202773D01*
X0182062Y0202204D01*
X0181958Y0201638D01*
X0181841Y0201075D01*
X0181710Y0200515D01*
X0181566Y0199958D01*
X0181408Y0199404D01*
X0181237Y0198855D01*
X0181052Y0198310D01*
X0180855Y0197770D01*
X0180644Y0197234D01*
X0180421Y0196704D01*
X0180185Y0196179D01*
X0179936Y0195660D01*
X0179675Y0195147D01*
X0179401Y0194641D01*
X0179115Y0194142D01*
X0178818Y0193649D01*
X0178508Y0193164D01*
X0178187Y0192687D01*
X0177855Y0192217D01*
X0177511Y0191756D01*
X0177156Y0191303D01*
X0176790Y0190859D01*
X0176414Y0190423D01*
X0176027Y0189997D01*
X0175630Y0189581D01*
X0175223Y0189174D01*
X0174807Y0188777D01*
X0174381Y0188390D01*
X0173945Y0188014D01*
X0173501Y0187648D01*
X0173048Y0187293D01*
X0172587Y0186949D01*
X0172117Y0186617D01*
X0171640Y0186296D01*
X0171155Y0185986D01*
X0170662Y0185689D01*
X0170163Y0185403D01*
X0169657Y0185129D01*
X0169144Y0184868D01*
X0168625Y0184619D01*
X0168100Y0184383D01*
X0167570Y0184160D01*
X0167034Y0183949D01*
X0166494Y0183752D01*
X0165949Y0183567D01*
X0165400Y0183396D01*
X0164846Y0183238D01*
X0164289Y0183094D01*
X0163729Y0182963D01*
X0163166Y0182846D01*
X0162600Y0182742D01*
X0162031Y0182652D01*
X0161461Y0182576D01*
X0160889Y0182513D01*
X0160316Y0182465D01*
X0159741Y0182430D01*
X0159166Y0182409D01*
X0158591Y0182402D01*
X0173402Y0355442D02*
X0173398Y0355800D01*
X0173385Y0356158D01*
X0173363Y0356515D01*
X0173333Y0356871D01*
X0173294Y0357227D01*
X0173247Y0357582D01*
X0173191Y0357936D01*
X0173126Y0358288D01*
X0173053Y0358638D01*
X0172972Y0358987D01*
X0172882Y0359333D01*
X0172784Y0359677D01*
X0172677Y0360019D01*
X0172562Y0360358D01*
X0172440Y0360694D01*
X0172309Y0361027D01*
X0172170Y0361357D01*
X0172023Y0361683D01*
X0171868Y0362006D01*
X0171705Y0362325D01*
X0171535Y0362640D01*
X0171358Y0362951D01*
X0171172Y0363257D01*
X0170980Y0363559D01*
X0170780Y0363856D01*
X0170573Y0364148D01*
X0170359Y0364435D01*
X0170139Y0364716D01*
X0169911Y0364993D01*
X0169677Y0365264D01*
X0169437Y0365529D01*
X0169190Y0365788D01*
X0168937Y0366041D01*
X0168678Y0366288D01*
X0168413Y0366528D01*
X0168142Y0366762D01*
X0167865Y0366990D01*
X0167584Y0367210D01*
X0167297Y0367424D01*
X0167005Y0367631D01*
X0166708Y0367831D01*
X0166406Y0368023D01*
X0166100Y0368209D01*
X0165789Y0368386D01*
X0165474Y0368556D01*
X0165155Y0368719D01*
X0164832Y0368874D01*
X0164506Y0369021D01*
X0164176Y0369160D01*
X0163843Y0369291D01*
X0163507Y0369413D01*
X0163168Y0369528D01*
X0162826Y0369635D01*
X0162482Y0369733D01*
X0162136Y0369823D01*
X0161787Y0369904D01*
X0161437Y0369977D01*
X0161085Y0370042D01*
X0160731Y0370098D01*
X0160376Y0370145D01*
X0160020Y0370184D01*
X0159664Y0370214D01*
X0159307Y0370236D01*
X0158949Y0370249D01*
X0158591Y0370253D01*
X0158591Y0373253D02*
X0159021Y0373248D01*
X0159452Y0373232D01*
X0159881Y0373206D01*
X0160310Y0373170D01*
X0160738Y0373123D01*
X0161164Y0373066D01*
X0161590Y0372999D01*
X0162013Y0372921D01*
X0162434Y0372833D01*
X0162853Y0372735D01*
X0163270Y0372627D01*
X0163684Y0372509D01*
X0164095Y0372381D01*
X0164503Y0372243D01*
X0164907Y0372096D01*
X0165307Y0371938D01*
X0165704Y0371771D01*
X0166097Y0371594D01*
X0166485Y0371408D01*
X0166868Y0371213D01*
X0167247Y0371008D01*
X0167620Y0370795D01*
X0167989Y0370572D01*
X0168352Y0370340D01*
X0168709Y0370100D01*
X0169060Y0369851D01*
X0169405Y0369594D01*
X0169744Y0369329D01*
X0170076Y0369055D01*
X0170402Y0368774D01*
X0170721Y0368484D01*
X0171032Y0368188D01*
X0171337Y0367883D01*
X0171633Y0367572D01*
X0171923Y0367253D01*
X0172204Y0366927D01*
X0172478Y0366595D01*
X0172743Y0366256D01*
X0173000Y0365911D01*
X0173249Y0365560D01*
X0173489Y0365203D01*
X0173721Y0364840D01*
X0173944Y0364471D01*
X0174157Y0364098D01*
X0174362Y0363719D01*
X0174557Y0363336D01*
X0174743Y0362948D01*
X0174920Y0362555D01*
X0175087Y0362158D01*
X0175245Y0361758D01*
X0175392Y0361354D01*
X0175530Y0360946D01*
X0175658Y0360535D01*
X0175776Y0360121D01*
X0175884Y0359704D01*
X0175982Y0359285D01*
X0176070Y0358864D01*
X0176148Y0358441D01*
X0176215Y0358015D01*
X0176272Y0357589D01*
X0176319Y0357161D01*
X0176355Y0356732D01*
X0176381Y0356303D01*
X0176397Y0355872D01*
X0176402Y0355442D01*
X0179402Y0355442D02*
X0179396Y0355945D01*
X0179378Y0356447D01*
X0179347Y0356949D01*
X0179305Y0357451D01*
X0179250Y0357950D01*
X0179184Y0358449D01*
X0179105Y0358946D01*
X0179014Y0359440D01*
X0178912Y0359933D01*
X0178797Y0360422D01*
X0178671Y0360909D01*
X0178533Y0361393D01*
X0178383Y0361873D01*
X0178222Y0362349D01*
X0178050Y0362822D01*
X0177866Y0363290D01*
X0177670Y0363753D01*
X0177464Y0364212D01*
X0177247Y0364665D01*
X0177018Y0365113D01*
X0176779Y0365556D01*
X0176529Y0365992D01*
X0176269Y0366423D01*
X0175999Y0366847D01*
X0175718Y0367264D01*
X0175427Y0367674D01*
X0175127Y0368078D01*
X0174817Y0368474D01*
X0174497Y0368862D01*
X0174168Y0369242D01*
X0173830Y0369615D01*
X0173483Y0369979D01*
X0173128Y0370334D01*
X0172764Y0370681D01*
X0172391Y0371019D01*
X0172011Y0371348D01*
X0171623Y0371668D01*
X0171227Y0371978D01*
X0170823Y0372278D01*
X0170413Y0372569D01*
X0169996Y0372850D01*
X0169572Y0373120D01*
X0169141Y0373380D01*
X0168705Y0373630D01*
X0168262Y0373869D01*
X0167814Y0374098D01*
X0167361Y0374315D01*
X0166902Y0374521D01*
X0166439Y0374717D01*
X0165971Y0374901D01*
X0165498Y0375073D01*
X0165022Y0375234D01*
X0164542Y0375384D01*
X0164058Y0375522D01*
X0163571Y0375648D01*
X0163082Y0375763D01*
X0162589Y0375865D01*
X0162095Y0375956D01*
X0161598Y0376035D01*
X0161099Y0376101D01*
X0160600Y0376156D01*
X0160098Y0376198D01*
X0159596Y0376229D01*
X0159094Y0376247D01*
X0158591Y0376253D01*
X0158591Y0379253D02*
X0159166Y0379246D01*
X0159741Y0379225D01*
X0160316Y0379190D01*
X0160889Y0379142D01*
X0161461Y0379079D01*
X0162031Y0379003D01*
X0162600Y0378913D01*
X0163166Y0378809D01*
X0163729Y0378692D01*
X0164289Y0378561D01*
X0164846Y0378417D01*
X0165400Y0378259D01*
X0165949Y0378088D01*
X0166494Y0377903D01*
X0167034Y0377706D01*
X0167570Y0377495D01*
X0168100Y0377272D01*
X0168625Y0377036D01*
X0169144Y0376787D01*
X0169657Y0376526D01*
X0170163Y0376252D01*
X0170662Y0375966D01*
X0171155Y0375669D01*
X0171640Y0375359D01*
X0172117Y0375038D01*
X0172587Y0374706D01*
X0173048Y0374362D01*
X0173501Y0374007D01*
X0173945Y0373641D01*
X0174381Y0373265D01*
X0174807Y0372878D01*
X0175223Y0372481D01*
X0175630Y0372074D01*
X0176027Y0371658D01*
X0176414Y0371232D01*
X0176790Y0370796D01*
X0177156Y0370352D01*
X0177511Y0369899D01*
X0177855Y0369438D01*
X0178187Y0368968D01*
X0178508Y0368491D01*
X0178818Y0368006D01*
X0179115Y0367513D01*
X0179401Y0367014D01*
X0179675Y0366508D01*
X0179936Y0365995D01*
X0180185Y0365476D01*
X0180421Y0364951D01*
X0180644Y0364421D01*
X0180855Y0363885D01*
X0181052Y0363345D01*
X0181237Y0362800D01*
X0181408Y0362251D01*
X0181566Y0361697D01*
X0181710Y0361140D01*
X0181841Y0360580D01*
X0181958Y0360017D01*
X0182062Y0359451D01*
X0182152Y0358882D01*
X0182228Y0358312D01*
X0182291Y0357740D01*
X0182339Y0357167D01*
X0182374Y0356592D01*
X0182395Y0356017D01*
X0182402Y0355442D01*
X0048733Y0370253D02*
X0048375Y0370249D01*
X0048017Y0370236D01*
X0047660Y0370214D01*
X0047304Y0370184D01*
X0046948Y0370145D01*
X0046593Y0370098D01*
X0046239Y0370042D01*
X0045887Y0369977D01*
X0045537Y0369904D01*
X0045188Y0369823D01*
X0044842Y0369733D01*
X0044498Y0369635D01*
X0044156Y0369528D01*
X0043817Y0369413D01*
X0043481Y0369291D01*
X0043148Y0369160D01*
X0042818Y0369021D01*
X0042492Y0368874D01*
X0042169Y0368719D01*
X0041850Y0368556D01*
X0041535Y0368386D01*
X0041224Y0368209D01*
X0040918Y0368023D01*
X0040616Y0367831D01*
X0040319Y0367631D01*
X0040027Y0367424D01*
X0039740Y0367210D01*
X0039459Y0366990D01*
X0039182Y0366762D01*
X0038911Y0366528D01*
X0038646Y0366288D01*
X0038387Y0366041D01*
X0038134Y0365788D01*
X0037887Y0365529D01*
X0037647Y0365264D01*
X0037413Y0364993D01*
X0037185Y0364716D01*
X0036965Y0364435D01*
X0036751Y0364148D01*
X0036544Y0363856D01*
X0036344Y0363559D01*
X0036152Y0363257D01*
X0035966Y0362951D01*
X0035789Y0362640D01*
X0035619Y0362325D01*
X0035456Y0362006D01*
X0035301Y0361683D01*
X0035154Y0361357D01*
X0035015Y0361027D01*
X0034884Y0360694D01*
X0034762Y0360358D01*
X0034647Y0360019D01*
X0034540Y0359677D01*
X0034442Y0359333D01*
X0034352Y0358987D01*
X0034271Y0358638D01*
X0034198Y0358288D01*
X0034133Y0357936D01*
X0034077Y0357582D01*
X0034030Y0357227D01*
X0033991Y0356871D01*
X0033961Y0356515D01*
X0033939Y0356158D01*
X0033926Y0355800D01*
X0033922Y0355442D01*
X0030922Y0355442D02*
X0030927Y0355872D01*
X0030943Y0356303D01*
X0030969Y0356732D01*
X0031005Y0357161D01*
X0031052Y0357589D01*
X0031109Y0358015D01*
X0031176Y0358441D01*
X0031254Y0358864D01*
X0031342Y0359285D01*
X0031440Y0359704D01*
X0031548Y0360121D01*
X0031666Y0360535D01*
X0031794Y0360946D01*
X0031932Y0361354D01*
X0032079Y0361758D01*
X0032237Y0362158D01*
X0032404Y0362555D01*
X0032581Y0362948D01*
X0032767Y0363336D01*
X0032962Y0363719D01*
X0033167Y0364098D01*
X0033380Y0364471D01*
X0033603Y0364840D01*
X0033835Y0365203D01*
X0034075Y0365560D01*
X0034324Y0365911D01*
X0034581Y0366256D01*
X0034846Y0366595D01*
X0035120Y0366927D01*
X0035401Y0367253D01*
X0035691Y0367572D01*
X0035987Y0367883D01*
X0036292Y0368188D01*
X0036603Y0368484D01*
X0036922Y0368774D01*
X0037248Y0369055D01*
X0037580Y0369329D01*
X0037919Y0369594D01*
X0038264Y0369851D01*
X0038615Y0370100D01*
X0038972Y0370340D01*
X0039335Y0370572D01*
X0039704Y0370795D01*
X0040077Y0371008D01*
X0040456Y0371213D01*
X0040839Y0371408D01*
X0041227Y0371594D01*
X0041620Y0371771D01*
X0042017Y0371938D01*
X0042417Y0372096D01*
X0042821Y0372243D01*
X0043229Y0372381D01*
X0043640Y0372509D01*
X0044054Y0372627D01*
X0044471Y0372735D01*
X0044890Y0372833D01*
X0045311Y0372921D01*
X0045734Y0372999D01*
X0046160Y0373066D01*
X0046586Y0373123D01*
X0047014Y0373170D01*
X0047443Y0373206D01*
X0047872Y0373232D01*
X0048303Y0373248D01*
X0048733Y0373253D01*
X0048733Y0376253D02*
X0048230Y0376247D01*
X0047728Y0376229D01*
X0047226Y0376198D01*
X0046724Y0376156D01*
X0046225Y0376101D01*
X0045726Y0376035D01*
X0045229Y0375956D01*
X0044735Y0375865D01*
X0044242Y0375763D01*
X0043753Y0375648D01*
X0043266Y0375522D01*
X0042782Y0375384D01*
X0042302Y0375234D01*
X0041826Y0375073D01*
X0041353Y0374901D01*
X0040885Y0374717D01*
X0040422Y0374521D01*
X0039963Y0374315D01*
X0039510Y0374098D01*
X0039062Y0373869D01*
X0038619Y0373630D01*
X0038183Y0373380D01*
X0037752Y0373120D01*
X0037328Y0372850D01*
X0036911Y0372569D01*
X0036501Y0372278D01*
X0036097Y0371978D01*
X0035701Y0371668D01*
X0035313Y0371348D01*
X0034933Y0371019D01*
X0034560Y0370681D01*
X0034196Y0370334D01*
X0033841Y0369979D01*
X0033494Y0369615D01*
X0033156Y0369242D01*
X0032827Y0368862D01*
X0032507Y0368474D01*
X0032197Y0368078D01*
X0031897Y0367674D01*
X0031606Y0367264D01*
X0031325Y0366847D01*
X0031055Y0366423D01*
X0030795Y0365992D01*
X0030545Y0365556D01*
X0030306Y0365113D01*
X0030077Y0364665D01*
X0029860Y0364212D01*
X0029654Y0363753D01*
X0029458Y0363290D01*
X0029274Y0362822D01*
X0029102Y0362349D01*
X0028941Y0361873D01*
X0028791Y0361393D01*
X0028653Y0360909D01*
X0028527Y0360422D01*
X0028412Y0359933D01*
X0028310Y0359440D01*
X0028219Y0358946D01*
X0028140Y0358449D01*
X0028074Y0357950D01*
X0028019Y0357451D01*
X0027977Y0356949D01*
X0027946Y0356447D01*
X0027928Y0355945D01*
X0027922Y0355442D01*
X0024922Y0355442D02*
X0024929Y0356017D01*
X0024950Y0356592D01*
X0024985Y0357167D01*
X0025033Y0357740D01*
X0025096Y0358312D01*
X0025172Y0358882D01*
X0025262Y0359451D01*
X0025366Y0360017D01*
X0025483Y0360580D01*
X0025614Y0361140D01*
X0025758Y0361697D01*
X0025916Y0362251D01*
X0026087Y0362800D01*
X0026272Y0363345D01*
X0026469Y0363885D01*
X0026680Y0364421D01*
X0026903Y0364951D01*
X0027139Y0365476D01*
X0027388Y0365995D01*
X0027649Y0366508D01*
X0027923Y0367014D01*
X0028209Y0367513D01*
X0028506Y0368006D01*
X0028816Y0368491D01*
X0029137Y0368968D01*
X0029469Y0369438D01*
X0029813Y0369899D01*
X0030168Y0370352D01*
X0030534Y0370796D01*
X0030910Y0371232D01*
X0031297Y0371658D01*
X0031694Y0372074D01*
X0032101Y0372481D01*
X0032517Y0372878D01*
X0032943Y0373265D01*
X0033379Y0373641D01*
X0033823Y0374007D01*
X0034276Y0374362D01*
X0034737Y0374706D01*
X0035207Y0375038D01*
X0035684Y0375359D01*
X0036169Y0375669D01*
X0036662Y0375966D01*
X0037161Y0376252D01*
X0037667Y0376526D01*
X0038180Y0376787D01*
X0038699Y0377036D01*
X0039224Y0377272D01*
X0039754Y0377495D01*
X0040290Y0377706D01*
X0040830Y0377903D01*
X0041375Y0378088D01*
X0041924Y0378259D01*
X0042478Y0378417D01*
X0043035Y0378561D01*
X0043595Y0378692D01*
X0044158Y0378809D01*
X0044724Y0378913D01*
X0045293Y0379003D01*
X0045863Y0379079D01*
X0046435Y0379142D01*
X0047008Y0379190D01*
X0047583Y0379225D01*
X0048158Y0379246D01*
X0048733Y0379253D01*
X0033922Y0206213D02*
X0033926Y0205855D01*
X0033939Y0205497D01*
X0033961Y0205140D01*
X0033991Y0204784D01*
X0034030Y0204428D01*
X0034077Y0204073D01*
X0034133Y0203719D01*
X0034198Y0203367D01*
X0034271Y0203017D01*
X0034352Y0202668D01*
X0034442Y0202322D01*
X0034540Y0201978D01*
X0034647Y0201636D01*
X0034762Y0201297D01*
X0034884Y0200961D01*
X0035015Y0200628D01*
X0035154Y0200298D01*
X0035301Y0199972D01*
X0035456Y0199649D01*
X0035619Y0199330D01*
X0035789Y0199015D01*
X0035966Y0198704D01*
X0036152Y0198398D01*
X0036344Y0198096D01*
X0036544Y0197799D01*
X0036751Y0197507D01*
X0036965Y0197220D01*
X0037185Y0196939D01*
X0037413Y0196662D01*
X0037647Y0196391D01*
X0037887Y0196126D01*
X0038134Y0195867D01*
X0038387Y0195614D01*
X0038646Y0195367D01*
X0038911Y0195127D01*
X0039182Y0194893D01*
X0039459Y0194665D01*
X0039740Y0194445D01*
X0040027Y0194231D01*
X0040319Y0194024D01*
X0040616Y0193824D01*
X0040918Y0193632D01*
X0041224Y0193446D01*
X0041535Y0193269D01*
X0041850Y0193099D01*
X0042169Y0192936D01*
X0042492Y0192781D01*
X0042818Y0192634D01*
X0043148Y0192495D01*
X0043481Y0192364D01*
X0043817Y0192242D01*
X0044156Y0192127D01*
X0044498Y0192020D01*
X0044842Y0191922D01*
X0045188Y0191832D01*
X0045537Y0191751D01*
X0045887Y0191678D01*
X0046239Y0191613D01*
X0046593Y0191557D01*
X0046948Y0191510D01*
X0047304Y0191471D01*
X0047660Y0191441D01*
X0048017Y0191419D01*
X0048375Y0191406D01*
X0048733Y0191402D01*
X0048733Y0188402D02*
X0048303Y0188407D01*
X0047872Y0188423D01*
X0047443Y0188449D01*
X0047014Y0188485D01*
X0046586Y0188532D01*
X0046160Y0188589D01*
X0045734Y0188656D01*
X0045311Y0188734D01*
X0044890Y0188822D01*
X0044471Y0188920D01*
X0044054Y0189028D01*
X0043640Y0189146D01*
X0043229Y0189274D01*
X0042821Y0189412D01*
X0042417Y0189559D01*
X0042017Y0189717D01*
X0041620Y0189884D01*
X0041227Y0190061D01*
X0040839Y0190247D01*
X0040456Y0190442D01*
X0040077Y0190647D01*
X0039704Y0190860D01*
X0039335Y0191083D01*
X0038972Y0191315D01*
X0038615Y0191555D01*
X0038264Y0191804D01*
X0037919Y0192061D01*
X0037580Y0192326D01*
X0037248Y0192600D01*
X0036922Y0192881D01*
X0036603Y0193171D01*
X0036292Y0193467D01*
X0035987Y0193772D01*
X0035691Y0194083D01*
X0035401Y0194402D01*
X0035120Y0194728D01*
X0034846Y0195060D01*
X0034581Y0195399D01*
X0034324Y0195744D01*
X0034075Y0196095D01*
X0033835Y0196452D01*
X0033603Y0196815D01*
X0033380Y0197184D01*
X0033167Y0197557D01*
X0032962Y0197936D01*
X0032767Y0198319D01*
X0032581Y0198707D01*
X0032404Y0199100D01*
X0032237Y0199497D01*
X0032079Y0199897D01*
X0031932Y0200301D01*
X0031794Y0200709D01*
X0031666Y0201120D01*
X0031548Y0201534D01*
X0031440Y0201951D01*
X0031342Y0202370D01*
X0031254Y0202791D01*
X0031176Y0203214D01*
X0031109Y0203640D01*
X0031052Y0204066D01*
X0031005Y0204494D01*
X0030969Y0204923D01*
X0030943Y0205352D01*
X0030927Y0205783D01*
X0030922Y0206213D01*
X0027922Y0206213D02*
X0027928Y0205710D01*
X0027946Y0205208D01*
X0027977Y0204706D01*
X0028019Y0204204D01*
X0028074Y0203705D01*
X0028140Y0203206D01*
X0028219Y0202709D01*
X0028310Y0202215D01*
X0028412Y0201722D01*
X0028527Y0201233D01*
X0028653Y0200746D01*
X0028791Y0200262D01*
X0028941Y0199782D01*
X0029102Y0199306D01*
X0029274Y0198833D01*
X0029458Y0198365D01*
X0029654Y0197902D01*
X0029860Y0197443D01*
X0030077Y0196990D01*
X0030306Y0196542D01*
X0030545Y0196099D01*
X0030795Y0195663D01*
X0031055Y0195232D01*
X0031325Y0194808D01*
X0031606Y0194391D01*
X0031897Y0193981D01*
X0032197Y0193577D01*
X0032507Y0193181D01*
X0032827Y0192793D01*
X0033156Y0192413D01*
X0033494Y0192040D01*
X0033841Y0191676D01*
X0034196Y0191321D01*
X0034560Y0190974D01*
X0034933Y0190636D01*
X0035313Y0190307D01*
X0035701Y0189987D01*
X0036097Y0189677D01*
X0036501Y0189377D01*
X0036911Y0189086D01*
X0037328Y0188805D01*
X0037752Y0188535D01*
X0038183Y0188275D01*
X0038619Y0188025D01*
X0039062Y0187786D01*
X0039510Y0187557D01*
X0039963Y0187340D01*
X0040422Y0187134D01*
X0040885Y0186938D01*
X0041353Y0186754D01*
X0041826Y0186582D01*
X0042302Y0186421D01*
X0042782Y0186271D01*
X0043266Y0186133D01*
X0043753Y0186007D01*
X0044242Y0185892D01*
X0044735Y0185790D01*
X0045229Y0185699D01*
X0045726Y0185620D01*
X0046225Y0185554D01*
X0046724Y0185499D01*
X0047226Y0185457D01*
X0047728Y0185426D01*
X0048230Y0185408D01*
X0048733Y0185402D01*
X0048733Y0182402D02*
X0048158Y0182409D01*
X0047583Y0182430D01*
X0047008Y0182465D01*
X0046435Y0182513D01*
X0045863Y0182576D01*
X0045293Y0182652D01*
X0044724Y0182742D01*
X0044158Y0182846D01*
X0043595Y0182963D01*
X0043035Y0183094D01*
X0042478Y0183238D01*
X0041924Y0183396D01*
X0041375Y0183567D01*
X0040830Y0183752D01*
X0040290Y0183949D01*
X0039754Y0184160D01*
X0039224Y0184383D01*
X0038699Y0184619D01*
X0038180Y0184868D01*
X0037667Y0185129D01*
X0037161Y0185403D01*
X0036662Y0185689D01*
X0036169Y0185986D01*
X0035684Y0186296D01*
X0035207Y0186617D01*
X0034737Y0186949D01*
X0034276Y0187293D01*
X0033823Y0187648D01*
X0033379Y0188014D01*
X0032943Y0188390D01*
X0032517Y0188777D01*
X0032101Y0189174D01*
X0031694Y0189581D01*
X0031297Y0189997D01*
X0030910Y0190423D01*
X0030534Y0190859D01*
X0030168Y0191303D01*
X0029813Y0191756D01*
X0029469Y0192217D01*
X0029137Y0192687D01*
X0028816Y0193164D01*
X0028506Y0193649D01*
X0028209Y0194142D01*
X0027923Y0194641D01*
X0027649Y0195147D01*
X0027388Y0195660D01*
X0027139Y0196179D01*
X0026903Y0196704D01*
X0026680Y0197234D01*
X0026469Y0197770D01*
X0026272Y0198310D01*
X0026087Y0198855D01*
X0025916Y0199404D01*
X0025758Y0199958D01*
X0025614Y0200515D01*
X0025483Y0201075D01*
X0025366Y0201638D01*
X0025262Y0202204D01*
X0025172Y0202773D01*
X0025096Y0203343D01*
X0025033Y0203915D01*
X0024985Y0204488D01*
X0024950Y0205063D01*
X0024929Y0205638D01*
X0024922Y0206213D01*
D20*
X0024922Y0162717D03*
X0036733Y0162717D03*
X0048544Y0162717D03*
X0060355Y0162717D03*
X0072166Y0162717D03*
X0083977Y0162717D03*
X0100662Y0176402D03*
X0106662Y0176402D03*
X0109662Y0197402D03*
X0123347Y0162717D03*
X0135158Y0162717D03*
X0143032Y0154843D03*
X0146969Y0162717D03*
X0158780Y0162717D03*
X0170591Y0162717D03*
X0182402Y0162717D03*
X0194213Y0162717D03*
X0194213Y0150906D03*
X0164237Y0107837D03*
X0162717Y0044607D03*
X0194213Y0013111D03*
X0115637Y0061337D03*
X0101237Y0064637D03*
X0099137Y0069737D03*
X0093137Y0060737D03*
X0083977Y0064292D03*
X0086837Y0096137D03*
X0083837Y0106037D03*
X0080040Y0099725D03*
X0096437Y0102137D03*
X0101537Y0102437D03*
X0103937Y0115337D03*
X0112337Y0111137D03*
X0112337Y0106037D03*
X0112337Y0101237D03*
X0104837Y0089537D03*
X0103662Y0013111D03*
X0044607Y0044607D03*
X0013111Y0013111D03*
X0013111Y0150906D03*
X0013111Y0162717D03*
D21*
X0017245Y0127284D02*
X0017237Y0127037D01*
X0017237Y0104237D01*
X0017245Y0103662D01*
X0017237Y0103637D01*
X0017237Y0080237D01*
X0017245Y0080040D01*
X0017537Y0079637D01*
X0017537Y0076637D01*
X0022937Y0071237D01*
X0076937Y0071237D01*
X0092537Y0086837D01*
X0107599Y0086837D01*
X0107599Y0085906D01*
X0113839Y0079666D01*
X0107599Y0086837D02*
X0107599Y0111536D01*
X0111162Y0115099D01*
X0117942Y0115099D01*
X0126910Y0115099D01*
X0143032Y0131221D01*
X0143032Y0139292D01*
X0166209Y0139292D01*
X0187902Y0117599D01*
X0143032Y0139292D02*
X0142292Y0140032D01*
X0127284Y0140032D01*
X0126784Y0140532D01*
X0113839Y0140532D01*
X0113839Y0145532D02*
X0126784Y0145532D01*
X0127284Y0146032D01*
D22*
X0007537Y0166654D02*
X0007537Y0007537D01*
X0199787Y0007537D01*
X0199787Y0166654D01*
X0108462Y0166654D01*
X0108462Y0166570D01*
X0110334Y0166570D01*
X0110861Y0166043D01*
X0110861Y0161804D01*
X0115639Y0157026D01*
X0115639Y0152608D01*
X0117648Y0152608D01*
X0118175Y0152080D01*
X0118175Y0148984D01*
X0117648Y0148457D01*
X0110030Y0148457D01*
X0109503Y0148984D01*
X0109503Y0152080D01*
X0110030Y0152608D01*
X0112039Y0152608D01*
X0112039Y0155535D01*
X0108710Y0158865D01*
X0104471Y0158865D01*
X0103943Y0159392D01*
X0103943Y0166043D01*
X0104471Y0166570D01*
X0104862Y0166570D01*
X0104862Y0166654D01*
X0102462Y0166654D01*
X0102462Y0166570D01*
X0102854Y0166570D01*
X0103381Y0166043D01*
X0103381Y0159392D01*
X0102854Y0158865D01*
X0098615Y0158865D01*
X0095285Y0155535D01*
X0095285Y0152608D01*
X0097294Y0152608D01*
X0097821Y0152080D01*
X0097821Y0148984D01*
X0097294Y0148457D01*
X0089677Y0148457D01*
X0089149Y0148984D01*
X0089149Y0152080D01*
X0089677Y0152608D01*
X0091685Y0152608D01*
X0091685Y0157026D01*
X0092740Y0158081D01*
X0096463Y0161804D01*
X0096463Y0166043D01*
X0096990Y0166570D01*
X0098862Y0166570D01*
X0098862Y0166654D01*
X0007537Y0166654D01*
X0007537Y0166237D02*
X0096657Y0166237D01*
X0096463Y0165638D02*
X0007537Y0165638D01*
X0007537Y0165040D02*
X0096463Y0165040D01*
X0096463Y0164441D02*
X0007537Y0164441D01*
X0007537Y0163843D02*
X0096463Y0163843D01*
X0096463Y0163244D02*
X0007537Y0163244D01*
X0007537Y0162645D02*
X0096463Y0162645D01*
X0096463Y0162047D02*
X0007537Y0162047D01*
X0007537Y0161448D02*
X0096108Y0161448D01*
X0095509Y0160850D02*
X0007537Y0160850D01*
X0007537Y0160251D02*
X0094911Y0160251D01*
X0094312Y0159653D02*
X0007537Y0159653D01*
X0007537Y0159054D02*
X0093714Y0159054D01*
X0093115Y0158456D02*
X0007537Y0158456D01*
X0007537Y0157857D02*
X0092517Y0157857D01*
X0091918Y0157259D02*
X0007537Y0157259D01*
X0007537Y0156660D02*
X0091685Y0156660D01*
X0091685Y0156062D02*
X0007537Y0156062D01*
X0007537Y0155463D02*
X0091685Y0155463D01*
X0091685Y0154865D02*
X0007537Y0154865D01*
X0007537Y0154266D02*
X0091685Y0154266D01*
X0091685Y0153668D02*
X0007537Y0153668D01*
X0007537Y0153069D02*
X0091685Y0153069D01*
X0089540Y0152471D02*
X0007537Y0152471D01*
X0007537Y0151872D02*
X0089149Y0151872D01*
X0089149Y0151274D02*
X0007537Y0151274D01*
X0007537Y0150675D02*
X0089149Y0150675D01*
X0089149Y0150077D02*
X0007537Y0150077D01*
X0007537Y0149478D02*
X0089149Y0149478D01*
X0089254Y0148880D02*
X0007537Y0148880D01*
X0007537Y0148281D02*
X0123234Y0148281D01*
X0123234Y0148705D02*
X0123234Y0147032D01*
X0118175Y0147032D01*
X0118175Y0147080D01*
X0117648Y0147608D01*
X0110030Y0147608D01*
X0109503Y0147080D01*
X0109503Y0143984D01*
X0110030Y0143457D01*
X0117648Y0143457D01*
X0118175Y0143984D01*
X0118175Y0144032D01*
X0123234Y0144032D01*
X0123234Y0143359D01*
X0123561Y0143032D01*
X0123234Y0142705D01*
X0123234Y0142032D01*
X0118175Y0142032D01*
X0118175Y0142080D01*
X0117648Y0142608D01*
X0110030Y0142608D01*
X0109503Y0142080D01*
X0109503Y0138984D01*
X0110030Y0138457D01*
X0117648Y0138457D01*
X0118175Y0138984D01*
X0118175Y0139032D01*
X0123234Y0139032D01*
X0123234Y0137359D01*
X0123761Y0136832D01*
X0130807Y0136832D01*
X0131334Y0137359D01*
X0131334Y0138532D01*
X0139180Y0138532D01*
X0139180Y0136360D01*
X0139707Y0135833D01*
X0141532Y0135833D01*
X0141532Y0131843D01*
X0126289Y0116599D01*
X0122203Y0116599D01*
X0122203Y0116647D01*
X0121675Y0117175D01*
X0114208Y0117175D01*
X0113681Y0116647D01*
X0113681Y0116599D01*
X0110541Y0116599D01*
X0106978Y0113036D01*
X0106099Y0112158D01*
X0106099Y0091653D01*
X0106037Y0091716D01*
X0106037Y0112140D01*
X0115037Y0121140D01*
X0115037Y0133457D01*
X0117648Y0133457D01*
X0118175Y0133984D01*
X0118175Y0137080D01*
X0117648Y0137608D01*
X0110030Y0137608D01*
X0109503Y0137080D01*
X0109503Y0133984D01*
X0110030Y0133457D01*
X0112637Y0133457D01*
X0112637Y0122134D01*
X0106326Y0115823D01*
X0106326Y0116327D01*
X0104927Y0117726D01*
X0102947Y0117726D01*
X0101758Y0116537D01*
X0093643Y0116537D01*
X0093643Y0116647D01*
X0093116Y0117175D01*
X0085649Y0117175D01*
X0085122Y0116647D01*
X0085122Y0113551D01*
X0085649Y0113024D01*
X0093116Y0113024D01*
X0093643Y0113551D01*
X0093643Y0114137D01*
X0101758Y0114137D01*
X0102947Y0112948D01*
X0103637Y0112948D01*
X0103637Y0103716D01*
X0102527Y0104826D01*
X0100845Y0104826D01*
X0094937Y0110734D01*
X0094234Y0111437D01*
X0093643Y0111437D01*
X0093643Y0111647D01*
X0093116Y0112175D01*
X0085649Y0112175D01*
X0085122Y0111647D01*
X0085122Y0108551D01*
X0085649Y0108024D01*
X0093116Y0108024D01*
X0093643Y0108551D01*
X0093643Y0108633D01*
X0099148Y0103129D01*
X0099148Y0101447D01*
X0100547Y0100048D01*
X0102527Y0100048D01*
X0103637Y0101159D01*
X0103637Y0091716D01*
X0102448Y0090527D01*
X0102448Y0088547D01*
X0102659Y0088337D01*
X0091916Y0088337D01*
X0091037Y0087458D01*
X0076316Y0072737D01*
X0023558Y0072737D01*
X0020108Y0076187D01*
X0020177Y0076187D01*
X0020704Y0076715D01*
X0020704Y0083366D01*
X0020177Y0083893D01*
X0018737Y0083893D01*
X0018737Y0099809D01*
X0020177Y0099809D01*
X0020704Y0100337D01*
X0020704Y0106988D01*
X0020177Y0107515D01*
X0018737Y0107515D01*
X0018737Y0123431D01*
X0020177Y0123431D01*
X0020704Y0123959D01*
X0020704Y0130610D01*
X0020177Y0131137D01*
X0014313Y0131137D01*
X0013786Y0130610D01*
X0013786Y0123959D01*
X0014313Y0123431D01*
X0015737Y0123431D01*
X0015737Y0107515D01*
X0014313Y0107515D01*
X0013786Y0106988D01*
X0013786Y0100337D01*
X0014313Y0099809D01*
X0015737Y0099809D01*
X0015737Y0083893D01*
X0014313Y0083893D01*
X0013786Y0083366D01*
X0013786Y0076715D01*
X0014313Y0076187D01*
X0016037Y0076187D01*
X0016037Y0076016D01*
X0021437Y0070616D01*
X0022316Y0069737D01*
X0077558Y0069737D01*
X0093158Y0085337D01*
X0106099Y0085337D01*
X0106099Y0085285D01*
X0109836Y0081548D01*
X0109503Y0081214D01*
X0109503Y0078118D01*
X0110030Y0077591D01*
X0117648Y0077591D01*
X0118175Y0078118D01*
X0118175Y0081214D01*
X0117648Y0081742D01*
X0113885Y0081742D01*
X0109099Y0086527D01*
X0109099Y0110915D01*
X0109948Y0111764D01*
X0109948Y0110147D01*
X0111347Y0108748D01*
X0113029Y0108748D01*
X0113040Y0108737D01*
X0113681Y0108737D01*
X0113681Y0108551D01*
X0114208Y0108024D01*
X0121675Y0108024D01*
X0122203Y0108551D01*
X0122203Y0109037D01*
X0162059Y0109037D01*
X0161848Y0108827D01*
X0161848Y0107145D01*
X0161040Y0106337D01*
X0122203Y0106337D01*
X0122203Y0106647D01*
X0121675Y0107175D01*
X0114578Y0107175D01*
X0113327Y0108426D01*
X0111347Y0108426D01*
X0109948Y0107027D01*
X0109948Y0105047D01*
X0111347Y0103648D01*
X0113327Y0103648D01*
X0113681Y0104002D01*
X0113681Y0103551D01*
X0114208Y0103024D01*
X0121675Y0103024D01*
X0122203Y0103551D01*
X0122203Y0103937D01*
X0162034Y0103937D01*
X0163545Y0105448D01*
X0165227Y0105448D01*
X0166626Y0106847D01*
X0166626Y0108827D01*
X0166416Y0109037D01*
X0171840Y0109037D01*
X0173537Y0107340D01*
X0173802Y0107075D01*
X0173802Y0106784D01*
X0174427Y0105277D01*
X0175580Y0104123D01*
X0176030Y0103937D01*
X0173940Y0103937D01*
X0171540Y0101537D01*
X0122203Y0101537D01*
X0122203Y0101647D01*
X0121675Y0102175D01*
X0114726Y0102175D01*
X0114726Y0102227D01*
X0113327Y0103626D01*
X0111347Y0103626D01*
X0109948Y0102227D01*
X0109948Y0100247D01*
X0111347Y0098848D01*
X0113029Y0098848D01*
X0113040Y0098837D01*
X0113681Y0098837D01*
X0113681Y0098551D01*
X0114208Y0098024D01*
X0121675Y0098024D01*
X0122203Y0098551D01*
X0122203Y0099137D01*
X0172534Y0099137D01*
X0174934Y0101537D01*
X0175140Y0101537D01*
X0175303Y0101374D01*
X0174580Y0101075D01*
X0173427Y0099922D01*
X0172802Y0098415D01*
X0172802Y0096784D01*
X0173427Y0095277D01*
X0174580Y0094123D01*
X0176087Y0093499D01*
X0177718Y0093499D01*
X0179225Y0094123D01*
X0180378Y0095277D01*
X0181002Y0096784D01*
X0181002Y0098415D01*
X0180378Y0099922D01*
X0179363Y0100937D01*
X0179734Y0100937D01*
X0180034Y0101237D01*
X0180934Y0101237D01*
X0184200Y0104503D01*
X0184580Y0104123D01*
X0186087Y0103499D01*
X0187718Y0103499D01*
X0189225Y0104123D01*
X0190378Y0105277D01*
X0191002Y0106784D01*
X0191002Y0108415D01*
X0190378Y0109922D01*
X0189225Y0111075D01*
X0187718Y0111699D01*
X0186087Y0111699D01*
X0184580Y0111075D01*
X0183427Y0109922D01*
X0182802Y0108415D01*
X0182802Y0106784D01*
X0182886Y0106583D01*
X0179940Y0103637D01*
X0179051Y0103637D01*
X0180225Y0104123D01*
X0181378Y0105277D01*
X0182002Y0106784D01*
X0182002Y0108415D01*
X0181378Y0109922D01*
X0180225Y0111075D01*
X0178718Y0111699D01*
X0177087Y0111699D01*
X0175580Y0111075D01*
X0174427Y0109922D01*
X0174404Y0109867D01*
X0172834Y0111437D01*
X0122203Y0111437D01*
X0122203Y0111647D01*
X0121675Y0112175D01*
X0114678Y0112175D01*
X0113327Y0113526D01*
X0111710Y0113526D01*
X0111784Y0113599D01*
X0113681Y0113599D01*
X0113681Y0113551D01*
X0114208Y0113024D01*
X0121675Y0113024D01*
X0122203Y0113551D01*
X0122203Y0113599D01*
X0127532Y0113599D01*
X0144532Y0130600D01*
X0144532Y0135833D01*
X0146358Y0135833D01*
X0146885Y0136360D01*
X0146885Y0137792D01*
X0165588Y0137792D01*
X0184143Y0119237D01*
X0183802Y0118415D01*
X0183802Y0116784D01*
X0184427Y0115277D01*
X0185580Y0114123D01*
X0187087Y0113499D01*
X0188718Y0113499D01*
X0190225Y0114123D01*
X0191378Y0115277D01*
X0192002Y0116784D01*
X0192002Y0118415D01*
X0191378Y0119922D01*
X0190225Y0121075D01*
X0188718Y0121699D01*
X0187087Y0121699D01*
X0186264Y0121359D01*
X0166831Y0140792D01*
X0146885Y0140792D01*
X0146885Y0142224D01*
X0146358Y0142751D01*
X0139707Y0142751D01*
X0139180Y0142224D01*
X0139180Y0141532D01*
X0131334Y0141532D01*
X0131334Y0142705D01*
X0131007Y0143032D01*
X0131334Y0143359D01*
X0131334Y0148705D01*
X0130807Y0149232D01*
X0123761Y0149232D01*
X0123234Y0148705D01*
X0123409Y0148880D02*
X0118071Y0148880D01*
X0118175Y0149478D02*
X0138780Y0149478D01*
X0138780Y0149503D02*
X0138780Y0147072D01*
X0142732Y0147072D01*
X0142732Y0146472D01*
X0143332Y0146472D01*
X0143332Y0142913D01*
X0146156Y0142913D01*
X0146487Y0143002D01*
X0146783Y0143173D01*
X0147025Y0143415D01*
X0147196Y0143712D01*
X0147285Y0144042D01*
X0147285Y0146472D01*
X0143332Y0146472D01*
X0143332Y0147072D01*
X0147285Y0147072D01*
X0147285Y0149503D01*
X0147196Y0149833D01*
X0147025Y0150130D01*
X0146783Y0150372D01*
X0146487Y0150543D01*
X0146156Y0150631D01*
X0143332Y0150631D01*
X0143332Y0147072D01*
X0142732Y0147072D01*
X0142732Y0150631D01*
X0139908Y0150631D01*
X0139578Y0150543D01*
X0139281Y0150372D01*
X0139039Y0150130D01*
X0138868Y0149833D01*
X0138780Y0149503D01*
X0139009Y0150077D02*
X0118175Y0150077D01*
X0118175Y0150675D02*
X0199787Y0150675D01*
X0199787Y0150077D02*
X0147056Y0150077D01*
X0147285Y0149478D02*
X0199787Y0149478D01*
X0199787Y0148880D02*
X0147285Y0148880D01*
X0147285Y0148281D02*
X0199787Y0148281D01*
X0199787Y0147683D02*
X0147285Y0147683D01*
X0147285Y0147084D02*
X0199787Y0147084D01*
X0199787Y0146486D02*
X0143332Y0146486D01*
X0143332Y0147084D02*
X0142732Y0147084D01*
X0142732Y0146486D02*
X0131334Y0146486D01*
X0131334Y0147084D02*
X0138780Y0147084D01*
X0138780Y0147683D02*
X0131334Y0147683D01*
X0131334Y0148281D02*
X0138780Y0148281D01*
X0138780Y0148880D02*
X0131160Y0148880D01*
X0131334Y0145887D02*
X0138780Y0145887D01*
X0138780Y0146472D02*
X0138780Y0144042D01*
X0138868Y0143712D01*
X0139039Y0143415D01*
X0139281Y0143173D01*
X0139578Y0143002D01*
X0139908Y0142913D01*
X0142732Y0142913D01*
X0142732Y0146472D01*
X0138780Y0146472D01*
X0138780Y0145289D02*
X0131334Y0145289D01*
X0131334Y0144690D02*
X0138780Y0144690D01*
X0138780Y0144092D02*
X0131334Y0144092D01*
X0131334Y0143493D02*
X0138994Y0143493D01*
X0139252Y0142296D02*
X0131334Y0142296D01*
X0131334Y0141698D02*
X0139180Y0141698D01*
X0139180Y0138107D02*
X0131334Y0138107D01*
X0131334Y0137508D02*
X0139180Y0137508D01*
X0139180Y0136909D02*
X0130884Y0136909D01*
X0131145Y0142895D02*
X0199787Y0142895D01*
X0199787Y0143493D02*
X0147070Y0143493D01*
X0147285Y0144092D02*
X0199787Y0144092D01*
X0199787Y0144690D02*
X0147285Y0144690D01*
X0147285Y0145289D02*
X0199787Y0145289D01*
X0199787Y0145887D02*
X0147285Y0145887D01*
X0146813Y0142296D02*
X0199787Y0142296D01*
X0199787Y0141698D02*
X0146885Y0141698D01*
X0146885Y0141099D02*
X0199787Y0141099D01*
X0199787Y0140501D02*
X0167122Y0140501D01*
X0167721Y0139902D02*
X0199787Y0139902D01*
X0199787Y0139304D02*
X0168319Y0139304D01*
X0168918Y0138705D02*
X0199787Y0138705D01*
X0199787Y0138107D02*
X0169516Y0138107D01*
X0170115Y0137508D02*
X0199787Y0137508D01*
X0199787Y0136909D02*
X0170713Y0136909D01*
X0171312Y0136311D02*
X0199787Y0136311D01*
X0199787Y0135712D02*
X0171910Y0135712D01*
X0172509Y0135114D02*
X0199787Y0135114D01*
X0199787Y0134515D02*
X0173107Y0134515D01*
X0173706Y0133917D02*
X0199787Y0133917D01*
X0199787Y0133318D02*
X0174304Y0133318D01*
X0174903Y0132720D02*
X0199787Y0132720D01*
X0199787Y0132121D02*
X0175501Y0132121D01*
X0176100Y0131523D02*
X0199787Y0131523D01*
X0199787Y0130924D02*
X0176698Y0130924D01*
X0177297Y0130326D02*
X0199787Y0130326D01*
X0199787Y0129727D02*
X0177896Y0129727D01*
X0178494Y0129129D02*
X0199787Y0129129D01*
X0199787Y0128530D02*
X0179093Y0128530D01*
X0179691Y0127932D02*
X0199787Y0127932D01*
X0199787Y0127333D02*
X0180290Y0127333D01*
X0180888Y0126735D02*
X0199787Y0126735D01*
X0199787Y0126136D02*
X0181487Y0126136D01*
X0182085Y0125538D02*
X0199787Y0125538D01*
X0199787Y0124939D02*
X0182684Y0124939D01*
X0183282Y0124341D02*
X0199787Y0124341D01*
X0199787Y0123742D02*
X0183881Y0123742D01*
X0184479Y0123144D02*
X0199787Y0123144D01*
X0199787Y0122545D02*
X0185078Y0122545D01*
X0185676Y0121947D02*
X0199787Y0121947D01*
X0199787Y0121348D02*
X0189565Y0121348D01*
X0190550Y0120750D02*
X0199787Y0120750D01*
X0199787Y0120151D02*
X0191149Y0120151D01*
X0191531Y0119553D02*
X0199787Y0119553D01*
X0199787Y0118954D02*
X0191779Y0118954D01*
X0192002Y0118356D02*
X0199787Y0118356D01*
X0199787Y0117757D02*
X0192002Y0117757D01*
X0192002Y0117159D02*
X0199787Y0117159D01*
X0199787Y0116560D02*
X0191910Y0116560D01*
X0191662Y0115962D02*
X0199787Y0115962D01*
X0199787Y0115363D02*
X0191414Y0115363D01*
X0190866Y0114765D02*
X0199787Y0114765D01*
X0199787Y0114166D02*
X0190267Y0114166D01*
X0188883Y0113568D02*
X0199787Y0113568D01*
X0199787Y0112969D02*
X0113883Y0112969D01*
X0113681Y0113568D02*
X0111752Y0113568D01*
X0112337Y0111137D02*
X0113537Y0109937D01*
X0117737Y0109937D01*
X0117942Y0110099D01*
X0118037Y0110237D01*
X0172337Y0110237D01*
X0174737Y0107837D01*
X0177737Y0107837D01*
X0177902Y0107599D01*
X0175080Y0110575D02*
X0173696Y0110575D01*
X0173098Y0111174D02*
X0175818Y0111174D01*
X0174481Y0109976D02*
X0174295Y0109976D01*
X0172696Y0108181D02*
X0166626Y0108181D01*
X0166626Y0108779D02*
X0172097Y0108779D01*
X0173295Y0107582D02*
X0166626Y0107582D01*
X0166626Y0106984D02*
X0173802Y0106984D01*
X0173967Y0106385D02*
X0166164Y0106385D01*
X0165565Y0105787D02*
X0174215Y0105787D01*
X0174515Y0105188D02*
X0163285Y0105188D01*
X0162687Y0104590D02*
X0175113Y0104590D01*
X0175899Y0103991D02*
X0162088Y0103991D01*
X0161537Y0105137D02*
X0164237Y0107837D01*
X0161848Y0107582D02*
X0114170Y0107582D01*
X0114051Y0108181D02*
X0113572Y0108181D01*
X0111316Y0108779D02*
X0109099Y0108779D01*
X0109099Y0108181D02*
X0111102Y0108181D01*
X0110504Y0107582D02*
X0109099Y0107582D01*
X0109099Y0106984D02*
X0109948Y0106984D01*
X0109948Y0106385D02*
X0109099Y0106385D01*
X0109099Y0105787D02*
X0109948Y0105787D01*
X0109948Y0105188D02*
X0109099Y0105188D01*
X0109099Y0104590D02*
X0110406Y0104590D01*
X0111004Y0103991D02*
X0109099Y0103991D01*
X0109099Y0103393D02*
X0111114Y0103393D01*
X0110516Y0102794D02*
X0109099Y0102794D01*
X0109099Y0102196D02*
X0109948Y0102196D01*
X0109948Y0101597D02*
X0109099Y0101597D01*
X0109099Y0100999D02*
X0109948Y0100999D01*
X0109948Y0100400D02*
X0109099Y0100400D01*
X0109099Y0099802D02*
X0110394Y0099802D01*
X0110992Y0099203D02*
X0109099Y0099203D01*
X0109099Y0098605D02*
X0113681Y0098605D01*
X0113537Y0100037D02*
X0117737Y0100037D01*
X0117942Y0100099D01*
X0118037Y0100337D01*
X0172037Y0100337D01*
X0174437Y0102737D01*
X0175637Y0102737D01*
X0176237Y0102137D01*
X0179237Y0102137D01*
X0179537Y0102437D01*
X0180437Y0102437D01*
X0185537Y0107537D01*
X0186737Y0107537D01*
X0186902Y0107599D01*
X0189725Y0110575D02*
X0199787Y0110575D01*
X0199787Y0111174D02*
X0188987Y0111174D01*
X0190323Y0109976D02*
X0199787Y0109976D01*
X0199787Y0109378D02*
X0190603Y0109378D01*
X0190851Y0108779D02*
X0199787Y0108779D01*
X0199787Y0108181D02*
X0191002Y0108181D01*
X0191002Y0107582D02*
X0199787Y0107582D01*
X0199787Y0106984D02*
X0191002Y0106984D01*
X0190837Y0106385D02*
X0199787Y0106385D01*
X0199787Y0105787D02*
X0190589Y0105787D01*
X0190290Y0105188D02*
X0199787Y0105188D01*
X0199787Y0104590D02*
X0189691Y0104590D01*
X0188906Y0103991D02*
X0199787Y0103991D01*
X0199787Y0103393D02*
X0183090Y0103393D01*
X0183688Y0103991D02*
X0184899Y0103991D01*
X0186175Y0101770D02*
X0185544Y0101448D01*
X0184971Y0101032D01*
X0184470Y0100531D01*
X0184054Y0099958D01*
X0183732Y0099327D01*
X0183513Y0098653D01*
X0183402Y0097953D01*
X0183402Y0097899D01*
X0187602Y0097899D01*
X0187602Y0097299D01*
X0183402Y0097299D01*
X0183402Y0097245D01*
X0183513Y0096545D01*
X0183732Y0095872D01*
X0184054Y0095241D01*
X0184470Y0094668D01*
X0184971Y0094167D01*
X0185544Y0093750D01*
X0186175Y0093429D01*
X0186849Y0093210D01*
X0187548Y0093099D01*
X0187602Y0093099D01*
X0187602Y0097299D01*
X0188202Y0097299D01*
X0188202Y0093099D01*
X0188257Y0093099D01*
X0188956Y0093210D01*
X0189630Y0093429D01*
X0190261Y0093750D01*
X0190834Y0094167D01*
X0191335Y0094668D01*
X0191751Y0095241D01*
X0192073Y0095872D01*
X0192292Y0096545D01*
X0192402Y0097245D01*
X0192402Y0097299D01*
X0188202Y0097299D01*
X0188202Y0097899D01*
X0187602Y0097899D01*
X0187602Y0102099D01*
X0187548Y0102099D01*
X0186849Y0101988D01*
X0186175Y0101770D01*
X0185837Y0101597D02*
X0181294Y0101597D01*
X0181893Y0102196D02*
X0199787Y0102196D01*
X0199787Y0102794D02*
X0182491Y0102794D01*
X0180893Y0104590D02*
X0180691Y0104590D01*
X0180294Y0103991D02*
X0179906Y0103991D01*
X0181290Y0105188D02*
X0181491Y0105188D01*
X0181589Y0105787D02*
X0182090Y0105787D01*
X0181837Y0106385D02*
X0182688Y0106385D01*
X0182802Y0106984D02*
X0182002Y0106984D01*
X0182002Y0107582D02*
X0182802Y0107582D01*
X0182802Y0108181D02*
X0182002Y0108181D01*
X0181851Y0108779D02*
X0182953Y0108779D01*
X0183201Y0109378D02*
X0181603Y0109378D01*
X0181323Y0109976D02*
X0183481Y0109976D01*
X0184080Y0110575D02*
X0180725Y0110575D01*
X0179987Y0111174D02*
X0184818Y0111174D01*
X0185537Y0114166D02*
X0179267Y0114166D01*
X0179225Y0114123D02*
X0180378Y0115277D01*
X0181002Y0116784D01*
X0181002Y0118415D01*
X0180378Y0119922D01*
X0179225Y0121075D01*
X0177718Y0121699D01*
X0176087Y0121699D01*
X0174580Y0121075D01*
X0173427Y0119922D01*
X0172802Y0118415D01*
X0172802Y0116784D01*
X0173427Y0115277D01*
X0174580Y0114123D01*
X0176087Y0113499D01*
X0177718Y0113499D01*
X0179225Y0114123D01*
X0179866Y0114765D02*
X0184939Y0114765D01*
X0184391Y0115363D02*
X0180414Y0115363D01*
X0180662Y0115962D02*
X0184143Y0115962D01*
X0183895Y0116560D02*
X0180910Y0116560D01*
X0181002Y0117159D02*
X0183802Y0117159D01*
X0183802Y0117757D02*
X0181002Y0117757D01*
X0181002Y0118356D02*
X0183802Y0118356D01*
X0184026Y0118954D02*
X0180779Y0118954D01*
X0180531Y0119553D02*
X0183828Y0119553D01*
X0183229Y0120151D02*
X0180149Y0120151D01*
X0179550Y0120750D02*
X0182631Y0120750D01*
X0182032Y0121348D02*
X0178565Y0121348D01*
X0180237Y0123144D02*
X0137076Y0123144D01*
X0137675Y0123742D02*
X0179638Y0123742D01*
X0179039Y0124341D02*
X0138273Y0124341D01*
X0138872Y0124939D02*
X0178441Y0124939D01*
X0177842Y0125538D02*
X0139470Y0125538D01*
X0140069Y0126136D02*
X0177244Y0126136D01*
X0176645Y0126735D02*
X0140667Y0126735D01*
X0141266Y0127333D02*
X0176047Y0127333D01*
X0175448Y0127932D02*
X0141864Y0127932D01*
X0142463Y0128530D02*
X0174850Y0128530D01*
X0174251Y0129129D02*
X0143061Y0129129D01*
X0143660Y0129727D02*
X0173653Y0129727D01*
X0173054Y0130326D02*
X0144258Y0130326D01*
X0144532Y0130924D02*
X0172456Y0130924D01*
X0171857Y0131523D02*
X0144532Y0131523D01*
X0144532Y0132121D02*
X0171259Y0132121D01*
X0170660Y0132720D02*
X0144532Y0132720D01*
X0144532Y0133318D02*
X0170062Y0133318D01*
X0169463Y0133917D02*
X0144532Y0133917D01*
X0144532Y0134515D02*
X0168865Y0134515D01*
X0168266Y0135114D02*
X0144532Y0135114D01*
X0144532Y0135712D02*
X0167668Y0135712D01*
X0167069Y0136311D02*
X0146836Y0136311D01*
X0146885Y0136909D02*
X0166471Y0136909D01*
X0165872Y0137508D02*
X0146885Y0137508D01*
X0143332Y0143493D02*
X0142732Y0143493D01*
X0142732Y0144092D02*
X0143332Y0144092D01*
X0143332Y0144690D02*
X0142732Y0144690D01*
X0142732Y0145289D02*
X0143332Y0145289D01*
X0143332Y0145887D02*
X0142732Y0145887D01*
X0142732Y0147683D02*
X0143332Y0147683D01*
X0143332Y0148281D02*
X0142732Y0148281D01*
X0142732Y0148880D02*
X0143332Y0148880D01*
X0143332Y0149478D02*
X0142732Y0149478D01*
X0142732Y0150077D02*
X0143332Y0150077D01*
X0139229Y0136311D02*
X0118175Y0136311D01*
X0118175Y0136909D02*
X0123684Y0136909D01*
X0123234Y0137508D02*
X0117747Y0137508D01*
X0117896Y0138705D02*
X0123234Y0138705D01*
X0123234Y0138107D02*
X0050807Y0138107D01*
X0050807Y0138705D02*
X0089428Y0138705D01*
X0089677Y0138457D02*
X0097294Y0138457D01*
X0097821Y0138984D01*
X0097821Y0142080D01*
X0097294Y0142608D01*
X0089677Y0142608D01*
X0089149Y0142080D01*
X0089149Y0141737D01*
X0055234Y0141737D01*
X0052037Y0144934D01*
X0051334Y0145637D01*
X0043740Y0145637D01*
X0041340Y0143237D01*
X0041248Y0143145D01*
X0038934Y0143145D01*
X0038407Y0142618D01*
X0038407Y0134009D01*
X0037398Y0133591D01*
X0036301Y0132493D01*
X0035707Y0131060D01*
X0035707Y0128484D01*
X0028184Y0128484D01*
X0028184Y0130610D01*
X0027657Y0131137D01*
X0021793Y0131137D01*
X0021266Y0130610D01*
X0021266Y0123959D01*
X0021793Y0123431D01*
X0027657Y0123431D01*
X0028184Y0123959D01*
X0028184Y0126084D01*
X0035707Y0126084D01*
X0035707Y0123508D01*
X0036301Y0122075D01*
X0037398Y0120978D01*
X0038831Y0120384D01*
X0040383Y0120384D01*
X0041816Y0120978D01*
X0042913Y0122075D01*
X0043507Y0123508D01*
X0043507Y0131060D01*
X0042913Y0132493D01*
X0041816Y0133591D01*
X0040807Y0134009D01*
X0040807Y0135045D01*
X0044280Y0135045D01*
X0044607Y0135372D01*
X0044934Y0135045D01*
X0048407Y0135045D01*
X0048407Y0134009D01*
X0047398Y0133591D01*
X0046301Y0132493D01*
X0045707Y0131060D01*
X0045707Y0123508D01*
X0046301Y0122075D01*
X0047398Y0120978D01*
X0047980Y0120737D01*
X0047434Y0120737D01*
X0046937Y0121234D01*
X0046234Y0121937D01*
X0043740Y0121937D01*
X0041340Y0119537D01*
X0041326Y0119523D01*
X0038934Y0119523D01*
X0038407Y0118996D01*
X0038407Y0110386D01*
X0037398Y0109968D01*
X0036301Y0108871D01*
X0035707Y0107438D01*
X0035707Y0104862D01*
X0028184Y0104862D01*
X0028184Y0106988D01*
X0027657Y0107515D01*
X0021793Y0107515D01*
X0021266Y0106988D01*
X0021266Y0100337D01*
X0021793Y0099809D01*
X0027657Y0099809D01*
X0028184Y0100337D01*
X0028184Y0102462D01*
X0035707Y0102462D01*
X0035707Y0099886D01*
X0036301Y0098453D01*
X0037398Y0097356D01*
X0038831Y0096762D01*
X0040383Y0096762D01*
X0041816Y0097356D01*
X0042913Y0098453D01*
X0043507Y0099886D01*
X0043507Y0107438D01*
X0042913Y0108871D01*
X0041816Y0109968D01*
X0040807Y0110386D01*
X0040807Y0111423D01*
X0044280Y0111423D01*
X0044607Y0111750D01*
X0044934Y0111423D01*
X0048407Y0111423D01*
X0048407Y0110386D01*
X0047398Y0109968D01*
X0046301Y0108871D01*
X0045707Y0107438D01*
X0045707Y0099886D01*
X0046301Y0098453D01*
X0047398Y0097356D01*
X0048831Y0096762D01*
X0050383Y0096762D01*
X0051816Y0097356D01*
X0052913Y0098453D01*
X0053507Y0099886D01*
X0053507Y0104837D01*
X0081658Y0104837D01*
X0082847Y0103648D01*
X0084827Y0103648D01*
X0085122Y0103943D01*
X0085122Y0103551D01*
X0085649Y0103024D01*
X0093116Y0103024D01*
X0093485Y0103392D01*
X0094048Y0102829D01*
X0094048Y0101147D01*
X0095447Y0099748D01*
X0097427Y0099748D01*
X0098826Y0101147D01*
X0098826Y0103127D01*
X0097427Y0104526D01*
X0095745Y0104526D01*
X0094937Y0105334D01*
X0094937Y0105334D01*
X0094234Y0106037D01*
X0093643Y0106037D01*
X0093643Y0106647D01*
X0093116Y0107175D01*
X0086078Y0107175D01*
X0084827Y0108426D01*
X0082847Y0108426D01*
X0081658Y0107237D01*
X0053507Y0107237D01*
X0053507Y0107438D01*
X0052913Y0108871D01*
X0051816Y0109968D01*
X0050807Y0110386D01*
X0050807Y0118037D01*
X0052534Y0118037D01*
X0053237Y0118740D01*
X0069034Y0134537D01*
X0089149Y0134537D01*
X0089149Y0133984D01*
X0089677Y0133457D01*
X0097294Y0133457D01*
X0097821Y0133984D01*
X0097821Y0137080D01*
X0097294Y0137608D01*
X0089677Y0137608D01*
X0089149Y0137080D01*
X0089149Y0136937D01*
X0068040Y0136937D01*
X0051540Y0120437D01*
X0051334Y0120437D01*
X0051093Y0120678D01*
X0051816Y0120978D01*
X0052913Y0122075D01*
X0053507Y0123508D01*
X0053507Y0131060D01*
X0052913Y0132493D01*
X0051816Y0133591D01*
X0050807Y0134009D01*
X0050807Y0142618D01*
X0050280Y0143145D01*
X0044934Y0143145D01*
X0044607Y0142818D01*
X0044461Y0142964D01*
X0044734Y0143237D01*
X0050340Y0143237D01*
X0054240Y0139337D01*
X0089149Y0139337D01*
X0089149Y0138984D01*
X0089677Y0138457D01*
X0089577Y0137508D02*
X0050807Y0137508D01*
X0050807Y0136909D02*
X0068012Y0136909D01*
X0067414Y0136311D02*
X0050807Y0136311D01*
X0050807Y0135712D02*
X0066815Y0135712D01*
X0066217Y0135114D02*
X0050807Y0135114D01*
X0050807Y0134515D02*
X0065618Y0134515D01*
X0065020Y0133917D02*
X0051028Y0133917D01*
X0052088Y0133318D02*
X0064421Y0133318D01*
X0063823Y0132720D02*
X0052687Y0132720D01*
X0053067Y0132121D02*
X0063224Y0132121D01*
X0062626Y0131523D02*
X0053315Y0131523D01*
X0053507Y0130924D02*
X0062027Y0130924D01*
X0061429Y0130326D02*
X0053507Y0130326D01*
X0053507Y0129727D02*
X0060830Y0129727D01*
X0060232Y0129129D02*
X0053507Y0129129D01*
X0053507Y0128530D02*
X0059633Y0128530D01*
X0059035Y0127932D02*
X0053507Y0127932D01*
X0053507Y0127333D02*
X0058436Y0127333D01*
X0057838Y0126735D02*
X0053507Y0126735D01*
X0053507Y0126136D02*
X0057239Y0126136D01*
X0056641Y0125538D02*
X0053507Y0125538D01*
X0053507Y0124939D02*
X0056042Y0124939D01*
X0055444Y0124341D02*
X0053507Y0124341D01*
X0053507Y0123742D02*
X0054845Y0123742D01*
X0054247Y0123144D02*
X0053356Y0123144D01*
X0053108Y0122545D02*
X0053648Y0122545D01*
X0053050Y0121947D02*
X0052785Y0121947D01*
X0052451Y0121348D02*
X0052186Y0121348D01*
X0051853Y0120750D02*
X0051265Y0120750D01*
X0050537Y0119537D02*
X0046937Y0119537D01*
X0045737Y0120737D01*
X0044237Y0120737D01*
X0041837Y0118337D01*
X0041837Y0115637D01*
X0041607Y0115473D01*
X0039607Y0113473D01*
X0039607Y0103662D01*
X0024725Y0103662D01*
X0021266Y0103393D02*
X0020704Y0103393D01*
X0020704Y0103991D02*
X0021266Y0103991D01*
X0021266Y0104590D02*
X0020704Y0104590D01*
X0020704Y0105188D02*
X0021266Y0105188D01*
X0021266Y0105787D02*
X0020704Y0105787D01*
X0020704Y0106385D02*
X0021266Y0106385D01*
X0021266Y0106984D02*
X0020704Y0106984D01*
X0018737Y0107582D02*
X0035767Y0107582D01*
X0035707Y0106984D02*
X0028184Y0106984D01*
X0028184Y0106385D02*
X0035707Y0106385D01*
X0035707Y0105787D02*
X0028184Y0105787D01*
X0028184Y0105188D02*
X0035707Y0105188D01*
X0035707Y0102196D02*
X0028184Y0102196D01*
X0028184Y0101597D02*
X0035707Y0101597D01*
X0035707Y0100999D02*
X0028184Y0100999D01*
X0028184Y0100400D02*
X0035707Y0100400D01*
X0035742Y0099802D02*
X0018737Y0099802D01*
X0018737Y0099203D02*
X0035990Y0099203D01*
X0036238Y0098605D02*
X0018737Y0098605D01*
X0018737Y0098006D02*
X0036748Y0098006D01*
X0037346Y0097408D02*
X0018737Y0097408D01*
X0018737Y0096809D02*
X0038718Y0096809D01*
X0038934Y0095901D02*
X0038407Y0095374D01*
X0038407Y0086764D01*
X0037398Y0086346D01*
X0036301Y0085249D01*
X0035707Y0083816D01*
X0035707Y0081240D01*
X0028184Y0081240D01*
X0028184Y0083366D01*
X0027657Y0083893D01*
X0021793Y0083893D01*
X0021266Y0083366D01*
X0021266Y0076715D01*
X0021793Y0076187D01*
X0027657Y0076187D01*
X0028184Y0076715D01*
X0028184Y0078840D01*
X0035707Y0078840D01*
X0035707Y0076264D01*
X0036301Y0074831D01*
X0037398Y0073734D01*
X0038831Y0073140D01*
X0040383Y0073140D01*
X0041816Y0073734D01*
X0042913Y0074831D01*
X0043507Y0076264D01*
X0043507Y0083816D01*
X0042913Y0085249D01*
X0041816Y0086346D01*
X0040807Y0086764D01*
X0040807Y0087801D01*
X0044280Y0087801D01*
X0044607Y0088128D01*
X0044934Y0087801D01*
X0048407Y0087801D01*
X0048407Y0086764D01*
X0047398Y0086346D01*
X0046301Y0085249D01*
X0045707Y0083816D01*
X0045707Y0076264D01*
X0046301Y0074831D01*
X0047398Y0073734D01*
X0048831Y0073140D01*
X0050383Y0073140D01*
X0051816Y0073734D01*
X0052913Y0074831D01*
X0053507Y0076264D01*
X0053507Y0083816D01*
X0052913Y0085249D01*
X0051816Y0086346D01*
X0050807Y0086764D01*
X0050807Y0087137D01*
X0079534Y0087137D01*
X0086145Y0093748D01*
X0087827Y0093748D01*
X0089226Y0095147D01*
X0089226Y0097127D01*
X0088729Y0097624D01*
X0089095Y0097624D01*
X0089095Y0099811D01*
X0089670Y0099811D01*
X0089670Y0097624D01*
X0092915Y0097624D01*
X0093245Y0097712D01*
X0093542Y0097884D01*
X0093784Y0098126D01*
X0093955Y0098422D01*
X0094043Y0098753D01*
X0094043Y0099811D01*
X0089670Y0099811D01*
X0089670Y0100387D01*
X0089095Y0100387D01*
X0089095Y0102575D01*
X0085851Y0102575D01*
X0085520Y0102486D01*
X0085224Y0102315D01*
X0084982Y0102073D01*
X0084810Y0101776D01*
X0084722Y0101446D01*
X0084722Y0100387D01*
X0089095Y0100387D01*
X0089095Y0099811D01*
X0084722Y0099811D01*
X0084722Y0098753D01*
X0084810Y0098422D01*
X0084982Y0098126D01*
X0085214Y0097893D01*
X0084448Y0097127D01*
X0084448Y0095445D01*
X0078540Y0089537D01*
X0050807Y0089537D01*
X0050807Y0095374D01*
X0050280Y0095901D01*
X0044934Y0095901D01*
X0044607Y0095574D01*
X0044280Y0095901D01*
X0038934Y0095901D01*
X0038645Y0095612D02*
X0018737Y0095612D01*
X0018737Y0095014D02*
X0038407Y0095014D01*
X0038407Y0094415D02*
X0018737Y0094415D01*
X0018737Y0093817D02*
X0038407Y0093817D01*
X0038407Y0093218D02*
X0018737Y0093218D01*
X0018737Y0092620D02*
X0038407Y0092620D01*
X0038407Y0092021D02*
X0018737Y0092021D01*
X0018737Y0091423D02*
X0038407Y0091423D01*
X0038407Y0090824D02*
X0018737Y0090824D01*
X0018737Y0090226D02*
X0038407Y0090226D01*
X0038407Y0089627D02*
X0018737Y0089627D01*
X0018737Y0089029D02*
X0038407Y0089029D01*
X0038407Y0088430D02*
X0018737Y0088430D01*
X0018737Y0087832D02*
X0038407Y0087832D01*
X0038407Y0087233D02*
X0018737Y0087233D01*
X0018737Y0086635D02*
X0038094Y0086635D01*
X0037088Y0086036D02*
X0018737Y0086036D01*
X0018737Y0085438D02*
X0036489Y0085438D01*
X0036131Y0084839D02*
X0018737Y0084839D01*
X0018737Y0084241D02*
X0035883Y0084241D01*
X0035707Y0083642D02*
X0027908Y0083642D01*
X0028184Y0083043D02*
X0035707Y0083043D01*
X0035707Y0082445D02*
X0028184Y0082445D01*
X0028184Y0081846D02*
X0035707Y0081846D01*
X0035707Y0081248D02*
X0028184Y0081248D01*
X0028184Y0078255D02*
X0035707Y0078255D01*
X0035707Y0077657D02*
X0028184Y0077657D01*
X0028184Y0077058D02*
X0035707Y0077058D01*
X0035707Y0076460D02*
X0027929Y0076460D01*
X0024725Y0080040D02*
X0039607Y0080040D01*
X0039607Y0089851D01*
X0041607Y0091851D01*
X0040807Y0087233D02*
X0048407Y0087233D01*
X0048094Y0086635D02*
X0041121Y0086635D01*
X0042127Y0086036D02*
X0047088Y0086036D01*
X0046489Y0085438D02*
X0042725Y0085438D01*
X0043083Y0084839D02*
X0046131Y0084839D01*
X0045883Y0084241D02*
X0043331Y0084241D01*
X0043507Y0083642D02*
X0045707Y0083642D01*
X0045707Y0083043D02*
X0043507Y0083043D01*
X0043507Y0082445D02*
X0045707Y0082445D01*
X0045707Y0081846D02*
X0043507Y0081846D01*
X0043507Y0081248D02*
X0045707Y0081248D01*
X0045707Y0080649D02*
X0043507Y0080649D01*
X0043507Y0080051D02*
X0045707Y0080051D01*
X0045707Y0079452D02*
X0043507Y0079452D01*
X0043507Y0078854D02*
X0045707Y0078854D01*
X0045707Y0078255D02*
X0043507Y0078255D01*
X0043507Y0077657D02*
X0045707Y0077657D01*
X0045707Y0077058D02*
X0043507Y0077058D01*
X0043507Y0076460D02*
X0045707Y0076460D01*
X0045874Y0075861D02*
X0043340Y0075861D01*
X0043092Y0075263D02*
X0046122Y0075263D01*
X0046467Y0074664D02*
X0042747Y0074664D01*
X0042148Y0074066D02*
X0047066Y0074066D01*
X0048042Y0073467D02*
X0041173Y0073467D01*
X0038042Y0073467D02*
X0022828Y0073467D01*
X0023427Y0072869D02*
X0076447Y0072869D01*
X0077046Y0073467D02*
X0051173Y0073467D01*
X0052148Y0074066D02*
X0077644Y0074066D01*
X0078243Y0074664D02*
X0052747Y0074664D01*
X0053092Y0075263D02*
X0078842Y0075263D01*
X0079440Y0075861D02*
X0053340Y0075861D01*
X0053507Y0076460D02*
X0080039Y0076460D01*
X0080637Y0077058D02*
X0053507Y0077058D01*
X0053507Y0077657D02*
X0081236Y0077657D01*
X0081834Y0078255D02*
X0053507Y0078255D01*
X0053507Y0078854D02*
X0082433Y0078854D01*
X0083031Y0079452D02*
X0053507Y0079452D01*
X0053507Y0080051D02*
X0083630Y0080051D01*
X0084228Y0080649D02*
X0053507Y0080649D01*
X0053507Y0081248D02*
X0084827Y0081248D01*
X0085425Y0081846D02*
X0053507Y0081846D01*
X0053507Y0082445D02*
X0086024Y0082445D01*
X0086622Y0083043D02*
X0053507Y0083043D01*
X0053507Y0083642D02*
X0087221Y0083642D01*
X0087819Y0084241D02*
X0053331Y0084241D01*
X0053083Y0084839D02*
X0088418Y0084839D01*
X0089016Y0085438D02*
X0052725Y0085438D01*
X0052127Y0086036D02*
X0089615Y0086036D01*
X0090213Y0086635D02*
X0051121Y0086635D01*
X0049607Y0088337D02*
X0049607Y0080040D01*
X0049607Y0088337D02*
X0079037Y0088337D01*
X0086837Y0096137D01*
X0088494Y0094415D02*
X0103637Y0094415D01*
X0103637Y0093817D02*
X0087895Y0093817D01*
X0089092Y0095014D02*
X0103637Y0095014D01*
X0103637Y0095612D02*
X0089226Y0095612D01*
X0089226Y0096211D02*
X0103637Y0096211D01*
X0103637Y0096809D02*
X0089226Y0096809D01*
X0088945Y0097408D02*
X0103637Y0097408D01*
X0103637Y0098006D02*
X0093664Y0098006D01*
X0094004Y0098605D02*
X0103637Y0098605D01*
X0103637Y0099203D02*
X0094043Y0099203D01*
X0094043Y0099802D02*
X0095394Y0099802D01*
X0094795Y0100400D02*
X0094043Y0100400D01*
X0094043Y0100387D02*
X0094043Y0101446D01*
X0093955Y0101776D01*
X0093784Y0102073D01*
X0093542Y0102315D01*
X0093245Y0102486D01*
X0092915Y0102575D01*
X0089670Y0102575D01*
X0089670Y0100387D01*
X0094043Y0100387D01*
X0094043Y0100999D02*
X0094197Y0100999D01*
X0094048Y0101597D02*
X0094003Y0101597D01*
X0094048Y0102196D02*
X0093661Y0102196D01*
X0094048Y0102794D02*
X0053507Y0102794D01*
X0053507Y0102196D02*
X0085105Y0102196D01*
X0084762Y0101597D02*
X0053507Y0101597D01*
X0053507Y0100999D02*
X0084722Y0100999D01*
X0084722Y0100400D02*
X0053507Y0100400D01*
X0053472Y0099802D02*
X0084722Y0099802D01*
X0084722Y0099203D02*
X0053224Y0099203D01*
X0052976Y0098605D02*
X0084761Y0098605D01*
X0085101Y0098006D02*
X0052467Y0098006D01*
X0051868Y0097408D02*
X0084729Y0097408D01*
X0084448Y0096809D02*
X0050496Y0096809D01*
X0050569Y0095612D02*
X0084448Y0095612D01*
X0084448Y0096211D02*
X0018737Y0096211D01*
X0020704Y0100400D02*
X0021266Y0100400D01*
X0021266Y0100999D02*
X0020704Y0100999D01*
X0020704Y0101597D02*
X0021266Y0101597D01*
X0021266Y0102196D02*
X0020704Y0102196D01*
X0020704Y0102794D02*
X0021266Y0102794D01*
X0018737Y0108181D02*
X0036015Y0108181D01*
X0036263Y0108779D02*
X0018737Y0108779D01*
X0018737Y0109378D02*
X0036807Y0109378D01*
X0037417Y0109976D02*
X0018737Y0109976D01*
X0018737Y0110575D02*
X0038407Y0110575D01*
X0038407Y0111174D02*
X0018737Y0111174D01*
X0018737Y0111772D02*
X0038407Y0111772D01*
X0038407Y0112371D02*
X0018737Y0112371D01*
X0018737Y0112969D02*
X0038407Y0112969D01*
X0038407Y0113568D02*
X0018737Y0113568D01*
X0018737Y0114166D02*
X0038407Y0114166D01*
X0038407Y0114765D02*
X0018737Y0114765D01*
X0018737Y0115363D02*
X0038407Y0115363D01*
X0038407Y0115962D02*
X0018737Y0115962D01*
X0018737Y0116560D02*
X0038407Y0116560D01*
X0038407Y0117159D02*
X0018737Y0117159D01*
X0018737Y0117757D02*
X0038407Y0117757D01*
X0038407Y0118356D02*
X0018737Y0118356D01*
X0018737Y0118954D02*
X0038407Y0118954D01*
X0037949Y0120750D02*
X0018737Y0120750D01*
X0018737Y0121348D02*
X0037028Y0121348D01*
X0036429Y0121947D02*
X0018737Y0121947D01*
X0018737Y0122545D02*
X0036106Y0122545D01*
X0035858Y0123144D02*
X0018737Y0123144D01*
X0020487Y0123742D02*
X0021483Y0123742D01*
X0021266Y0124341D02*
X0020704Y0124341D01*
X0020704Y0124939D02*
X0021266Y0124939D01*
X0021266Y0125538D02*
X0020704Y0125538D01*
X0020704Y0126136D02*
X0021266Y0126136D01*
X0021266Y0126735D02*
X0020704Y0126735D01*
X0020704Y0127333D02*
X0021266Y0127333D01*
X0021266Y0127932D02*
X0020704Y0127932D01*
X0020704Y0128530D02*
X0021266Y0128530D01*
X0021266Y0129129D02*
X0020704Y0129129D01*
X0020704Y0129727D02*
X0021266Y0129727D01*
X0021266Y0130326D02*
X0020704Y0130326D01*
X0020389Y0130924D02*
X0021581Y0130924D01*
X0024725Y0127284D02*
X0039607Y0127284D01*
X0039607Y0137095D01*
X0041607Y0139095D01*
X0041837Y0139337D01*
X0041837Y0142037D01*
X0044237Y0144437D01*
X0050837Y0144437D01*
X0054737Y0140537D01*
X0093437Y0140537D01*
X0093485Y0140532D01*
X0093198Y0143057D02*
X0093198Y0145245D01*
X0088749Y0145245D01*
X0088749Y0144186D01*
X0088838Y0143855D01*
X0089009Y0143559D01*
X0089251Y0143317D01*
X0089548Y0143145D01*
X0089878Y0143057D01*
X0093198Y0143057D01*
X0093198Y0143493D02*
X0093773Y0143493D01*
X0093773Y0143057D02*
X0097093Y0143057D01*
X0097423Y0143145D01*
X0097720Y0143317D01*
X0097962Y0143559D01*
X0098133Y0143855D01*
X0098221Y0144186D01*
X0098221Y0145245D01*
X0093773Y0145245D01*
X0093773Y0145820D01*
X0093198Y0145820D01*
X0093198Y0148008D01*
X0089878Y0148008D01*
X0089548Y0147919D01*
X0089251Y0147748D01*
X0089009Y0147506D01*
X0088838Y0147209D01*
X0088749Y0146879D01*
X0088749Y0145820D01*
X0093198Y0145820D01*
X0093198Y0145245D01*
X0093773Y0145245D01*
X0093773Y0143057D01*
X0093773Y0144092D02*
X0093198Y0144092D01*
X0093198Y0144690D02*
X0093773Y0144690D01*
X0093773Y0145289D02*
X0109503Y0145289D01*
X0109503Y0145887D02*
X0098221Y0145887D01*
X0098221Y0145820D02*
X0098221Y0146879D01*
X0098133Y0147209D01*
X0097962Y0147506D01*
X0097720Y0147748D01*
X0097423Y0147919D01*
X0097093Y0148008D01*
X0093773Y0148008D01*
X0093773Y0145820D01*
X0098221Y0145820D01*
X0098221Y0146486D02*
X0109503Y0146486D01*
X0109507Y0147084D02*
X0098166Y0147084D01*
X0097785Y0147683D02*
X0123234Y0147683D01*
X0123234Y0147084D02*
X0118171Y0147084D01*
X0117684Y0143493D02*
X0123234Y0143493D01*
X0123424Y0142895D02*
X0054076Y0142895D01*
X0053478Y0143493D02*
X0089075Y0143493D01*
X0088775Y0144092D02*
X0052879Y0144092D01*
X0052281Y0144690D02*
X0088749Y0144690D01*
X0088749Y0145887D02*
X0007537Y0145887D01*
X0007537Y0145289D02*
X0043392Y0145289D01*
X0042793Y0144690D02*
X0007537Y0144690D01*
X0007537Y0144092D02*
X0042195Y0144092D01*
X0041596Y0143493D02*
X0007537Y0143493D01*
X0007537Y0142895D02*
X0038684Y0142895D01*
X0038407Y0142296D02*
X0007537Y0142296D01*
X0007537Y0141698D02*
X0038407Y0141698D01*
X0038407Y0141099D02*
X0007537Y0141099D01*
X0007537Y0140501D02*
X0038407Y0140501D01*
X0038407Y0139902D02*
X0007537Y0139902D01*
X0007537Y0139304D02*
X0038407Y0139304D01*
X0038407Y0138705D02*
X0007537Y0138705D01*
X0007537Y0138107D02*
X0038407Y0138107D01*
X0038407Y0137508D02*
X0007537Y0137508D01*
X0007537Y0136909D02*
X0038407Y0136909D01*
X0038407Y0136311D02*
X0007537Y0136311D01*
X0007537Y0135712D02*
X0038407Y0135712D01*
X0038407Y0135114D02*
X0007537Y0135114D01*
X0007537Y0134515D02*
X0038407Y0134515D01*
X0038186Y0133917D02*
X0007537Y0133917D01*
X0007537Y0133318D02*
X0037126Y0133318D01*
X0036527Y0132720D02*
X0007537Y0132720D01*
X0007537Y0132121D02*
X0036147Y0132121D01*
X0035899Y0131523D02*
X0007537Y0131523D01*
X0007537Y0130924D02*
X0014100Y0130924D01*
X0013786Y0130326D02*
X0007537Y0130326D01*
X0007537Y0129727D02*
X0013786Y0129727D01*
X0013786Y0129129D02*
X0007537Y0129129D01*
X0007537Y0128530D02*
X0013786Y0128530D01*
X0013786Y0127932D02*
X0007537Y0127932D01*
X0007537Y0127333D02*
X0013786Y0127333D01*
X0013786Y0126735D02*
X0007537Y0126735D01*
X0007537Y0126136D02*
X0013786Y0126136D01*
X0013786Y0125538D02*
X0007537Y0125538D01*
X0007537Y0124939D02*
X0013786Y0124939D01*
X0013786Y0124341D02*
X0007537Y0124341D01*
X0007537Y0123742D02*
X0014002Y0123742D01*
X0015737Y0123144D02*
X0007537Y0123144D01*
X0007537Y0122545D02*
X0015737Y0122545D01*
X0015737Y0121947D02*
X0007537Y0121947D01*
X0007537Y0121348D02*
X0015737Y0121348D01*
X0015737Y0120750D02*
X0007537Y0120750D01*
X0007537Y0120151D02*
X0015737Y0120151D01*
X0015737Y0119553D02*
X0007537Y0119553D01*
X0007537Y0118954D02*
X0015737Y0118954D01*
X0015737Y0118356D02*
X0007537Y0118356D01*
X0007537Y0117757D02*
X0015737Y0117757D01*
X0015737Y0117159D02*
X0007537Y0117159D01*
X0007537Y0116560D02*
X0015737Y0116560D01*
X0015737Y0115962D02*
X0007537Y0115962D01*
X0007537Y0115363D02*
X0015737Y0115363D01*
X0015737Y0114765D02*
X0007537Y0114765D01*
X0007537Y0114166D02*
X0015737Y0114166D01*
X0015737Y0113568D02*
X0007537Y0113568D01*
X0007537Y0112969D02*
X0015737Y0112969D01*
X0015737Y0112371D02*
X0007537Y0112371D01*
X0007537Y0111772D02*
X0015737Y0111772D01*
X0015737Y0111174D02*
X0007537Y0111174D01*
X0007537Y0110575D02*
X0015737Y0110575D01*
X0015737Y0109976D02*
X0007537Y0109976D01*
X0007537Y0109378D02*
X0015737Y0109378D01*
X0015737Y0108779D02*
X0007537Y0108779D01*
X0007537Y0108181D02*
X0015737Y0108181D01*
X0015737Y0107582D02*
X0007537Y0107582D01*
X0007537Y0106984D02*
X0013786Y0106984D01*
X0013786Y0106385D02*
X0007537Y0106385D01*
X0007537Y0105787D02*
X0013786Y0105787D01*
X0013786Y0105188D02*
X0007537Y0105188D01*
X0007537Y0104590D02*
X0013786Y0104590D01*
X0013786Y0103991D02*
X0007537Y0103991D01*
X0007537Y0103393D02*
X0013786Y0103393D01*
X0013786Y0102794D02*
X0007537Y0102794D01*
X0007537Y0102196D02*
X0013786Y0102196D01*
X0013786Y0101597D02*
X0007537Y0101597D01*
X0007537Y0100999D02*
X0013786Y0100999D01*
X0013786Y0100400D02*
X0007537Y0100400D01*
X0007537Y0099802D02*
X0015737Y0099802D01*
X0015737Y0099203D02*
X0007537Y0099203D01*
X0007537Y0098605D02*
X0015737Y0098605D01*
X0015737Y0098006D02*
X0007537Y0098006D01*
X0007537Y0097408D02*
X0015737Y0097408D01*
X0015737Y0096809D02*
X0007537Y0096809D01*
X0007537Y0096211D02*
X0015737Y0096211D01*
X0015737Y0095612D02*
X0007537Y0095612D01*
X0007537Y0095014D02*
X0015737Y0095014D01*
X0015737Y0094415D02*
X0007537Y0094415D01*
X0007537Y0093817D02*
X0015737Y0093817D01*
X0015737Y0093218D02*
X0007537Y0093218D01*
X0007537Y0092620D02*
X0015737Y0092620D01*
X0015737Y0092021D02*
X0007537Y0092021D01*
X0007537Y0091423D02*
X0015737Y0091423D01*
X0015737Y0090824D02*
X0007537Y0090824D01*
X0007537Y0090226D02*
X0015737Y0090226D01*
X0015737Y0089627D02*
X0007537Y0089627D01*
X0007537Y0089029D02*
X0015737Y0089029D01*
X0015737Y0088430D02*
X0007537Y0088430D01*
X0007537Y0087832D02*
X0015737Y0087832D01*
X0015737Y0087233D02*
X0007537Y0087233D01*
X0007537Y0086635D02*
X0015737Y0086635D01*
X0015737Y0086036D02*
X0007537Y0086036D01*
X0007537Y0085438D02*
X0015737Y0085438D01*
X0015737Y0084839D02*
X0007537Y0084839D01*
X0007537Y0084241D02*
X0015737Y0084241D01*
X0014062Y0083642D02*
X0007537Y0083642D01*
X0007537Y0083043D02*
X0013786Y0083043D01*
X0013786Y0082445D02*
X0007537Y0082445D01*
X0007537Y0081846D02*
X0013786Y0081846D01*
X0013786Y0081248D02*
X0007537Y0081248D01*
X0007537Y0080649D02*
X0013786Y0080649D01*
X0013786Y0080051D02*
X0007537Y0080051D01*
X0007537Y0079452D02*
X0013786Y0079452D01*
X0013786Y0078854D02*
X0007537Y0078854D01*
X0007537Y0078255D02*
X0013786Y0078255D01*
X0013786Y0077657D02*
X0007537Y0077657D01*
X0007537Y0077058D02*
X0013786Y0077058D01*
X0014041Y0076460D02*
X0007537Y0076460D01*
X0007537Y0075861D02*
X0016191Y0075861D01*
X0016790Y0075263D02*
X0007537Y0075263D01*
X0007537Y0074664D02*
X0017388Y0074664D01*
X0017987Y0074066D02*
X0007537Y0074066D01*
X0007537Y0073467D02*
X0018585Y0073467D01*
X0019184Y0072869D02*
X0007537Y0072869D01*
X0007537Y0072270D02*
X0019782Y0072270D01*
X0020381Y0071672D02*
X0007537Y0071672D01*
X0007537Y0071073D02*
X0020979Y0071073D01*
X0021578Y0070475D02*
X0007537Y0070475D01*
X0007537Y0069876D02*
X0022176Y0069876D01*
X0022230Y0074066D02*
X0037066Y0074066D01*
X0036467Y0074664D02*
X0021631Y0074664D01*
X0021032Y0075263D02*
X0036122Y0075263D01*
X0035874Y0075861D02*
X0020434Y0075861D01*
X0020449Y0076460D02*
X0021521Y0076460D01*
X0021266Y0077058D02*
X0020704Y0077058D01*
X0020704Y0077657D02*
X0021266Y0077657D01*
X0021266Y0078255D02*
X0020704Y0078255D01*
X0020704Y0078854D02*
X0021266Y0078854D01*
X0021266Y0079452D02*
X0020704Y0079452D01*
X0020704Y0080051D02*
X0021266Y0080051D01*
X0021266Y0080649D02*
X0020704Y0080649D01*
X0020704Y0081248D02*
X0021266Y0081248D01*
X0021266Y0081846D02*
X0020704Y0081846D01*
X0020704Y0082445D02*
X0021266Y0082445D01*
X0021266Y0083043D02*
X0020704Y0083043D01*
X0020428Y0083642D02*
X0021542Y0083642D01*
X0007537Y0069278D02*
X0089149Y0069278D01*
X0089149Y0069876D02*
X0077698Y0069876D01*
X0078296Y0070475D02*
X0089149Y0070475D01*
X0089149Y0071073D02*
X0078895Y0071073D01*
X0079493Y0071672D02*
X0089607Y0071672D01*
X0089677Y0071742D02*
X0089149Y0071214D01*
X0089149Y0068118D01*
X0089677Y0067591D01*
X0097294Y0067591D01*
X0097599Y0067896D01*
X0098147Y0067348D01*
X0100127Y0067348D01*
X0101316Y0068537D01*
X0109503Y0068537D01*
X0109503Y0068118D01*
X0110030Y0067591D01*
X0117648Y0067591D01*
X0118175Y0068118D01*
X0118175Y0071214D01*
X0117648Y0071742D01*
X0110030Y0071742D01*
X0109503Y0071214D01*
X0109503Y0070937D01*
X0101316Y0070937D01*
X0100127Y0072126D01*
X0098147Y0072126D01*
X0097529Y0071507D01*
X0097294Y0071742D01*
X0089677Y0071742D01*
X0089677Y0072591D02*
X0097294Y0072591D01*
X0097821Y0073118D01*
X0097821Y0076214D01*
X0097294Y0076742D01*
X0089677Y0076742D01*
X0089149Y0076214D01*
X0089149Y0073118D01*
X0089677Y0072591D01*
X0089399Y0072869D02*
X0080690Y0072869D01*
X0081289Y0073467D02*
X0089149Y0073467D01*
X0089149Y0074066D02*
X0081887Y0074066D01*
X0082486Y0074664D02*
X0089149Y0074664D01*
X0089149Y0075263D02*
X0083084Y0075263D01*
X0083683Y0075861D02*
X0089149Y0075861D01*
X0089395Y0076460D02*
X0084281Y0076460D01*
X0084880Y0077058D02*
X0199787Y0077058D01*
X0199787Y0076460D02*
X0117929Y0076460D01*
X0118175Y0076214D02*
X0117648Y0076742D01*
X0110030Y0076742D01*
X0109503Y0076214D01*
X0109503Y0073118D01*
X0110030Y0072591D01*
X0117648Y0072591D01*
X0118175Y0073118D01*
X0118175Y0076214D01*
X0118175Y0075861D02*
X0199787Y0075861D01*
X0199787Y0075263D02*
X0118175Y0075263D01*
X0118175Y0074664D02*
X0199787Y0074664D01*
X0199787Y0074066D02*
X0118175Y0074066D01*
X0118175Y0073467D02*
X0199787Y0073467D01*
X0199787Y0072869D02*
X0117926Y0072869D01*
X0117718Y0071672D02*
X0199787Y0071672D01*
X0199787Y0072270D02*
X0080092Y0072270D01*
X0085478Y0077657D02*
X0089610Y0077657D01*
X0089677Y0077591D02*
X0097294Y0077591D01*
X0097821Y0078118D01*
X0097821Y0081214D01*
X0097294Y0081742D01*
X0089677Y0081742D01*
X0089149Y0081214D01*
X0089149Y0078118D01*
X0089677Y0077591D01*
X0089149Y0078255D02*
X0086077Y0078255D01*
X0086675Y0078854D02*
X0089149Y0078854D01*
X0089149Y0079452D02*
X0087274Y0079452D01*
X0087872Y0080051D02*
X0089149Y0080051D01*
X0089149Y0080649D02*
X0088471Y0080649D01*
X0089069Y0081248D02*
X0089183Y0081248D01*
X0089668Y0081846D02*
X0109537Y0081846D01*
X0109537Y0081248D02*
X0097788Y0081248D01*
X0097821Y0080649D02*
X0109503Y0080649D01*
X0109503Y0080051D02*
X0097821Y0080051D01*
X0097821Y0079452D02*
X0109503Y0079452D01*
X0109503Y0078854D02*
X0097821Y0078854D01*
X0097821Y0078255D02*
X0109503Y0078255D01*
X0109964Y0077657D02*
X0097360Y0077657D01*
X0097576Y0076460D02*
X0109748Y0076460D01*
X0109503Y0075861D02*
X0097821Y0075861D01*
X0097821Y0075263D02*
X0109503Y0075263D01*
X0109503Y0074664D02*
X0097821Y0074664D01*
X0097821Y0074066D02*
X0109503Y0074066D01*
X0109503Y0073467D02*
X0097821Y0073467D01*
X0097572Y0072869D02*
X0109752Y0072869D01*
X0109960Y0071672D02*
X0100581Y0071672D01*
X0101179Y0071073D02*
X0109503Y0071073D01*
X0109540Y0068081D02*
X0100859Y0068081D01*
X0100261Y0067482D02*
X0199787Y0067482D01*
X0199787Y0066884D02*
X0102369Y0066884D01*
X0102227Y0067026D02*
X0100247Y0067026D01*
X0098848Y0065627D01*
X0098848Y0063647D01*
X0100247Y0062248D01*
X0102227Y0062248D01*
X0103416Y0063437D01*
X0109503Y0063437D01*
X0109503Y0063118D01*
X0110030Y0062591D01*
X0113512Y0062591D01*
X0113248Y0062327D01*
X0113248Y0060347D01*
X0114437Y0059158D01*
X0114437Y0044129D01*
X0112738Y0044129D01*
X0112211Y0043602D01*
X0112211Y0038132D01*
X0112738Y0037605D01*
X0118208Y0037605D01*
X0118735Y0038132D01*
X0118735Y0043602D01*
X0118208Y0044129D01*
X0116837Y0044129D01*
X0116837Y0059158D01*
X0118026Y0060347D01*
X0118026Y0062327D01*
X0117705Y0062648D01*
X0118175Y0063118D01*
X0118175Y0066214D01*
X0117648Y0066742D01*
X0110030Y0066742D01*
X0109503Y0066214D01*
X0109503Y0065837D01*
X0103416Y0065837D01*
X0102227Y0067026D01*
X0102967Y0066285D02*
X0109574Y0066285D01*
X0109503Y0063293D02*
X0103271Y0063293D01*
X0102673Y0062694D02*
X0109927Y0062694D01*
X0113248Y0062096D02*
X0095157Y0062096D01*
X0095062Y0062191D02*
X0097093Y0062191D01*
X0097423Y0062279D01*
X0097720Y0062450D01*
X0097962Y0062693D01*
X0098133Y0062989D01*
X0098221Y0063320D01*
X0098221Y0064378D01*
X0093773Y0064378D01*
X0093773Y0064954D01*
X0093198Y0064954D01*
X0093198Y0067142D01*
X0089878Y0067142D01*
X0089548Y0067053D01*
X0089251Y0066882D01*
X0089009Y0066640D01*
X0088838Y0066343D01*
X0088749Y0066013D01*
X0088749Y0064954D01*
X0093198Y0064954D01*
X0093198Y0064378D01*
X0088749Y0064378D01*
X0088749Y0063320D01*
X0088838Y0062989D01*
X0089009Y0062693D01*
X0089251Y0062450D01*
X0089548Y0062279D01*
X0089878Y0062191D01*
X0091212Y0062191D01*
X0090748Y0061727D01*
X0090748Y0060045D01*
X0090737Y0060034D01*
X0090737Y0044129D01*
X0089116Y0044129D01*
X0088589Y0043602D01*
X0088589Y0038132D01*
X0089116Y0037605D01*
X0094586Y0037605D01*
X0095113Y0038132D01*
X0095113Y0043602D01*
X0094586Y0044129D01*
X0093137Y0044129D01*
X0093137Y0058348D01*
X0094127Y0058348D01*
X0095526Y0059747D01*
X0095526Y0061727D01*
X0095062Y0062191D01*
X0095526Y0061497D02*
X0113248Y0061497D01*
X0113248Y0060899D02*
X0095526Y0060899D01*
X0095526Y0060300D02*
X0113295Y0060300D01*
X0113894Y0059702D02*
X0095480Y0059702D01*
X0094882Y0059103D02*
X0114437Y0059103D01*
X0114437Y0058505D02*
X0094283Y0058505D01*
X0093137Y0057906D02*
X0114437Y0057906D01*
X0114437Y0057307D02*
X0093137Y0057307D01*
X0093137Y0056709D02*
X0114437Y0056709D01*
X0114437Y0056110D02*
X0093137Y0056110D01*
X0093137Y0055512D02*
X0114437Y0055512D01*
X0114437Y0054913D02*
X0093137Y0054913D01*
X0093137Y0054315D02*
X0114437Y0054315D01*
X0114437Y0053716D02*
X0093137Y0053716D01*
X0093137Y0053118D02*
X0114437Y0053118D01*
X0114437Y0052519D02*
X0093137Y0052519D01*
X0093137Y0051921D02*
X0114437Y0051921D01*
X0114437Y0051322D02*
X0093137Y0051322D01*
X0093137Y0050724D02*
X0114437Y0050724D01*
X0114437Y0050125D02*
X0093137Y0050125D01*
X0093137Y0049527D02*
X0114437Y0049527D01*
X0114437Y0048928D02*
X0093137Y0048928D01*
X0093137Y0048330D02*
X0114437Y0048330D01*
X0114437Y0047731D02*
X0093137Y0047731D01*
X0093137Y0047133D02*
X0114437Y0047133D01*
X0114437Y0046534D02*
X0093137Y0046534D01*
X0093137Y0045936D02*
X0114437Y0045936D01*
X0114437Y0045337D02*
X0093137Y0045337D01*
X0093137Y0044739D02*
X0114437Y0044739D01*
X0114437Y0044140D02*
X0093137Y0044140D01*
X0095113Y0043542D02*
X0112211Y0043542D01*
X0112211Y0042943D02*
X0095113Y0042943D01*
X0095113Y0042345D02*
X0112211Y0042345D01*
X0112211Y0041746D02*
X0095113Y0041746D01*
X0095113Y0041148D02*
X0112211Y0041148D01*
X0112211Y0040549D02*
X0095113Y0040549D01*
X0095113Y0039951D02*
X0112211Y0039951D01*
X0112211Y0039352D02*
X0095113Y0039352D01*
X0095113Y0038754D02*
X0112211Y0038754D01*
X0112211Y0038155D02*
X0095113Y0038155D01*
X0094586Y0035861D02*
X0089116Y0035861D01*
X0088589Y0035334D01*
X0088589Y0029864D01*
X0089116Y0029337D01*
X0090651Y0029337D01*
X0090651Y0028184D01*
X0088526Y0028184D01*
X0087998Y0027657D01*
X0087998Y0021793D01*
X0088526Y0021266D01*
X0095177Y0021266D01*
X0095704Y0021793D01*
X0095704Y0027657D01*
X0095177Y0028184D01*
X0093051Y0028184D01*
X0093051Y0029337D01*
X0094586Y0029337D01*
X0095113Y0029864D01*
X0095113Y0035334D01*
X0094586Y0035861D01*
X0094686Y0035761D02*
X0112638Y0035761D01*
X0112738Y0035861D02*
X0112211Y0035334D01*
X0112211Y0029864D01*
X0112738Y0029337D01*
X0114273Y0029337D01*
X0114273Y0028184D01*
X0112148Y0028184D01*
X0111620Y0027657D01*
X0111620Y0021793D01*
X0112148Y0021266D01*
X0118799Y0021266D01*
X0119326Y0021793D01*
X0119326Y0027657D01*
X0118799Y0028184D01*
X0116673Y0028184D01*
X0116673Y0029337D01*
X0118208Y0029337D01*
X0118735Y0029864D01*
X0118735Y0035334D01*
X0118208Y0035861D01*
X0112738Y0035861D01*
X0112211Y0035163D02*
X0095113Y0035163D01*
X0095113Y0034564D02*
X0112211Y0034564D01*
X0112211Y0033966D02*
X0095113Y0033966D01*
X0095113Y0033367D02*
X0112211Y0033367D01*
X0112211Y0032769D02*
X0095113Y0032769D01*
X0095113Y0032170D02*
X0112211Y0032170D01*
X0112211Y0031572D02*
X0095113Y0031572D01*
X0095113Y0030973D02*
X0112211Y0030973D01*
X0112211Y0030374D02*
X0095113Y0030374D01*
X0095025Y0029776D02*
X0112299Y0029776D01*
X0111944Y0027980D02*
X0095381Y0027980D01*
X0095704Y0027382D02*
X0111620Y0027382D01*
X0111620Y0026783D02*
X0095704Y0026783D01*
X0095704Y0026185D02*
X0111620Y0026185D01*
X0111620Y0025586D02*
X0095704Y0025586D01*
X0095704Y0024988D02*
X0111620Y0024988D01*
X0111620Y0024389D02*
X0095704Y0024389D01*
X0095704Y0023791D02*
X0111620Y0023791D01*
X0111620Y0023192D02*
X0095704Y0023192D01*
X0095704Y0022594D02*
X0111620Y0022594D01*
X0111620Y0021995D02*
X0095704Y0021995D01*
X0095307Y0021397D02*
X0112017Y0021397D01*
X0112019Y0021015D02*
X0111722Y0020844D01*
X0111480Y0020602D01*
X0111309Y0020306D01*
X0111220Y0019975D01*
X0111220Y0017545D01*
X0115173Y0017545D01*
X0115173Y0016945D01*
X0111220Y0016945D01*
X0111220Y0014515D01*
X0111309Y0014184D01*
X0111480Y0013888D01*
X0111722Y0013646D01*
X0112019Y0013474D01*
X0112349Y0013386D01*
X0115173Y0013386D01*
X0115173Y0016945D01*
X0115773Y0016945D01*
X0115773Y0013386D01*
X0118597Y0013386D01*
X0118928Y0013474D01*
X0119224Y0013646D01*
X0119466Y0013888D01*
X0119637Y0014184D01*
X0119726Y0014515D01*
X0119726Y0016945D01*
X0115773Y0016945D01*
X0115773Y0017545D01*
X0115173Y0017545D01*
X0115173Y0021104D01*
X0112349Y0021104D01*
X0112019Y0021015D01*
X0111676Y0020798D02*
X0095648Y0020798D01*
X0095602Y0020844D02*
X0095306Y0021015D01*
X0094975Y0021104D01*
X0092151Y0021104D01*
X0092151Y0017545D01*
X0091551Y0017545D01*
X0091551Y0016945D01*
X0087598Y0016945D01*
X0087598Y0014515D01*
X0087687Y0014184D01*
X0087858Y0013888D01*
X0088100Y0013646D01*
X0088397Y0013474D01*
X0088727Y0013386D01*
X0091551Y0013386D01*
X0091551Y0016945D01*
X0092151Y0016945D01*
X0092151Y0013386D01*
X0094975Y0013386D01*
X0095306Y0013474D01*
X0095602Y0013646D01*
X0095844Y0013888D01*
X0096015Y0014184D01*
X0096104Y0014515D01*
X0096104Y0016945D01*
X0092151Y0016945D01*
X0092151Y0017545D01*
X0096104Y0017545D01*
X0096104Y0019975D01*
X0096015Y0020306D01*
X0095844Y0020602D01*
X0095602Y0020844D01*
X0096044Y0020200D02*
X0111281Y0020200D01*
X0111220Y0019601D02*
X0096104Y0019601D01*
X0096104Y0019003D02*
X0111220Y0019003D01*
X0111220Y0018404D02*
X0096104Y0018404D01*
X0096104Y0017806D02*
X0111220Y0017806D01*
X0111220Y0016609D02*
X0096104Y0016609D01*
X0096104Y0016010D02*
X0111220Y0016010D01*
X0111220Y0015412D02*
X0096104Y0015412D01*
X0096104Y0014813D02*
X0111220Y0014813D01*
X0111301Y0014215D02*
X0096024Y0014215D01*
X0095551Y0013616D02*
X0111773Y0013616D01*
X0115173Y0013616D02*
X0115773Y0013616D01*
X0115773Y0014215D02*
X0115173Y0014215D01*
X0115173Y0014813D02*
X0115773Y0014813D01*
X0115773Y0015412D02*
X0115173Y0015412D01*
X0115173Y0016010D02*
X0115773Y0016010D01*
X0115773Y0016609D02*
X0115173Y0016609D01*
X0115173Y0017207D02*
X0092151Y0017207D01*
X0092151Y0016609D02*
X0091551Y0016609D01*
X0091551Y0017207D02*
X0007537Y0017207D01*
X0007537Y0016609D02*
X0087598Y0016609D01*
X0087598Y0016010D02*
X0007537Y0016010D01*
X0007537Y0015412D02*
X0087598Y0015412D01*
X0087598Y0014813D02*
X0007537Y0014813D01*
X0007537Y0014215D02*
X0087679Y0014215D01*
X0088151Y0013616D02*
X0007537Y0013616D01*
X0007537Y0013018D02*
X0199787Y0013018D01*
X0199787Y0013616D02*
X0119173Y0013616D01*
X0119646Y0014215D02*
X0199787Y0014215D01*
X0199787Y0014813D02*
X0119726Y0014813D01*
X0119726Y0015412D02*
X0199787Y0015412D01*
X0199787Y0016010D02*
X0119726Y0016010D01*
X0119726Y0016609D02*
X0199787Y0016609D01*
X0199787Y0017207D02*
X0115773Y0017207D01*
X0115773Y0017545D02*
X0119726Y0017545D01*
X0119726Y0019975D01*
X0119637Y0020306D01*
X0119466Y0020602D01*
X0119224Y0020844D01*
X0118928Y0021015D01*
X0118597Y0021104D01*
X0115773Y0021104D01*
X0115773Y0017545D01*
X0115773Y0017806D02*
X0115173Y0017806D01*
X0115173Y0018404D02*
X0115773Y0018404D01*
X0115773Y0019003D02*
X0115173Y0019003D01*
X0115173Y0019601D02*
X0115773Y0019601D01*
X0115773Y0020200D02*
X0115173Y0020200D01*
X0115173Y0020798D02*
X0115773Y0020798D01*
X0115473Y0024725D02*
X0115473Y0032599D01*
X0114273Y0029177D02*
X0093051Y0029177D01*
X0093051Y0028579D02*
X0114273Y0028579D01*
X0116673Y0028579D02*
X0199787Y0028579D01*
X0199787Y0029177D02*
X0116673Y0029177D01*
X0118647Y0029776D02*
X0199787Y0029776D01*
X0199787Y0030374D02*
X0118735Y0030374D01*
X0118735Y0030973D02*
X0199787Y0030973D01*
X0199787Y0031572D02*
X0118735Y0031572D01*
X0118735Y0032170D02*
X0199787Y0032170D01*
X0199787Y0032769D02*
X0118735Y0032769D01*
X0118735Y0033367D02*
X0199787Y0033367D01*
X0199787Y0033966D02*
X0118735Y0033966D01*
X0118735Y0034564D02*
X0199787Y0034564D01*
X0199787Y0035163D02*
X0118735Y0035163D01*
X0118309Y0035761D02*
X0199787Y0035761D01*
X0199787Y0036360D02*
X0007537Y0036360D01*
X0007537Y0036958D02*
X0199787Y0036958D01*
X0199787Y0037557D02*
X0007537Y0037557D01*
X0007537Y0038155D02*
X0088589Y0038155D01*
X0088589Y0038754D02*
X0007537Y0038754D01*
X0007537Y0039352D02*
X0088589Y0039352D01*
X0088589Y0039951D02*
X0007537Y0039951D01*
X0007537Y0040549D02*
X0088589Y0040549D01*
X0088589Y0041148D02*
X0007537Y0041148D01*
X0007537Y0041746D02*
X0088589Y0041746D01*
X0088589Y0042345D02*
X0007537Y0042345D01*
X0007537Y0042943D02*
X0088589Y0042943D01*
X0088589Y0043542D02*
X0007537Y0043542D01*
X0007537Y0044140D02*
X0090737Y0044140D01*
X0090737Y0044739D02*
X0007537Y0044739D01*
X0007537Y0045337D02*
X0090737Y0045337D01*
X0090737Y0045936D02*
X0007537Y0045936D01*
X0007537Y0046534D02*
X0090737Y0046534D01*
X0090737Y0047133D02*
X0007537Y0047133D01*
X0007537Y0047731D02*
X0090737Y0047731D01*
X0090737Y0048330D02*
X0007537Y0048330D01*
X0007537Y0048928D02*
X0090737Y0048928D01*
X0090737Y0049527D02*
X0007537Y0049527D01*
X0007537Y0050125D02*
X0090737Y0050125D01*
X0090737Y0050724D02*
X0007537Y0050724D01*
X0007537Y0051322D02*
X0090737Y0051322D01*
X0090737Y0051921D02*
X0007537Y0051921D01*
X0007537Y0052519D02*
X0090737Y0052519D01*
X0090737Y0053118D02*
X0007537Y0053118D01*
X0007537Y0053716D02*
X0090737Y0053716D01*
X0090737Y0054315D02*
X0007537Y0054315D01*
X0007537Y0054913D02*
X0090737Y0054913D01*
X0090737Y0055512D02*
X0007537Y0055512D01*
X0007537Y0056110D02*
X0090737Y0056110D01*
X0090737Y0056709D02*
X0007537Y0056709D01*
X0007537Y0057307D02*
X0090737Y0057307D01*
X0090737Y0057906D02*
X0007537Y0057906D01*
X0007537Y0058505D02*
X0090737Y0058505D01*
X0090737Y0059103D02*
X0007537Y0059103D01*
X0007537Y0059702D02*
X0090737Y0059702D01*
X0090748Y0060300D02*
X0007537Y0060300D01*
X0007537Y0060899D02*
X0090748Y0060899D01*
X0090748Y0061497D02*
X0007537Y0061497D01*
X0007537Y0062096D02*
X0091117Y0062096D01*
X0089008Y0062694D02*
X0007537Y0062694D01*
X0007537Y0063293D02*
X0088757Y0063293D01*
X0088749Y0063891D02*
X0007537Y0063891D01*
X0007537Y0064490D02*
X0093198Y0064490D01*
X0093773Y0064490D02*
X0098848Y0064490D01*
X0098848Y0065088D02*
X0098221Y0065088D01*
X0098221Y0064954D02*
X0098221Y0066013D01*
X0098133Y0066343D01*
X0097962Y0066640D01*
X0097720Y0066882D01*
X0097423Y0067053D01*
X0097093Y0067142D01*
X0093773Y0067142D01*
X0093773Y0064954D01*
X0098221Y0064954D01*
X0098221Y0065687D02*
X0098908Y0065687D01*
X0099507Y0066285D02*
X0098148Y0066285D01*
X0097716Y0066884D02*
X0100105Y0066884D01*
X0098013Y0067482D02*
X0007537Y0067482D01*
X0007537Y0066884D02*
X0089254Y0066884D01*
X0088822Y0066285D02*
X0007537Y0066285D01*
X0007537Y0065687D02*
X0088749Y0065687D01*
X0088749Y0065088D02*
X0007537Y0065088D01*
X0007537Y0068081D02*
X0089187Y0068081D01*
X0089149Y0068679D02*
X0007537Y0068679D01*
X0007537Y0035761D02*
X0089016Y0035761D01*
X0088589Y0035163D02*
X0007537Y0035163D01*
X0007537Y0034564D02*
X0088589Y0034564D01*
X0088589Y0033966D02*
X0007537Y0033966D01*
X0007537Y0033367D02*
X0088589Y0033367D01*
X0088589Y0032769D02*
X0007537Y0032769D01*
X0007537Y0032170D02*
X0088589Y0032170D01*
X0088589Y0031572D02*
X0007537Y0031572D01*
X0007537Y0030973D02*
X0088589Y0030973D01*
X0088589Y0030374D02*
X0007537Y0030374D01*
X0007537Y0029776D02*
X0088677Y0029776D01*
X0088322Y0027980D02*
X0007537Y0027980D01*
X0007537Y0027382D02*
X0087998Y0027382D01*
X0087998Y0026783D02*
X0007537Y0026783D01*
X0007537Y0026185D02*
X0087998Y0026185D01*
X0087998Y0025586D02*
X0007537Y0025586D01*
X0007537Y0024988D02*
X0087998Y0024988D01*
X0087998Y0024389D02*
X0007537Y0024389D01*
X0007537Y0023791D02*
X0087998Y0023791D01*
X0087998Y0023192D02*
X0007537Y0023192D01*
X0007537Y0022594D02*
X0087998Y0022594D01*
X0087998Y0021995D02*
X0007537Y0021995D01*
X0007537Y0021397D02*
X0088395Y0021397D01*
X0088397Y0021015D02*
X0088100Y0020844D01*
X0087858Y0020602D01*
X0087687Y0020306D01*
X0087598Y0019975D01*
X0087598Y0017545D01*
X0091551Y0017545D01*
X0091551Y0021104D01*
X0088727Y0021104D01*
X0088397Y0021015D01*
X0088054Y0020798D02*
X0007537Y0020798D01*
X0007537Y0020200D02*
X0087659Y0020200D01*
X0087598Y0019601D02*
X0007537Y0019601D01*
X0007537Y0019003D02*
X0087598Y0019003D01*
X0087598Y0018404D02*
X0007537Y0018404D01*
X0007537Y0017806D02*
X0087598Y0017806D01*
X0091551Y0017806D02*
X0092151Y0017806D01*
X0092151Y0018404D02*
X0091551Y0018404D01*
X0091551Y0019003D02*
X0092151Y0019003D01*
X0092151Y0019601D02*
X0091551Y0019601D01*
X0091551Y0020200D02*
X0092151Y0020200D01*
X0092151Y0020798D02*
X0091551Y0020798D01*
X0091851Y0024725D02*
X0091851Y0032599D01*
X0090651Y0029177D02*
X0007537Y0029177D01*
X0007537Y0028579D02*
X0090651Y0028579D01*
X0091851Y0040867D02*
X0091937Y0040937D01*
X0091937Y0059537D01*
X0093137Y0060737D01*
X0093198Y0065088D02*
X0093773Y0065088D01*
X0093773Y0065687D02*
X0093198Y0065687D01*
X0093198Y0066285D02*
X0093773Y0066285D01*
X0093773Y0066884D02*
X0093198Y0066884D01*
X0097364Y0071672D02*
X0097693Y0071672D01*
X0099137Y0069737D02*
X0113837Y0069737D01*
X0113839Y0069666D01*
X0113839Y0064666D02*
X0113837Y0064637D01*
X0101237Y0064637D01*
X0099801Y0062694D02*
X0097963Y0062694D01*
X0098214Y0063293D02*
X0099203Y0063293D01*
X0098848Y0063891D02*
X0098221Y0063891D01*
X0090266Y0082445D02*
X0108939Y0082445D01*
X0108340Y0083043D02*
X0090865Y0083043D01*
X0091463Y0083642D02*
X0107742Y0083642D01*
X0107143Y0084241D02*
X0092062Y0084241D01*
X0092660Y0084839D02*
X0106545Y0084839D01*
X0109099Y0086635D02*
X0199787Y0086635D01*
X0199787Y0087233D02*
X0109099Y0087233D01*
X0109099Y0087832D02*
X0199787Y0087832D01*
X0199787Y0088430D02*
X0109099Y0088430D01*
X0109099Y0089029D02*
X0199787Y0089029D01*
X0199787Y0089627D02*
X0109099Y0089627D01*
X0109099Y0090226D02*
X0199787Y0090226D01*
X0199787Y0090824D02*
X0109099Y0090824D01*
X0109099Y0091423D02*
X0199787Y0091423D01*
X0199787Y0092021D02*
X0109099Y0092021D01*
X0109099Y0092620D02*
X0199787Y0092620D01*
X0199787Y0093218D02*
X0188981Y0093218D01*
X0188202Y0093218D02*
X0187602Y0093218D01*
X0187602Y0093817D02*
X0188202Y0093817D01*
X0188202Y0094415D02*
X0187602Y0094415D01*
X0187602Y0095014D02*
X0188202Y0095014D01*
X0188202Y0095612D02*
X0187602Y0095612D01*
X0187602Y0096211D02*
X0188202Y0096211D01*
X0188202Y0096809D02*
X0187602Y0096809D01*
X0187602Y0097408D02*
X0181002Y0097408D01*
X0181002Y0098006D02*
X0183411Y0098006D01*
X0183506Y0098605D02*
X0180924Y0098605D01*
X0180676Y0099203D02*
X0183692Y0099203D01*
X0183974Y0099802D02*
X0180428Y0099802D01*
X0179900Y0100400D02*
X0184375Y0100400D01*
X0184938Y0100999D02*
X0179796Y0100999D01*
X0181002Y0096809D02*
X0183471Y0096809D01*
X0183622Y0096211D02*
X0180765Y0096211D01*
X0180517Y0095612D02*
X0183864Y0095612D01*
X0184219Y0095014D02*
X0180115Y0095014D01*
X0179517Y0094415D02*
X0184722Y0094415D01*
X0185453Y0093817D02*
X0178484Y0093817D01*
X0175320Y0093817D02*
X0109099Y0093817D01*
X0109099Y0094415D02*
X0174288Y0094415D01*
X0173690Y0095014D02*
X0109099Y0095014D01*
X0109099Y0095612D02*
X0173288Y0095612D01*
X0173040Y0096211D02*
X0109099Y0096211D01*
X0109099Y0096809D02*
X0172802Y0096809D01*
X0172802Y0097408D02*
X0109099Y0097408D01*
X0109099Y0098006D02*
X0172802Y0098006D01*
X0172881Y0098605D02*
X0122203Y0098605D01*
X0122203Y0101597D02*
X0171600Y0101597D01*
X0172199Y0102196D02*
X0114726Y0102196D01*
X0114158Y0102794D02*
X0172797Y0102794D01*
X0173396Y0103393D02*
X0122044Y0103393D01*
X0122203Y0106385D02*
X0161088Y0106385D01*
X0161687Y0106984D02*
X0121866Y0106984D01*
X0121832Y0108181D02*
X0161848Y0108181D01*
X0161848Y0108779D02*
X0122203Y0108779D01*
X0122078Y0111772D02*
X0199787Y0111772D01*
X0199787Y0112371D02*
X0114482Y0112371D01*
X0114192Y0117159D02*
X0111056Y0117159D01*
X0110502Y0116560D02*
X0110457Y0116560D01*
X0109903Y0115962D02*
X0109859Y0115962D01*
X0109305Y0115363D02*
X0109260Y0115363D01*
X0108706Y0114765D02*
X0108662Y0114765D01*
X0108108Y0114166D02*
X0108063Y0114166D01*
X0107509Y0113568D02*
X0107465Y0113568D01*
X0106911Y0112969D02*
X0106866Y0112969D01*
X0106312Y0112371D02*
X0106268Y0112371D01*
X0106099Y0111772D02*
X0106037Y0111772D01*
X0106037Y0111174D02*
X0106099Y0111174D01*
X0106099Y0110575D02*
X0106037Y0110575D01*
X0106037Y0109976D02*
X0106099Y0109976D01*
X0106099Y0109378D02*
X0106037Y0109378D01*
X0106037Y0108779D02*
X0106099Y0108779D01*
X0106099Y0108181D02*
X0106037Y0108181D01*
X0106037Y0107582D02*
X0106099Y0107582D01*
X0106099Y0106984D02*
X0106037Y0106984D01*
X0106037Y0106385D02*
X0106099Y0106385D01*
X0106099Y0105787D02*
X0106037Y0105787D01*
X0106037Y0105188D02*
X0106099Y0105188D01*
X0106099Y0104590D02*
X0106037Y0104590D01*
X0106037Y0103991D02*
X0106099Y0103991D01*
X0106099Y0103393D02*
X0106037Y0103393D01*
X0106037Y0102794D02*
X0106099Y0102794D01*
X0106099Y0102196D02*
X0106037Y0102196D01*
X0106037Y0101597D02*
X0106099Y0101597D01*
X0106099Y0100999D02*
X0106037Y0100999D01*
X0106037Y0100400D02*
X0106099Y0100400D01*
X0106099Y0099802D02*
X0106037Y0099802D01*
X0106037Y0099203D02*
X0106099Y0099203D01*
X0106099Y0098605D02*
X0106037Y0098605D01*
X0106037Y0098006D02*
X0106099Y0098006D01*
X0106099Y0097408D02*
X0106037Y0097408D01*
X0106037Y0096809D02*
X0106099Y0096809D01*
X0106099Y0096211D02*
X0106037Y0096211D01*
X0106037Y0095612D02*
X0106099Y0095612D01*
X0106099Y0095014D02*
X0106037Y0095014D01*
X0106037Y0094415D02*
X0106099Y0094415D01*
X0106099Y0093817D02*
X0106037Y0093817D01*
X0106037Y0093218D02*
X0106099Y0093218D01*
X0106099Y0092620D02*
X0106037Y0092620D01*
X0106037Y0092021D02*
X0106099Y0092021D01*
X0104837Y0089537D02*
X0104837Y0112637D01*
X0113837Y0121637D01*
X0113837Y0135437D01*
X0113839Y0135532D01*
X0115037Y0133318D02*
X0141532Y0133318D01*
X0141532Y0132720D02*
X0115037Y0132720D01*
X0115037Y0132121D02*
X0141532Y0132121D01*
X0141213Y0131523D02*
X0115037Y0131523D01*
X0115037Y0130924D02*
X0140614Y0130924D01*
X0140016Y0130326D02*
X0115037Y0130326D01*
X0115037Y0129727D02*
X0139417Y0129727D01*
X0138819Y0129129D02*
X0115037Y0129129D01*
X0115037Y0128530D02*
X0138220Y0128530D01*
X0137622Y0127932D02*
X0115037Y0127932D01*
X0115037Y0127333D02*
X0137023Y0127333D01*
X0136425Y0126735D02*
X0115037Y0126735D01*
X0115037Y0126136D02*
X0135826Y0126136D01*
X0135227Y0125538D02*
X0115037Y0125538D01*
X0115037Y0124939D02*
X0134629Y0124939D01*
X0134030Y0124341D02*
X0115037Y0124341D01*
X0115037Y0123742D02*
X0133432Y0123742D01*
X0132833Y0123144D02*
X0115037Y0123144D01*
X0115037Y0122545D02*
X0132235Y0122545D01*
X0131636Y0121947D02*
X0115037Y0121947D01*
X0115037Y0121348D02*
X0131038Y0121348D01*
X0130439Y0120750D02*
X0114647Y0120750D01*
X0114048Y0120151D02*
X0129841Y0120151D01*
X0129242Y0119553D02*
X0113450Y0119553D01*
X0112851Y0118954D02*
X0128644Y0118954D01*
X0128045Y0118356D02*
X0112253Y0118356D01*
X0111654Y0117757D02*
X0127447Y0117757D01*
X0126848Y0117159D02*
X0121691Y0117159D01*
X0122203Y0113568D02*
X0175922Y0113568D01*
X0174537Y0114166D02*
X0128098Y0114166D01*
X0128697Y0114765D02*
X0173939Y0114765D01*
X0173391Y0115363D02*
X0129295Y0115363D01*
X0129894Y0115962D02*
X0173143Y0115962D01*
X0172895Y0116560D02*
X0130492Y0116560D01*
X0131091Y0117159D02*
X0172802Y0117159D01*
X0172802Y0117757D02*
X0131689Y0117757D01*
X0132288Y0118356D02*
X0172802Y0118356D01*
X0173026Y0118954D02*
X0132887Y0118954D01*
X0133485Y0119553D02*
X0173274Y0119553D01*
X0173656Y0120151D02*
X0134084Y0120151D01*
X0134682Y0120750D02*
X0174255Y0120750D01*
X0175239Y0121348D02*
X0135281Y0121348D01*
X0135879Y0121947D02*
X0181434Y0121947D01*
X0180835Y0122545D02*
X0136478Y0122545D01*
X0141532Y0133917D02*
X0118108Y0133917D01*
X0118175Y0134515D02*
X0141532Y0134515D01*
X0141532Y0135114D02*
X0118175Y0135114D01*
X0118175Y0135712D02*
X0141532Y0135712D01*
X0123234Y0142296D02*
X0117959Y0142296D01*
X0118175Y0151274D02*
X0199787Y0151274D01*
X0199787Y0151872D02*
X0118175Y0151872D01*
X0117785Y0152471D02*
X0199787Y0152471D01*
X0199787Y0153069D02*
X0115639Y0153069D01*
X0115639Y0153668D02*
X0199787Y0153668D01*
X0199787Y0154266D02*
X0115639Y0154266D01*
X0115639Y0154865D02*
X0199787Y0154865D01*
X0199787Y0155463D02*
X0115639Y0155463D01*
X0115639Y0156062D02*
X0199787Y0156062D01*
X0199787Y0156660D02*
X0115639Y0156660D01*
X0115406Y0157259D02*
X0199787Y0157259D01*
X0199787Y0157857D02*
X0114808Y0157857D01*
X0114209Y0158456D02*
X0199787Y0158456D01*
X0199787Y0159054D02*
X0113611Y0159054D01*
X0113012Y0159653D02*
X0199787Y0159653D01*
X0199787Y0160251D02*
X0112414Y0160251D01*
X0111815Y0160850D02*
X0199787Y0160850D01*
X0199787Y0161448D02*
X0111217Y0161448D01*
X0110861Y0162047D02*
X0199787Y0162047D01*
X0199787Y0162645D02*
X0110861Y0162645D01*
X0110861Y0163244D02*
X0199787Y0163244D01*
X0199787Y0163843D02*
X0110861Y0163843D01*
X0110861Y0164441D02*
X0199787Y0164441D01*
X0199787Y0165040D02*
X0110861Y0165040D01*
X0110861Y0165638D02*
X0199787Y0165638D01*
X0199787Y0166237D02*
X0110668Y0166237D01*
X0109118Y0158456D02*
X0098206Y0158456D01*
X0097608Y0157857D02*
X0109717Y0157857D01*
X0110315Y0157259D02*
X0097009Y0157259D01*
X0096411Y0156660D02*
X0110914Y0156660D01*
X0111512Y0156062D02*
X0095812Y0156062D01*
X0095285Y0155463D02*
X0112039Y0155463D01*
X0112039Y0154865D02*
X0095285Y0154865D01*
X0095285Y0154266D02*
X0112039Y0154266D01*
X0112039Y0153668D02*
X0095285Y0153668D01*
X0095285Y0153069D02*
X0112039Y0153069D01*
X0109893Y0152471D02*
X0097431Y0152471D01*
X0097821Y0151872D02*
X0109503Y0151872D01*
X0109503Y0151274D02*
X0097821Y0151274D01*
X0097821Y0150675D02*
X0109503Y0150675D01*
X0109503Y0150077D02*
X0097821Y0150077D01*
X0097821Y0149478D02*
X0109503Y0149478D01*
X0109607Y0148880D02*
X0097717Y0148880D01*
X0098221Y0144690D02*
X0109503Y0144690D01*
X0109503Y0144092D02*
X0098196Y0144092D01*
X0097896Y0143493D02*
X0109994Y0143493D01*
X0109719Y0142296D02*
X0097606Y0142296D01*
X0097821Y0141698D02*
X0109503Y0141698D01*
X0109503Y0141099D02*
X0097821Y0141099D01*
X0097821Y0140501D02*
X0109503Y0140501D01*
X0109503Y0139902D02*
X0097821Y0139902D01*
X0097821Y0139304D02*
X0109503Y0139304D01*
X0109782Y0138705D02*
X0097542Y0138705D01*
X0097394Y0137508D02*
X0109930Y0137508D01*
X0109503Y0136909D02*
X0097821Y0136909D01*
X0097821Y0136311D02*
X0109503Y0136311D01*
X0109503Y0135712D02*
X0097821Y0135712D01*
X0097821Y0135114D02*
X0109503Y0135114D01*
X0109503Y0134515D02*
X0097821Y0134515D01*
X0097754Y0133917D02*
X0109570Y0133917D01*
X0112637Y0133318D02*
X0067815Y0133318D01*
X0067217Y0132720D02*
X0112637Y0132720D01*
X0112637Y0132121D02*
X0066618Y0132121D01*
X0066020Y0131523D02*
X0112637Y0131523D01*
X0112637Y0130924D02*
X0065421Y0130924D01*
X0064823Y0130326D02*
X0112637Y0130326D01*
X0112637Y0129727D02*
X0064224Y0129727D01*
X0063626Y0129129D02*
X0112637Y0129129D01*
X0112637Y0128530D02*
X0063027Y0128530D01*
X0062429Y0127932D02*
X0112637Y0127932D01*
X0112637Y0127333D02*
X0061830Y0127333D01*
X0061232Y0126735D02*
X0112637Y0126735D01*
X0112637Y0126136D02*
X0060633Y0126136D01*
X0060035Y0125538D02*
X0112637Y0125538D01*
X0112637Y0124939D02*
X0059436Y0124939D01*
X0058838Y0124341D02*
X0112637Y0124341D01*
X0112637Y0123742D02*
X0058239Y0123742D01*
X0057641Y0123144D02*
X0112637Y0123144D01*
X0112637Y0122545D02*
X0057042Y0122545D01*
X0056444Y0121947D02*
X0112450Y0121947D01*
X0111851Y0121348D02*
X0055845Y0121348D01*
X0055247Y0120750D02*
X0111253Y0120750D01*
X0110654Y0120151D02*
X0054648Y0120151D01*
X0054050Y0119553D02*
X0110056Y0119553D01*
X0109457Y0118954D02*
X0053451Y0118954D01*
X0052853Y0118356D02*
X0108859Y0118356D01*
X0108260Y0117757D02*
X0050807Y0117757D01*
X0050807Y0117159D02*
X0085633Y0117159D01*
X0085122Y0116560D02*
X0050807Y0116560D01*
X0050807Y0115962D02*
X0085122Y0115962D01*
X0085122Y0115363D02*
X0050807Y0115363D01*
X0050807Y0114765D02*
X0085122Y0114765D01*
X0085122Y0114166D02*
X0050807Y0114166D01*
X0050807Y0113568D02*
X0085122Y0113568D01*
X0085246Y0111772D02*
X0050807Y0111772D01*
X0050807Y0111174D02*
X0085122Y0111174D01*
X0085122Y0110575D02*
X0050807Y0110575D01*
X0051797Y0109976D02*
X0085122Y0109976D01*
X0085122Y0109378D02*
X0052407Y0109378D01*
X0052951Y0108779D02*
X0085122Y0108779D01*
X0085072Y0108181D02*
X0085492Y0108181D01*
X0085670Y0107582D02*
X0094695Y0107582D01*
X0095293Y0106984D02*
X0093307Y0106984D01*
X0093643Y0106385D02*
X0095892Y0106385D01*
X0096490Y0105787D02*
X0094484Y0105787D01*
X0095083Y0105188D02*
X0097089Y0105188D01*
X0097687Y0104590D02*
X0095681Y0104590D01*
X0093737Y0104837D02*
X0096437Y0102137D01*
X0098826Y0102196D02*
X0099148Y0102196D01*
X0099148Y0102794D02*
X0098826Y0102794D01*
X0098884Y0103393D02*
X0098560Y0103393D01*
X0098286Y0103991D02*
X0097961Y0103991D01*
X0098826Y0101597D02*
X0099148Y0101597D01*
X0099597Y0100999D02*
X0098677Y0100999D01*
X0098079Y0100400D02*
X0100195Y0100400D01*
X0101537Y0102437D02*
X0093737Y0110237D01*
X0089537Y0110237D01*
X0089383Y0110099D01*
X0093273Y0108181D02*
X0094096Y0108181D01*
X0095695Y0109976D02*
X0103637Y0109976D01*
X0103637Y0109378D02*
X0096293Y0109378D01*
X0096892Y0108779D02*
X0103637Y0108779D01*
X0103637Y0108181D02*
X0097490Y0108181D01*
X0098089Y0107582D02*
X0103637Y0107582D01*
X0103637Y0106984D02*
X0098687Y0106984D01*
X0099286Y0106385D02*
X0103637Y0106385D01*
X0103637Y0105787D02*
X0099884Y0105787D01*
X0100483Y0105188D02*
X0103637Y0105188D01*
X0103637Y0104590D02*
X0102763Y0104590D01*
X0103361Y0103991D02*
X0103637Y0103991D01*
X0103637Y0100999D02*
X0103477Y0100999D01*
X0103637Y0100400D02*
X0102879Y0100400D01*
X0103637Y0099802D02*
X0097480Y0099802D01*
X0093737Y0104837D02*
X0089537Y0104837D01*
X0089383Y0105099D01*
X0089095Y0102196D02*
X0089670Y0102196D01*
X0089670Y0101597D02*
X0089095Y0101597D01*
X0089095Y0100999D02*
X0089670Y0100999D01*
X0089670Y0100400D02*
X0089095Y0100400D01*
X0089095Y0099802D02*
X0089670Y0099802D01*
X0089670Y0099203D02*
X0089095Y0099203D01*
X0089095Y0098605D02*
X0089670Y0098605D01*
X0089670Y0098006D02*
X0089095Y0098006D01*
X0085615Y0093218D02*
X0103637Y0093218D01*
X0103637Y0092620D02*
X0085017Y0092620D01*
X0084418Y0092021D02*
X0103637Y0092021D01*
X0103344Y0091423D02*
X0083820Y0091423D01*
X0083221Y0090824D02*
X0102746Y0090824D01*
X0102448Y0090226D02*
X0082623Y0090226D01*
X0082024Y0089627D02*
X0102448Y0089627D01*
X0102448Y0089029D02*
X0081426Y0089029D01*
X0080827Y0088430D02*
X0102565Y0088430D01*
X0109590Y0086036D02*
X0199787Y0086036D01*
X0199787Y0085438D02*
X0110189Y0085438D01*
X0110787Y0084839D02*
X0199787Y0084839D01*
X0199787Y0084241D02*
X0111386Y0084241D01*
X0111984Y0083642D02*
X0199787Y0083642D01*
X0199787Y0083043D02*
X0112583Y0083043D01*
X0113181Y0082445D02*
X0199787Y0082445D01*
X0199787Y0081846D02*
X0113780Y0081846D01*
X0118141Y0081248D02*
X0199787Y0081248D01*
X0199787Y0080649D02*
X0118175Y0080649D01*
X0118175Y0080051D02*
X0199787Y0080051D01*
X0199787Y0079452D02*
X0118175Y0079452D01*
X0118175Y0078854D02*
X0199787Y0078854D01*
X0199787Y0078255D02*
X0118175Y0078255D01*
X0117714Y0077657D02*
X0199787Y0077657D01*
X0199787Y0071073D02*
X0118175Y0071073D01*
X0118175Y0070475D02*
X0199787Y0070475D01*
X0199787Y0069876D02*
X0118175Y0069876D01*
X0118175Y0069278D02*
X0199787Y0069278D01*
X0199787Y0068679D02*
X0118175Y0068679D01*
X0118138Y0068081D02*
X0199787Y0068081D01*
X0199787Y0066285D02*
X0118104Y0066285D01*
X0118175Y0065687D02*
X0199787Y0065687D01*
X0199787Y0065088D02*
X0118175Y0065088D01*
X0118175Y0064490D02*
X0199787Y0064490D01*
X0199787Y0063891D02*
X0118175Y0063891D01*
X0118175Y0063293D02*
X0199787Y0063293D01*
X0199787Y0062694D02*
X0117751Y0062694D01*
X0118026Y0062096D02*
X0199787Y0062096D01*
X0199787Y0061497D02*
X0118026Y0061497D01*
X0118026Y0060899D02*
X0199787Y0060899D01*
X0199787Y0060300D02*
X0117979Y0060300D01*
X0117380Y0059702D02*
X0199787Y0059702D01*
X0199787Y0059103D02*
X0116837Y0059103D01*
X0116837Y0058505D02*
X0199787Y0058505D01*
X0199787Y0057906D02*
X0116837Y0057906D01*
X0116837Y0057307D02*
X0199787Y0057307D01*
X0199787Y0056709D02*
X0116837Y0056709D01*
X0116837Y0056110D02*
X0199787Y0056110D01*
X0199787Y0055512D02*
X0116837Y0055512D01*
X0116837Y0054913D02*
X0199787Y0054913D01*
X0199787Y0054315D02*
X0116837Y0054315D01*
X0116837Y0053716D02*
X0199787Y0053716D01*
X0199787Y0053118D02*
X0116837Y0053118D01*
X0116837Y0052519D02*
X0199787Y0052519D01*
X0199787Y0051921D02*
X0116837Y0051921D01*
X0116837Y0051322D02*
X0199787Y0051322D01*
X0199787Y0050724D02*
X0116837Y0050724D01*
X0116837Y0050125D02*
X0199787Y0050125D01*
X0199787Y0049527D02*
X0116837Y0049527D01*
X0116837Y0048928D02*
X0199787Y0048928D01*
X0199787Y0048330D02*
X0116837Y0048330D01*
X0116837Y0047731D02*
X0199787Y0047731D01*
X0199787Y0047133D02*
X0116837Y0047133D01*
X0116837Y0046534D02*
X0199787Y0046534D01*
X0199787Y0045936D02*
X0116837Y0045936D01*
X0116837Y0045337D02*
X0199787Y0045337D01*
X0199787Y0044739D02*
X0116837Y0044739D01*
X0116837Y0044140D02*
X0199787Y0044140D01*
X0199787Y0043542D02*
X0118735Y0043542D01*
X0118735Y0042943D02*
X0199787Y0042943D01*
X0199787Y0042345D02*
X0118735Y0042345D01*
X0118735Y0041746D02*
X0199787Y0041746D01*
X0199787Y0041148D02*
X0118735Y0041148D01*
X0118735Y0040549D02*
X0199787Y0040549D01*
X0199787Y0039951D02*
X0118735Y0039951D01*
X0118735Y0039352D02*
X0199787Y0039352D01*
X0199787Y0038754D02*
X0118735Y0038754D01*
X0118735Y0038155D02*
X0199787Y0038155D01*
X0199787Y0027980D02*
X0119003Y0027980D01*
X0119326Y0027382D02*
X0199787Y0027382D01*
X0199787Y0026783D02*
X0119326Y0026783D01*
X0119326Y0026185D02*
X0199787Y0026185D01*
X0199787Y0025586D02*
X0119326Y0025586D01*
X0119326Y0024988D02*
X0199787Y0024988D01*
X0199787Y0024389D02*
X0119326Y0024389D01*
X0119326Y0023791D02*
X0199787Y0023791D01*
X0199787Y0023192D02*
X0119326Y0023192D01*
X0119326Y0022594D02*
X0199787Y0022594D01*
X0199787Y0021995D02*
X0119326Y0021995D01*
X0118929Y0021397D02*
X0199787Y0021397D01*
X0199787Y0020798D02*
X0119270Y0020798D01*
X0119666Y0020200D02*
X0199787Y0020200D01*
X0199787Y0019601D02*
X0119726Y0019601D01*
X0119726Y0019003D02*
X0199787Y0019003D01*
X0199787Y0018404D02*
X0119726Y0018404D01*
X0119726Y0017806D02*
X0199787Y0017806D01*
X0199787Y0012419D02*
X0007537Y0012419D01*
X0007537Y0011821D02*
X0199787Y0011821D01*
X0199787Y0011222D02*
X0007537Y0011222D01*
X0007537Y0010624D02*
X0199787Y0010624D01*
X0199787Y0010025D02*
X0007537Y0010025D01*
X0007537Y0009427D02*
X0199787Y0009427D01*
X0199787Y0008828D02*
X0007537Y0008828D01*
X0007537Y0008230D02*
X0199787Y0008230D01*
X0199787Y0007631D02*
X0007537Y0007631D01*
X0044310Y0087832D02*
X0044904Y0087832D01*
X0047607Y0091851D02*
X0049607Y0089851D01*
X0049607Y0088337D01*
X0050807Y0089627D02*
X0078630Y0089627D01*
X0079229Y0090226D02*
X0050807Y0090226D01*
X0050807Y0090824D02*
X0079827Y0090824D01*
X0080426Y0091423D02*
X0050807Y0091423D01*
X0050807Y0092021D02*
X0081024Y0092021D01*
X0081623Y0092620D02*
X0050807Y0092620D01*
X0050807Y0093218D02*
X0082221Y0093218D01*
X0082820Y0093817D02*
X0050807Y0093817D01*
X0050807Y0094415D02*
X0083418Y0094415D01*
X0084017Y0095014D02*
X0050807Y0095014D01*
X0048718Y0096809D02*
X0040496Y0096809D01*
X0041868Y0097408D02*
X0047346Y0097408D01*
X0046748Y0098006D02*
X0042467Y0098006D01*
X0042976Y0098605D02*
X0046238Y0098605D01*
X0045990Y0099203D02*
X0043224Y0099203D01*
X0043472Y0099802D02*
X0045742Y0099802D01*
X0045707Y0100400D02*
X0043507Y0100400D01*
X0043507Y0100999D02*
X0045707Y0100999D01*
X0045707Y0101597D02*
X0043507Y0101597D01*
X0043507Y0102196D02*
X0045707Y0102196D01*
X0045707Y0102794D02*
X0043507Y0102794D01*
X0043507Y0103393D02*
X0045707Y0103393D01*
X0045707Y0103991D02*
X0043507Y0103991D01*
X0043507Y0104590D02*
X0045707Y0104590D01*
X0045707Y0105188D02*
X0043507Y0105188D01*
X0043507Y0105787D02*
X0045707Y0105787D01*
X0045707Y0106385D02*
X0043507Y0106385D01*
X0043507Y0106984D02*
X0045707Y0106984D01*
X0045767Y0107582D02*
X0043447Y0107582D01*
X0043199Y0108181D02*
X0046015Y0108181D01*
X0046263Y0108779D02*
X0042951Y0108779D01*
X0042407Y0109378D02*
X0046807Y0109378D01*
X0047417Y0109976D02*
X0041797Y0109976D01*
X0040807Y0110575D02*
X0048407Y0110575D01*
X0048407Y0111174D02*
X0040807Y0111174D01*
X0041356Y0119553D02*
X0018737Y0119553D01*
X0018737Y0120151D02*
X0041954Y0120151D01*
X0042553Y0120750D02*
X0041265Y0120750D01*
X0042186Y0121348D02*
X0043151Y0121348D01*
X0042785Y0121947D02*
X0046429Y0121947D01*
X0046106Y0122545D02*
X0043108Y0122545D01*
X0043356Y0123144D02*
X0045858Y0123144D01*
X0045707Y0123742D02*
X0043507Y0123742D01*
X0043507Y0124341D02*
X0045707Y0124341D01*
X0045707Y0124939D02*
X0043507Y0124939D01*
X0043507Y0125538D02*
X0045707Y0125538D01*
X0045707Y0126136D02*
X0043507Y0126136D01*
X0043507Y0126735D02*
X0045707Y0126735D01*
X0045707Y0127333D02*
X0043507Y0127333D01*
X0043507Y0127932D02*
X0045707Y0127932D01*
X0045707Y0128530D02*
X0043507Y0128530D01*
X0043507Y0129129D02*
X0045707Y0129129D01*
X0045707Y0129727D02*
X0043507Y0129727D01*
X0043507Y0130326D02*
X0045707Y0130326D01*
X0045707Y0130924D02*
X0043507Y0130924D01*
X0043315Y0131523D02*
X0045899Y0131523D01*
X0046147Y0132121D02*
X0043067Y0132121D01*
X0042687Y0132720D02*
X0046527Y0132720D01*
X0047126Y0133318D02*
X0042088Y0133318D01*
X0041028Y0133917D02*
X0048186Y0133917D01*
X0048407Y0134515D02*
X0040807Y0134515D01*
X0044349Y0135114D02*
X0044866Y0135114D01*
X0047607Y0139095D02*
X0049607Y0137095D01*
X0049607Y0127284D01*
X0047028Y0121348D02*
X0046823Y0121348D01*
X0047421Y0120750D02*
X0047949Y0120750D01*
X0050537Y0119537D02*
X0050837Y0119237D01*
X0052037Y0119237D01*
X0068537Y0135737D01*
X0093437Y0135737D01*
X0093485Y0135532D01*
X0089149Y0134515D02*
X0069013Y0134515D01*
X0068414Y0133917D02*
X0089217Y0133917D01*
X0089149Y0139304D02*
X0050807Y0139304D01*
X0050807Y0139902D02*
X0053675Y0139902D01*
X0053076Y0140501D02*
X0050807Y0140501D01*
X0050807Y0141099D02*
X0052478Y0141099D01*
X0051879Y0141698D02*
X0050807Y0141698D01*
X0050807Y0142296D02*
X0051281Y0142296D01*
X0050682Y0142895D02*
X0050531Y0142895D01*
X0051682Y0145289D02*
X0093198Y0145289D01*
X0093198Y0145887D02*
X0093773Y0145887D01*
X0093773Y0146486D02*
X0093198Y0146486D01*
X0093198Y0147084D02*
X0093773Y0147084D01*
X0093773Y0147683D02*
X0093198Y0147683D01*
X0089186Y0147683D02*
X0007537Y0147683D01*
X0007537Y0147084D02*
X0088804Y0147084D01*
X0088749Y0146486D02*
X0007537Y0146486D01*
X0027870Y0130924D02*
X0035707Y0130924D01*
X0035707Y0130326D02*
X0028184Y0130326D01*
X0028184Y0129727D02*
X0035707Y0129727D01*
X0035707Y0129129D02*
X0028184Y0129129D01*
X0028184Y0128530D02*
X0035707Y0128530D01*
X0035707Y0125538D02*
X0028184Y0125538D01*
X0028184Y0124939D02*
X0035707Y0124939D01*
X0035707Y0124341D02*
X0028184Y0124341D01*
X0027968Y0123742D02*
X0035707Y0123742D01*
X0047607Y0115473D02*
X0049607Y0113473D01*
X0049607Y0103662D01*
X0049637Y0106037D01*
X0083837Y0106037D01*
X0082004Y0107582D02*
X0053447Y0107582D01*
X0053199Y0108181D02*
X0082602Y0108181D01*
X0081906Y0104590D02*
X0053507Y0104590D01*
X0053507Y0103991D02*
X0082504Y0103991D01*
X0085280Y0103393D02*
X0053507Y0103393D01*
X0050807Y0112371D02*
X0103637Y0112371D01*
X0103637Y0111772D02*
X0093519Y0111772D01*
X0094498Y0111174D02*
X0103637Y0111174D01*
X0103637Y0110575D02*
X0095096Y0110575D01*
X0093643Y0113568D02*
X0102328Y0113568D01*
X0102926Y0112969D02*
X0050807Y0112969D01*
X0044645Y0095612D02*
X0044569Y0095612D01*
X0044531Y0142895D02*
X0044684Y0142895D01*
X0054675Y0142296D02*
X0089365Y0142296D01*
X0103044Y0159054D02*
X0104281Y0159054D01*
X0103943Y0159653D02*
X0103381Y0159653D01*
X0103381Y0160251D02*
X0103943Y0160251D01*
X0103943Y0160850D02*
X0103381Y0160850D01*
X0103381Y0161448D02*
X0103943Y0161448D01*
X0103943Y0162047D02*
X0103381Y0162047D01*
X0103381Y0162645D02*
X0103943Y0162645D01*
X0103943Y0163244D02*
X0103381Y0163244D01*
X0103381Y0163843D02*
X0103943Y0163843D01*
X0103943Y0164441D02*
X0103381Y0164441D01*
X0103381Y0165040D02*
X0103943Y0165040D01*
X0103943Y0165638D02*
X0103381Y0165638D01*
X0103187Y0166237D02*
X0104137Y0166237D01*
X0105494Y0117159D02*
X0107662Y0117159D01*
X0107063Y0116560D02*
X0106092Y0116560D01*
X0106326Y0115962D02*
X0106465Y0115962D01*
X0103937Y0115337D02*
X0089537Y0115337D01*
X0089383Y0115099D01*
X0093132Y0117159D02*
X0102380Y0117159D01*
X0101782Y0116560D02*
X0093643Y0116560D01*
X0109099Y0110575D02*
X0109948Y0110575D01*
X0109948Y0111174D02*
X0109358Y0111174D01*
X0109099Y0109976D02*
X0110119Y0109976D01*
X0110718Y0109378D02*
X0109099Y0109378D01*
X0112337Y0106037D02*
X0112937Y0105437D01*
X0118037Y0105437D01*
X0117942Y0105099D01*
X0118037Y0105137D01*
X0161537Y0105137D01*
X0172600Y0099203D02*
X0173129Y0099203D01*
X0173199Y0099802D02*
X0173377Y0099802D01*
X0173797Y0100400D02*
X0173905Y0100400D01*
X0174396Y0100999D02*
X0174504Y0100999D01*
X0177883Y0113568D02*
X0186922Y0113568D01*
X0188202Y0102099D02*
X0188257Y0102099D01*
X0188956Y0101988D01*
X0189630Y0101770D01*
X0190261Y0101448D01*
X0190834Y0101032D01*
X0191335Y0100531D01*
X0191751Y0099958D01*
X0192073Y0099327D01*
X0192292Y0098653D01*
X0192402Y0097953D01*
X0192402Y0097899D01*
X0188202Y0097899D01*
X0188202Y0102099D01*
X0188202Y0101597D02*
X0187602Y0101597D01*
X0187602Y0100999D02*
X0188202Y0100999D01*
X0188202Y0100400D02*
X0187602Y0100400D01*
X0187602Y0099802D02*
X0188202Y0099802D01*
X0188202Y0099203D02*
X0187602Y0099203D01*
X0187602Y0098605D02*
X0188202Y0098605D01*
X0188202Y0098006D02*
X0187602Y0098006D01*
X0188202Y0097408D02*
X0199787Y0097408D01*
X0199787Y0098006D02*
X0192394Y0098006D01*
X0192299Y0098605D02*
X0199787Y0098605D01*
X0199787Y0099203D02*
X0192113Y0099203D01*
X0191831Y0099802D02*
X0199787Y0099802D01*
X0199787Y0100400D02*
X0191430Y0100400D01*
X0190867Y0100999D02*
X0199787Y0100999D01*
X0199787Y0101597D02*
X0189968Y0101597D01*
X0192333Y0096809D02*
X0199787Y0096809D01*
X0199787Y0096211D02*
X0192183Y0096211D01*
X0191940Y0095612D02*
X0199787Y0095612D01*
X0199787Y0095014D02*
X0191586Y0095014D01*
X0191082Y0094415D02*
X0199787Y0094415D01*
X0199787Y0093817D02*
X0190352Y0093817D01*
X0186823Y0093218D02*
X0109099Y0093218D01*
X0113537Y0100037D02*
X0112337Y0101237D01*
X0113560Y0103393D02*
X0113839Y0103393D01*
X0113681Y0103991D02*
X0113670Y0103991D01*
X0091410Y0087832D02*
X0080229Y0087832D01*
X0079630Y0087233D02*
X0090812Y0087233D01*
X0115637Y0061337D02*
X0115637Y0040937D01*
X0115473Y0040867D01*
X0092151Y0016010D02*
X0091551Y0016010D01*
X0091551Y0015412D02*
X0092151Y0015412D01*
X0092151Y0014813D02*
X0091551Y0014813D01*
X0091551Y0014215D02*
X0092151Y0014215D01*
X0092151Y0013616D02*
X0091551Y0013616D01*
M02*
